<?xml version="1.0" encoding="UTF-8"?>
<svg xmlns="http://www.w3.org/2000/svg" width="34px" height="34px" viewBox="0 0 34 34" version="1.1">
  <g id="surface1" fill="inherit" stroke="currentColor">
    <path style="fill-rule:nonzero;stroke-width:1;stroke-linecap:round;stroke-linejoin:round;stroke-miterlimit:4;" d="M 477.176471 174.411765 C 486 160.705882 491.117647 144.411765 491.117647 126.941176 C 491.117647 78.352941 451.647059 38.882353 403.058824 38.882353 C 370.235294 38.882353 341.588235 56.941176 326.411765 83.705882 C 303.647059 78.647059 280.058824 76.117647 256 76.117647 C 232 76.117647 208.352941 78.647059 185.588235 83.647059 C 170.411765 56.941176 141.764706 38.882353 108.941176 38.882353 C 60.352941 38.882353 20.882353 78.352941 20.882353 126.941176 C 20.882353 144.411765 26 160.705882 34.823529 174.411765 C 12 204.647059 0 239 0 274.588235 C 0 328.470588 27.176471 378.823529 76.588235 416.352941 C 124.705882 452.941176 188.411765 473.117647 256 473.117647 C 323.588235 473.117647 387.294118 452.941176 435.411765 416.352941 C 484.823529 378.823529 512 328.470588 512 274.588235 C 512 239 500 204.647059 477.176471 174.411765 Z M 403.058824 70.235294 C 434.352941 70.235294 459.764706 95.647059 459.764706 126.941176 C 459.764706 158.176471 434.352941 183.647059 403.058824 183.647059 C 371.823529 183.647059 346.352941 158.176471 346.352941 126.941176 C 346.352941 95.647059 371.823529 70.235294 403.058824 70.235294 Z M 108.941176 70.235294 C 140.176471 70.235294 165.647059 95.647059 165.647059 126.941176 C 165.647059 158.176471 140.176471 183.647059 108.941176 183.647059 C 77.647059 183.647059 52.235294 158.176471 52.235294 126.941176 C 52.235294 95.647059 77.647059 70.235294 108.941176 70.235294 Z M 56.647059 197.705882 C 71.235294 208.529412 89.352941 215 108.941176 215 C 157.470588 215 197 175.470588 197 126.941176 C 197 122.352941 196.647059 117.882353 195.941176 113.529412 C 215.411765 109.470588 235.529412 107.411765 256 107.411765 C 276.529412 107.411765 296.588235 109.470588 316.058824 113.529412 C 315.352941 117.882353 315 122.352941 315 126.941176 C 315 175.470588 354.529412 215 403.058824 215 C 422.647059 215 440.764706 208.529412 455.352941 197.705882 C 470.529412 219.352941 479.058824 243.117647 480.470588 267.647059 C 456.647059 287.705882 431.058824 301.764706 400.529412 311.588235 C 362.294118 323.823529 315 329.823529 256 329.823529 C 197 329.823529 149.705882 323.823529 111.529412 311.588235 C 80.941176 301.764706 55.352941 287.705882 31.529412 267.647059 C 32.941176 243.117647 41.470588 219.352941 56.647059 197.705882 Z M 256 441.764706 C 148.647059 441.764706 58.705882 385.470588 36.588235 310.470588 C 56.470588 323.588235 77.823529 333.647059 101.882353 341.411765 C 143.235294 354.705882 193.647059 361.176471 256 361.176471 C 318.352941 361.176471 368.764706 354.705882 410.117647 341.411765 C 434.176471 333.647059 455.529412 323.588235 475.411765 310.470588 C 453.294118 385.470588 363.352941 441.764706 256 441.764706 Z M 256 441.764706 " transform="matrix(0.0664062,0,0,0.0664062,0,0)"/>
    <path style="fill-rule:nonzero;stroke-width:1;stroke-linecap:round;stroke-linejoin:round;stroke-miterlimit:4;" d="M 108.941176 105.941176 C 97.470588 105.941176 88.176471 115.352941 88.176471 126.941176 C 88.176471 138.529412 97.470588 147.941176 108.941176 147.941176 C 120.352941 147.941176 129.647059 138.529412 129.647059 126.941176 C 129.647059 115.352941 120.352941 105.941176 108.941176 105.941176 Z M 108.941176 105.941176 " transform="matrix(0.0664062,0,0,0.0664062,0,0)"/>
    <path style="fill-rule:nonzero;stroke-width:1;stroke-linecap:round;stroke-linejoin:round;stroke-miterlimit:4;" d="M 403.058824 105.941176 C 391.647059 105.941176 382.352941 115.352941 382.352941 126.941176 C 382.352941 138.529412 391.647059 147.941176 403.058824 147.941176 C 414.529412 147.941176 423.823529 138.529412 423.823529 126.941176 C 423.823529 115.352941 414.529412 105.941176 403.058824 105.941176 Z M 403.058824 105.941176 " transform="matrix(0.0664062,0,0,0.0664062,0,0)"/>
    <path style="fill-rule:nonzero;stroke-width:1;stroke-linecap:round;stroke-linejoin:round;stroke-miterlimit:4;" d="M 219.823529 256.647059 C 210.058824 256.647059 202.117647 264.647059 202.117647 274.588235 C 202.117647 284.529412 210.058824 292.588235 219.823529 292.588235 C 229.647059 292.588235 237.647059 284.529412 237.647059 274.588235 C 237.647059 264.647059 229.647059 256.647059 219.823529 256.647059 Z M 219.823529 256.647059 " transform="matrix(0.0664062,0,0,0.0664062,0,0)"/>
    <path style="fill-rule:nonzero;stroke-width:1;stroke-linecap:round;stroke-linejoin:round;stroke-miterlimit:4;" d="M 292 256.470588 C 282.117647 256.470588 274.117647 264.588235 274.117647 274.588235 C 274.117647 284.647059 282.117647 292.764706 292 292.764706 C 301.882353 292.764706 309.882353 284.647059 309.882353 274.588235 C 309.882353 264.588235 301.882353 256.470588 292 256.470588 Z M 292 256.470588 " transform="matrix(0.0664062,0,0,0.0664062,0,0)"/>
  </g>
</svg>
