<?xml version="1.0" encoding="UTF-8"?>
<svg xmlns="http://www.w3.org/2000/svg" xmlns:xlink="http://www.w3.org/1999/xlink" width="32px" height="32px" viewBox="0 0 32 32" version="1.1">
<g id="surface1">
<path style=" stroke:none;fill-rule:nonzero;fill:rgb(1.960784%,38.039216%,21.568628%);fill-opacity:1;" d="M 28.222656 12.929688 C 28.703125 12.929688 28.703125 13.664062 28.222656 13.664062 L 26.894531 13.664062 C 26.910156 14.558594 26.910156 15.457031 26.910156 16.351562 C 27.3125 16.367188 27.710938 16.382812 28.113281 16.367188 C 28.59375 16.351562 28.59375 17.089844 28.113281 17.105469 C 27.710938 17.121094 27.3125 17.121094 26.910156 17.089844 C 26.910156 17.777344 26.910156 18.464844 26.929688 19.152344 C 26.929688 20.414062 27.246094 22.542969 25.488281 22.671875 C 23.441406 22.832031 21.328125 22.703125 19.265625 22.703125 C 19.265625 23.617188 19.265625 24.511719 19.246094 25.425781 L 20.335938 25.425781 C 20.816406 25.425781 20.816406 26.160156 20.335938 26.160156 L 19.246094 26.160156 C 19.230469 27.457031 19.199219 28.734375 19.167969 30.03125 C 19.167969 30.238281 19.007812 30.398438 18.800781 30.398438 C 17.007812 30.433594 15.214844 30.414062 13.425781 30.351562 C 12.976562 30.335938 12.414062 30.414062 12.222656 29.921875 C 12 29.34375 12.191406 28.414062 12.191406 27.808594 L 12.191406 23.488281 C 11.761719 23.457031 11.328125 23.425781 10.878906 23.425781 C 10.398438 23.425781 10.398438 22.6875 10.878906 22.6875 C 11.3125 22.6875 11.742188 22.703125 12.191406 22.753906 L 12.191406 20.464844 C 11.777344 20.433594 11.375 20.414062 10.960938 20.433594 C 10.480469 20.449219 10.480469 19.695312 10.960938 19.695312 C 11.375 19.679688 11.777344 19.695312 12.191406 19.726562 L 12.191406 17.441406 L 8.609375 17.441406 C 7.695312 17.441406 6.671875 17.425781 5.9375 16.816406 C 5.3125 16.289062 5.089844 15.503906 5.039062 14.703125 C 4.976562 13.96875 5.007812 13.230469 5.023438 12.480469 C 4.671875 12.449219 4.320312 12.449219 3.96875 12.449219 C 3.488281 12.464844 3.488281 11.726562 3.96875 11.710938 C 4.335938 11.695312 4.6875 11.710938 5.054688 11.742188 C 5.054688 11.585938 5.054688 11.441406 5.070312 11.28125 C 5.070312 10.734375 5.089844 10.191406 5.089844 9.648438 L 3.824219 9.648438 C 3.34375 9.648438 3.34375 8.910156 3.824219 8.910156 L 5.089844 8.910156 C 5.089844 8.433594 5.105469 7.953125 5.105469 7.457031 C 5.121094 6.609375 5.28125 5.808594 5.953125 5.214844 C 6.625 4.640625 7.503906 4.449219 8.367188 4.511719 C 9.136719 4.574219 10.097656 4.71875 10.511719 5.441406 C 10.992188 6.257812 10.800781 7.488281 10.800781 8.382812 L 10.847656 11.617188 C 11.28125 11.617188 11.695312 11.617188 12.128906 11.601562 C 12.257812 11.601562 12.785156 11.664062 12.910156 11.617188 C 12.878906 11.585938 12.910156 11.230469 12.910156 11.183594 L 12.910156 5.007812 C 12.910156 4.160156 12.816406 3.246094 13.296875 2.496094 C 14.257812 1.039062 15.679688 0.753906 17.296875 1.039062 C 18.753906 1.3125 19.839844 2.832031 20.097656 4.238281 L 20.097656 4.351562 C 20.113281 4.382812 20.113281 4.433594 20.113281 4.480469 C 20.128906 7.007812 20.128906 9.535156 20.113281 12.046875 L 20.113281 15.839844 C 20.113281 16.128906 19.921875 17.296875 20.175781 17.519531 C 20.367188 17.695312 21.296875 17.585938 21.550781 17.535156 C 22.207031 17.425781 22.0625 16.625 22.097656 16.0625 C 22.128906 15.503906 22.144531 14.929688 22.144531 14.367188 C 22.144531 13.328125 22.097656 12.289062 22.0625 11.246094 C 22.03125 10.238281 22.046875 9.230469 22.078125 8.222656 C 22.097656 7.472656 22.03125 6.703125 22.128906 5.96875 C 22.304688 4.671875 23.585938 3.792969 24.847656 4.046875 C 25.519531 4.175781 26.222656 4.542969 26.527344 5.199219 C 26.753906 5.679688 26.734375 6.304688 26.769531 6.832031 C 26.769531 6.960938 26.785156 7.089844 26.785156 7.214844 L 28.160156 7.214844 C 28.640625 7.214844 28.640625 7.953125 28.160156 7.953125 L 26.800781 7.953125 C 26.832031 8.609375 26.847656 9.265625 26.863281 9.921875 L 27.824219 9.921875 C 28.304688 9.921875 28.304688 10.65625 27.824219 10.65625 L 26.878906 10.65625 L 26.929688 12.878906 C 27.328125 12.929688 27.777344 12.929688 28.222656 12.929688 Z M 26.03125 21.566406 C 26.238281 21.167969 26.175781 20.609375 26.175781 20.175781 L 26.175781 18.464844 C 26.175781 17.359375 26.160156 16.257812 26.144531 15.167969 C 26.128906 13.214844 26.078125 11.246094 26.03125 9.296875 C 26.015625 8.433594 26 7.585938 25.953125 6.71875 C 25.902344 5.921875 25.839844 5.265625 24.992188 4.945312 C 24.113281 4.609375 23.070312 4.992188 22.816406 5.96875 C 22.625 6.6875 22.769531 7.550781 22.753906 8.304688 C 22.703125 10.257812 22.816406 12.207031 22.832031 14.160156 C 22.847656 15.199219 22.816406 16.238281 22.671875 17.265625 C 22.609375 17.808594 22.511719 18.222656 21.902344 18.335938 C 21.390625 18.414062 20.414062 18.511719 19.921875 18.335938 C 19.3125 18.128906 19.3125 17.601562 19.3125 17.054688 C 19.296875 12.878906 19.328125 8.703125 19.296875 4.527344 L 19.296875 4.496094 C 19.152344 3.679688 18.65625 2.847656 18.0625 2.273438 C 17.488281 1.695312 16.175781 1.566406 15.40625 1.742188 C 14.542969 1.953125 13.695312 2.832031 13.601562 3.710938 C 13.503906 4.574219 13.585938 5.488281 13.585938 6.351562 L 13.585938 9.089844 C 13.585938 9.953125 13.710938 10.910156 13.585938 11.761719 C 13.519531 12.160156 13.34375 12.351562 12.945312 12.398438 C 12.128906 12.496094 11.230469 12.414062 10.414062 12.398438 C 10.175781 12.398438 10.0625 12.207031 10.0625 12.03125 C 10.0625 12 10.046875 11.96875 10.046875 11.9375 L 10 8.433594 C 10 7.902344 10 7.375 9.984375 6.832031 C 9.96875 6.144531 9.808594 5.632812 9.105469 5.425781 C 8.078125 5.136719 6.609375 5.183594 6.015625 6.238281 C 5.726562 6.769531 5.792969 7.441406 5.777344 8.015625 C 5.777344 8.59375 5.761719 9.152344 5.761719 9.726562 L 5.710938 13.296875 C 5.695312 14.207031 5.550781 15.457031 6.257812 16.160156 C 6.960938 16.863281 8.191406 16.703125 9.105469 16.71875 L 12.382812 16.71875 C 12.414062 16.71875 12.464844 16.71875 12.496094 16.734375 C 12.6875 16.734375 12.878906 16.847656 12.878906 17.089844 L 12.878906 28.976562 C 12.878906 29.152344 12.847656 29.375 12.878906 29.550781 L 12.878906 29.617188 C 12.894531 29.617188 12.910156 29.617188 12.945312 29.632812 C 13.28125 29.710938 13.726562 29.664062 14.078125 29.664062 C 15.519531 29.710938 16.945312 29.710938 18.382812 29.695312 C 18.449219 27.246094 18.480469 24.800781 18.464844 22.351562 C 18.464844 22.144531 18.640625 21.984375 18.832031 21.984375 C 20.03125 21.984375 21.246094 21.96875 22.449219 21.96875 L 24.191406 21.96875 C 24.769531 21.953125 25.726562 22.128906 26.03125 21.566406 Z M 26.03125 21.566406 "/>
<path style=" stroke:none;fill-rule:nonzero;fill:rgb(23.137255%,58.431375%,28.235295%);fill-opacity:1;" d="M 26.175781 20.175781 C 26.175781 20.609375 26.238281 21.167969 26.03125 21.566406 C 25.726562 22.128906 24.769531 21.953125 24.222656 21.953125 L 22.480469 21.953125 C 21.28125 21.953125 20.0625 21.953125 18.863281 21.96875 C 18.671875 21.96875 18.496094 22.144531 18.496094 22.335938 C 18.511719 24.785156 18.480469 27.230469 18.414062 29.679688 C 16.976562 29.695312 15.550781 29.695312 14.113281 29.648438 C 13.761719 29.632812 13.328125 29.695312 12.976562 29.617188 C 12.945312 29.617188 12.929688 29.601562 12.910156 29.601562 L 12.910156 29.535156 C 12.878906 29.359375 12.910156 29.152344 12.910156 28.960938 L 12.910156 17.070312 C 12.910156 16.832031 12.71875 16.703125 12.527344 16.71875 C 12.496094 16.703125 12.464844 16.703125 12.414062 16.703125 L 9.136719 16.703125 C 8.222656 16.703125 6.992188 16.863281 6.289062 16.144531 C 5.585938 15.425781 5.726562 14.191406 5.742188 13.28125 L 5.792969 9.710938 C 5.792969 9.136719 5.808594 8.574219 5.808594 8 C 5.808594 7.425781 5.761719 6.753906 6.046875 6.222656 C 6.625 5.152344 8.097656 5.121094 9.136719 5.40625 C 9.839844 5.601562 10 6.128906 10.015625 6.816406 C 10.03125 7.34375 10.03125 7.871094 10.03125 8.414062 L 10.078125 11.921875 C 10.078125 11.953125 10.078125 11.984375 10.097656 12.015625 C 10.097656 12.191406 10.222656 12.382812 10.449219 12.382812 C 11.265625 12.398438 12.160156 12.480469 12.976562 12.382812 C 13.375 12.335938 13.550781 12.144531 13.617188 11.742188 C 13.742188 10.894531 13.617188 9.9375 13.617188 9.070312 L 13.617188 6.335938 C 13.617188 5.472656 13.535156 4.558594 13.632812 3.695312 C 13.726562 2.816406 14.574219 1.9375 15.441406 1.726562 C 16.191406 1.550781 17.519531 1.679688 18.097656 2.257812 C 18.6875 2.832031 19.183594 3.664062 19.328125 4.480469 L 19.328125 4.511719 C 19.359375 8.6875 19.3125 12.863281 19.34375 17.039062 C 19.34375 17.585938 19.34375 18.097656 19.953125 18.320312 C 20.449219 18.496094 21.425781 18.398438 21.9375 18.320312 C 22.542969 18.207031 22.625 17.792969 22.703125 17.246094 C 22.832031 16.222656 22.863281 15.183594 22.863281 14.144531 C 22.847656 12.191406 22.734375 10.238281 22.785156 8.289062 C 22.800781 7.550781 22.65625 6.6875 22.847656 5.953125 C 23.105469 4.976562 24.128906 4.59375 25.023438 4.929688 C 25.871094 5.246094 25.9375 5.902344 25.984375 6.703125 C 26.03125 7.566406 26.046875 8.414062 26.0625 9.28125 C 26.113281 11.230469 26.144531 13.199219 26.175781 15.152344 C 26.191406 16.257812 26.191406 17.359375 26.207031 18.449219 C 26.175781 19.023438 26.175781 19.601562 26.175781 20.175781 Z M 23.902344 14.015625 C 23.921875 14.496094 24.65625 14.496094 24.640625 14.015625 C 24.558594 11.601562 24.542969 9.167969 24.59375 6.753906 C 24.609375 6.273438 23.855469 6.273438 23.855469 6.753906 C 23.808594 9.167969 23.824219 11.585938 23.902344 14.015625 Z M 16.207031 3.855469 C 16.207031 3.375 15.472656 3.375 15.472656 3.855469 L 15.375 11.566406 C 15.375 12.046875 16.113281 12.046875 16.113281 11.566406 Z M 7.183594 11.710938 C 7.199219 12.191406 7.9375 12.191406 7.921875 11.710938 C 7.871094 10.351562 7.855469 8.992188 7.886719 7.632812 C 7.902344 7.152344 7.152344 7.152344 7.152344 7.632812 C 7.136719 8.992188 7.136719 10.351562 7.183594 11.710938 Z M 7.183594 11.710938 "/>
<path style=" stroke:none;fill-rule:nonzero;fill:rgb(1.960784%,38.039216%,21.568628%);fill-opacity:1;" d="M 24.640625 14.015625 C 24.65625 14.496094 23.921875 14.496094 23.902344 14.015625 C 23.824219 11.601562 23.808594 9.167969 23.855469 6.753906 C 23.871094 6.273438 24.609375 6.273438 24.59375 6.753906 C 24.542969 9.167969 24.558594 11.585938 24.640625 14.015625 Z M 15.472656 3.855469 C 15.472656 3.375 16.222656 3.375 16.207031 3.855469 L 16.113281 11.566406 C 16.113281 12.046875 15.359375 12.046875 15.375 11.566406 Z M 7.9375 11.710938 C 7.953125 12.191406 7.214844 12.191406 7.199219 11.710938 C 7.152344 10.351562 7.136719 8.992188 7.167969 7.632812 C 7.183594 7.152344 7.921875 7.152344 7.902344 7.632812 C 7.871094 8.992188 7.886719 10.351562 7.9375 11.710938 Z M 7.9375 11.710938 "/>
</g>
</svg>
