<?xml version="1.0" encoding="UTF-8"?>
<svg xmlns="http://www.w3.org/2000/svg" xmlns:xlink="http://www.w3.org/1999/xlink" width="54px" height="54px" viewBox="0 0 54 54" version="1.1">
<defs>
<clipPath id="clip1">
  <path d="M 28 16 L 54 16 L 54 54 L 28 54 Z M 28 16 "/>
</clipPath>
<clipPath id="clip2">
  <path d="M 27 0 C 41.910156 0 54 12.089844 54 27 C 54 41.910156 41.910156 54 27 54 C 12.089844 54 0 41.910156 0 27 C 0 12.089844 12.089844 0 27 0 Z M 27 0 "/>
</clipPath>
<clipPath id="clip3">
  <path d="M 12 33 L 54 33 L 54 54 L 12 54 Z M 12 33 "/>
</clipPath>
<clipPath id="clip4">
  <path d="M 27 0 C 41.910156 0 54 12.089844 54 27 C 54 41.910156 41.910156 54 27 54 C 12.089844 54 0 41.910156 0 27 C 0 12.089844 12.089844 0 27 0 Z M 27 0 "/>
</clipPath>
<clipPath id="clip5">
  <path d="M 28 34 L 54 34 L 54 54 L 28 54 Z M 28 34 "/>
</clipPath>
<clipPath id="clip6">
  <path d="M 27 0 C 41.910156 0 54 12.089844 54 27 C 54 41.910156 41.910156 54 27 54 C 12.089844 54 0 41.910156 0 27 C 0 12.089844 12.089844 0 27 0 Z M 27 0 "/>
</clipPath>
<clipPath id="clip7">
  <path d="M 24 37 L 54 37 L 54 54 L 24 54 Z M 24 37 "/>
</clipPath>
<clipPath id="clip8">
  <path d="M 27 0 C 41.910156 0 54 12.089844 54 27 C 54 41.910156 41.910156 54 27 54 C 12.089844 54 0 41.910156 0 27 C 0 12.089844 12.089844 0 27 0 Z M 27 0 "/>
</clipPath>
<clipPath id="clip9">
  <path d="M 29 37 L 54 37 L 54 54 L 29 54 Z M 29 37 "/>
</clipPath>
<clipPath id="clip10">
  <path d="M 27 0 C 41.910156 0 54 12.089844 54 27 C 54 41.910156 41.910156 54 27 54 C 12.089844 54 0 41.910156 0 27 C 0 12.089844 12.089844 0 27 0 Z M 27 0 "/>
</clipPath>
<clipPath id="clip11">
  <path d="M 12 16 L 42 16 L 42 38 L 12 38 Z M 12 16 "/>
</clipPath>
<clipPath id="clip12">
  <path d="M 27 0 C 41.910156 0 54 12.089844 54 27 C 54 41.910156 41.910156 54 27 54 C 12.089844 54 0 41.910156 0 27 C 0 12.089844 12.089844 0 27 0 Z M 27 0 "/>
</clipPath>
</defs>
<g id="surface1">
<path style=" stroke:none;fill-rule:evenodd;fill:rgb(81.176472%,84.705883%,86.274511%);fill-opacity:1;" d="M 27 0 C 41.910156 0 54 12.089844 54 27 C 54 41.910156 41.910156 54 27 54 C 12.089844 54 0 41.910156 0 27 C 0 12.089844 12.089844 0 27 0 Z M 27 0 "/>
<g clip-path="url(#clip1)" clip-rule="nonzero">
<g clip-path="url(#clip2)" clip-rule="evenodd">
<path style=" stroke:none;fill-rule:evenodd;fill:rgb(69.01961%,74.509805%,77.254903%);fill-opacity:1;" d="M 41.5625 16.539062 L 71.515625 46.488281 L 71.566406 46.558594 L 71.609375 46.628906 L 71.644531 46.707031 L 71.675781 46.785156 L 71.699219 46.871094 L 71.710938 46.957031 L 71.714844 47.046875 L 71.714844 63.101562 L 71.710938 63.191406 L 71.699219 63.277344 L 71.675781 63.363281 L 71.644531 63.445312 L 71.609375 63.519531 L 71.566406 63.59375 L 71.515625 63.660156 L 71.457031 63.722656 L 71.394531 63.78125 L 71.328125 63.832031 L 71.253906 63.875 L 71.179688 63.910156 L 71.097656 63.941406 L 71.011719 63.964844 L 70.925781 63.976562 L 70.835938 63.980469 L 58.550781 63.980469 L 28.601562 34.03125 L 40.886719 34.03125 L 40.976562 34.027344 L 41.0625 34.011719 L 41.148438 33.992188 L 41.226562 33.960938 L 41.304688 33.925781 L 41.378906 33.878906 L 41.445312 33.828125 L 41.507812 33.773438 L 41.5625 33.710938 L 41.613281 33.644531 L 41.660156 33.570312 L 41.695312 33.492188 L 41.726562 33.414062 L 41.746094 33.328125 L 41.761719 33.242188 L 41.765625 33.152344 L 41.765625 17.097656 L 41.761719 17.007812 L 41.746094 16.921875 L 41.726562 16.835938 L 41.695312 16.757812 L 41.660156 16.679688 L 41.613281 16.605469 Z M 41.5625 16.539062 "/>
</g>
</g>
<g clip-path="url(#clip3)" clip-rule="nonzero">
<g clip-path="url(#clip4)" clip-rule="evenodd">
<path style=" stroke:none;fill-rule:evenodd;fill:rgb(69.01961%,74.509805%,77.254903%);fill-opacity:1;" d="M 25.398438 34.03125 L 55.347656 63.980469 L 43.0625 63.980469 L 42.972656 63.976562 L 42.886719 63.964844 L 42.800781 63.941406 L 42.722656 63.910156 L 42.644531 63.875 L 42.574219 63.832031 L 42.503906 63.78125 L 12.554688 33.828125 L 12.621094 33.878906 L 12.695312 33.925781 L 12.773438 33.960938 L 12.851562 33.992188 L 12.9375 34.011719 L 13.023438 34.027344 L 13.113281 34.03125 Z M 25.398438 34.03125 "/>
</g>
</g>
<g clip-path="url(#clip5)" clip-rule="nonzero">
<g clip-path="url(#clip6)" clip-rule="evenodd">
<path style=" stroke:none;fill-rule:evenodd;fill:rgb(69.01961%,74.509805%,77.254903%);fill-opacity:1;" d="M 28.601562 34.03125 L 58.550781 63.980469 L 58.550781 67.207031 L 28.601562 37.257812 Z M 28.601562 34.03125 "/>
</g>
</g>
<g clip-path="url(#clip7)" clip-rule="nonzero">
<g clip-path="url(#clip8)" clip-rule="evenodd">
<path style=" stroke:none;fill-rule:evenodd;fill:rgb(69.01961%,74.509805%,77.254903%);fill-opacity:1;" d="M 29.421875 37.78125 L 59.371094 67.730469 L 54.53125 67.730469 L 24.578125 37.78125 Z M 29.421875 37.78125 "/>
</g>
</g>
<g clip-path="url(#clip9)" clip-rule="nonzero">
<g clip-path="url(#clip10)" clip-rule="evenodd">
<path style=" stroke:none;fill-rule:evenodd;fill:rgb(69.01961%,74.509805%,77.254903%);fill-opacity:1;" d="M 29.421875 37.257812 L 59.371094 67.207031 L 59.371094 67.730469 L 29.421875 37.78125 Z M 29.421875 37.257812 "/>
</g>
</g>
<g clip-path="url(#clip11)" clip-rule="nonzero">
<g clip-path="url(#clip12)" clip-rule="evenodd">
<path style=" stroke:none;fill-rule:evenodd;fill:rgb(69.01961%,74.509805%,77.254903%);fill-opacity:1;" d="M 40.886719 16.21875 C 41.371094 16.21875 41.765625 16.613281 41.765625 17.097656 L 41.765625 33.152344 C 41.765625 33.636719 41.371094 34.03125 40.886719 34.03125 L 28.601562 34.03125 L 28.601562 37.257812 L 29.421875 37.257812 L 29.421875 37.78125 L 24.578125 37.78125 L 24.578125 37.257812 L 25.398438 37.257812 L 25.398438 34.03125 L 13.113281 34.03125 C 12.628906 34.03125 12.234375 33.636719 12.234375 33.152344 L 12.234375 17.097656 C 12.234375 16.613281 12.628906 16.21875 13.113281 16.21875 Z M 40.886719 16.21875 "/>
</g>
</g>
<path style=" stroke:none;fill-rule:evenodd;fill:rgb(26.274511%,29.019609%,32.156864%);fill-opacity:1;" d="M 25.398438 33.667969 L 28.601562 33.667969 L 28.601562 37.417969 L 25.398438 37.417969 Z M 25.398438 33.667969 "/>
<path style=" stroke:none;fill-rule:evenodd;fill:rgb(21.960784%,24.705882%,27.843139%);fill-opacity:1;" d="M 24.578125 37.257812 L 29.421875 37.257812 L 29.421875 37.78125 L 24.578125 37.78125 Z M 24.578125 37.257812 "/>
<path style=" stroke:none;fill-rule:evenodd;fill:rgb(31.764707%,34.901962%,38.039216%);fill-opacity:1;" d="M 13.113281 16.21875 L 40.886719 16.21875 C 41.371094 16.21875 41.765625 16.613281 41.765625 17.097656 L 41.765625 33.152344 C 41.765625 33.636719 41.371094 34.03125 40.886719 34.03125 L 13.113281 34.03125 C 12.628906 34.03125 12.234375 33.636719 12.234375 33.152344 L 12.234375 17.097656 C 12.234375 16.613281 12.628906 16.21875 13.113281 16.21875 Z M 13.113281 16.21875 "/>
<path style=" stroke:none;fill-rule:evenodd;fill:rgb(27.058825%,29.803923%,32.941177%);fill-opacity:1;" d="M 25.964844 32.855469 C 25.964844 32.621094 25.773438 32.433594 25.539062 32.433594 C 25.304688 32.433594 25.117188 32.621094 25.117188 32.855469 C 25.117188 33.089844 25.304688 33.28125 25.539062 33.28125 C 25.773438 33.28125 25.964844 33.089844 25.964844 32.855469 Z M 25.964844 32.855469 "/>
<path style=" stroke:none;fill-rule:evenodd;fill:rgb(30.980393%,76.47059%,96.862745%);fill-opacity:1;" d="M 25.851562 32.855469 C 25.851562 32.6875 25.710938 32.546875 25.539062 32.546875 C 25.371094 32.546875 25.230469 32.6875 25.230469 32.855469 C 25.230469 33.027344 25.371094 33.167969 25.539062 33.167969 C 25.710938 33.167969 25.851562 33.027344 25.851562 32.855469 Z M 25.851562 32.855469 "/>
<path style=" stroke:none;fill-rule:evenodd;fill:rgb(27.058825%,29.803923%,32.941177%);fill-opacity:1;" d="M 27.425781 32.855469 C 27.425781 32.621094 27.234375 32.433594 27 32.433594 C 26.765625 32.433594 26.574219 32.621094 26.574219 32.855469 C 26.574219 33.089844 26.765625 33.28125 27 33.28125 C 27.234375 33.28125 27.425781 33.089844 27.425781 32.855469 Z M 27.425781 32.855469 "/>
<path style=" stroke:none;fill-rule:evenodd;fill:rgb(0%,78.431374%,32.549021%);fill-opacity:1;" d="M 27.308594 32.855469 C 27.308594 32.6875 27.171875 32.546875 27 32.546875 C 26.828125 32.546875 26.691406 32.6875 26.691406 32.855469 C 26.691406 33.027344 26.828125 33.167969 27 33.167969 C 27.171875 33.167969 27.308594 33.027344 27.308594 32.855469 Z M 27.308594 32.855469 "/>
<path style=" stroke:none;fill-rule:evenodd;fill:rgb(20.784314%,24.313726%,27.058825%);fill-opacity:1;" d="M 28.882812 32.855469 C 28.882812 32.621094 28.695312 32.433594 28.460938 32.433594 C 28.222656 32.433594 28.035156 32.621094 28.035156 32.855469 C 28.035156 33.089844 28.222656 33.28125 28.460938 33.28125 C 28.695312 33.28125 28.882812 33.089844 28.882812 32.855469 Z M 28.882812 32.855469 "/>
<path style=" stroke:none;fill-rule:evenodd;fill:rgb(59.215689%,88.235295%,98.823529%);fill-opacity:1;" d="M 13.992188 17.097656 L 40.007812 17.097656 C 40.460938 17.097656 40.832031 17.433594 40.832031 17.839844 L 40.832031 31.054688 C 40.832031 31.464844 40.460938 31.796875 40.007812 31.796875 L 13.992188 31.796875 C 13.539062 31.796875 13.167969 31.464844 13.167969 31.054688 L 13.167969 17.839844 C 13.167969 17.433594 13.539062 17.097656 13.992188 17.097656 Z M 13.992188 17.097656 "/>
<path style=" stroke:none;fill-rule:evenodd;fill:rgb(55.686277%,14.117648%,66.666669%);fill-opacity:1;" d="M 14.800781 27.421875 L 17.070312 27.421875 L 19.910156 22.503906 L 20.464844 21.542969 L 21.015625 22.503906 L 23.421875 26.667969 L 26.226562 21.804688 L 26.945312 20.558594 L 27.390625 21.925781 L 28.984375 26.8125 L 31.410156 20.65625 L 31.90625 19.394531 L 32.566406 20.578125 L 36.363281 27.421875 L 39.199219 27.421875 L 39.199219 28.707031 L 35.613281 28.707031 L 35.429688 28.375 L 32.105469 22.386719 L 29.523438 28.941406 L 28.316406 28.90625 L 26.617188 23.6875 L 23.976562 28.265625 L 23.421875 29.226562 L 22.867188 28.269531 L 20.460938 24.105469 L 17.992188 28.382812 L 17.804688 28.707031 L 14.800781 28.707031 Z M 14.800781 27.421875 "/>
</g>
</svg>
