<?xml version="1.0" encoding="UTF-8"?>
<svg xmlns="http://www.w3.org/2000/svg" xmlns:xlink="http://www.w3.org/1999/xlink" width="32px" height="32px" viewBox="0 0 32 32" version="1.1">
<g id="surface1">
<path style=" stroke:none;fill-rule:nonzero;fill:rgb(24.313726%,44.705883%,11.372549%);fill-opacity:1;" d="M 11.050781 26.519531 C 11.609375 20.554688 7.125 19.8125 5.347656 21.109375 C 4.375 21.820312 4.144531 23.175781 4.921875 22.464844 C 6.292969 21.203125 6.773438 22.128906 5.738281 22.796875 C 4.703125 23.464844 4.515625 24.703125 5.664062 23.851562 C 6.8125 23 7.128906 23.554688 6.238281 24.648438 C 5.699219 25.308594 6.277344 25.925781 7.277344 24.59375 C 8.109375 23.480469 10.121094 23.441406 9.640625 27.25 C 9.445312 28.8125 10.933594 27.792969 11.050781 26.519531 Z M 18.109375 7.832031 C 17.59375 4.722656 17.109375 3.167969 14 2.648438 C 10.890625 2.128906 8.296875 4.203125 8.296875 4.203125 C 8.296875 4.203125 8.8125 1.09375 10.371094 0.0546875 C 10.980469 -0.351562 11.40625 1.609375 11.925781 1.609375 C 12.445312 1.609375 12.960938 0.0546875 14.519531 0.0546875 C 15.035156 0.0546875 15.035156 1.609375 15.554688 1.609375 C 16.074219 1.609375 17.550781 1.097656 17.628906 1.609375 C 17.742188 2.332031 17.480469 3.148438 17.890625 3.480469 C 18.296875 3.8125 19.269531 3.347656 19.578125 3.914062 C 19.890625 4.480469 19.035156 5.296875 19.109375 5.667969 C 19.1875 6.039062 19.75 6.183594 19.578125 6.890625 C 19.40625 7.59375 19 7.628906 18.964844 8.148438 C 18.925781 8.667969 19.75 9.109375 19.578125 9.648438 C 19.40625 10.1875 19 10.257812 18.816406 10.945312 C 18.628906 11.628906 19.296875 11.519531 19.109375 12.222656 C 18.925781 12.925781 18.257812 13.105469 18.039062 13.792969 C 17.816406 14.480469 18.628906 14.628906 18.222656 15.296875 C 17.816406 15.960938 17.074219 16.074219 17.039062 16.480469 C 17 16.886719 17.222656 17.207031 17.074219 17.863281 C 16.925781 18.515625 16.074219 18.183594 16 18.703125 C 15.925781 19.222656 16.1875 19.480469 16.1875 20.109375 C 16.1875 20.738281 15.554688 20.851562 15.628906 21.480469 C 15.703125 22.109375 16.296875 21.628906 16.667969 22.371094 C 17.039062 23.109375 16.445312 23.777344 16.851562 24.222656 C 17.261719 24.664062 17.816406 23.628906 18.371094 24 C 18.925781 24.371094 18.972656 25.109375 19.578125 25.222656 C 20.1875 25.332031 20.371094 24.074219 20.816406 24.109375 C 21.261719 24.148438 22.261719 24.742188 22.777344 24.480469 C 23.296875 24.222656 23.257812 23.183594 23.667969 22.738281 C 24.074219 22.296875 24.59375 22.703125 24.964844 22.222656 C 25.332031 21.738281 24.835938 21.175781 24.910156 20.472656 C 24.980469 19.769531 25.667969 19.371094 25.628906 18.8125 C 25.59375 18.257812 25.039062 18.257812 24.816406 17.664062 C 24.59375 17.074219 25.222656 16.554688 25 16 C 24.777344 15.445312 23.816406 15.257812 23.851562 14.703125 C 23.890625 14.148438 24.261719 13.519531 24.074219 12.886719 C 23.890625 12.257812 23.109375 11.851562 23.148438 11.371094 C 23.1875 10.890625 23.59375 10.257812 23.667969 9.90625 C 23.742188 9.554688 23 9.1875 23.074219 8.59375 C 23.148438 8 23.628906 8.039062 23.8125 7.503906 C 24 6.96875 23.148438 6.703125 23.59375 6.019531 C 24.039062 5.335938 24.261719 5.78125 24.628906 5.40625 C 25 5.039062 24.628906 4.222656 25 4.039062 C 25.371094 3.851562 26.109375 4 26.480469 3.742188 C 26.851562 3.484375 26.851562 3.113281 27.257812 2.964844 C 27.667969 2.816406 28.1875 3.445312 28.519531 3.445312 C 28.851562 3.445312 29.445312 2.816406 29.890625 2.964844 C 30.332031 3.113281 31.296875 4.148438 30.703125 4.464844 C 30.109375 4.78125 25.59375 5 25.554688 7.074219 C 25.519531 9.148438 28.039062 18.558594 27.296875 20.925781 C 26.554688 23.296875 23.484375 28.335938 19.964844 27.371094 C 16.445312 26.40625 12.257812 24.257812 13.257812 20.964844 C 14.257812 17.667969 17.480469 10.921875 18.109375 7.832031 Z M 18.109375 7.832031 "/>
<path style=" stroke:none;fill-rule:nonzero;fill:rgb(46.666667%,69.803923%,33.333334%);fill-opacity:1;" d="M 18.667969 7.019531 C 18.667969 10.554688 16.550781 14.257812 13.480469 13.746094 C 8.75 12.953125 8.5 11.445312 7.777344 12.371094 C 5.183594 15.699219 3.648438 11.941406 3.058594 11.316406 C 2.910156 11.160156 0 10.300781 0 8.660156 C 0 7.597656 1.554688 6.511719 2.59375 7.566406 C 4.125 7.527344 9.851562 2.09375 13.480469 2.09375 C 17.109375 2.09375 18.667969 4.832031 18.667969 7.019531 Z M 18.667969 7.019531 "/>
<path style=" stroke:none;fill-rule:nonzero;fill:rgb(16.078432%,18.431373%,20%);fill-opacity:1;" d="M 12.960938 6.277344 C 12.972656 6.65625 12.777344 7.007812 12.453125 7.203125 C 12.125 7.394531 11.722656 7.394531 11.398438 7.199219 C 11.070312 7.007812 10.875 6.65625 10.886719 6.277344 C 10.902344 5.714844 11.363281 5.269531 11.925781 5.269531 C 12.488281 5.269531 12.945312 5.714844 12.960938 6.277344 Z M 12.960938 6.277344 "/>
<path style=" stroke:none;fill-rule:nonzero;fill:rgb(24.313726%,44.705883%,11.372549%);fill-opacity:1;" d="M 2.59375 9.128906 C 2.59375 9.558594 2.246094 9.390625 1.816406 9.390625 C 1.386719 9.390625 1.039062 9.558594 1.039062 9.128906 C 1.039062 8.699219 1.386719 8.351562 1.816406 8.351562 C 2.246094 8.351562 2.59375 8.699219 2.59375 9.128906 Z M 2.59375 9.128906 "/>
<path style=" stroke:none;fill-rule:nonzero;fill:rgb(100%,100%,100%);fill-opacity:1;" d="M 9.851562 9.90625 C 9.851562 10.480469 9.503906 10.425781 9.074219 10.425781 C 8.644531 10.425781 8.296875 10.476562 8.296875 9.90625 C 8.296875 9.332031 8.644531 7.832031 9.074219 7.832031 C 9.503906 7.832031 9.851562 9.332031 9.851562 9.90625 Z M 7.777344 10.425781 C 7.777344 10.996094 7.429688 10.941406 7 10.941406 C 6.570312 10.941406 6.222656 10.996094 6.222656 10.425781 C 6.222656 9.851562 6.570312 8.351562 7 8.351562 C 7.429688 8.351562 7.777344 9.851562 7.777344 10.425781 Z M 7.777344 10.425781 "/>
<path style=" stroke:none;fill-rule:nonzero;fill:rgb(24.313726%,44.705883%,11.372549%);fill-opacity:1;" d="M 9.777344 9.914062 C 7.027344 10.304688 4.253906 11 3.058594 11.316406 C 3.207031 11.472656 3.417969 11.832031 3.691406 12.222656 C 5 11.886719 7.472656 11.289062 9.925781 10.941406 C 10.195312 10.886719 10.375 10.628906 10.335938 10.355469 C 10.296875 10.085938 10.050781 9.890625 9.777344 9.914062 Z M 9.777344 9.914062 "/>
<path style=" stroke:none;fill-rule:nonzero;fill:rgb(46.666667%,69.803923%,33.333334%);fill-opacity:1;" d="M 18.617188 7.945312 C 18.617188 11.832031 17.09375 15.234375 16 17.871094 C 14.816406 20.726562 15.109375 25.871094 19.554688 25.871094 C 24 25.871094 25.34375 23.035156 25.777344 21.429688 C 26.984375 16.964844 24 14.316406 24 9.871094 C 24 1.871094 31.109375 3.652344 31.109375 4.539062 C 31.109375 5.429688 24.949219 5.761719 28.445312 12.539062 C 31.941406 19.316406 32 32 19.554688 32 C 7.109375 32 7.109375 24.09375 8.890625 20.539062 C 10.148438 18.023438 12.445312 14.222656 9.332031 12.5 C 7.304688 11.375 18.617188 7.945312 18.617188 7.945312 Z M 18.617188 7.945312 "/>
<path style=" stroke:none;fill-rule:nonzero;fill:rgb(24.313726%,44.705883%,11.372549%);fill-opacity:1;" d="M 10.074219 6.90625 C 9.714844 6.910156 9.390625 6.691406 9.253906 6.359375 C 9.117188 6.027344 9.191406 5.644531 9.445312 5.390625 C 9.519531 5.316406 11.296875 3.574219 14.222656 3.574219 C 14.714844 3.574219 15.113281 3.972656 15.113281 4.464844 C 15.113281 4.953125 14.714844 5.351562 14.222656 5.351562 C 12.058594 5.351562 10.71875 6.632812 10.703125 6.648438 C 10.539062 6.8125 10.3125 6.90625 10.074219 6.90625 Z M 10.074219 6.90625 "/>
<path style=" stroke:none;fill-rule:nonzero;fill:rgb(36.078432%,56.862748%,23.137255%);fill-opacity:1;" d="M 9.519531 22.519531 C 10.074219 16.554688 4.703125 15.8125 2.925781 17.109375 C 1.949219 17.820312 1.722656 19.175781 2.5 18.464844 C 3.871094 17.203125 4.351562 18.128906 3.316406 18.796875 C 2.277344 19.464844 2.09375 20.703125 3.242188 19.851562 C 4.390625 19 4.703125 19.554688 3.816406 20.648438 C 3.277344 21.308594 3.851562 21.925781 4.851562 20.59375 C 5.6875 19.480469 8.585938 19.441406 8.109375 23.25 C 7.910156 24.8125 9.398438 23.792969 9.519531 22.519531 Z M 9.519531 22.519531 "/>
</g>
</svg>
