<?xml version="1.0" encoding="UTF-8"?>
<svg xmlns="http://www.w3.org/2000/svg" xmlns:xlink="http://www.w3.org/1999/xlink" width="54px" height="54px" viewBox="0 0 54 54" version="1.1">
<g id="surface1">
<path style=" stroke:none;fill-rule:nonzero;fill:rgb(98.039216%,70.588237%,0%);fill-opacity:1;" d="M 33.855469 30.164062 L 33.75 30.375 L 33.75 24.027344 C 33.75 23.894531 33.738281 23.761719 33.734375 23.625 L 33.21875 23.625 C 32.015625 23.625 30.929688 23.007812 30.316406 21.972656 C 29.703125 20.9375 29.679688 19.691406 30.253906 18.632812 L 32.070312 15.304688 C 31.464844 13.773438 30.703125 12.304688 29.78125 10.921875 L 27 6.75 L 24.21875 10.921875 C 21.628906 14.804688 20.25 19.363281 20.25 24.027344 L 20.25 30.375 L 20.144531 30.164062 C 18.023438 25.921875 14.578125 22.476562 10.335938 20.355469 L 10.125 20.25 L 10.125 33.75 C 10.125 43.070312 17.679688 50.625 27 50.625 C 36.320312 50.625 43.875 43.070312 43.875 33.75 L 43.875 23.625 L 38.875 23.625 C 36.816406 25.460938 35.101562 27.667969 33.855469 30.164062 Z M 33.855469 30.164062 "/>
<path style=" stroke:none;fill-rule:nonzero;fill:rgb(86.274511%,58.823532%,0%);fill-opacity:1;" d="M 13.5 33.75 L 13.5 22.296875 C 12.503906 21.566406 11.449219 20.914062 10.335938 20.355469 L 10.125 20.25 L 10.125 33.75 C 10.125 43.070312 17.679688 50.625 27 50.625 C 27.570312 50.625 28.132812 50.59375 28.6875 50.539062 C 20.160156 49.691406 13.5 42.5 13.5 33.75 Z M 13.5 33.75 "/>
<path style=" stroke:none;fill-rule:nonzero;fill:rgb(98.039216%,39.215687%,31.37255%);fill-opacity:1;" d="M 27 30.375 L 21.980469 43.285156 C 20.605469 46.816406 23.210938 50.625 27 50.625 C 30.789062 50.625 33.394531 46.816406 32.019531 43.285156 Z M 27 30.375 "/>
<path style=" stroke:none;fill-rule:nonzero;fill:rgb(98.039216%,39.215687%,31.37255%);fill-opacity:1;" d="M 39.019531 6.089844 L 31.734375 19.441406 C 31.121094 20.566406 31.9375 21.9375 33.21875 21.9375 L 47.78125 21.9375 C 49.0625 21.9375 49.878906 20.566406 49.265625 19.441406 L 41.980469 6.089844 C 41.34375 4.917969 39.65625 4.917969 39.019531 6.089844 Z M 39.019531 6.089844 "/>
<path style=" stroke:none;fill-rule:nonzero;fill:rgb(86.274511%,27.450982%,19.607843%);fill-opacity:1;" d="M 32.890625 19.441406 L 40.171875 6.089844 C 40.382812 5.703125 40.710938 5.457031 41.078125 5.324219 C 40.339844 5.058594 39.445312 5.304688 39.019531 6.089844 L 31.734375 19.441406 C 31.121094 20.566406 31.9375 21.9375 33.21875 21.9375 L 34.371094 21.9375 C 33.089844 21.9375 32.277344 20.566406 32.890625 19.441406 Z M 32.890625 19.441406 "/>
<path style=" stroke:none;fill-rule:nonzero;fill:rgb(94.117647%,94.117647%,94.117647%);fill-opacity:1;" d="M 40.5 15.1875 C 40.035156 15.1875 39.65625 14.808594 39.65625 14.34375 L 39.65625 10.96875 C 39.65625 10.503906 40.035156 10.125 40.5 10.125 C 40.964844 10.125 41.34375 10.503906 41.34375 10.96875 L 41.34375 14.34375 C 41.34375 14.808594 40.964844 15.1875 40.5 15.1875 Z M 40.5 15.1875 "/>
<path style=" stroke:none;fill-rule:nonzero;fill:rgb(94.117647%,94.117647%,94.117647%);fill-opacity:1;" d="M 40.5 18.5625 C 40.035156 18.5625 39.65625 18.183594 39.65625 17.71875 C 39.65625 17.253906 40.035156 16.875 40.5 16.875 C 40.964844 16.875 41.34375 17.253906 41.34375 17.71875 C 41.34375 18.183594 40.964844 18.5625 40.5 18.5625 Z M 40.5 18.5625 "/>
</g>
</svg>
