<?xml version="1.0" encoding="UTF-8"?>
<svg xmlns="http://www.w3.org/2000/svg" xmlns:xlink="http://www.w3.org/1999/xlink" fill="inherit" width="34px" height="34px" viewBox="0 0 34 34" version="1.1">
<g id="surface1">
<path style="fill:none;stroke-width:1.5;stroke-linecap:butt;stroke-linejoin:miter;stroke:rgb(0%,0%,0%);stroke-opacity:1;stroke-miterlimit:4;" d="M 1.999081 16.000919 C 1.999081 13.171875 1.999081 11.757353 2.878676 10.877757 C 3.758272 10.000919 5.172794 10.000919 7.999081 10.000919 L 16.000919 10.000919 C 18.827206 10.000919 20.241728 10.000919 21.121324 10.877757 C 22.000919 11.757353 22.000919 13.171875 22.000919 16.000919 C 22.000919 18.827206 22.000919 20.241728 21.121324 21.121324 C 20.241728 22.000919 18.827206 22.000919 16.000919 22.000919 L 7.999081 22.000919 C 5.172794 22.000919 3.758272 22.000919 2.878676 21.121324 C 1.999081 20.241728 1.999081 18.827206 1.999081 16.000919 Z M 1.999081 16.000919 " transform="matrix(1.416667,0,0,1.416667,0,0)"/>
<path style="fill:none;stroke-width:1.5;stroke-linecap:butt;stroke-linejoin:miter;stroke:rgb(0%,0%,0%);stroke-opacity:1;stroke-miterlimit:4;" d="M 13.999081 16.000919 C 13.999081 14.895221 13.105699 13.999081 12 13.999081 C 10.894301 13.999081 10.000919 14.895221 10.000919 16.000919 C 10.000919 17.10386 10.894301 18 12 18 C 13.105699 18 13.999081 17.10386 13.999081 16.000919 Z M 13.999081 16.000919 " transform="matrix(1.416667,0,0,1.416667,0,0)"/>
<path style="fill:none;stroke-width:1.5;stroke-linecap:round;stroke-linejoin:miter;stroke:rgb(0%,0%,0%);stroke-opacity:1;stroke-miterlimit:4;" d="M 6 10.000919 L 6 7.999081 C 6 4.6875 8.685662 1.999081 12 1.999081 C 15.314338 1.999081 18 4.6875 18 7.999081 L 18 10.000919 " transform="matrix(1.416667,0,0,1.416667,0,0)"/>
</g>
</svg>
