<?xml version="1.0" encoding="UTF-8"?>
<svg xmlns="http://www.w3.org/2000/svg" xmlns:xlink="http://www.w3.org/1999/xlink" width="54px" height="54px" viewBox="0 0 54 54" version="1.1">
<g id="surface1">
<path style=" stroke:none;fill-rule:nonzero;fill:rgb(20%,20%,20%);fill-opacity:1;" d="M 27.015625 6.753906 C 32.613281 6.753906 37.679688 9.023438 41.347656 12.6875 C 45.011719 16.355469 47.28125 21.421875 47.28125 27.019531 C 47.28125 32.613281 45.011719 37.679688 41.347656 41.347656 C 37.679688 45.011719 32.613281 47.28125 27.015625 47.28125 C 21.421875 47.28125 16.355469 45.011719 12.6875 41.347656 C 9.023438 37.679688 6.753906 32.613281 6.753906 27.019531 C 6.753906 21.421875 9.023438 16.355469 12.6875 12.6875 C 16.355469 9.023438 21.421875 6.753906 27.015625 6.753906 Z M 40.152344 13.882812 C 36.789062 10.523438 32.148438 8.441406 27.015625 8.441406 C 21.886719 8.441406 17.246094 10.523438 13.882812 13.882812 C 10.523438 17.246094 8.441406 21.886719 8.441406 27.015625 C 8.441406 32.148438 10.523438 36.789062 13.882812 40.152344 C 17.246094 43.511719 21.886719 45.59375 27.015625 45.59375 C 32.148438 45.59375 36.789062 43.511719 40.152344 40.152344 C 43.511719 36.789062 45.59375 32.148438 45.59375 27.015625 C 45.59375 21.886719 43.511719 17.246094 40.152344 13.882812 Z M 40.152344 13.882812 "/>
<path style=" stroke:none;fill-rule:nonzero;fill:rgb(20%,20%,20%);fill-opacity:1;" d="M 26.171875 26.171875 L 26.171875 11.820312 L 27.015625 11.820312 C 31.214844 11.820312 35.011719 13.519531 37.765625 16.269531 C 40.515625 19.023438 42.214844 22.820312 42.214844 27.015625 C 42.214844 31.214844 40.515625 35.011719 37.765625 37.765625 C 35.011719 40.515625 31.214844 42.214844 27.015625 42.214844 C 22.820312 42.214844 19.023438 40.515625 16.269531 37.765625 C 13.519531 35.011719 11.820312 31.214844 11.820312 27.015625 L 11.820312 26.171875 Z M 27.863281 13.535156 L 27.863281 27.863281 L 13.535156 27.863281 C 13.746094 31.257812 15.207031 34.3125 17.464844 36.570312 C 19.910156 39.015625 23.289062 40.527344 27.015625 40.527344 C 30.746094 40.527344 34.125 39.015625 36.570312 36.570312 C 39.015625 34.125 40.527344 30.746094 40.527344 27.015625 C 40.527344 23.289062 39.015625 19.910156 36.570312 17.464844 C 34.3125 15.207031 31.257812 13.746094 27.863281 13.535156 Z M 27.863281 13.535156 "/>
<path style=" stroke:none;fill-rule:evenodd;fill:rgb(95.686275%,35.294119%,32.156864%);fill-opacity:1;" d="M 26.171875 26.171875 L 26.171875 11.820312 L 27.015625 11.820312 C 31.214844 11.820312 35.011719 13.519531 37.765625 16.269531 C 40.515625 19.023438 42.214844 22.820312 42.214844 27.015625 C 42.214844 31.214844 40.515625 35.011719 37.765625 37.765625 C 35.011719 40.515625 31.214844 42.214844 27.015625 42.214844 C 22.820312 42.214844 19.023438 40.515625 16.269531 37.765625 C 13.519531 35.011719 11.820312 31.214844 11.820312 27.015625 L 11.820312 26.171875 Z M 40.152344 13.882812 C 36.789062 10.523438 32.148438 8.441406 27.015625 8.441406 C 21.886719 8.441406 17.246094 10.523438 13.882812 13.882812 C 10.523438 17.246094 8.441406 21.886719 8.441406 27.015625 C 8.441406 32.148438 10.523438 36.789062 13.882812 40.152344 C 17.246094 43.511719 21.886719 45.59375 27.015625 45.59375 C 32.148438 45.59375 36.789062 43.511719 40.152344 40.152344 C 43.511719 36.789062 45.59375 32.148438 45.59375 27.015625 C 45.59375 21.886719 43.511719 17.246094 40.152344 13.882812 Z M 40.152344 13.882812 "/>
<path style=" stroke:none;fill-rule:evenodd;fill:rgb(100%,82.745099%,70.19608%);fill-opacity:1;" d="M 27.863281 13.535156 L 27.863281 27.863281 L 13.535156 27.863281 C 13.746094 31.257812 15.207031 34.3125 17.464844 36.570312 C 19.910156 39.015625 23.289062 40.527344 27.015625 40.527344 C 30.746094 40.527344 34.125 39.015625 36.570312 36.570312 C 39.015625 34.125 40.527344 30.746094 40.527344 27.015625 C 40.527344 23.289062 39.015625 19.910156 36.570312 17.464844 C 34.3125 15.207031 31.257812 13.746094 27.863281 13.535156 Z M 27.863281 13.535156 "/>
</g>
</svg>
