<?xml version="1.0" encoding="UTF-8"?>
<!DOCTYPE svg PUBLIC "-//W3C//DTD SVG 1.1//EN" "http://www.w3.org/Graphics/SVG/1.1/DTD/svg11.dtd">
<!-- Creator: CorelDRAW -->
<svg xmlns="http://www.w3.org/2000/svg" xml:space="preserve" width="6.82666in" height="6.82666in" style="shape-rendering:geometricPrecision; text-rendering:geometricPrecision; image-rendering:optimizeQuality; fill-rule:evenodd; clip-rule:evenodd"
viewBox="0 0 6.82666 6.82666"
 xmlns:xlink="http://www.w3.org/1999/xlink">
 <defs>
  <style type="text/css">
   <![CDATA[
    .fil3 {fill:none}
    .fil1 {fill:#F45A52}
    .fil2 {fill:#FFD3B3}
    .fil0 {fill:#333333;fill-rule:nonzero}
   ]]>
  </style>
 </defs>
 <g id="Layer_x0020_1">
  <metadata id="CorelCorpID_0Corel-Layer"/>
  <path class="fil0" d="M3.41333 0.853331c0.706909,0 1.34691,0.286543 1.81019,0.749815 0.463272,0.463272 0.749815,1.10328 0.749815,1.81019 0,0.706909 -0.286543,1.34691 -0.749815,1.81019 -0.463272,0.463272 -1.10328,0.749815 -1.81019,0.749815 -0.706909,0 -1.34691,-0.286543 -1.81019,-0.749815 -0.463272,-0.463272 -0.749815,-1.10328 -0.749815,-1.81019 0,-0.706909 0.286543,-1.34691 0.749815,-1.81019 0.463272,-0.463272 1.10328,-0.749815 1.81019,-0.749815zm1.65935 0.90065c-0.424654,-0.424654 -1.01133,-0.687311 -1.65935,-0.687311 -0.648024,0 -1.2347,0.262657 -1.65935,0.687311 -0.424654,0.424654 -0.687311,1.01133 -0.687311,1.65935 0,0.648024 0.262657,1.2347 0.687311,1.65935 0.424654,0.424654 1.01133,0.687311 1.65935,0.687311 0.648024,0 1.2347,-0.262657 1.65935,-0.687311 0.424654,-0.424654 0.687311,-1.01133 0.687311,-1.65935 0,-0.648024 -0.262657,-1.2347 -0.687311,-1.65935z"/>
  <path class="fil0" d="M3.30666 3.30666l0 -1.70667 0 -0.106669 0.106669 0c0.530181,0 1.01019,0.214913 1.35764,0.562366 0.347453,0.347453 0.562366,0.827457 0.562366,1.35764 0,0.530181 -0.214913,1.01019 -0.562366,1.35764 -0.347453,0.347453 -0.827457,0.562366 -1.35764,0.562366 -0.530181,0 -1.01019,-0.214913 -1.35764,-0.562366 -0.347453,-0.347453 -0.562366,-0.827457 -0.562366,-1.35764l0 -0.106669 0.106669 0 1.70667 0zm0.213339 -1.5967l0 1.70337 0 0.106669 -0.106669 0 -1.70337 0c0.0264449,0.428811 0.211205,0.814772 0.496567,1.10013 0.308839,0.308839 0.735508,0.499862 1.2068,0.499862 0.471295,0 0.897965,-0.191024 1.2068,-0.499862 0.308839,-0.308839 0.499862,-0.735508 0.499862,-1.2068 0,-0.471295 -0.191024,-0.897965 -0.499862,-1.2068 -0.285362,-0.285362 -0.671323,-0.470122 -1.10013,-0.496567z"/>
  <path class="fil1" d="M3.30666 3.30666l0 -1.70667 0 -0.106669 0.106669 0c0.530181,0 1.01019,0.214913 1.35764,0.562366 0.347453,0.347453 0.562366,0.827457 0.562366,1.35764 0,0.530181 -0.214913,1.01019 -0.562366,1.35764 -0.347453,0.347453 -0.827457,0.562366 -1.35764,0.562366 -0.530181,0 -1.01019,-0.214913 -1.35764,-0.562366 -0.347453,-0.347453 -0.562366,-0.827457 -0.562366,-1.35764l0 -0.106669 0.106669 0 1.70667 0zm1.76602 -1.55268c-0.424654,-0.424654 -1.01133,-0.687311 -1.65935,-0.687311 -0.648024,0 -1.2347,0.262657 -1.65935,0.687311 -0.424654,0.424654 -0.687311,1.01133 -0.687311,1.65935 0,0.648024 0.262657,1.2347 0.687311,1.65935 0.424654,0.424654 1.01133,0.687311 1.65935,0.687311 0.648024,0 1.2347,-0.262657 1.65935,-0.687311 0.424654,-0.424654 0.687311,-1.01133 0.687311,-1.65935 0,-0.648024 -0.262657,-1.2347 -0.687311,-1.65935z"/>
  <path class="fil2" d="M3.52 1.70996l0 1.70337 0 0.106669 -0.106669 0 -1.70337 0c0.0264449,0.428811 0.211205,0.814772 0.496567,1.10013 0.308839,0.308839 0.735508,0.499862 1.2068,0.499862 0.471295,0 0.897965,-0.191024 1.2068,-0.499862 0.308839,-0.308839 0.499862,-0.735508 0.499862,-1.2068 0,-0.471295 -0.191024,-0.897965 -0.499862,-1.2068 -0.285362,-0.285362 -0.671323,-0.470122 -1.10013,-0.496567z"/>
 </g>
 <rect class="fil3" width="6.82666" height="6.82666"/>
</svg>
