<?xml version="1.0" encoding="UTF-8"?>
<svg xmlns="http://www.w3.org/2000/svg" xmlns:xlink="http://www.w3.org/1999/xlink" width="54px" height="54px" viewBox="0 0 54 54" version="1.1">
<g id="surface1">
<path style=" stroke:none;fill-rule:nonzero;fill:rgb(25.098041%,76.862746%,100%);fill-opacity:1;" d="M 21.9375 21.09375 L 8.4375 21.09375 C 7.972656 21.09375 7.59375 20.714844 7.59375 20.25 L 7.59375 12.65625 C 7.59375 12.191406 7.972656 11.8125 8.4375 11.8125 L 21.9375 11.8125 C 22.402344 11.8125 22.78125 12.191406 22.78125 12.65625 L 22.78125 20.25 C 22.78125 20.714844 22.402344 21.09375 21.9375 21.09375 Z M 21.9375 21.09375 "/>
<path style=" stroke:none;fill-rule:nonzero;fill:rgb(14.901961%,19.607843%,21.960784%);fill-opacity:1;" d="M 21.9375 21.515625 L 8.4375 21.515625 C 7.738281 21.515625 7.171875 20.949219 7.171875 20.25 L 7.171875 12.65625 C 7.171875 11.957031 7.738281 11.390625 8.4375 11.390625 L 21.9375 11.390625 C 22.636719 11.390625 23.203125 11.957031 23.203125 12.65625 L 23.203125 20.25 C 23.203125 20.949219 22.636719 21.515625 21.9375 21.515625 Z M 8.4375 12.234375 C 8.203125 12.234375 8.015625 12.421875 8.015625 12.65625 L 8.015625 20.25 C 8.015625 20.484375 8.203125 20.671875 8.4375 20.671875 L 21.9375 20.671875 C 22.171875 20.671875 22.359375 20.484375 22.359375 20.25 L 22.359375 12.65625 C 22.359375 12.421875 22.171875 12.234375 21.9375 12.234375 Z M 8.4375 12.234375 "/>
<path style=" stroke:none;fill-rule:nonzero;fill:rgb(100%,84.313726%,25.098041%);fill-opacity:1;" d="M 8.015625 32.484375 L 12.234375 28.6875 L 16.453125 29.53125 L 20.671875 25.3125 L 24.890625 26.578125 L 29.109375 21.515625 L 33.328125 32.90625 L 37.546875 28.265625 L 41.765625 29.953125 L 45.984375 17.296875 L 45.984375 42.609375 L 8.015625 42.609375 Z M 8.015625 32.484375 "/>
<path style=" stroke:none;fill-rule:nonzero;fill:rgb(14.901961%,19.607843%,21.960784%);fill-opacity:1;" d="M 48.515625 46.40625 L 5.484375 46.40625 C 4.089844 46.40625 2.953125 45.226562 2.953125 43.777344 L 2.953125 10.222656 C 2.953125 8.773438 4.089844 7.59375 5.484375 7.59375 L 48.515625 7.59375 C 49.910156 7.59375 51.046875 8.773438 51.046875 10.222656 L 51.046875 43.777344 C 51.046875 45.226562 49.910156 46.40625 48.515625 46.40625 Z M 5.484375 8.4375 C 4.554688 8.4375 3.796875 9.238281 3.796875 10.222656 L 3.796875 43.777344 C 3.796875 44.761719 4.554688 45.5625 5.484375 45.5625 L 48.515625 45.5625 C 49.445312 45.5625 50.203125 44.761719 50.203125 43.777344 L 50.203125 10.222656 C 50.203125 9.238281 49.445312 8.4375 48.515625 8.4375 Z M 5.484375 8.4375 "/>
<path style=" stroke:none;fill-rule:nonzero;fill:rgb(14.901961%,19.607843%,21.960784%);fill-opacity:1;" d="M 17.71875 14.765625 L 9.28125 14.765625 C 9.046875 14.765625 8.859375 14.578125 8.859375 14.34375 C 8.859375 14.109375 9.046875 13.921875 9.28125 13.921875 L 17.71875 13.921875 C 17.953125 13.921875 18.140625 14.109375 18.140625 14.34375 C 18.140625 14.578125 17.953125 14.765625 17.71875 14.765625 Z M 17.71875 14.765625 "/>
<path style=" stroke:none;fill-rule:nonzero;fill:rgb(14.901961%,19.607843%,21.960784%);fill-opacity:1;" d="M 17.71875 16.875 L 9.28125 16.875 C 9.046875 16.875 8.859375 16.6875 8.859375 16.453125 C 8.859375 16.21875 9.046875 16.03125 9.28125 16.03125 L 17.71875 16.03125 C 17.953125 16.03125 18.140625 16.21875 18.140625 16.453125 C 18.140625 16.6875 17.953125 16.875 17.71875 16.875 Z M 17.71875 16.875 "/>
<path style=" stroke:none;fill-rule:nonzero;fill:rgb(14.901961%,19.607843%,21.960784%);fill-opacity:1;" d="M 13.5 18.984375 L 9.28125 18.984375 C 9.046875 18.984375 8.859375 18.796875 8.859375 18.5625 C 8.859375 18.328125 9.046875 18.140625 9.28125 18.140625 L 13.5 18.140625 C 13.734375 18.140625 13.921875 18.328125 13.921875 18.5625 C 13.921875 18.796875 13.734375 18.984375 13.5 18.984375 Z M 13.5 18.984375 "/>
<path style=" stroke:none;fill-rule:nonzero;fill:rgb(14.901961%,19.607843%,21.960784%);fill-opacity:1;" d="M 33.328125 33.328125 C 33.300781 33.328125 33.273438 33.324219 33.246094 33.320312 C 33.105469 33.292969 32.984375 33.191406 32.933594 33.054688 L 28.964844 22.347656 L 25.214844 26.847656 C 25.105469 26.976562 24.929688 27.03125 24.769531 26.980469 L 20.792969 25.789062 L 16.75 29.828125 C 16.652344 29.929688 16.507812 29.972656 16.371094 29.945312 L 12.359375 29.144531 L 8.296875 32.796875 C 8.121094 32.953125 7.859375 32.941406 7.703125 32.765625 C 7.546875 32.59375 7.558594 32.328125 7.734375 32.171875 L 11.953125 28.375 C 12.050781 28.285156 12.1875 28.25 12.316406 28.273438 L 16.3125 29.074219 L 20.375 25.015625 C 20.484375 24.902344 20.644531 24.863281 20.792969 24.910156 L 24.746094 26.09375 L 28.785156 21.246094 C 28.882812 21.128906 29.027344 21.074219 29.179688 21.101562 C 29.328125 21.125 29.453125 21.226562 29.503906 21.367188 L 33.484375 32.109375 L 37.234375 27.980469 C 37.351562 27.851562 37.539062 27.808594 37.703125 27.875 L 41.507812 29.394531 L 45.585938 17.164062 C 45.660156 16.941406 45.894531 16.820312 46.117188 16.894531 C 46.339844 16.96875 46.457031 17.207031 46.386719 17.429688 L 42.167969 30.085938 C 42.128906 30.195312 42.050781 30.285156 41.945312 30.335938 C 41.839844 30.382812 41.71875 30.386719 41.609375 30.34375 L 37.664062 28.765625 L 33.640625 33.1875 C 33.558594 33.277344 33.445312 33.328125 33.328125 33.328125 Z M 33.328125 33.328125 "/>
<path style=" stroke:none;fill-rule:nonzero;fill:rgb(14.901961%,19.607843%,21.960784%);fill-opacity:1;" d="M 12.234375 43.03125 C 12 43.03125 11.8125 42.84375 11.8125 42.609375 L 11.8125 28.6875 C 11.8125 28.453125 12 28.265625 12.234375 28.265625 C 12.46875 28.265625 12.65625 28.453125 12.65625 28.6875 L 12.65625 42.609375 C 12.65625 42.84375 12.46875 43.03125 12.234375 43.03125 Z M 12.234375 43.03125 "/>
<path style=" stroke:none;fill-rule:nonzero;fill:rgb(14.901961%,19.607843%,21.960784%);fill-opacity:1;" d="M 16.453125 43.03125 C 16.21875 43.03125 16.03125 42.84375 16.03125 42.609375 L 16.03125 29.53125 C 16.03125 29.296875 16.21875 29.109375 16.453125 29.109375 C 16.6875 29.109375 16.875 29.296875 16.875 29.53125 L 16.875 42.609375 C 16.875 42.84375 16.6875 43.03125 16.453125 43.03125 Z M 16.453125 43.03125 "/>
<path style=" stroke:none;fill-rule:nonzero;fill:rgb(14.901961%,19.607843%,21.960784%);fill-opacity:1;" d="M 20.671875 43.03125 C 20.4375 43.03125 20.25 42.84375 20.25 42.609375 L 20.25 25.3125 C 20.25 25.078125 20.4375 24.890625 20.671875 24.890625 C 20.90625 24.890625 21.09375 25.078125 21.09375 25.3125 L 21.09375 42.609375 C 21.09375 42.84375 20.90625 43.03125 20.671875 43.03125 Z M 20.671875 43.03125 "/>
<path style=" stroke:none;fill-rule:nonzero;fill:rgb(14.901961%,19.607843%,21.960784%);fill-opacity:1;" d="M 24.890625 43.03125 C 24.65625 43.03125 24.46875 42.84375 24.46875 42.609375 L 24.46875 26.578125 C 24.46875 26.34375 24.65625 26.15625 24.890625 26.15625 C 25.125 26.15625 25.3125 26.34375 25.3125 26.578125 L 25.3125 42.609375 C 25.3125 42.84375 25.125 43.03125 24.890625 43.03125 Z M 24.890625 43.03125 "/>
<path style=" stroke:none;fill-rule:nonzero;fill:rgb(14.901961%,19.607843%,21.960784%);fill-opacity:1;" d="M 29.109375 43.03125 C 28.875 43.03125 28.6875 42.84375 28.6875 42.609375 L 28.6875 21.515625 C 28.6875 21.28125 28.875 21.09375 29.109375 21.09375 C 29.34375 21.09375 29.53125 21.28125 29.53125 21.515625 L 29.53125 42.609375 C 29.53125 42.84375 29.34375 43.03125 29.109375 43.03125 Z M 29.109375 43.03125 "/>
<path style=" stroke:none;fill-rule:nonzero;fill:rgb(14.901961%,19.607843%,21.960784%);fill-opacity:1;" d="M 33.328125 43.03125 C 33.09375 43.03125 32.90625 42.84375 32.90625 42.609375 L 32.90625 32.90625 C 32.90625 32.671875 33.09375 32.484375 33.328125 32.484375 C 33.5625 32.484375 33.75 32.671875 33.75 32.90625 L 33.75 42.609375 C 33.75 42.84375 33.5625 43.03125 33.328125 43.03125 Z M 33.328125 43.03125 "/>
<path style=" stroke:none;fill-rule:nonzero;fill:rgb(14.901961%,19.607843%,21.960784%);fill-opacity:1;" d="M 37.546875 43.03125 C 37.3125 43.03125 37.125 42.84375 37.125 42.609375 L 37.125 28.265625 C 37.125 28.03125 37.3125 27.84375 37.546875 27.84375 C 37.78125 27.84375 37.96875 28.03125 37.96875 28.265625 L 37.96875 42.609375 C 37.96875 42.84375 37.78125 43.03125 37.546875 43.03125 Z M 37.546875 43.03125 "/>
<path style=" stroke:none;fill-rule:nonzero;fill:rgb(14.901961%,19.607843%,21.960784%);fill-opacity:1;" d="M 41.765625 43.03125 C 41.53125 43.03125 41.34375 42.84375 41.34375 42.609375 L 41.34375 29.953125 C 41.34375 29.71875 41.53125 29.53125 41.765625 29.53125 C 42 29.53125 42.1875 29.71875 42.1875 29.953125 L 42.1875 42.609375 C 42.1875 42.84375 42 43.03125 41.765625 43.03125 Z M 41.765625 43.03125 "/>
<path style=" stroke:none;fill-rule:nonzero;fill:rgb(14.901961%,19.607843%,21.960784%);fill-opacity:1;" d="M 32.90625 49.78125 L 31.21875 49.78125 C 30.984375 49.78125 30.796875 49.59375 30.796875 49.359375 C 30.796875 49.125 30.984375 48.9375 31.21875 48.9375 L 32.90625 48.9375 C 33.140625 48.9375 33.328125 49.125 33.328125 49.359375 C 33.328125 49.59375 33.140625 49.78125 32.90625 49.78125 Z M 32.90625 49.78125 "/>
<path style=" stroke:none;fill-rule:nonzero;fill:rgb(14.901961%,19.607843%,21.960784%);fill-opacity:1;" d="M 29.53125 49.78125 L 12.65625 49.78125 C 12.421875 49.78125 12.234375 49.59375 12.234375 49.359375 C 12.234375 49.125 12.421875 48.9375 12.65625 48.9375 L 29.53125 48.9375 C 29.765625 48.9375 29.953125 49.125 29.953125 49.359375 C 29.953125 49.59375 29.765625 49.78125 29.53125 49.78125 Z M 29.53125 49.78125 "/>
<path style=" stroke:none;fill-rule:nonzero;fill:rgb(14.901961%,19.607843%,21.960784%);fill-opacity:1;" d="M 27 5.0625 L 25.3125 5.0625 C 25.078125 5.0625 24.890625 4.875 24.890625 4.640625 C 24.890625 4.40625 25.078125 4.21875 25.3125 4.21875 L 27 4.21875 C 27.234375 4.21875 27.421875 4.40625 27.421875 4.640625 C 27.421875 4.875 27.234375 5.0625 27 5.0625 Z M 27 5.0625 "/>
<path style=" stroke:none;fill-rule:nonzero;fill:rgb(14.901961%,19.607843%,21.960784%);fill-opacity:1;" d="M 45.5625 5.0625 L 28.6875 5.0625 C 28.453125 5.0625 28.265625 4.875 28.265625 4.640625 C 28.265625 4.40625 28.453125 4.21875 28.6875 4.21875 L 45.5625 4.21875 C 45.796875 4.21875 45.984375 4.40625 45.984375 4.640625 C 45.984375 4.875 45.796875 5.0625 45.5625 5.0625 Z M 45.5625 5.0625 "/>
</g>
</svg>
