<?xml version="1.0" encoding="UTF-8"?>
<svg version="1.1" xmlns="http://www.w3.org/2000/svg" width="32" height="32">
<path d="M0 0 C2.9375 0.1875 2.9375 0.1875 3.9375 1.1875 C6.9375 1.35416667 6.9375 1.35416667 9.9375 1.1875 C10.2675 0.8575 10.5975 0.5275 10.9375 0.1875 C13.875 0 13.875 0 16.9375 0.1875 C18.9375 2.1875 18.9375 2.1875 19.0546875 5.70703125 C18.98543844 7.13862231 18.90420403 8.5696718 18.8125 10 C18.78929688 10.71220703 18.76609375 11.42441406 18.7421875 12.15820312 C18.45218494 17.05652759 17.42101299 19.73685034 13.9375 23.1875 C10.24024625 25.03612688 5.97288558 24.66337094 1.9375 24.1875 C-0.99673195 22.39103146 -2.53455355 21.2433929 -4.0625 18.1875 C-4.34768157 15.51428286 -4.57427967 12.86782082 -4.75 10.1875 C-4.80994141 9.45015625 -4.86988281 8.7128125 -4.93164062 7.953125 C-5.05939861 6.03500506 -5.06871453 4.1098599 -5.0625 2.1875 C-3.0625 0.1875 -3.0625 0.1875 0 0 Z M-2.0625 3.1875 C-2.0625 4.5075 -2.0625 5.8275 -2.0625 7.1875 C-0.7425 7.1875 0.5775 7.1875 1.9375 7.1875 C1.9375 5.8675 1.9375 4.5475 1.9375 3.1875 C0.6175 3.1875 -0.7025 3.1875 -2.0625 3.1875 Z M11.9375 3.1875 C11.9375 4.5075 11.9375 5.8275 11.9375 7.1875 C13.2575 7.1875 14.5775 7.1875 15.9375 7.1875 C15.9375 5.8675 15.9375 4.5475 15.9375 3.1875 C14.6175 3.1875 13.2975 3.1875 11.9375 3.1875 Z M4.9375 5.1875 C4.69 5.826875 4.4425 6.46625 4.1875 7.125 C2.9375 9.1875 2.9375 9.1875 0.8125 9.9375 C-0.115625 10.06125 -0.115625 10.06125 -1.0625 10.1875 C-1.4592082 15.15344574 -1.4592082 15.15344574 0.4375 19.625 C3.95876244 21.82578902 6.89189643 21.99164661 10.9375 21.1875 C13.5844872 19.79064994 13.5844872 19.79064994 14.9375 17.1875 C15.27167929 13.5199787 15.27167929 13.5199787 14.9375 10.1875 C14.133125 9.919375 13.32875 9.65125 12.5 9.375 C11.654375 8.983125 10.80875 8.59125 9.9375 8.1875 C9.6075 7.1975 9.2775 6.2075 8.9375 5.1875 C7.6175 5.1875 6.2975 5.1875 4.9375 5.1875 Z " fill="#000000" transform="translate(9.0625,3.8125)"/>
<path d="M0 0 C0.67546875 0.08378906 1.3509375 0.16757812 2.046875 0.25390625 C2.93890625 0.35574219 3.8309375 0.45757813 4.75 0.5625 C6.07257812 0.71912109 6.07257812 0.71912109 7.421875 0.87890625 C9.88432451 0.99456676 11.66538064 0.73638695 14 0 C13.625 1.9375 13.625 1.9375 13 4 C9.87293041 5.5635348 6.42017557 5.39958487 3 5 C2.01 4.34 1.02 3.68 0 3 C0 2.01 0 1.02 0 0 Z " fill="#000000" transform="translate(9,18)"/>
<path d="M0 0 C0.66 0 1.32 0 2 0 C2 0.66 2 1.32 2 2 C1.34 2 0.68 2 0 2 C0 1.34 0 0.68 0 0 Z " fill="#000000" transform="translate(22,8)"/>
<path d="M0 0 C0.66 0 1.32 0 2 0 C2 0.66 2 1.32 2 2 C1.34 2 0.68 2 0 2 C0 1.34 0 0.68 0 0 Z " fill="#000000" transform="translate(8,8)"/>
</svg>
