<?xml version="1.0" encoding="UTF-8"?>
<svg xmlns="http://www.w3.org/2000/svg" xmlns:xlink="http://www.w3.org/1999/xlink" width="64px" height="57px" viewBox="0 0 63 57" version="1.1">
<g id="surface1">
<path style=" stroke:none;fill-rule:nonzero;fill:rgb(5.098039%,4.705882%,4.705882%);fill-opacity:1;" d="M 0 0 C 20.789062 0 41.578125 0 63 0 C 63 18.808594 63 37.621094 63 57 C 42.210938 57 21.421875 57 0 57 C 0 38.191406 0 19.378906 0 0 Z M 0 0 "/>
<path style=" stroke:none;fill-rule:nonzero;fill:rgb(99.215686%,99.215686%,99.215686%);fill-opacity:1;" d="M 18.332031 1.472656 C 19.675781 1.449219 20.9375 1.6875 22.234375 2.007812 C 22.339844 2.03125 22.445312 2.058594 22.554688 2.082031 C 23.230469 2.253906 23.882812 2.476562 24.539062 2.71875 C 24.625 2.746094 24.707031 2.777344 24.792969 2.808594 C 25.117188 2.929688 25.394531 3.035156 25.683594 3.230469 C 25.683594 3.289062 25.683594 3.34375 25.683594 3.402344 C 25.410156 3.496094 25.1875 3.511719 24.898438 3.527344 C 24.792969 3.535156 24.683594 3.542969 24.574219 3.546875 C 24.515625 3.550781 24.460938 3.554688 24.402344 3.558594 C 21.019531 3.753906 17.542969 4.101562 14.480469 5.671875 C 14.425781 5.703125 14.371094 5.730469 14.316406 5.757812 C 13.183594 6.347656 12.21875 7.160156 11.289062 8.03125 C 11.332031 8 11.371094 7.972656 11.414062 7.945312 C 14.265625 5.980469 17.386719 4.988281 20.78125 4.472656 C 20.839844 4.464844 20.894531 4.457031 20.957031 4.445312 C 22.867188 4.15625 24.777344 4.066406 26.707031 4.066406 C 26.949219 4.066406 27.1875 4.0625 27.429688 4.058594 C 29.082031 4.039062 30.492188 4.046875 31.886719 5.0625 C 32.058594 5.238281 32.058594 5.238281 32.058594 5.5 C 31.929688 5.5 31.929688 5.5 31.792969 5.503906 C 26.441406 5.585938 20.550781 5.835938 16.570312 9.988281 C 16.246094 10.363281 15.960938 10.761719 15.683594 11.171875 C 16.199219 10.847656 16.679688 10.480469 17.160156 10.105469 C 18.691406 8.910156 20.34375 7.796875 22.214844 7.242188 C 22.425781 7.179688 22.621094 7.109375 22.824219 7.027344 C 23.203125 6.882812 23.582031 6.796875 23.980469 6.722656 C 24.054688 6.707031 24.128906 6.691406 24.207031 6.675781 C 24.738281 6.574219 25.269531 6.484375 25.804688 6.398438 C 25.90625 6.382812 25.90625 6.382812 26.007812 6.367188 C 27.191406 6.191406 28.371094 6.179688 29.5625 6.175781 C 29.84375 6.175781 30.121094 6.171875 30.402344 6.171875 C 32.453125 6.160156 35.011719 6.15625 36.617188 7.65625 C 37.035156 8.121094 37.335938 8.613281 37.339844 9.253906 C 37.332031 9.367188 37.324219 9.484375 37.316406 9.601562 C 36.597656 9.472656 35.945312 9.199219 35.269531 8.917969 C 35.046875 8.828125 34.828125 8.738281 34.605469 8.644531 C 34.550781 8.621094 34.496094 8.601562 34.4375 8.578125 C 33.226562 8.078125 33.226562 8.078125 31.972656 7.707031 C 31.90625 7.691406 31.839844 7.675781 31.769531 7.65625 C 30.695312 7.390625 29.65625 7.300781 28.554688 7.304688 C 28.339844 7.304688 28.125 7.304688 27.90625 7.300781 C 26.6875 7.296875 25.460938 7.40625 24.304688 7.828125 C 24.242188 7.851562 24.175781 7.875 24.113281 7.894531 C 22.261719 8.566406 20.601562 9.523438 19.046875 10.738281 C 18.917969 10.835938 18.785156 10.9375 18.65625 11.035156 C 18.402344 11.230469 18.152344 11.425781 17.898438 11.621094 C 17.84375 11.664062 17.789062 11.707031 17.730469 11.753906 C 17.605469 11.851562 17.480469 11.957031 17.359375 12.066406 C 17.113281 12.25 16.878906 12.339844 16.589844 12.4375 C 16.429688 12.496094 16.429688 12.496094 16.265625 12.550781 C 15.976562 12.644531 15.6875 12.730469 15.394531 12.816406 C 14.804688 12.992188 14.277344 13.269531 13.730469 13.554688 C 13.445312 13.703125 13.445312 13.703125 13.1875 13.792969 C 12.964844 14.171875 12.964844 14.585938 13.015625 15.015625 C 13.308594 15.773438 14.179688 16.167969 14.84375 16.535156 C 15.804688 17.070312 16.722656 17.640625 17.597656 18.308594 C 21.0625 20.914062 24.9375 22.605469 29.335938 22.625 C 29.457031 22.625 29.457031 22.625 29.585938 22.628906 C 29.761719 22.628906 29.933594 22.628906 30.109375 22.628906 C 30.371094 22.628906 30.632812 22.632812 30.894531 22.636719 C 32.339844 22.644531 33.714844 22.515625 35.085938 22.03125 C 35.175781 22 35.261719 21.96875 35.351562 21.9375 C 36.625 21.480469 37.703125 20.808594 38.78125 19.988281 C 39.359375 19.554688 39.359375 19.554688 39.558594 19.554688 C 39.378906 20.488281 38.695312 21.300781 38.09375 21.996094 C 38 22.109375 38 22.109375 37.90625 22.226562 C 37.035156 23.257812 35.863281 24.019531 34.558594 24.355469 C 34.417969 24.390625 34.417969 24.390625 34.277344 24.425781 C 32.320312 24.855469 30.230469 24.664062 28.269531 24.355469 C 28.136719 24.332031 28.136719 24.332031 28.003906 24.3125 C 26.78125 24.113281 25.582031 23.8125 24.382812 23.484375 C 24.285156 23.460938 24.285156 23.460938 24.183594 23.433594 C 21.859375 22.800781 19.246094 21.980469 17.410156 20.339844 C 17.410156 20.574219 17.757812 20.8125 17.917969 20.972656 C 19.242188 22.277344 20.835938 23.027344 22.578125 23.566406 C 22.640625 23.585938 22.699219 23.605469 22.757812 23.625 C 24.453125 24.160156 26.175781 24.566406 27.921875 24.878906 C 28.074219 24.90625 28.074219 24.90625 28.230469 24.933594 C 29.332031 25.132812 30.429688 25.15625 31.546875 25.160156 C 31.785156 25.160156 32.023438 25.164062 32.261719 25.167969 C 34.441406 25.179688 36.425781 24.597656 38.023438 23.027344 C 38.101562 22.945312 38.183594 22.867188 38.265625 22.78125 C 38.367188 22.679688 38.367188 22.679688 38.472656 22.574219 C 39.742188 21.214844 40.519531 19.46875 41.324219 17.804688 C 41.363281 17.726562 41.398438 17.648438 41.4375 17.566406 C 41.472656 17.5 41.503906 17.429688 41.539062 17.359375 C 41.625 17.195312 41.625 17.195312 41.800781 17.019531 C 42.167969 17.035156 42.410156 17.316406 42.675781 17.546875 C 44.5 19.042969 46.804688 19.609375 49.039062 20.164062 C 49.097656 20.179688 49.15625 20.195312 49.21875 20.210938 C 49.699219 20.332031 50.152344 20.363281 50.644531 20.363281 C 50.761719 20.363281 50.761719 20.363281 50.878906 20.363281 C 51.042969 20.363281 51.207031 20.363281 51.371094 20.359375 C 51.613281 20.359375 51.859375 20.359375 52.105469 20.363281 C 53.449219 20.363281 54.761719 20.265625 56.078125 19.960938 C 56.160156 19.945312 56.246094 19.925781 56.332031 19.90625 C 56.929688 19.765625 57.507812 19.589844 58.082031 19.371094 C 58.363281 19.285156 58.570312 19.253906 58.863281 19.289062 C 59.03125 19.414062 59.03125 19.414062 59.160156 19.574219 C 59.203125 19.628906 59.25 19.679688 59.292969 19.734375 C 59.378906 19.902344 59.378906 19.902344 59.386719 20.078125 C 59.1875 20.449219 58.671875 20.578125 58.300781 20.738281 C 58.066406 20.84375 57.832031 20.949219 57.597656 21.0625 C 55.957031 21.851562 54.546875 21.941406 52.769531 21.898438 C 52.503906 21.890625 52.242188 21.890625 51.980469 21.890625 C 50.761719 21.882812 49.550781 21.871094 48.351562 21.617188 C 48.09375 21.550781 48.09375 21.550781 47.832031 21.558594 C 48.183594 21.691406 48.53125 21.820312 48.882812 21.949219 C 48.980469 21.984375 49.082031 22.019531 49.183594 22.058594 C 49.328125 22.113281 49.328125 22.113281 49.472656 22.164062 C 49.5625 22.199219 49.648438 22.230469 49.738281 22.265625 C 50.140625 22.398438 50.488281 22.445312 50.910156 22.429688 C 51.003906 22.425781 51.101562 22.421875 51.203125 22.421875 C 51.304688 22.417969 51.410156 22.414062 51.515625 22.410156 C 51.796875 22.40625 52.074219 22.398438 52.355469 22.394531 C 52.644531 22.390625 52.933594 22.382812 53.226562 22.371094 C 55.414062 22.300781 55.414062 22.300781 56.023438 22.835938 C 56.097656 22.914062 56.167969 22.996094 56.242188 23.078125 C 56.59375 23.464844 57.050781 23.660156 57.511719 23.894531 C 59.136719 24.730469 59.136719 24.730469 59.464844 25.664062 C 59.636719 26.21875 59.765625 26.738281 59.726562 27.320312 C 59.351562 27.339844 59.117188 27.289062 58.777344 27.148438 C 57.921875 26.898438 57.050781 26.714844 56.179688 26.523438 C 56.082031 26.503906 55.980469 26.480469 55.878906 26.457031 C 54.753906 26.214844 53.660156 26.070312 52.503906 26.066406 C 52.386719 26.066406 52.265625 26.066406 52.144531 26.0625 C 51.757812 26.0625 51.375 26.0625 50.988281 26.0625 C 50.921875 26.0625 50.855469 26.0625 50.789062 26.0625 C 48.472656 26.058594 46.203125 26.1875 43.90625 26.507812 C 43.707031 26.535156 43.503906 26.5625 43.300781 26.585938 C 42.425781 26.699219 41.550781 26.828125 40.679688 26.972656 C 40.554688 26.992188 40.554688 26.992188 40.433594 27.011719 C 36.8125 27.605469 33.238281 28.308594 29.734375 29.417969 C 29.671875 29.433594 29.613281 29.453125 29.550781 29.472656 C 27.925781 29.988281 26.351562 30.597656 24.789062 31.277344 C 24.710938 31.308594 24.636719 31.34375 24.554688 31.378906 C 22.660156 32.074219 22.660156 32.074219 21.363281 33.492188 C 21.046875 34.695312 21.34375 35.945312 21.71875 37.097656 C 21.738281 37.160156 21.757812 37.21875 21.777344 37.28125 C 22.601562 39.820312 24.265625 41.90625 26.050781 43.828125 C 26.257812 44.050781 26.457031 44.277344 26.65625 44.507812 C 27.679688 45.648438 28.742188 46.601562 29.992188 47.484375 C 30.113281 47.574219 30.238281 47.664062 30.359375 47.75 C 31.605469 48.644531 32.921875 49.324219 34.300781 49.980469 C 34.546875 50.097656 34.789062 50.21875 35.035156 50.34375 C 37.648438 51.65625 40.519531 52.886719 43.480469 52.917969 C 43.546875 52.917969 43.617188 52.917969 43.6875 52.921875 C 46.113281 52.945312 48.40625 52.707031 50.78125 52.164062 C 51.183594 52.074219 51.585938 51.996094 51.988281 51.914062 C 52.128906 51.886719 52.265625 51.859375 52.40625 51.832031 C 52.464844 51.820312 52.519531 51.808594 52.578125 51.796875 C 52.695312 51.773438 52.8125 51.746094 52.925781 51.714844 C 53.109375 51.671875 53.269531 51.667969 53.457031 51.667969 C 53.5625 51.671875 53.667969 51.671875 53.777344 51.675781 C 53.453125 52.554688 51.894531 53.175781 51.105469 53.597656 C 51.050781 53.625 50.992188 53.65625 50.933594 53.6875 C 49.914062 54.222656 48.847656 54.589844 47.746094 54.90625 C 47.667969 54.929688 47.585938 54.949219 47.507812 54.972656 C 46.851562 55.152344 46.191406 55.25 45.519531 55.328125 C 45.339844 55.347656 45.164062 55.367188 44.988281 55.390625 C 44.679688 55.425781 44.371094 55.460938 44.066406 55.496094 C 43.929688 55.507812 43.796875 55.523438 43.664062 55.539062 C 42.363281 55.691406 41.074219 55.722656 39.769531 55.71875 C 39.664062 55.71875 39.558594 55.71875 39.449219 55.71875 C 37.4375 55.710938 35.445312 55.613281 33.4375 55.429688 C 33.292969 55.414062 33.292969 55.414062 33.144531 55.402344 C 30.839844 55.191406 28.535156 54.964844 26.242188 54.632812 C 26.171875 54.621094 26.101562 54.613281 26.03125 54.601562 C 25.1875 54.480469 24.351562 54.328125 23.519531 54.152344 C 23.082031 54.0625 22.640625 53.984375 22.199219 53.914062 C 20.617188 53.65625 19.050781 53.300781 17.496094 52.914062 C 17.121094 52.824219 16.742188 52.738281 16.363281 52.652344 C 15.964844 52.5625 15.566406 52.46875 15.167969 52.375 C 15.082031 52.351562 14.992188 52.332031 14.90625 52.3125 C 14.636719 52.25 14.371094 52.183594 14.105469 52.117188 C 14.027344 52.097656 13.945312 52.078125 13.863281 52.058594 C 13.296875 51.914062 12.875 51.683594 12.410156 51.328125 C 12.335938 51.269531 12.257812 51.210938 12.179688 51.148438 C 12.085938 51.074219 12.085938 51.074219 11.992188 50.992188 C 11.882812 50.902344 11.882812 50.902344 11.769531 50.8125 C 11.660156 50.722656 11.660156 50.722656 11.546875 50.628906 C 11.476562 50.566406 11.402344 50.507812 11.324219 50.445312 C 11.082031 50.246094 10.839844 50.042969 10.601562 49.84375 C 10.535156 49.785156 10.535156 49.785156 10.464844 49.730469 C 9.222656 48.695312 8.042969 47.558594 7.066406 46.261719 C 7 46.179688 6.929688 46.09375 6.859375 46.003906 C 6.3125 45.320312 5.867188 44.59375 5.441406 43.824219 C 5.351562 43.660156 5.257812 43.492188 5.164062 43.328125 C 4.683594 42.464844 4.324219 41.558594 3.96875 40.640625 C 3.898438 40.464844 3.824219 40.292969 3.75 40.121094 C 2.507812 37.117188 2.035156 33.761719 1.578125 30.5625 C 1.554688 30.394531 1.527344 30.226562 1.5 30.058594 C 1.433594 29.492188 1.449219 28.914062 1.449219 28.34375 C 1.449219 28.210938 1.449219 28.078125 1.449219 27.949219 C 1.449219 27.671875 1.449219 27.394531 1.449219 27.117188 C 1.449219 26.839844 1.449219 26.558594 1.449219 26.28125 C 1.429688 22.148438 1.878906 18.132812 2.804688 14.109375 C 2.820312 14.039062 2.839844 13.96875 2.855469 13.898438 C 3.113281 12.765625 3.410156 11.757812 4.117188 10.820312 C 4.335938 10.523438 4.539062 10.21875 4.738281 9.90625 C 5.316406 9.023438 5.914062 8.1875 6.636719 7.417969 C 6.683594 7.371094 6.730469 7.320312 6.777344 7.269531 C 9.109375 4.804688 12.210938 2.820312 15.476562 1.914062 C 15.65625 1.867188 15.835938 1.8125 16.015625 1.757812 C 16.777344 1.519531 17.539062 1.5 18.332031 1.472656 Z M 18.332031 1.472656 "/>
<path style=" stroke:none;fill-rule:nonzero;fill:rgb(99.215686%,99.215686%,99.215686%);fill-opacity:1;" d="M 0 0 C 20.789062 0 41.578125 0 63 0 C 63 18.808594 63 37.621094 63 57 C 42.210938 57 21.421875 57 0 57 C 0 38.191406 0 19.378906 0 0 Z M 14.996094 1.308594 C 14.871094 1.351562 14.871094 1.351562 14.746094 1.390625 C 9.480469 3.175781 5.578125 6.699219 2.84375 11.523438 C 2.8125 11.574219 2.785156 11.625 2.753906 11.675781 C 2.222656 12.644531 2.074219 13.859375 1.859375 14.9375 C 1.839844 15.03125 1.839844 15.03125 1.820312 15.128906 C 1.398438 17.234375 1.050781 19.332031 0.863281 21.472656 C 0.851562 21.566406 0.84375 21.660156 0.835938 21.757812 C 0.519531 25.09375 0.496094 28.546875 1.035156 31.859375 C 1.0625 32.054688 1.089844 32.25 1.117188 32.441406 C 1.671875 36.21875 2.636719 39.863281 4.308594 43.296875 C 4.355469 43.390625 4.355469 43.390625 4.402344 43.484375 C 5.707031 46.171875 7.851562 48.691406 10.183594 50.523438 C 10.386719 50.683594 10.582031 50.84375 10.777344 51.011719 C 10.839844 51.066406 10.902344 51.117188 10.96875 51.171875 C 11.09375 51.277344 11.214844 51.382812 11.335938 51.488281 C 12.1875 52.207031 12.960938 52.636719 14.046875 52.886719 C 14.167969 52.914062 14.285156 52.945312 14.402344 52.972656 C 16.472656 53.46875 18.566406 53.882812 20.652344 54.304688 C 20.941406 54.363281 21.234375 54.421875 21.523438 54.484375 C 22.878906 54.761719 24.234375 55 25.605469 55.195312 C 26.203125 55.277344 26.796875 55.371094 27.394531 55.46875 C 28.160156 55.59375 28.925781 55.675781 29.699219 55.75 C 29.832031 55.765625 29.96875 55.777344 30.105469 55.789062 C 30.457031 55.824219 30.808594 55.859375 31.160156 55.894531 C 31.449219 55.921875 31.734375 55.949219 32.019531 55.976562 C 32.363281 56.011719 32.710938 56.042969 33.054688 56.078125 C 33.117188 56.085938 33.183594 56.089844 33.25 56.097656 C 34.332031 56.203125 35.414062 56.308594 36.5 56.347656 C 36.59375 56.351562 36.6875 56.355469 36.78125 56.359375 C 37.863281 56.398438 38.949219 56.410156 40.03125 56.410156 C 40.191406 56.410156 40.191406 56.410156 40.351562 56.410156 C 42.675781 56.410156 44.949219 56.28125 47.226562 55.777344 C 47.320312 55.757812 47.320312 55.757812 47.417969 55.738281 C 48.371094 55.53125 49.261719 55.195312 50.160156 54.816406 C 50.253906 54.777344 50.351562 54.738281 50.449219 54.695312 C 52.328125 53.851562 54.089844 52.742188 55.675781 51.414062 C 55.734375 51.363281 55.796875 51.3125 55.859375 51.261719 C 57.132812 50.097656 57.128906 48.050781 57.226562 46.4375 C 57.246094 45.832031 57.246094 45.226562 57.242188 44.621094 C 57.242188 44.359375 57.242188 44.09375 57.242188 43.832031 C 57.242188 43.035156 57.226562 42.246094 57.171875 41.449219 C 57.113281 40.523438 57.121094 39.597656 57.117188 38.667969 C 57.117188 38.335938 57.117188 38 57.113281 37.667969 C 57.109375 36.574219 57.136719 35.496094 57.253906 34.40625 C 57.265625 34.3125 57.277344 34.21875 57.285156 34.117188 C 57.503906 32.316406 58.335938 31.199219 59.628906 29.984375 C 60.183594 29.445312 60.515625 28.960938 60.625 28.183594 C 60.582031 26.8125 60.402344 25.179688 59.371094 24.179688 C 58.773438 23.703125 58.089844 23.367188 57.414062 23.023438 C 57.335938 22.984375 57.261719 22.945312 57.183594 22.90625 C 57.113281 22.871094 57.046875 22.835938 56.976562 22.800781 C 56.792969 22.695312 56.667969 22.601562 56.535156 22.433594 C 56.535156 22.347656 56.535156 22.261719 56.535156 22.171875 C 56.585938 22.152344 56.636719 22.136719 56.6875 22.117188 C 57.550781 21.816406 58.40625 21.511719 59.222656 21.101562 C 59.308594 21.0625 59.308594 21.0625 59.394531 21.019531 C 59.691406 20.863281 59.90625 20.726562 60.070312 20.425781 C 60.144531 20.089844 60.140625 19.765625 59.96875 19.464844 C 59.851562 19.308594 59.851562 19.308594 59.726562 19.167969 C 59.640625 19.027344 59.640625 19.027344 59.640625 18.859375 C 59.761719 18.597656 59.941406 18.476562 60.167969 18.304688 C 61.277344 17.40625 62.144531 16.300781 62.398438 14.839844 C 62.558594 13.320312 62.238281 12.347656 61.300781 11.160156 C 61.050781 10.863281 60.796875 10.601562 60.5 10.355469 C 60.101562 10.011719 59.839844 9.605469 59.550781 9.164062 C 57.769531 6.5 55.285156 5.0625 52.183594 4.402344 C 51.878906 4.347656 51.578125 4.324219 51.273438 4.300781 C 50.671875 4.230469 50.34375 3.988281 49.886719 3.601562 C 48.890625 2.796875 47.597656 2.664062 46.371094 2.679688 C 46.195312 2.683594 46.015625 2.683594 45.839844 2.683594 C 45.289062 2.6875 44.746094 2.710938 44.199219 2.769531 C 43.867188 2.796875 43.726562 2.804688 43.414062 2.671875 C 43.316406 2.578125 43.316406 2.578125 43.214844 2.488281 C 42.890625 2.214844 42.574219 1.976562 42.207031 1.761719 C 42.085938 1.691406 42.085938 1.691406 41.964844 1.617188 C 40.800781 0.996094 39.597656 0.910156 38.308594 0.921875 C 38.207031 0.921875 38.207031 0.921875 38.105469 0.921875 C 36.375 0.933594 34.789062 1.253906 33.140625 1.765625 C 32.929688 1.832031 32.71875 1.890625 32.503906 1.953125 C 31.765625 2.164062 31.054688 2.410156 30.339844 2.703125 C 29.226562 3.160156 28.398438 3.488281 27.222656 3.054688 C 27.082031 2.992188 26.9375 2.929688 26.796875 2.867188 C 26.242188 2.621094 25.679688 2.402344 25.117188 2.179688 C 24.988281 2.125 24.855469 2.074219 24.726562 2.023438 C 23.875 1.679688 23.003906 1.449219 22.113281 1.238281 C 22 1.210938 21.890625 1.1875 21.777344 1.160156 C 19.628906 0.664062 17.101562 0.601562 14.996094 1.308594 Z M 14.996094 1.308594 "/>
<path style=" stroke:none;fill-rule:nonzero;fill:rgb(99.215686%,99.215686%,99.215686%);fill-opacity:1;" d="M 50.574219 26.605469 C 50.902344 26.605469 51.230469 26.605469 51.554688 26.605469 C 53.078125 26.601562 54.476562 26.722656 55.96875 27.046875 C 56.132812 27.082031 56.132812 27.082031 56.296875 27.117188 C 56.609375 27.1875 56.917969 27.253906 57.226562 27.320312 C 57.304688 27.339844 57.382812 27.355469 57.464844 27.375 C 59.542969 27.835938 59.542969 27.835938 59.8125 28.105469 C 59.855469 28.484375 59.796875 28.699219 59.582031 29.007812 C 59.351562 29.296875 59.070312 29.535156 58.796875 29.78125 C 57.132812 31.335938 56.546875 33.21875 56.441406 35.472656 C 56.425781 35.960938 56.429688 36.453125 56.429688 36.945312 C 56.429688 37.097656 56.429688 37.253906 56.429688 37.40625 C 56.429688 37.730469 56.429688 38.050781 56.433594 38.371094 C 56.433594 38.78125 56.433594 39.191406 56.433594 39.601562 C 56.433594 39.917969 56.433594 40.238281 56.433594 40.554688 C 56.433594 40.707031 56.4375 40.859375 56.4375 41.007812 C 56.4375 41.21875 56.4375 41.429688 56.4375 41.640625 C 56.4375 41.703125 56.4375 41.765625 56.4375 41.828125 C 56.441406 42.207031 56.480469 42.570312 56.535156 42.945312 C 56.558594 43.433594 56.558594 43.921875 56.558594 44.410156 C 56.558594 44.476562 56.558594 44.546875 56.558594 44.617188 C 56.554688 49.316406 56.554688 49.316406 55.644531 50.417969 C 55.105469 50.878906 54.179688 50.925781 53.515625 51.054688 C 53.28125 51.097656 53.050781 51.144531 52.816406 51.191406 C 52.757812 51.203125 52.703125 51.214844 52.640625 51.226562 C 52.210938 51.3125 51.777344 51.402344 51.347656 51.496094 C 50.492188 51.683594 49.636719 51.847656 48.773438 51.996094 C 48.675781 52.015625 48.574219 52.03125 48.46875 52.050781 C 48.171875 52.101562 47.871094 52.152344 47.574219 52.199219 C 47.472656 52.214844 47.371094 52.234375 47.269531 52.25 C 46.449219 52.375 45.644531 52.402344 44.816406 52.394531 C 44.601562 52.394531 44.382812 52.394531 44.164062 52.398438 C 42.5 52.398438 40.976562 52.089844 39.398438 51.589844 C 39.332031 51.566406 39.265625 51.546875 39.199219 51.527344 C 36.953125 50.796875 34.769531 49.691406 32.695312 48.558594 C 32.550781 48.480469 32.40625 48.402344 32.261719 48.328125 C 31.675781 48.015625 31.164062 47.652344 30.644531 47.238281 C 30.484375 47.117188 30.328125 46.992188 30.167969 46.867188 C 30.09375 46.808594 30.019531 46.75 29.941406 46.6875 C 29.683594 46.484375 29.421875 46.289062 29.15625 46.09375 C 28.15625 45.335938 27.246094 44.433594 26.433594 43.46875 C 26.269531 43.277344 26.101562 43.089844 25.929688 42.902344 C 23.886719 40.597656 21.605469 37.453125 21.769531 34.183594 C 21.847656 33.675781 22.027344 33.332031 22.425781 33.011719 C 22.945312 32.632812 23.535156 32.394531 24.121094 32.144531 C 24.242188 32.089844 24.367188 32.035156 24.488281 31.984375 C 25.59375 31.503906 26.710938 31.058594 27.835938 30.636719 C 27.902344 30.613281 27.964844 30.589844 28.03125 30.566406 C 32.933594 28.726562 38.273438 27.675781 43.460938 27.097656 C 43.761719 27.0625 44.058594 27.019531 44.359375 26.972656 C 44.875 26.894531 45.394531 26.839844 45.914062 26.792969 C 45.988281 26.785156 46.058594 26.777344 46.132812 26.769531 C 46.382812 26.75 46.632812 26.730469 46.882812 26.710938 C 47.042969 26.699219 47.042969 26.699219 47.203125 26.6875 C 48.328125 26.609375 49.449219 26.605469 50.574219 26.605469 Z M 50.574219 26.605469 "/>
<path style=" stroke:none;fill-rule:nonzero;fill:rgb(98.431373%,98.431373%,98.431373%);fill-opacity:1;" d="M 50.574219 26.605469 C 50.902344 26.605469 51.230469 26.605469 51.554688 26.605469 C 53.078125 26.601562 54.476562 26.722656 55.96875 27.046875 C 56.132812 27.082031 56.132812 27.082031 56.296875 27.117188 C 56.609375 27.1875 56.917969 27.253906 57.226562 27.320312 C 57.304688 27.339844 57.382812 27.355469 57.464844 27.375 C 59.542969 27.835938 59.542969 27.835938 59.8125 28.105469 C 59.855469 28.484375 59.796875 28.699219 59.582031 29.007812 C 59.351562 29.296875 59.070312 29.535156 58.796875 29.78125 C 57.132812 31.335938 56.546875 33.21875 56.441406 35.472656 C 56.425781 35.960938 56.429688 36.453125 56.429688 36.945312 C 56.429688 37.097656 56.429688 37.253906 56.429688 37.40625 C 56.429688 37.730469 56.429688 38.050781 56.433594 38.371094 C 56.433594 38.78125 56.433594 39.191406 56.433594 39.601562 C 56.433594 39.917969 56.433594 40.238281 56.433594 40.554688 C 56.433594 40.707031 56.4375 40.859375 56.4375 41.007812 C 56.4375 41.21875 56.4375 41.429688 56.4375 41.640625 C 56.4375 41.703125 56.4375 41.765625 56.4375 41.828125 C 56.441406 42.207031 56.480469 42.570312 56.535156 42.945312 C 56.558594 43.433594 56.558594 43.921875 56.558594 44.410156 C 56.558594 44.476562 56.558594 44.546875 56.558594 44.617188 C 56.554688 49.316406 56.554688 49.316406 55.644531 50.417969 C 55.105469 50.878906 54.179688 50.925781 53.515625 51.054688 C 53.28125 51.097656 53.050781 51.144531 52.816406 51.191406 C 52.757812 51.203125 52.703125 51.214844 52.640625 51.226562 C 52.210938 51.3125 51.777344 51.402344 51.347656 51.496094 C 50.492188 51.683594 49.636719 51.847656 48.773438 51.996094 C 48.675781 52.015625 48.574219 52.03125 48.46875 52.050781 C 48.171875 52.101562 47.871094 52.152344 47.574219 52.199219 C 47.472656 52.214844 47.371094 52.234375 47.269531 52.25 C 46.449219 52.375 45.644531 52.402344 44.816406 52.394531 C 44.601562 52.394531 44.382812 52.394531 44.164062 52.398438 C 42.5 52.398438 40.976562 52.089844 39.398438 51.589844 C 39.332031 51.566406 39.265625 51.546875 39.199219 51.527344 C 36.953125 50.796875 34.769531 49.691406 32.695312 48.558594 C 32.550781 48.480469 32.40625 48.402344 32.261719 48.328125 C 31.675781 48.015625 31.164062 47.652344 30.644531 47.238281 C 30.484375 47.117188 30.328125 46.992188 30.167969 46.867188 C 30.09375 46.808594 30.019531 46.75 29.941406 46.6875 C 29.683594 46.484375 29.421875 46.289062 29.15625 46.09375 C 28.15625 45.335938 27.246094 44.433594 26.433594 43.46875 C 26.269531 43.277344 26.101562 43.089844 25.929688 42.902344 C 23.886719 40.597656 21.605469 37.453125 21.769531 34.183594 C 21.847656 33.675781 22.027344 33.332031 22.425781 33.011719 C 22.945312 32.632812 23.535156 32.394531 24.121094 32.144531 C 24.242188 32.089844 24.367188 32.035156 24.488281 31.984375 C 25.59375 31.503906 26.710938 31.058594 27.835938 30.636719 C 27.902344 30.613281 27.964844 30.589844 28.03125 30.566406 C 32.933594 28.726562 38.273438 27.675781 43.460938 27.097656 C 43.761719 27.0625 44.058594 27.019531 44.359375 26.972656 C 44.875 26.894531 45.394531 26.839844 45.914062 26.792969 C 45.988281 26.785156 46.058594 26.777344 46.132812 26.769531 C 46.382812 26.75 46.632812 26.730469 46.882812 26.710938 C 47.042969 26.699219 47.042969 26.699219 47.203125 26.6875 C 48.328125 26.609375 49.449219 26.605469 50.574219 26.605469 Z M 41.585938 30.382812 C 41.238281 30.457031 40.886719 30.519531 40.53125 30.578125 C 38.582031 30.917969 36.652344 31.378906 34.734375 31.878906 C 34.496094 31.941406 34.257812 32 34.019531 32.058594 C 28.980469 33.242188 28.980469 33.242188 25.171875 36.519531 C 24.890625 37.058594 24.953125 37.550781 25.046875 38.132812 C 25.210938 38.515625 25.46875 38.667969 25.84375 38.824219 C 26.023438 38.886719 26.203125 38.945312 26.382812 39.003906 C 28.152344 39.605469 29.011719 40.707031 29.984375 42.246094 C 32.058594 45.449219 38.621094 48.265625 42.199219 49.019531 C 43.21875 49.207031 44.210938 49.265625 45.242188 49.265625 C 45.3125 49.265625 45.378906 49.261719 45.453125 49.261719 C 47.964844 49.25 51.28125 48.773438 53.199219 46.953125 C 53.460938 46.660156 53.667969 46.339844 53.863281 46 C 53.917969 45.917969 53.972656 45.835938 54.027344 45.75 C 54.320312 44.921875 54.042969 43.96875 53.878906 43.132812 C 53.808594 42.761719 53.738281 42.390625 53.671875 42.019531 C 53.65625 41.949219 53.644531 41.875 53.628906 41.800781 C 53.492188 41.058594 53.378906 40.308594 53.285156 39.554688 C 53.261719 39.371094 53.234375 39.1875 53.207031 39.003906 C 53.089844 38.144531 53.070312 37.285156 53.066406 36.417969 C 53.066406 36.246094 53.066406 36.246094 53.066406 36.074219 C 53.070312 34.363281 53.398438 32.890625 54.554688 31.597656 C 54.804688 31.363281 55.0625 31.140625 55.332031 30.921875 C 55.519531 30.742188 55.519531 30.742188 55.535156 30.503906 C 55.335938 30.144531 55.019531 30.058594 54.640625 29.941406 C 54.265625 29.855469 53.894531 29.800781 53.515625 29.75 C 53.417969 29.734375 53.320312 29.71875 53.21875 29.707031 C 52.945312 29.667969 52.671875 29.628906 52.398438 29.589844 C 52.292969 29.574219 52.183594 29.558594 52.070312 29.542969 C 51.683594 29.496094 51.300781 29.488281 50.910156 29.484375 C 50.835938 29.484375 50.757812 29.484375 50.679688 29.484375 C 50.433594 29.484375 50.1875 29.480469 49.941406 29.480469 C 49.859375 29.480469 49.773438 29.480469 49.6875 29.480469 C 46.949219 29.484375 44.265625 29.820312 41.585938 30.382812 Z M 41.585938 30.382812 "/>
<path style=" stroke:none;fill-rule:nonzero;fill:rgb(98.823529%,98.823529%,98.823529%);fill-opacity:1;" d="M 31.972656 8.378906 C 32.078125 8.40625 32.078125 8.40625 32.183594 8.4375 C 34.089844 8.96875 35.917969 9.902344 37.695312 10.765625 C 37.824219 10.828125 37.824219 10.828125 37.957031 10.890625 C 39.441406 11.617188 40.628906 12.300781 41.222656 13.957031 C 41.25 14.046875 41.25 14.046875 41.28125 14.140625 C 41.308594 14.226562 41.339844 14.3125 41.367188 14.402344 C 41.390625 14.6875 41.386719 14.96875 41.390625 15.253906 C 41.390625 15.371094 41.390625 15.371094 41.394531 15.488281 C 41.398438 16.359375 41.089844 16.839844 40.507812 17.457031 C 40.464844 17.5 40.425781 17.542969 40.382812 17.585938 C 39.769531 18.230469 39.136719 18.828125 38.4375 19.378906 C 38.359375 19.441406 38.277344 19.507812 38.199219 19.574219 C 35.3125 21.855469 31.714844 22.308594 28.152344 21.929688 C 26.359375 21.703125 24.523438 21.367188 22.839844 20.6875 C 22.777344 20.664062 22.710938 20.636719 22.648438 20.609375 C 20.90625 19.894531 19.238281 18.886719 17.855469 17.589844 C 17.433594 17.210938 16.949219 16.953125 16.457031 16.683594 C 16.265625 16.578125 16.070312 16.46875 15.878906 16.363281 C 15.789062 16.3125 15.695312 16.257812 15.601562 16.207031 C 15.257812 16.015625 14.921875 15.820312 14.585938 15.621094 C 14.492188 15.5625 14.394531 15.503906 14.296875 15.445312 C 14.03125 15.261719 13.820312 15.09375 13.617188 14.839844 C 13.609375 14.613281 13.609375 14.613281 13.703125 14.402344 C 14.425781 13.710938 15.546875 13.425781 16.488281 13.164062 C 17.25 12.949219 17.761719 12.671875 18.355469 12.132812 C 18.601562 11.929688 18.847656 11.734375 19.09375 11.539062 C 19.160156 11.484375 19.226562 11.433594 19.296875 11.378906 C 19.910156 10.898438 20.550781 10.464844 21.210938 10.050781 C 21.355469 9.960938 21.496094 9.871094 21.636719 9.78125 C 22.796875 9.058594 24.109375 8.554688 25.425781 8.207031 C 25.527344 8.175781 25.628906 8.148438 25.734375 8.121094 C 27.75 7.667969 29.996094 7.839844 31.972656 8.378906 Z M 31.972656 8.378906 "/>
<path style=" stroke:none;fill-rule:nonzero;fill:rgb(98.823529%,98.823529%,98.823529%);fill-opacity:1;" d="M 50.109375 7.136719 C 50.410156 7.136719 50.714844 7.132812 51.019531 7.128906 C 53.066406 7.121094 54.691406 7.308594 56.457031 8.421875 C 56.539062 8.476562 56.625 8.53125 56.714844 8.585938 C 57.992188 9.390625 59.214844 10.230469 60.328125 11.261719 C 60.390625 11.316406 60.453125 11.367188 60.515625 11.425781 C 61.019531 11.894531 61.566406 12.648438 61.640625 13.351562 C 61.703125 14.785156 61.488281 15.839844 60.5 16.933594 C 60.441406 17 60.382812 17.066406 60.324219 17.136719 C 59.476562 18.042969 58.421875 18.605469 57.246094 18.945312 C 57.175781 18.96875 57.105469 18.988281 57.035156 19.011719 C 56.8125 19.078125 56.585938 19.140625 56.363281 19.203125 C 56.285156 19.226562 56.207031 19.25 56.125 19.273438 C 55.433594 19.460938 54.746094 19.550781 54.035156 19.613281 C 53.949219 19.621094 53.949219 19.621094 53.855469 19.628906 C 50.15625 19.953125 45.910156 19.394531 42.933594 16.90625 C 42.160156 16.214844 42.160156 16.214844 42.121094 15.882812 C 42.121094 15.816406 42.125 15.746094 42.125 15.675781 C 42.121094 15.601562 42.121094 15.527344 42.121094 15.449219 C 42.117188 15.367188 42.117188 15.289062 42.117188 15.203125 C 42.082031 14.117188 41.859375 13.300781 41.210938 12.417969 C 40.921875 12.011719 40.746094 11.738281 40.796875 11.230469 C 41.082031 10 41.609375 9.046875 42.664062 8.351562 C 44.871094 7.039062 47.636719 7.140625 50.109375 7.136719 Z M 50.109375 7.136719 "/>
<path style=" stroke:none;fill-rule:nonzero;fill:rgb(4.313726%,4.313726%,4.313726%);fill-opacity:1;" d="M 55.847656 5.761719 C 57.613281 6.574219 58.664062 7.824219 59.726562 9.425781 C 60.003906 9.84375 60.289062 10.175781 60.664062 10.507812 C 61.421875 11.183594 62.308594 12.191406 62.414062 13.261719 C 62.476562 15.015625 62.101562 16.359375 60.894531 17.671875 C 60.5 18.066406 60.074219 18.417969 59.640625 18.765625 C 59.691406 19.027344 59.738281 19.132812 59.902344 19.351562 C 60.089844 19.671875 60.113281 19.867188 60.125 20.230469 C 60.011719 20.632812 59.691406 20.828125 59.355469 21.035156 C 59.246094 21.09375 59.140625 21.148438 59.03125 21.199219 C 58.972656 21.230469 58.914062 21.257812 58.851562 21.289062 C 58.105469 21.652344 57.320312 21.914062 56.535156 22.171875 C 56.585938 22.433594 56.585938 22.433594 56.742188 22.636719 C 57.289062 22.996094 57.859375 23.296875 58.441406 23.585938 C 59.085938 23.917969 59.597656 24.273438 59.941406 24.9375 C 59.984375 25.019531 60.027344 25.101562 60.074219 25.183594 C 60.15625 25.402344 60.15625 25.402344 60.070312 25.664062 C 59.859375 25.761719 59.859375 25.761719 59.640625 25.835938 C 59.582031 25.867188 59.523438 25.894531 59.464844 25.925781 C 59.445312 25.875 59.425781 25.820312 59.40625 25.769531 C 59.042969 24.875 58.410156 24.429688 57.574219 24 C 57.511719 23.96875 57.453125 23.9375 57.386719 23.90625 C 57.265625 23.84375 57.144531 23.78125 57.023438 23.722656 C 56.71875 23.566406 56.488281 23.4375 56.261719 23.175781 C 55.839844 22.710938 55.519531 22.503906 54.886719 22.457031 C 54.238281 22.441406 53.59375 22.464844 52.945312 22.492188 C 50.199219 22.59375 50.199219 22.59375 48.953125 22.085938 C 48.867188 22.054688 48.78125 22.023438 48.695312 21.992188 C 48.488281 21.914062 48.289062 21.835938 48.085938 21.75 C 48.015625 21.722656 47.949219 21.695312 47.878906 21.667969 C 47.71875 21.605469 47.5625 21.539062 47.402344 21.472656 C 47.402344 21.445312 47.402344 21.414062 47.402344 21.386719 C 47.761719 21.367188 48.0625 21.417969 48.410156 21.511719 C 49.246094 21.722656 50.085938 21.773438 50.945312 21.792969 C 51.003906 21.792969 51.066406 21.792969 51.128906 21.796875 C 51.585938 21.808594 52.042969 21.8125 52.5 21.816406 C 52.601562 21.816406 52.601562 21.816406 52.703125 21.820312 C 54.8125 21.835938 56.574219 21.695312 58.433594 20.601562 C 58.597656 20.515625 58.765625 20.429688 58.933594 20.34375 C 59.003906 20.308594 59.070312 20.273438 59.144531 20.238281 C 59.195312 20.214844 59.242188 20.1875 59.292969 20.164062 C 59.21875 19.820312 59.132812 19.617188 58.863281 19.378906 C 58.3125 19.359375 57.851562 19.542969 57.335938 19.726562 C 56.878906 19.882812 56.421875 19.996094 55.949219 20.09375 C 55.851562 20.113281 55.851562 20.113281 55.753906 20.132812 C 54.429688 20.394531 53.089844 20.472656 51.742188 20.480469 C 51.621094 20.480469 51.621094 20.480469 51.5 20.480469 C 49.925781 20.484375 48.550781 20.214844 47.054688 19.726562 C 46.882812 19.675781 46.710938 19.621094 46.535156 19.570312 C 44.988281 19.089844 43.519531 18.433594 42.3125 17.316406 C 42.089844 17.09375 42.089844 17.09375 41.886719 17.101562 C 41.613281 17.25 41.535156 17.5 41.410156 17.773438 C 41.351562 17.902344 41.289062 18.027344 41.230469 18.15625 C 41.199219 18.226562 41.164062 18.292969 41.132812 18.367188 C 40.589844 19.496094 40.039062 20.636719 39.300781 21.648438 C 39.246094 21.71875 39.195312 21.792969 39.140625 21.867188 C 37.734375 23.726562 35.917969 24.863281 33.613281 25.226562 C 33.332031 25.246094 33.054688 25.25 32.773438 25.246094 C 32.695312 25.246094 32.617188 25.246094 32.539062 25.246094 C 32.378906 25.246094 32.21875 25.246094 32.058594 25.246094 C 31.8125 25.242188 31.570312 25.242188 31.328125 25.242188 C 30.171875 25.242188 29.058594 25.175781 27.921875 24.964844 C 27.859375 24.953125 27.796875 24.941406 27.734375 24.929688 C 24.757812 24.398438 21.429688 23.746094 18.960938 21.910156 C 18.882812 21.851562 18.800781 21.792969 18.722656 21.730469 C 18.148438 21.285156 17.648438 20.773438 17.152344 20.25 C 17.460938 20.25 17.488281 20.300781 17.714844 20.503906 C 21.5625 23.617188 28.542969 24.972656 33.367188 24.5 C 34.765625 24.316406 35.957031 23.867188 37.058594 22.957031 C 37.125 22.90625 37.1875 22.855469 37.257812 22.800781 C 38.21875 21.992188 39.160156 20.761719 39.558594 19.554688 C 39.152344 19.820312 38.757812 20.09375 38.371094 20.386719 C 37.347656 21.148438 36.289062 21.699219 35.085938 22.117188 C 35.007812 22.144531 34.929688 22.171875 34.847656 22.203125 C 33.40625 22.675781 31.945312 22.742188 30.445312 22.726562 C 30.3125 22.726562 30.3125 22.726562 30.179688 22.726562 C 28.921875 22.71875 27.695312 22.679688 26.457031 22.433594 C 26.382812 22.417969 26.304688 22.40625 26.226562 22.390625 C 24.332031 22.042969 22.453125 21.46875 20.769531 20.511719 C 20.671875 20.460938 20.574219 20.40625 20.46875 20.351562 C 19.5 19.8125 18.597656 19.160156 17.722656 18.472656 C 16.839844 17.789062 15.925781 17.21875 14.945312 16.691406 C 13.164062 15.730469 13.164062 15.730469 12.925781 15.015625 C 12.910156 14.832031 12.910156 14.832031 12.90625 14.632812 C 12.902344 14.535156 12.902344 14.535156 12.898438 14.433594 C 12.945312 14.089844 13.09375 13.867188 13.355469 13.652344 C 14.171875 13.175781 15.007812 12.796875 15.921875 12.5625 C 16.714844 12.359375 17.3125 12.078125 17.914062 11.515625 C 18.25 11.210938 18.617188 10.945312 18.980469 10.675781 C 19.085938 10.597656 19.1875 10.519531 19.292969 10.441406 C 21.617188 8.683594 24.410156 7.253906 27.367188 7.222656 C 27.433594 7.222656 27.503906 7.222656 27.574219 7.222656 C 29.042969 7.207031 30.460938 7.207031 31.886719 7.59375 C 31.972656 7.617188 31.972656 7.617188 32.058594 7.636719 C 33.097656 7.910156 34.089844 8.351562 35.082031 8.75 C 35.820312 9.050781 36.570312 9.328125 37.316406 9.601562 C 37.261719 8.800781 37.035156 8.121094 36.433594 7.5625 C 35.554688 6.886719 34.445312 6.535156 33.351562 6.460938 C 33.601562 5.945312 33.601562 5.945312 33.699219 5.847656 C 34.785156 5.753906 36.050781 6.285156 36.875 6.980469 C 37.203125 7.296875 37.496094 7.648438 37.75 8.03125 C 37.75 8.089844 37.75 8.144531 37.75 8.207031 C 37.863281 8.234375 37.976562 8.261719 38.09375 8.292969 C 38.09375 8.351562 38.09375 8.40625 38.09375 8.46875 C 38.148438 8.46875 38.207031 8.46875 38.265625 8.46875 C 38.292969 8.554688 38.324219 8.640625 38.351562 8.730469 C 38.292969 8.785156 38.238281 8.84375 38.179688 8.902344 C 38.144531 9.34375 38.191406 9.714844 38.351562 10.125 C 38.785156 10.605469 39.535156 10.894531 40.160156 11 C 40.167969 10.898438 40.175781 10.796875 40.1875 10.691406 C 40.304688 9.757812 40.882812 8.84375 41.554688 8.21875 C 43.867188 6.414062 46.863281 6.414062 49.644531 6.429688 C 49.90625 6.433594 50.167969 6.433594 50.429688 6.429688 C 53.949219 6.425781 53.949219 6.425781 55.109375 6.984375 C 55.183594 7.015625 55.257812 7.050781 55.335938 7.085938 C 55.929688 7.363281 56.503906 7.671875 57.066406 8.007812 C 57.398438 8.203125 57.710938 8.359375 58.085938 8.46875 C 57.367188 7.453125 56.488281 6.933594 55.414062 6.371094 C 55.445312 6.285156 55.472656 6.199219 55.503906 6.109375 C 55.679688 6.050781 55.679688 6.050781 55.847656 6.023438 C 55.847656 5.9375 55.847656 5.851562 55.847656 5.761719 Z M 45.601562 7.359375 C 45.535156 7.371094 45.464844 7.382812 45.398438 7.394531 C 43.910156 7.660156 42.472656 8.207031 41.488281 9.421875 C 41.0625 10.054688 40.769531 10.886719 40.800781 11.65625 C 40.882812 12.007812 41.078125 12.261719 41.296875 12.542969 C 41.96875 13.40625 42.105469 14.335938 42.085938 15.410156 C 42.089844 15.910156 42.164062 16.179688 42.515625 16.539062 C 44.433594 18.285156 46.832031 18.96875 49.296875 19.554688 C 49.371094 19.570312 49.441406 19.589844 49.519531 19.609375 C 52.4375 20.273438 56.734375 19.644531 59.257812 18.046875 C 59.644531 17.765625 59.988281 17.445312 60.328125 17.109375 C 60.410156 17.027344 60.410156 17.027344 60.496094 16.945312 C 61.378906 16.011719 61.679688 14.886719 61.65625 13.625 C 61.589844 12.320312 60.546875 11.4375 59.648438 10.617188 C 59.210938 10.230469 58.722656 9.914062 58.238281 9.597656 C 58.136719 9.527344 58.03125 9.457031 57.929688 9.390625 C 55.496094 7.773438 53.664062 7.125 50.75 7.140625 C 50.441406 7.140625 50.132812 7.140625 49.824219 7.140625 C 47.707031 7.132812 47.707031 7.132812 45.601562 7.359375 Z M 25.425781 8.207031 C 25.347656 8.226562 25.265625 8.25 25.1875 8.273438 C 24.0625 8.613281 22.996094 9.015625 21.976562 9.601562 C 21.921875 9.632812 21.867188 9.664062 21.8125 9.695312 C 20.761719 10.296875 19.792969 11.003906 18.847656 11.757812 C 18.796875 11.796875 18.746094 11.835938 18.691406 11.878906 C 18.480469 12.046875 18.273438 12.21875 18.070312 12.402344 C 17.546875 12.867188 16.960938 13.023438 16.304688 13.210938 C 14.902344 13.609375 14.902344 13.609375 13.703125 14.402344 C 13.628906 14.632812 13.628906 14.632812 13.617188 14.839844 C 14.269531 15.515625 15.097656 15.914062 15.90625 16.359375 C 16.726562 16.808594 17.511719 17.25 18.207031 17.882812 C 20.070312 19.566406 22.398438 20.722656 24.820312 21.296875 C 24.898438 21.316406 24.976562 21.335938 25.058594 21.355469 C 29.097656 22.296875 33.585938 22.546875 37.246094 20.265625 C 37.664062 19.996094 38.054688 19.695312 38.4375 19.378906 C 38.484375 19.339844 38.53125 19.304688 38.578125 19.265625 C 39.210938 18.738281 39.808594 18.179688 40.394531 17.59375 C 40.453125 17.535156 40.511719 17.476562 40.570312 17.414062 C 41.308594 16.667969 41.394531 16.101562 41.394531 15.074219 C 41.378906 14.015625 41 13.210938 40.300781 12.429688 C 40.226562 12.359375 40.152344 12.289062 40.074219 12.21875 C 40.03125 12.175781 39.988281 12.132812 39.941406 12.085938 C 39.441406 11.609375 38.886719 11.320312 38.269531 11.019531 C 38.164062 10.96875 38.058594 10.914062 37.949219 10.859375 C 36.578125 10.183594 35.1875 9.542969 33.75 9.019531 C 33.503906 8.929688 33.265625 8.832031 33.027344 8.730469 C 32.585938 8.550781 32.140625 8.429688 31.679688 8.324219 C 31.601562 8.308594 31.527344 8.289062 31.453125 8.269531 C 31.222656 8.21875 30.996094 8.167969 30.765625 8.117188 C 30.660156 8.09375 30.660156 8.09375 30.550781 8.066406 C 29.832031 7.914062 29.117188 7.910156 28.386719 7.917969 C 28.289062 7.917969 28.289062 7.917969 28.1875 7.917969 C 27.246094 7.921875 26.335938 7.9375 25.425781 8.207031 Z M 25.425781 8.207031 "/>
<path style=" stroke:none;fill-rule:nonzero;fill:rgb(0.784314%,1.568628%,1.568628%);fill-opacity:1;" d="M 35.9375 10.300781 C 36.015625 10.324219 36.089844 10.347656 36.167969 10.375 C 36.71875 10.574219 37.136719 10.871094 37.574219 11.261719 C 37.65625 11.332031 37.65625 11.332031 37.738281 11.402344 C 38.621094 12.230469 39.152344 13.375 39.230469 14.589844 C 39.253906 16.191406 38.828125 17.476562 37.71875 18.640625 C 36.949219 19.359375 35.878906 19.929688 34.816406 19.988281 C 34.742188 19.992188 34.667969 20 34.589844 20.003906 C 33.210938 20.046875 32.019531 19.589844 30.992188 18.65625 C 30.074219 17.78125 29.53125 16.648438 29.453125 15.367188 C 29.417969 13.929688 29.757812 12.597656 30.753906 11.519531 C 32.210938 10.171875 34.039062 9.671875 35.9375 10.300781 Z M 35.9375 10.300781 "/>
<path style=" stroke:none;fill-rule:nonzero;fill:rgb(1.176471%,1.960784%,1.960784%);fill-opacity:1;" d="M 57.828125 10.125 C 58.65625 10.804688 59.230469 11.6875 59.464844 12.746094 C 59.492188 13.011719 59.496094 13.277344 59.492188 13.546875 C 59.492188 13.65625 59.492188 13.65625 59.492188 13.769531 C 59.464844 15.160156 58.984375 16.226562 58 17.195312 C 56.929688 18.1875 55.828125 18.410156 54.425781 18.347656 C 53.347656 18.257812 52.382812 17.609375 51.691406 16.796875 C 51.539062 16.585938 51.40625 16.375 51.277344 16.148438 C 51.246094 16.09375 51.210938 16.035156 51.175781 15.976562 C 50.632812 15.003906 50.539062 13.8125 50.777344 12.734375 C 51.039062 11.804688 51.46875 11.15625 52.140625 10.476562 C 52.191406 10.425781 52.238281 10.375 52.289062 10.320312 C 53.816406 8.867188 56.167969 8.933594 57.828125 10.125 Z M 57.828125 10.125 "/>
<path style=" stroke:none;fill-rule:nonzero;fill:rgb(4.313726%,4.313726%,4.313726%);fill-opacity:1;" d="M 49.328125 28.855469 C 49.570312 28.855469 49.8125 28.855469 50.054688 28.851562 C 54.832031 28.8125 54.832031 28.8125 56.191406 30.027344 C 56.335938 30.320312 56.355469 30.585938 56.277344 30.902344 C 56.066406 31.183594 55.808594 31.40625 55.546875 31.640625 C 54.441406 32.691406 53.800781 33.90625 53.742188 35.464844 C 53.742188 35.660156 53.742188 35.855469 53.746094 36.050781 C 53.746094 36.15625 53.746094 36.261719 53.75 36.371094 C 53.785156 38.6875 54.164062 41.015625 54.597656 43.289062 C 54.617188 43.398438 54.640625 43.511719 54.660156 43.625 C 54.699219 43.832031 54.738281 44.039062 54.78125 44.246094 C 54.960938 45.183594 54.796875 45.890625 54.296875 46.699219 C 52.96875 48.480469 50.789062 49.179688 48.71875 49.644531 C 48.640625 49.664062 48.558594 49.683594 48.476562 49.703125 C 47.414062 49.929688 46.351562 49.949219 45.269531 49.949219 C 45.046875 49.953125 44.828125 49.953125 44.609375 49.957031 C 43.722656 49.960938 42.917969 49.882812 42.058594 49.667969 C 41.933594 49.640625 41.8125 49.613281 41.691406 49.585938 C 38.839844 48.890625 36.261719 47.5 33.769531 45.976562 C 33.519531 45.824219 33.269531 45.671875 33.015625 45.519531 C 30.058594 43.726562 30.058594 43.726562 29.476562 42.773438 C 29.347656 42.570312 29.222656 42.371094 29.097656 42.171875 C 29.066406 42.121094 29.03125 42.066406 29 42.011719 C 28.136719 40.648438 27.179688 39.933594 25.65625 39.453125 C 25.105469 39.273438 24.761719 39.058594 24.445312 38.554688 C 24.167969 37.929688 24.183594 37.121094 24.394531 36.476562 C 25.667969 33.945312 28.722656 32.9375 31.199219 32.121094 C 31.828125 31.925781 32.460938 31.75 33.097656 31.578125 C 33.34375 31.515625 33.585938 31.445312 33.832031 31.378906 C 35.128906 31.023438 36.4375 30.734375 37.75 30.449219 C 38.074219 30.378906 38.402344 30.308594 38.726562 30.238281 C 42.320312 29.445312 42.320312 29.445312 44.136719 29.21875 C 44.464844 29.175781 44.796875 29.132812 45.128906 29.085938 C 46.527344 28.898438 47.917969 28.847656 49.328125 28.855469 Z M 41.585938 30.382812 C 41.238281 30.457031 40.886719 30.519531 40.53125 30.578125 C 38.582031 30.917969 36.652344 31.378906 34.734375 31.878906 C 34.496094 31.941406 34.257812 32 34.019531 32.058594 C 28.980469 33.242188 28.980469 33.242188 25.171875 36.519531 C 24.890625 37.058594 24.953125 37.550781 25.046875 38.132812 C 25.210938 38.515625 25.46875 38.667969 25.84375 38.824219 C 26.023438 38.886719 26.203125 38.945312 26.382812 39.003906 C 28.152344 39.605469 29.011719 40.707031 29.984375 42.246094 C 32.058594 45.449219 38.621094 48.265625 42.199219 49.019531 C 43.21875 49.207031 44.210938 49.265625 45.242188 49.265625 C 45.3125 49.265625 45.378906 49.261719 45.453125 49.261719 C 47.964844 49.25 51.28125 48.773438 53.199219 46.953125 C 53.460938 46.660156 53.667969 46.339844 53.863281 46 C 53.917969 45.917969 53.972656 45.835938 54.027344 45.75 C 54.320312 44.921875 54.042969 43.96875 53.878906 43.132812 C 53.808594 42.761719 53.738281 42.390625 53.671875 42.019531 C 53.65625 41.949219 53.644531 41.875 53.628906 41.800781 C 53.492188 41.058594 53.378906 40.308594 53.285156 39.554688 C 53.261719 39.371094 53.234375 39.1875 53.207031 39.003906 C 53.089844 38.144531 53.070312 37.285156 53.066406 36.417969 C 53.066406 36.246094 53.066406 36.246094 53.066406 36.074219 C 53.070312 34.363281 53.398438 32.890625 54.554688 31.597656 C 54.804688 31.363281 55.0625 31.140625 55.332031 30.921875 C 55.519531 30.742188 55.519531 30.742188 55.535156 30.503906 C 55.335938 30.144531 55.019531 30.058594 54.640625 29.941406 C 54.265625 29.855469 53.894531 29.800781 53.515625 29.75 C 53.417969 29.734375 53.320312 29.71875 53.21875 29.707031 C 52.945312 29.667969 52.671875 29.628906 52.398438 29.589844 C 52.292969 29.574219 52.183594 29.558594 52.070312 29.542969 C 51.683594 29.496094 51.300781 29.488281 50.910156 29.484375 C 50.835938 29.484375 50.757812 29.484375 50.679688 29.484375 C 50.433594 29.484375 50.1875 29.480469 49.941406 29.480469 C 49.859375 29.480469 49.773438 29.480469 49.6875 29.480469 C 46.949219 29.484375 44.265625 29.820312 41.585938 30.382812 Z M 41.585938 30.382812 "/>
<path style=" stroke:none;fill-rule:nonzero;fill:rgb(98.431373%,98.431373%,98.431373%);fill-opacity:1;" d="M 38.859375 1.621094 C 38.953125 1.617188 39.050781 1.617188 39.152344 1.613281 C 40.277344 1.617188 41.304688 2 42.242188 2.625 C 42.402344 2.792969 42.402344 2.792969 42.402344 3.140625 C 42.335938 3.164062 42.273438 3.1875 42.207031 3.210938 C 41.910156 3.3125 41.613281 3.414062 41.320312 3.519531 C 41.167969 3.570312 41.167969 3.570312 41.011719 3.625 C 40.519531 3.796875 40.03125 3.972656 39.558594 4.191406 C 40.683594 4.230469 41.738281 3.996094 42.832031 3.753906 C 43.121094 3.691406 43.40625 3.632812 43.695312 3.578125 C 43.773438 3.5625 43.851562 3.550781 43.933594 3.535156 C 44.636719 3.410156 45.328125 3.378906 46.039062 3.382812 C 46.222656 3.382812 46.40625 3.382812 46.585938 3.378906 C 47.324219 3.378906 47.976562 3.40625 48.644531 3.753906 C 48.703125 3.78125 48.757812 3.8125 48.816406 3.839844 C 48.953125 3.929688 48.953125 3.929688 49.039062 4.101562 C 48.59375 4.246094 48.160156 4.324219 47.699219 4.390625 C 45.113281 4.761719 42.765625 5.863281 40.421875 6.984375 C 40.261719 7.058594 40.105469 7.132812 39.949219 7.207031 C 39.800781 7.277344 39.65625 7.34375 39.507812 7.414062 C 39.410156 7.460938 39.410156 7.460938 39.3125 7.507812 C 39.019531 7.648438 38.738281 7.792969 38.460938 7.964844 C 38.042969 8.191406 38.042969 8.191406 37.75 8.117188 C 37.566406 7.929688 37.566406 7.929688 37.386719 7.675781 C 36.558594 6.601562 35.402344 6.121094 34.097656 5.914062 C 33.515625 5.800781 33.253906 5.550781 32.867188 5.113281 C 32.308594 4.492188 31.578125 4.148438 30.835938 3.804688 C 30.59375 3.667969 30.59375 3.667969 30.507812 3.402344 C 33.210938 2.285156 35.933594 1.65625 38.859375 1.621094 Z M 38.859375 1.621094 "/>
<path style=" stroke:none;fill-rule:nonzero;fill:rgb(97.647059%,97.254902%,97.254902%);fill-opacity:1;" d="M 56.019531 6.632812 C 56.105469 6.679688 56.195312 6.722656 56.285156 6.769531 C 56.992188 7.132812 57.636719 7.621094 58.085938 8.292969 C 58.085938 8.351562 58.085938 8.40625 58.085938 8.46875 C 57.546875 8.433594 57.140625 8.15625 56.683594 7.890625 C 56.101562 7.5625 55.523438 7.238281 54.914062 6.972656 C 54.8125 6.925781 54.710938 6.882812 54.605469 6.835938 C 53.230469 6.382812 51.664062 6.515625 50.234375 6.519531 C 49.972656 6.519531 49.710938 6.519531 49.449219 6.515625 C 46.671875 6.5 43.558594 6.527344 41.351562 8.503906 C 40.722656 9.175781 40.355469 10.109375 40.160156 11 C 39.4375 10.972656 38.816406 10.679688 38.296875 10.164062 C 38.167969 9.933594 38.117188 9.777344 38.09375 9.515625 C 38.078125 9.414062 38.066406 9.3125 38.050781 9.210938 C 38.09375 8.902344 38.09375 8.902344 38.339844 8.695312 C 38.742188 8.421875 39.175781 8.21875 39.613281 8.015625 C 39.789062 7.929688 39.96875 7.84375 40.148438 7.761719 C 40.234375 7.71875 40.324219 7.675781 40.417969 7.632812 C 40.65625 7.515625 40.898438 7.398438 41.136719 7.28125 C 42.28125 6.714844 43.449219 6.21875 44.644531 5.761719 C 44.707031 5.738281 44.769531 5.710938 44.832031 5.6875 C 45.195312 5.550781 45.5625 5.429688 45.9375 5.324219 C 46.003906 5.304688 46.070312 5.285156 46.136719 5.265625 C 49.464844 4.3125 53.019531 4.972656 56.019531 6.632812 Z M 56.019531 6.632812 "/>
<path style=" stroke:none;fill-rule:nonzero;fill:rgb(29.411766%,86.274511%,81.568629%);fill-opacity:1;" d="M 52.832031 11.957031 C 53.203125 12.078125 53.570312 12.203125 53.929688 12.359375 C 53.988281 12.382812 54.042969 12.40625 54.101562 12.429688 C 54.214844 12.480469 54.328125 12.527344 54.441406 12.578125 C 54.863281 12.757812 55.101562 12.742188 55.523438 12.582031 C 55.621094 12.539062 55.621094 12.539062 55.71875 12.496094 C 55.789062 12.464844 55.859375 12.433594 55.933594 12.402344 C 56.082031 12.335938 56.226562 12.269531 56.375 12.203125 C 56.445312 12.171875 56.515625 12.140625 56.589844 12.109375 C 56.65625 12.078125 56.71875 12.050781 56.785156 12.019531 C 56.96875 11.957031 56.96875 11.957031 57.3125 11.957031 C 57.53125 12.246094 57.570312 12.371094 57.570312 12.746094 C 57.242188 12.917969 56.917969 13.09375 56.589844 13.269531 C 56.496094 13.316406 56.402344 13.367188 56.308594 13.417969 C 56.21875 13.464844 56.128906 13.515625 56.039062 13.5625 C 55.957031 13.605469 55.875 13.648438 55.789062 13.695312 C 55.589844 13.792969 55.589844 13.792969 55.414062 13.792969 C 55.621094 14.027344 55.84375 14.160156 56.113281 14.308594 C 56.199219 14.355469 56.285156 14.402344 56.371094 14.449219 C 56.460938 14.496094 56.546875 14.542969 56.636719 14.59375 C 56.726562 14.640625 56.816406 14.691406 56.910156 14.742188 C 57.128906 14.863281 57.351562 14.980469 57.570312 15.101562 C 57.503906 15.402344 57.390625 15.625 57.226562 15.886719 C 56.652344 15.730469 56.121094 15.527344 55.585938 15.273438 C 54.9375 15.054688 54.472656 15.265625 53.886719 15.539062 C 53.742188 15.601562 53.597656 15.667969 53.449219 15.734375 C 53.386719 15.761719 53.324219 15.792969 53.257812 15.824219 C 53.089844 15.886719 53.089844 15.886719 52.832031 15.886719 C 52.570312 15.394531 52.570312 15.394531 52.570312 15.101562 C 52.632812 15.066406 52.695312 15.035156 52.761719 15 C 53.039062 14.847656 53.320312 14.695312 53.601562 14.542969 C 53.699219 14.492188 53.796875 14.4375 53.898438 14.386719 C 53.992188 14.335938 54.082031 14.285156 54.179688 14.230469 C 54.265625 14.183594 54.351562 14.136719 54.441406 14.089844 C 54.648438 13.984375 54.648438 13.984375 54.726562 13.792969 C 54.664062 13.78125 54.601562 13.773438 54.539062 13.761719 C 54.285156 13.703125 54.101562 13.613281 53.875 13.484375 C 53.800781 13.441406 53.722656 13.398438 53.644531 13.355469 C 53.566406 13.308594 53.488281 13.265625 53.40625 13.21875 C 53.285156 13.152344 53.285156 13.152344 53.164062 13.082031 C 52.964844 12.96875 52.769531 12.855469 52.570312 12.746094 C 52.625 12.453125 52.6875 12.21875 52.832031 11.957031 Z M 52.832031 11.957031 "/>
<path style=" stroke:none;fill-rule:nonzero;fill:rgb(30.588236%,87.058824%,82.745099%);fill-opacity:1;" d="M 31.886719 13.179688 C 32.457031 13.234375 32.90625 13.433594 33.417969 13.671875 C 33.949219 13.910156 34.238281 13.882812 34.785156 13.671875 C 34.949219 13.601562 35.113281 13.53125 35.277344 13.457031 C 35.648438 13.300781 35.972656 13.222656 36.371094 13.179688 C 36.628906 13.5625 36.628906 13.5625 36.617188 13.789062 C 36.507812 14.042969 36.363281 14.101562 36.125 14.230469 C 36.039062 14.277344 35.957031 14.320312 35.867188 14.371094 C 35.78125 14.417969 35.691406 14.464844 35.597656 14.511719 C 35.511719 14.558594 35.421875 14.609375 35.332031 14.660156 C 34.671875 15.015625 34.671875 15.015625 34.472656 15.015625 C 34.472656 15.070312 34.472656 15.128906 34.472656 15.1875 C 34.535156 15.210938 34.597656 15.238281 34.660156 15.261719 C 34.894531 15.359375 35.117188 15.46875 35.34375 15.589844 C 35.421875 15.632812 35.503906 15.675781 35.585938 15.71875 C 35.667969 15.765625 35.75 15.808594 35.835938 15.855469 C 35.921875 15.898438 36.003906 15.945312 36.089844 15.992188 C 36.300781 16.101562 36.507812 16.210938 36.714844 16.324219 C 36.648438 16.625 36.535156 16.847656 36.371094 17.109375 C 35.996094 16.988281 35.632812 16.867188 35.277344 16.710938 C 35.21875 16.6875 35.164062 16.660156 35.105469 16.636719 C 34.996094 16.589844 34.882812 16.539062 34.773438 16.488281 C 34.316406 16.289062 33.984375 16.304688 33.519531 16.476562 C 33.261719 16.585938 33.007812 16.699219 32.753906 16.816406 C 32.660156 16.855469 32.660156 16.855469 32.566406 16.898438 C 32.511719 16.925781 32.453125 16.949219 32.398438 16.976562 C 32.191406 17.03125 32.082031 17.011719 31.886719 16.933594 C 31.730469 16.726562 31.730469 16.726562 31.628906 16.496094 C 31.738281 16.160156 31.84375 16.140625 32.152344 15.980469 C 32.238281 15.933594 32.328125 15.886719 32.417969 15.839844 C 32.511719 15.792969 32.605469 15.746094 32.703125 15.695312 C 32.792969 15.648438 32.886719 15.597656 32.980469 15.546875 C 33.671875 15.1875 33.671875 15.1875 33.871094 15.1875 C 33.871094 15.128906 33.871094 15.074219 33.871094 15.015625 C 33.800781 14.992188 33.734375 14.972656 33.664062 14.953125 C 33.257812 14.804688 32.886719 14.609375 32.507812 14.410156 C 32.433594 14.371094 32.355469 14.332031 32.28125 14.292969 C 32.171875 14.234375 32.171875 14.234375 32.0625 14.175781 C 32 14.144531 31.933594 14.109375 31.867188 14.074219 C 31.714844 13.964844 31.714844 13.964844 31.628906 13.703125 C 31.753906 13.425781 31.753906 13.425781 31.886719 13.179688 Z M 31.886719 13.179688 "/>
<path style=" stroke:none;fill-rule:nonzero;fill:rgb(30.980393%,85.09804%,81.568629%);fill-opacity:1;" d="M 55.617188 14.117188 C 55.878906 14.144531 56.035156 14.21875 56.265625 14.351562 C 56.34375 14.394531 56.417969 14.4375 56.496094 14.480469 C 56.574219 14.527344 56.65625 14.574219 56.734375 14.621094 C 56.816406 14.667969 56.894531 14.710938 56.980469 14.757812 C 57.175781 14.871094 57.375 14.988281 57.570312 15.101562 C 57.503906 15.402344 57.390625 15.625 57.226562 15.886719 C 56.652344 15.730469 56.121094 15.527344 55.585938 15.273438 C 54.9375 15.054688 54.472656 15.265625 53.886719 15.539062 C 53.742188 15.601562 53.597656 15.667969 53.449219 15.734375 C 53.386719 15.761719 53.324219 15.792969 53.257812 15.824219 C 53.089844 15.886719 53.089844 15.886719 52.832031 15.886719 C 52.800781 15.769531 52.773438 15.65625 52.746094 15.539062 C 53.214844 15.496094 53.214844 15.496094 53.691406 15.449219 C 53.691406 15.394531 53.691406 15.335938 53.691406 15.277344 C 54.003906 15.1875 54.316406 15.101562 54.640625 15.015625 C 54.613281 14.898438 54.582031 14.785156 54.554688 14.664062 C 54.601562 14.640625 54.648438 14.617188 54.699219 14.59375 C 54.761719 14.5625 54.824219 14.53125 54.886719 14.5 C 54.949219 14.46875 55.011719 14.441406 55.074219 14.410156 C 55.59375 14.121094 55.59375 14.121094 55.617188 14.117188 Z M 55.617188 14.117188 "/>
<path style=" stroke:none;fill-rule:nonzero;fill:rgb(30.980393%,83.137256%,79.607844%);fill-opacity:1;" d="M 31.886719 13.179688 C 32.457031 13.234375 32.90625 13.433594 33.417969 13.671875 C 33.808594 13.847656 34.046875 13.914062 34.472656 13.792969 C 34.539062 13.777344 34.605469 13.761719 34.675781 13.746094 C 34.761719 13.722656 34.761719 13.722656 34.851562 13.699219 C 34.953125 13.671875 35.054688 13.644531 35.164062 13.617188 C 35.011719 13.921875 34.699219 14.035156 34.386719 14.140625 C 34.082031 14.152344 33.800781 14.105469 33.523438 13.964844 C 33.351562 13.960938 33.179688 13.960938 33.007812 13.964844 C 33.066406 14.023438 33.121094 14.082031 33.179688 14.140625 C 33.09375 14.269531 33.09375 14.269531 33.007812 14.402344 C 33.066406 14.429688 33.121094 14.460938 33.179688 14.488281 C 33.179688 14.546875 33.179688 14.605469 33.179688 14.664062 C 32.789062 14.546875 32.464844 14.386719 32.113281 14.171875 C 32.023438 14.117188 31.929688 14.0625 31.835938 14.007812 C 31.734375 13.945312 31.734375 13.945312 31.628906 13.878906 C 31.789062 13.378906 31.789062 13.378906 31.886719 13.179688 Z M 31.886719 13.179688 "/>
<path style=" stroke:none;fill-rule:nonzero;fill:rgb(30.19608%,87.058824%,83.529413%);fill-opacity:1;" d="M 35.59375 15.972656 C 35.714844 16 35.839844 16.023438 35.960938 16.050781 C 36.027344 16.066406 36.097656 16.078125 36.167969 16.09375 C 36.367188 16.148438 36.53125 16.222656 36.714844 16.324219 C 36.660156 16.628906 36.53125 16.847656 36.371094 17.109375 C 36.023438 16.992188 35.679688 16.875 35.335938 16.757812 C 35.496094 16.171875 35.496094 16.171875 35.59375 15.972656 Z M 35.59375 15.972656 "/>
<path style=" stroke:none;fill-rule:nonzero;fill:rgb(6.666667%,6.666667%,6.666667%);fill-opacity:1;" d="M 17.152344 20.164062 C 17.410156 20.285156 17.632812 20.433594 17.863281 20.605469 C 18.3125 20.933594 18.789062 21.203125 19.273438 21.472656 C 19.71875 21.71875 19.71875 21.71875 19.910156 21.910156 C 19.65625 22.019531 19.496094 22.085938 19.21875 22.085938 C 18.4375 21.59375 17.769531 20.9375 17.152344 20.25 C 17.152344 20.222656 17.152344 20.195312 17.152344 20.164062 Z M 17.152344 20.164062 "/>
<path style=" stroke:none;fill-rule:nonzero;fill:rgb(7.450981%,7.450981%,7.450981%);fill-opacity:1;" d="M 13.445312 6.199219 C 13.492188 6.378906 13.53125 6.53125 13.53125 6.722656 C 13.441406 6.769531 13.351562 6.820312 13.257812 6.871094 C 12.589844 7.242188 11.953125 7.613281 11.375 8.117188 C 11.320312 8.089844 11.261719 8.058594 11.203125 8.03125 C 11.90625 7.34375 12.640625 6.753906 13.445312 6.199219 Z M 13.445312 6.199219 "/>
<path style=" stroke:none;fill-rule:nonzero;fill:rgb(37.64706%,75.686276%,72.941178%);fill-opacity:1;" d="M 32.058594 16.0625 C 32.058594 16.289062 32.035156 16.453125 31.972656 16.671875 C 32.132812 16.738281 32.132812 16.738281 32.320312 16.757812 C 32.355469 16.722656 32.390625 16.683594 32.425781 16.644531 C 32.769531 16.308594 33.40625 16.292969 33.871094 16.234375 C 33.570312 16.492188 33.238281 16.636719 32.878906 16.78125 C 32.820312 16.804688 32.765625 16.832031 32.707031 16.855469 C 32.472656 16.949219 32.28125 17.023438 32.03125 17.003906 C 31.800781 16.890625 31.730469 16.726562 31.628906 16.496094 C 31.714844 16.234375 31.714844 16.234375 31.894531 16.132812 C 31.949219 16.109375 32.003906 16.085938 32.058594 16.0625 Z M 32.058594 16.0625 "/>
<path style=" stroke:none;fill-rule:nonzero;fill:rgb(33.333334%,78.431374%,74.117649%);fill-opacity:1;" d="M 55.023438 14.914062 C 55.328125 14.925781 55.328125 14.925781 55.503906 15.015625 C 55.503906 15.070312 55.503906 15.128906 55.503906 15.1875 C 55.390625 15.179688 55.28125 15.175781 55.167969 15.167969 C 54.679688 15.167969 54.308594 15.332031 53.875 15.539062 C 53.730469 15.601562 53.589844 15.667969 53.445312 15.734375 C 53.382812 15.761719 53.320312 15.792969 53.257812 15.824219 C 53.089844 15.886719 53.089844 15.886719 52.832031 15.886719 C 52.800781 15.769531 52.773438 15.65625 52.746094 15.539062 C 53.214844 15.496094 53.214844 15.496094 53.691406 15.449219 C 53.691406 15.394531 53.691406 15.335938 53.691406 15.277344 C 53.757812 15.257812 53.828125 15.238281 53.898438 15.222656 C 53.984375 15.199219 54.070312 15.175781 54.160156 15.148438 C 54.246094 15.125 54.335938 15.105469 54.425781 15.078125 C 54.953125 14.917969 54.953125 14.917969 55.023438 14.914062 Z M 55.023438 14.914062 "/>
<path style=" stroke:none;fill-rule:nonzero;fill:rgb(38.039216%,78.823531%,76.078433%);fill-opacity:1;" d="M 31.886719 13.179688 C 32.34375 13.226562 32.6875 13.335938 33.09375 13.53125 C 32.75 13.667969 32.488281 13.554688 32.144531 13.441406 C 32.097656 13.625 32.058594 13.777344 32.058594 13.964844 C 32.175781 13.996094 32.289062 14.023438 32.40625 14.054688 C 32.40625 14.109375 32.40625 14.167969 32.40625 14.226562 C 32.113281 14.136719 31.886719 14.054688 31.628906 13.878906 C 31.789062 13.378906 31.789062 13.378906 31.886719 13.179688 Z M 31.886719 13.179688 "/>
<path style=" stroke:none;fill-rule:nonzero;fill:rgb(31.37255%,87.843138%,83.529413%);fill-opacity:1;" d="M 32.144531 13.355469 C 32.320312 13.390625 32.496094 13.433594 32.667969 13.480469 C 32.8125 13.519531 32.8125 13.519531 32.957031 13.558594 C 33.03125 13.578125 33.105469 13.597656 33.179688 13.617188 C 33.179688 13.644531 33.179688 13.675781 33.179688 13.703125 C 32.980469 13.734375 32.78125 13.761719 32.578125 13.792969 C 32.578125 13.847656 32.578125 13.90625 32.578125 13.964844 C 32.421875 14.027344 32.421875 14.027344 32.234375 14.054688 C 32.078125 13.949219 32.078125 13.949219 31.972656 13.792969 C 31.996094 13.605469 32.011719 13.488281 32.144531 13.355469 Z M 32.144531 13.355469 "/>
<path style=" stroke:none;fill-rule:nonzero;fill:rgb(36.078432%,78.823531%,76.47059%);fill-opacity:1;" d="M 33.179688 13.617188 C 33.253906 13.648438 33.253906 13.648438 33.332031 13.675781 C 33.75 13.832031 34.03125 13.914062 34.472656 13.792969 C 34.597656 13.761719 34.726562 13.730469 34.851562 13.699219 C 34.953125 13.671875 35.054688 13.644531 35.164062 13.617188 C 35.011719 13.925781 34.699219 14.035156 34.386719 14.140625 C 33.945312 14.164062 33.511719 14.011719 33.09375 13.878906 C 33.121094 13.792969 33.152344 13.707031 33.179688 13.617188 Z M 33.179688 13.617188 "/>
<path style=" stroke:none;fill-rule:nonzero;fill:rgb(36.862746%,74.901962%,71.372551%);fill-opacity:1;" d="M 36.109375 16.0625 C 36.410156 16.191406 36.410156 16.191406 36.714844 16.324219 C 36.660156 16.628906 36.53125 16.847656 36.371094 17.109375 C 36.246094 17.070312 36.121094 17.027344 35.996094 16.988281 C 35.894531 16.957031 35.894531 16.957031 35.789062 16.921875 C 35.59375 16.847656 35.59375 16.847656 35.335938 16.671875 C 35.675781 16.699219 36.019531 16.730469 36.371094 16.757812 C 36.398438 16.617188 36.425781 16.472656 36.457031 16.324219 C 36.339844 16.292969 36.226562 16.265625 36.109375 16.234375 C 36.109375 16.179688 36.109375 16.121094 36.109375 16.0625 Z M 36.109375 16.0625 "/>
<path style=" stroke:none;fill-rule:nonzero;fill:rgb(1.568628%,12.941177%,12.54902%);fill-opacity:1;" d="M 57.570312 14.925781 C 57.6875 15.121094 57.75 15.226562 57.722656 15.457031 C 57.65625 15.625 57.65625 15.625 57.484375 15.886719 C 57.09375 16.003906 56.855469 15.988281 56.5 15.804688 C 56.394531 15.746094 56.292969 15.6875 56.191406 15.625 C 56.433594 15.5 56.550781 15.582031 56.804688 15.664062 C 56.882812 15.6875 56.960938 15.714844 57.042969 15.738281 C 57.101562 15.757812 57.164062 15.777344 57.226562 15.800781 C 57.339844 15.570312 57.453125 15.339844 57.570312 15.101562 C 57.511719 15.074219 57.457031 15.042969 57.398438 15.015625 C 57.453125 14.984375 57.511719 14.957031 57.570312 14.925781 Z M 57.570312 14.925781 "/>
<path style=" stroke:none;fill-rule:nonzero;fill:rgb(33.725491%,80.000001%,75.686276%);fill-opacity:1;" d="M 53.347656 14.75 C 53.21875 15.160156 53.21875 15.160156 52.992188 15.304688 C 52.9375 15.324219 52.886719 15.34375 52.832031 15.363281 C 52.800781 15.304688 52.773438 15.246094 52.746094 15.1875 C 52.714844 15.304688 52.6875 15.417969 52.65625 15.539062 C 52.628906 15.394531 52.601562 15.25 52.570312 15.101562 C 53.152344 14.75 53.152344 14.75 53.347656 14.75 Z M 53.347656 14.75 "/>
<path style=" stroke:none;fill-rule:nonzero;fill:rgb(32.549021%,79.607844%,75.294119%);fill-opacity:1;" d="M 54.296875 14.140625 C 54.378906 14.167969 54.464844 14.199219 54.554688 14.226562 C 54.527344 14.316406 54.496094 14.402344 54.46875 14.488281 C 54.324219 14.488281 54.183594 14.488281 54.035156 14.488281 C 54.007812 14.578125 53.980469 14.664062 53.949219 14.75 C 53.75 14.75 53.550781 14.75 53.347656 14.75 C 53.648438 14.507812 53.953125 14.316406 54.296875 14.140625 Z M 54.296875 14.140625 "/>
<path style=" stroke:none;fill-rule:nonzero;fill:rgb(18.039216%,18.039216%,18.039216%);fill-opacity:1;" d="M 12.238281 7.070312 C 12.292969 7.097656 12.351562 7.128906 12.410156 7.15625 C 12.296875 7.5 12.136719 7.578125 11.84375 7.785156 C 11.757812 7.847656 11.671875 7.910156 11.582031 7.972656 C 11.511719 8.023438 11.445312 8.070312 11.375 8.117188 C 11.320312 8.089844 11.261719 8.058594 11.203125 8.03125 C 11.546875 7.714844 11.886719 7.398438 12.238281 7.070312 Z M 12.238281 7.070312 "/>
<path style=" stroke:none;fill-rule:nonzero;fill:rgb(14.509805%,14.901961%,14.509805%);fill-opacity:1;" d="M 17.152344 20.164062 C 17.4375 20.300781 17.6875 20.46875 17.949219 20.65625 C 18.023438 20.710938 18.101562 20.765625 18.179688 20.820312 C 18.269531 20.886719 18.269531 20.886719 18.355469 20.949219 C 18.273438 20.992188 18.273438 20.992188 18.183594 21.035156 C 18.15625 21.09375 18.128906 21.152344 18.097656 21.210938 C 17.941406 21.054688 17.78125 20.894531 17.625 20.738281 C 17.578125 20.691406 17.535156 20.648438 17.488281 20.601562 C 17.375 20.484375 17.261719 20.367188 17.152344 20.25 C 17.152344 20.222656 17.152344 20.195312 17.152344 20.164062 Z M 17.152344 20.164062 "/>
<path style=" stroke:none;fill-rule:nonzero;fill:rgb(36.470589%,81.960785%,77.64706%);fill-opacity:1;" d="M 33.871094 16.324219 C 33.707031 16.398438 33.539062 16.472656 33.375 16.546875 C 33.28125 16.589844 33.191406 16.628906 33.097656 16.671875 C 32.835938 16.757812 32.738281 16.773438 32.492188 16.671875 C 32.578125 16.496094 32.578125 16.496094 32.726562 16.445312 C 32.820312 16.425781 32.820312 16.425781 32.910156 16.40625 C 33.621094 16.246094 33.621094 16.246094 33.871094 16.324219 Z M 33.871094 16.324219 "/>
<path style=" stroke:none;fill-rule:nonzero;fill:rgb(30.19608%,80.000001%,76.862746%);fill-opacity:1;" d="M 54.640625 13.007812 C 54.695312 13.035156 54.753906 13.0625 54.8125 13.09375 C 54.753906 13.324219 54.699219 13.554688 54.640625 13.792969 C 54.464844 13.738281 54.292969 13.679688 54.125 13.617188 C 54.09375 13.558594 54.066406 13.5 54.035156 13.441406 C 54.152344 13.441406 54.265625 13.441406 54.382812 13.441406 C 54.410156 13.355469 54.4375 13.269531 54.46875 13.179688 C 54.523438 13.179688 54.582031 13.179688 54.640625 13.179688 C 54.640625 13.125 54.640625 13.066406 54.640625 13.007812 Z M 54.640625 13.007812 "/>
<path style=" stroke:none;fill-rule:nonzero;fill:rgb(33.333334%,80.000001%,76.862746%);fill-opacity:1;" d="M 56.449219 12.394531 C 56.21875 12.695312 55.945312 12.75 55.589844 12.832031 C 55.335938 12.84375 55.335938 12.84375 55.15625 12.832031 C 55.519531 12.464844 55.949219 12.359375 56.449219 12.394531 Z M 56.449219 12.394531 "/>
<path style=" stroke:none;fill-rule:nonzero;fill:rgb(1.960784%,14.901961%,13.725491%);fill-opacity:1;" d="M 56.105469 13.53125 C 56.078125 13.582031 56.050781 13.632812 56.023438 13.6875 C 55.925781 13.886719 55.925781 13.886719 55.847656 14.140625 C 55.632812 14.054688 55.632812 14.054688 55.414062 13.964844 C 55.414062 13.910156 55.414062 13.851562 55.414062 13.792969 C 55.910156 13.53125 55.910156 13.53125 56.105469 13.53125 Z M 56.105469 13.53125 "/>
<path style=" stroke:none;fill-rule:nonzero;fill:rgb(37.254903%,79.607844%,75.686276%);fill-opacity:1;" d="M 53.691406 15.449219 C 53.691406 15.507812 53.691406 15.566406 53.691406 15.625 C 53.121094 15.886719 53.121094 15.886719 52.832031 15.886719 C 52.800781 15.769531 52.773438 15.65625 52.746094 15.539062 C 52.871094 15.523438 52.996094 15.507812 53.121094 15.492188 C 53.191406 15.484375 53.261719 15.476562 53.332031 15.46875 C 53.519531 15.449219 53.519531 15.449219 53.691406 15.449219 Z M 53.691406 15.449219 "/>
<path style=" stroke:none;fill-rule:nonzero;fill:rgb(0.784314%,15.686275%,14.509805%);fill-opacity:1;" d="M 33.523438 14.925781 C 33.640625 14.957031 33.753906 14.984375 33.871094 15.015625 C 33.871094 15.070312 33.871094 15.128906 33.871094 15.1875 C 33.316406 15.449219 33.316406 15.449219 32.75 15.710938 C 32.75 15.65625 32.75 15.597656 32.75 15.539062 C 33.003906 15.394531 33.261719 15.25 33.523438 15.101562 C 33.523438 15.042969 33.523438 14.984375 33.523438 14.925781 Z M 33.523438 14.925781 "/>
<path style=" stroke:none;fill-rule:nonzero;fill:rgb(35.686275%,78.431374%,74.901962%);fill-opacity:1;" d="M 33.351562 15.449219 C 33.351562 15.507812 33.351562 15.566406 33.351562 15.625 C 33.296875 15.625 33.238281 15.625 33.179688 15.625 C 33.179688 15.683594 33.179688 15.738281 33.179688 15.800781 C 32.582031 16.089844 32.582031 16.089844 32.234375 15.972656 C 32.386719 15.886719 32.542969 15.800781 32.695312 15.710938 C 32.78125 15.664062 32.867188 15.613281 32.957031 15.566406 C 33.179688 15.449219 33.179688 15.449219 33.351562 15.449219 Z M 33.351562 15.449219 "/>
<path style=" stroke:none;fill-rule:nonzero;fill:rgb(21.960784%,21.960784%,21.960784%);fill-opacity:1;" d="M 47.402344 21.386719 C 47.785156 21.367188 48.074219 21.421875 48.433594 21.558594 C 48.433594 21.648438 48.433594 21.734375 48.433594 21.824219 C 48.292969 21.78125 48.15625 21.742188 48.015625 21.703125 C 47.898438 21.667969 47.898438 21.667969 47.777344 21.636719 C 47.574219 21.558594 47.574219 21.558594 47.402344 21.386719 Z M 47.402344 21.386719 "/>
<path style=" stroke:none;fill-rule:nonzero;fill:rgb(34.117648%,74.117649%,71.372551%);fill-opacity:1;" d="M 52.832031 11.957031 C 52.953125 12 53.078125 12.039062 53.203125 12.078125 C 53.269531 12.101562 53.339844 12.125 53.410156 12.144531 C 53.605469 12.21875 53.605469 12.21875 53.863281 12.394531 C 53.542969 12.351562 53.230469 12.304688 52.917969 12.21875 C 52.859375 12.21875 52.804688 12.21875 52.746094 12.21875 C 52.773438 12.132812 52.800781 12.046875 52.832031 11.957031 Z M 52.832031 11.957031 "/>
<path style=" stroke:none;fill-rule:nonzero;fill:rgb(30.588236%,88.627452%,86.666667%);fill-opacity:1;" d="M 56.882812 15.1875 C 57.050781 15.1875 57.222656 15.1875 57.398438 15.1875 C 57.398438 15.246094 57.398438 15.304688 57.398438 15.363281 C 57.339844 15.363281 57.285156 15.363281 57.226562 15.363281 C 57.199219 15.449219 57.167969 15.535156 57.140625 15.625 C 57.027344 15.566406 56.910156 15.507812 56.792969 15.449219 C 56.824219 15.363281 56.851562 15.277344 56.882812 15.1875 Z M 56.882812 15.1875 "/>
<path style=" stroke:none;fill-rule:nonzero;fill:rgb(33.333334%,74.509805%,71.372551%);fill-opacity:1;" d="M 34.558594 16.324219 C 34.667969 16.332031 34.777344 16.34375 34.886719 16.355469 C 34.980469 16.363281 34.980469 16.363281 35.074219 16.375 C 35.25 16.410156 35.25 16.410156 35.507812 16.585938 C 35.320312 16.667969 35.199219 16.683594 35.003906 16.621094 C 34.855469 16.554688 34.707031 16.480469 34.558594 16.410156 C 34.558594 16.382812 34.558594 16.351562 34.558594 16.324219 Z M 34.558594 16.324219 "/>
<path style=" stroke:none;fill-rule:nonzero;fill:rgb(37.64706%,82.352942%,78.431374%);fill-opacity:1;" d="M 33.179688 13.617188 C 33.4375 13.703125 33.691406 13.789062 33.957031 13.878906 C 33.957031 13.90625 33.957031 13.9375 33.957031 13.964844 C 33.671875 13.9375 33.386719 13.910156 33.09375 13.878906 C 33.121094 13.792969 33.152344 13.707031 33.179688 13.617188 Z M 33.179688 13.617188 "/>
<path style=" stroke:none;fill-rule:nonzero;fill:rgb(34.509805%,74.509805%,70.980394%);fill-opacity:1;" d="M 36.371094 13.179688 C 36.398438 13.265625 36.425781 13.355469 36.457031 13.441406 C 36.171875 13.441406 35.886719 13.441406 35.59375 13.441406 C 35.980469 13.148438 35.980469 13.148438 36.371094 13.179688 Z M 36.371094 13.179688 "/>
<path style=" stroke:none;fill-rule:nonzero;fill:rgb(81.176472%,80.392158%,81.568629%);fill-opacity:1;" d="M 53.089844 51.675781 C 53.316406 51.675781 53.542969 51.675781 53.777344 51.675781 C 53.628906 52.011719 53.628906 52.011719 53.433594 52.113281 C 53.433594 51.996094 53.433594 51.882812 53.433594 51.761719 C 53.320312 51.734375 53.207031 51.703125 53.089844 51.675781 Z M 53.089844 51.675781 "/>
<path style=" stroke:none;fill-rule:nonzero;fill:rgb(35.294119%,79.215688%,75.294119%);fill-opacity:1;" d="M 35.59375 14.488281 C 35.011719 14.839844 35.011719 14.839844 34.816406 14.839844 C 34.816406 14.753906 34.816406 14.667969 34.816406 14.578125 C 35.113281 14.4375 35.28125 14.371094 35.59375 14.488281 Z M 35.59375 14.488281 "/>
<path style=" stroke:none;fill-rule:nonzero;fill:rgb(3.529412%,18.431373%,17.647059%);fill-opacity:1;" d="M 34.300781 13.792969 C 34.300781 13.847656 34.300781 13.90625 34.300781 13.964844 C 33.980469 13.921875 33.800781 13.890625 33.523438 13.703125 C 33.851562 13.59375 33.988281 13.671875 34.300781 13.792969 Z M 34.300781 13.792969 "/>
<path style=" stroke:none;fill-rule:nonzero;fill:rgb(35.686275%,80.392158%,76.47059%);fill-opacity:1;" d="M 56.363281 13.355469 C 56.023438 13.527344 56.023438 13.527344 55.675781 13.703125 C 55.703125 13.589844 55.730469 13.472656 55.761719 13.355469 C 56.019531 13.273438 56.09375 13.265625 56.363281 13.355469 Z M 56.363281 13.355469 "/>
</g>
</svg>
