<?xml version="1.0" encoding="UTF-8"?>
<svg xmlns="http://www.w3.org/2000/svg" xmlns:xlink="http://www.w3.org/1999/xlink" width="64px" height="64px" viewBox="0 0 64 64" version="1.1">
<g id="surface1">
<path style=" stroke:none;fill-rule:nonzero;fill:rgb(5.098039%,4.705882%,4.705882%);fill-opacity:1;" d="M 0 0 C 21.121094 0 42.238281 0 64 0 C 64 21.121094 64 42.238281 64 64 C 42.878906 64 21.761719 64 0 64 C 0 42.878906 0 21.761719 0 0 Z M 0 0 "/>
<path style=" stroke:none;fill-rule:nonzero;fill:rgb(99.215686%,99.215686%,99.215686%);fill-opacity:1;" d="M 18.625 1.652344 C 19.988281 1.628906 21.273438 1.898438 22.589844 2.253906 C 22.695312 2.28125 22.800781 2.308594 22.910156 2.339844 C 23.601562 2.53125 24.261719 2.78125 24.929688 3.050781 C 25.015625 3.085938 25.097656 3.117188 25.1875 3.152344 C 25.515625 3.289062 25.796875 3.40625 26.089844 3.625 C 26.089844 3.691406 26.089844 3.753906 26.089844 3.824219 C 25.8125 3.925781 25.585938 3.945312 25.292969 3.960938 C 25.183594 3.96875 25.078125 3.976562 24.964844 3.984375 C 24.90625 3.988281 24.847656 3.992188 24.789062 3.996094 C 21.355469 4.214844 17.820312 4.605469 14.707031 6.371094 C 14.652344 6.402344 14.597656 6.433594 14.542969 6.464844 C 13.394531 7.125 12.414062 8.039062 11.46875 9.015625 C 11.511719 8.984375 11.550781 8.953125 11.59375 8.917969 C 14.492188 6.714844 17.664062 5.601562 21.109375 5.023438 C 21.167969 5.011719 21.226562 5.003906 21.289062 4.992188 C 23.230469 4.667969 25.171875 4.566406 27.132812 4.566406 C 27.375 4.5625 27.621094 4.5625 27.863281 4.558594 C 29.542969 4.535156 30.976562 4.546875 32.394531 5.683594 C 32.570312 5.878906 32.570312 5.878906 32.570312 6.175781 C 32.433594 6.175781 32.433594 6.175781 32.296875 6.179688 C 26.859375 6.273438 20.878906 6.550781 16.832031 11.214844 C 16.503906 11.632812 16.214844 12.082031 15.933594 12.546875 C 16.457031 12.179688 16.945312 11.769531 17.433594 11.34375 C 18.988281 10.007812 20.667969 8.757812 22.566406 8.132812 C 22.78125 8.058594 22.980469 7.980469 23.1875 7.890625 C 23.570312 7.726562 23.957031 7.632812 24.359375 7.546875 C 24.4375 7.53125 24.511719 7.515625 24.589844 7.496094 C 25.128906 7.382812 25.671875 7.277344 26.214844 7.183594 C 26.316406 7.167969 26.316406 7.167969 26.417969 7.148438 C 27.621094 6.953125 28.820312 6.9375 30.03125 6.933594 C 30.316406 6.933594 30.601562 6.929688 30.882812 6.929688 C 32.96875 6.917969 35.570312 6.910156 37.199219 8.597656 C 37.625 9.117188 37.929688 9.671875 37.929688 10.390625 C 37.925781 10.519531 37.917969 10.648438 37.910156 10.78125 C 37.179688 10.636719 36.515625 10.332031 35.832031 10.015625 C 35.605469 9.914062 35.378906 9.808594 35.152344 9.707031 C 35.097656 9.683594 35.042969 9.65625 34.984375 9.628906 C 33.753906 9.070312 33.753906 9.070312 32.480469 8.65625 C 32.414062 8.636719 32.34375 8.617188 32.273438 8.597656 C 31.183594 8.296875 30.128906 8.199219 29.007812 8.203125 C 28.789062 8.203125 28.570312 8.199219 28.351562 8.199219 C 27.109375 8.191406 25.863281 8.316406 24.691406 8.789062 C 24.625 8.816406 24.5625 8.839844 24.496094 8.867188 C 22.617188 9.621094 20.929688 10.695312 19.347656 12.054688 C 19.214844 12.167969 19.085938 12.28125 18.953125 12.390625 C 18.695312 12.609375 18.4375 12.832031 18.183594 13.050781 C 18.125 13.097656 18.070312 13.144531 18.011719 13.195312 C 17.882812 13.308594 17.757812 13.425781 17.632812 13.546875 C 17.382812 13.753906 17.148438 13.855469 16.855469 13.964844 C 16.691406 14.027344 16.691406 14.027344 16.523438 14.09375 C 16.230469 14.199219 15.9375 14.292969 15.640625 14.390625 C 15.039062 14.589844 14.503906 14.898438 13.949219 15.21875 C 13.65625 15.386719 13.65625 15.386719 13.394531 15.484375 C 13.167969 15.910156 13.171875 16.378906 13.21875 16.859375 C 13.519531 17.710938 14.40625 18.15625 15.082031 18.566406 C 16.058594 19.167969 16.984375 19.808594 17.875 20.558594 C 21.398438 23.484375 25.332031 25.378906 29.800781 25.402344 C 29.925781 25.40625 29.925781 25.40625 30.054688 25.40625 C 30.234375 25.40625 30.410156 25.40625 30.585938 25.40625 C 30.851562 25.410156 31.117188 25.410156 31.382812 25.414062 C 32.851562 25.425781 34.25 25.28125 35.644531 24.734375 C 35.734375 24.699219 35.820312 24.667969 35.910156 24.632812 C 37.207031 24.117188 38.304688 23.363281 39.398438 22.445312 C 39.984375 21.953125 39.984375 21.953125 40.1875 21.953125 C 40.003906 23.003906 39.3125 23.917969 38.699219 24.699219 C 38.601562 24.824219 38.601562 24.824219 38.507812 24.957031 C 37.621094 26.113281 36.433594 26.96875 35.109375 27.34375 C 34.964844 27.386719 34.964844 27.386719 34.820312 27.425781 C 32.832031 27.90625 30.710938 27.691406 28.71875 27.34375 C 28.585938 27.320312 28.585938 27.320312 28.449219 27.296875 C 27.203125 27.074219 25.988281 26.734375 24.773438 26.371094 C 24.671875 26.339844 24.671875 26.339844 24.566406 26.308594 C 22.207031 25.601562 19.550781 24.679688 17.683594 22.835938 C 17.683594 23.101562 18.042969 23.371094 18.203125 23.550781 C 19.546875 25.011719 21.167969 25.855469 22.9375 26.460938 C 23 26.484375 23.058594 26.503906 23.121094 26.527344 C 24.839844 27.125 26.59375 27.582031 28.367188 27.933594 C 28.519531 27.964844 28.519531 27.964844 28.675781 27.996094 C 29.796875 28.21875 30.914062 28.246094 32.046875 28.25 C 32.289062 28.25 32.53125 28.253906 32.773438 28.257812 C 34.988281 28.273438 37.003906 27.621094 38.625 25.855469 C 38.707031 25.765625 38.789062 25.675781 38.871094 25.582031 C 38.976562 25.464844 38.976562 25.464844 39.082031 25.34375 C 40.375 23.820312 41.164062 21.859375 41.980469 19.988281 C 42.019531 19.902344 42.058594 19.8125 42.097656 19.722656 C 42.128906 19.648438 42.164062 19.570312 42.195312 19.492188 C 42.289062 19.308594 42.289062 19.308594 42.460938 19.113281 C 42.835938 19.125 43.082031 19.445312 43.355469 19.699219 C 45.207031 21.378906 47.546875 22.019531 49.816406 22.640625 C 49.875 22.65625 49.9375 22.675781 50 22.691406 C 50.488281 22.828125 50.945312 22.863281 51.449219 22.863281 C 51.566406 22.863281 51.566406 22.863281 51.6875 22.863281 C 51.855469 22.863281 52.019531 22.863281 52.1875 22.863281 C 52.433594 22.859375 52.683594 22.863281 52.929688 22.863281 C 54.296875 22.863281 55.632812 22.753906 56.96875 22.414062 C 57.054688 22.394531 57.136719 22.371094 57.222656 22.351562 C 57.835938 22.195312 58.417969 21.996094 59.003906 21.75 C 59.289062 21.652344 59.5 21.621094 59.796875 21.660156 C 59.96875 21.796875 59.96875 21.796875 60.097656 21.980469 C 60.144531 22.039062 60.1875 22.097656 60.234375 22.15625 C 60.324219 22.347656 60.324219 22.347656 60.332031 22.542969 C 60.125 22.960938 59.605469 23.105469 59.226562 23.285156 C 58.988281 23.402344 58.75 23.519531 58.511719 23.648438 C 56.847656 24.535156 55.414062 24.636719 53.605469 24.585938 C 53.339844 24.582031 53.070312 24.578125 52.804688 24.578125 C 51.566406 24.570312 50.335938 24.554688 49.121094 24.269531 C 48.855469 24.199219 48.855469 24.199219 48.589844 24.207031 C 48.945312 24.355469 49.300781 24.5 49.65625 24.644531 C 49.757812 24.683594 49.859375 24.726562 49.964844 24.769531 C 50.109375 24.828125 50.109375 24.828125 50.257812 24.886719 C 50.347656 24.925781 50.4375 24.960938 50.527344 25 C 50.933594 25.148438 51.289062 25.199219 51.714844 25.183594 C 51.816406 25.179688 51.914062 25.175781 52.015625 25.175781 C 52.121094 25.171875 52.226562 25.167969 52.335938 25.164062 C 52.617188 25.15625 52.902344 25.152344 53.183594 25.144531 C 53.480469 25.140625 53.777344 25.132812 54.070312 25.121094 C 56.292969 25.039062 56.292969 25.039062 56.914062 25.640625 C 56.988281 25.730469 57.058594 25.820312 57.136719 25.910156 C 57.492188 26.347656 57.957031 26.566406 58.425781 26.828125 C 60.074219 27.769531 60.074219 27.769531 60.410156 28.816406 C 60.582031 29.4375 60.710938 30.023438 60.671875 30.675781 C 60.292969 30.695312 60.058594 30.640625 59.710938 30.480469 C 58.839844 30.203125 57.953125 29.996094 57.074219 29.78125 C 56.972656 29.757812 56.871094 29.734375 56.765625 29.707031 C 55.621094 29.433594 54.511719 29.273438 53.339844 29.269531 C 53.214844 29.265625 53.09375 29.265625 52.972656 29.265625 C 52.582031 29.261719 52.1875 29.261719 51.796875 29.261719 C 51.730469 29.261719 51.664062 29.261719 51.59375 29.261719 C 49.242188 29.257812 46.9375 29.402344 44.605469 29.761719 C 44.398438 29.792969 44.195312 29.824219 43.988281 29.851562 C 43.097656 29.976562 42.210938 30.125 41.324219 30.285156 C 41.199219 30.308594 41.199219 30.308594 41.074219 30.328125 C 37.394531 30.996094 33.765625 31.789062 30.207031 33.027344 C 30.144531 33.050781 30.082031 33.070312 30.019531 33.09375 C 28.371094 33.671875 26.769531 34.355469 25.183594 35.117188 C 25.105469 35.15625 25.027344 35.191406 24.945312 35.230469 C 23.019531 36.011719 23.019531 36.011719 21.703125 37.601562 C 21.382812 38.953125 21.683594 40.359375 22.0625 41.652344 C 22.082031 41.722656 22.101562 41.789062 22.121094 41.859375 C 22.960938 44.707031 24.652344 47.054688 26.464844 49.210938 C 26.675781 49.460938 26.878906 49.714844 27.082031 49.972656 C 28.117188 51.257812 29.199219 52.324219 30.46875 53.316406 C 30.59375 53.417969 30.71875 53.515625 30.84375 53.613281 C 32.109375 54.617188 33.445312 55.382812 34.847656 56.117188 C 35.097656 56.25 35.34375 56.386719 35.589844 56.523438 C 38.246094 57.996094 41.164062 59.382812 44.171875 59.417969 C 44.238281 59.417969 44.308594 59.417969 44.378906 59.417969 C 46.847656 59.445312 49.175781 59.179688 51.589844 58.570312 C 51.996094 58.46875 52.40625 58.382812 52.816406 58.289062 C 52.957031 58.261719 53.097656 58.230469 53.238281 58.199219 C 53.296875 58.183594 53.355469 58.171875 53.414062 58.160156 C 53.53125 58.132812 53.648438 58.101562 53.765625 58.066406 C 53.949219 58.015625 54.113281 58.011719 54.304688 58.015625 C 54.410156 58.015625 54.519531 58.019531 54.632812 58.019531 C 54.304688 59.007812 52.71875 59.707031 51.917969 60.175781 C 51.859375 60.210938 51.800781 60.246094 51.742188 60.28125 C 50.707031 60.882812 49.625 61.292969 48.503906 61.648438 C 48.421875 61.671875 48.34375 61.699219 48.261719 61.726562 C 47.59375 61.925781 46.925781 62.035156 46.238281 62.121094 C 46.058594 62.144531 45.878906 62.167969 45.699219 62.191406 C 45.390625 62.234375 45.078125 62.273438 44.765625 62.308594 C 44.628906 62.324219 44.492188 62.34375 44.355469 62.359375 C 43.035156 62.53125 41.726562 62.566406 40.398438 62.558594 C 40.292969 62.558594 40.183594 62.558594 40.074219 62.558594 C 38.03125 62.554688 36.007812 62.445312 33.96875 62.234375 C 33.820312 62.222656 33.820312 62.222656 33.667969 62.207031 C 31.328125 61.96875 28.988281 61.714844 26.660156 61.339844 C 26.585938 61.332031 26.515625 61.320312 26.441406 61.308594 C 25.585938 61.167969 24.738281 61 23.894531 60.804688 C 23.445312 60.699219 23 60.613281 22.550781 60.53125 C 20.945312 60.242188 19.355469 59.84375 17.773438 59.414062 C 17.394531 59.308594 17.007812 59.210938 16.625 59.117188 C 16.21875 59.015625 15.8125 58.910156 15.410156 58.804688 C 15.320312 58.78125 15.230469 58.761719 15.140625 58.734375 C 14.871094 58.664062 14.601562 58.59375 14.332031 58.519531 C 14.25 58.496094 14.167969 58.476562 14.082031 58.453125 C 13.507812 58.289062 13.078125 58.03125 12.605469 57.628906 C 12.53125 57.5625 12.453125 57.5 12.371094 57.429688 C 12.277344 57.34375 12.277344 57.34375 12.179688 57.253906 C 12.070312 57.15625 12.070312 57.15625 11.957031 57.054688 C 11.847656 56.949219 11.847656 56.949219 11.730469 56.84375 C 11.65625 56.777344 11.582031 56.710938 11.503906 56.640625 C 11.257812 56.417969 11.011719 56.191406 10.769531 55.964844 C 10.699219 55.902344 10.699219 55.902344 10.632812 55.839844 C 9.371094 54.675781 8.171875 53.398438 7.179688 51.945312 C 7.109375 51.847656 7.039062 51.753906 6.96875 51.65625 C 6.414062 50.886719 5.960938 50.070312 5.53125 49.207031 C 5.4375 49.019531 5.339844 48.832031 5.246094 48.648438 C 4.757812 47.679688 4.394531 46.664062 4.03125 45.628906 C 3.960938 45.433594 3.886719 45.238281 3.808594 45.046875 C 2.546875 41.675781 2.066406 37.90625 1.601562 34.316406 C 1.578125 34.128906 1.550781 33.941406 1.527344 33.75 C 1.457031 33.113281 1.472656 32.464844 1.472656 31.824219 C 1.472656 31.675781 1.472656 31.527344 1.472656 31.378906 C 1.472656 31.070312 1.472656 30.757812 1.472656 30.445312 C 1.472656 30.132812 1.472656 29.820312 1.46875 29.507812 C 1.453125 24.867188 1.910156 20.359375 2.851562 15.839844 C 2.867188 15.761719 2.882812 15.683594 2.898438 15.601562 C 3.160156 14.332031 3.460938 13.203125 4.179688 12.152344 C 4.40625 11.816406 4.609375 11.472656 4.816406 11.125 C 5.402344 10.132812 6.007812 9.195312 6.742188 8.332031 C 6.789062 8.273438 6.835938 8.21875 6.886719 8.164062 C 9.253906 5.394531 12.40625 3.167969 15.722656 2.152344 C 15.902344 2.09375 16.085938 2.035156 16.269531 1.972656 C 17.042969 1.707031 17.816406 1.683594 18.625 1.652344 Z M 18.625 1.652344 "/>
<path style=" stroke:none;fill-rule:nonzero;fill:rgb(99.215686%,99.215686%,99.215686%);fill-opacity:1;" d="M 0 0 C 21.121094 0 42.238281 0 64 0 C 64 21.121094 64 42.238281 64 64 C 42.878906 64 21.761719 64 0 64 C 0 42.878906 0 21.761719 0 0 Z M 15.234375 1.46875 C 15.109375 1.515625 15.109375 1.515625 14.980469 1.5625 C 9.632812 3.566406 5.667969 7.519531 2.890625 12.9375 C 2.859375 12.992188 2.828125 13.050781 2.796875 13.109375 C 2.257812 14.199219 2.105469 15.5625 1.886719 16.773438 C 1.867188 16.878906 1.867188 16.878906 1.847656 16.988281 C 1.417969 19.351562 1.066406 21.707031 0.875 24.109375 C 0.867188 24.214844 0.855469 24.320312 0.847656 24.429688 C 0.527344 28.175781 0.503906 32.054688 1.050781 35.773438 C 1.078125 35.992188 1.109375 36.207031 1.136719 36.425781 C 1.699219 40.667969 2.679688 44.761719 4.378906 48.613281 C 4.421875 48.71875 4.421875 48.71875 4.472656 48.828125 C 5.796875 51.84375 7.976562 54.671875 10.347656 56.726562 C 10.550781 56.90625 10.75 57.089844 10.949219 57.277344 C 11.011719 57.335938 11.078125 57.394531 11.144531 57.457031 C 11.269531 57.574219 11.394531 57.695312 11.515625 57.8125 C 12.382812 58.617188 13.167969 59.101562 14.269531 59.382812 C 14.390625 59.414062 14.511719 59.445312 14.632812 59.476562 C 16.734375 60.035156 18.859375 60.5 20.980469 60.972656 C 21.273438 61.039062 21.570312 61.105469 21.863281 61.171875 C 23.242188 61.488281 24.621094 61.753906 26.011719 61.972656 C 26.617188 62.066406 27.222656 62.171875 27.828125 62.28125 C 28.605469 62.421875 29.386719 62.515625 30.171875 62.597656 C 30.308594 62.613281 30.445312 62.628906 30.582031 62.640625 C 30.941406 62.679688 31.296875 62.71875 31.65625 62.757812 C 31.945312 62.789062 32.238281 62.820312 32.527344 62.851562 C 32.878906 62.890625 33.226562 62.925781 33.578125 62.964844 C 33.644531 62.972656 33.710938 62.980469 33.777344 62.988281 C 34.878906 63.105469 35.976562 63.222656 37.082031 63.269531 C 37.175781 63.273438 37.269531 63.277344 37.363281 63.28125 C 38.464844 63.328125 39.566406 63.335938 40.667969 63.339844 C 40.828125 63.339844 40.828125 63.339844 40.992188 63.339844 C 43.351562 63.335938 45.664062 63.191406 47.976562 62.628906 C 48.074219 62.605469 48.074219 62.605469 48.167969 62.582031 C 49.136719 62.351562 50.042969 61.976562 50.953125 61.550781 C 51.050781 61.503906 51.148438 61.460938 51.25 61.414062 C 53.15625 60.464844 54.949219 59.21875 56.558594 57.726562 C 56.621094 57.671875 56.679688 57.613281 56.746094 57.554688 C 58.039062 56.25 58.035156 53.953125 58.132812 52.140625 C 58.15625 51.460938 58.15625 50.78125 58.152344 50.101562 C 58.152344 49.804688 58.148438 49.507812 58.148438 49.214844 C 58.148438 48.320312 58.132812 47.433594 58.078125 46.542969 C 58.019531 45.5 58.027344 44.457031 58.027344 43.417969 C 58.023438 43.042969 58.023438 42.667969 58.019531 42.292969 C 58.015625 41.066406 58.046875 39.855469 58.164062 38.632812 C 58.175781 38.527344 58.183594 38.417969 58.195312 38.308594 C 58.414062 36.285156 59.261719 35.03125 60.574219 33.667969 C 61.136719 33.058594 61.472656 32.519531 61.589844 31.644531 C 61.542969 30.105469 61.359375 28.269531 60.316406 27.148438 C 59.707031 26.617188 59.011719 26.238281 58.324219 25.851562 C 58.246094 25.808594 58.167969 25.765625 58.089844 25.71875 C 58.019531 25.679688 57.953125 25.640625 57.878906 25.601562 C 57.695312 25.480469 57.566406 25.375 57.433594 25.1875 C 57.433594 25.089844 57.433594 24.996094 57.433594 24.894531 C 57.484375 24.875 57.535156 24.855469 57.589844 24.835938 C 58.460938 24.496094 59.332031 24.152344 60.164062 23.695312 C 60.25 23.648438 60.25 23.648438 60.335938 23.601562 C 60.640625 23.425781 60.859375 23.273438 61.023438 22.933594 C 61.097656 22.558594 61.097656 22.195312 60.921875 21.855469 C 60.800781 21.679688 60.800781 21.679688 60.671875 21.523438 C 60.585938 21.367188 60.585938 21.367188 60.589844 21.175781 C 60.710938 20.882812 60.894531 20.746094 61.121094 20.550781 C 62.25 19.542969 63.128906 18.300781 63.386719 16.660156 C 63.550781 14.957031 63.226562 13.863281 62.273438 12.53125 C 62.019531 12.195312 61.761719 11.90625 61.460938 11.625 C 61.054688 11.242188 60.789062 10.785156 60.496094 10.289062 C 58.6875 7.300781 56.160156 5.6875 53.011719 4.945312 C 52.703125 4.882812 52.398438 4.855469 52.085938 4.828125 C 51.476562 4.75 51.140625 4.476562 50.675781 4.042969 C 49.667969 3.140625 48.355469 2.988281 47.109375 3.011719 C 46.925781 3.015625 46.746094 3.015625 46.566406 3.015625 C 46.007812 3.019531 45.457031 3.042969 44.902344 3.109375 C 44.5625 3.140625 44.417969 3.152344 44.105469 3 C 44.003906 2.898438 44.003906 2.898438 43.902344 2.792969 C 43.570312 2.484375 43.25 2.21875 42.878906 1.980469 C 42.753906 1.898438 42.753906 1.898438 42.628906 1.816406 C 41.449219 1.117188 40.226562 1.023438 38.917969 1.035156 C 38.8125 1.035156 38.8125 1.035156 38.707031 1.035156 C 36.949219 1.046875 35.34375 1.40625 33.664062 1.984375 C 33.453125 2.054688 33.234375 2.125 33.019531 2.191406 C 32.269531 2.429688 31.546875 2.707031 30.824219 3.039062 C 29.691406 3.550781 28.851562 3.917969 27.65625 3.429688 C 27.511719 3.359375 27.367188 3.289062 27.222656 3.21875 C 26.660156 2.941406 26.085938 2.699219 25.515625 2.445312 C 25.382812 2.386719 25.25 2.328125 25.121094 2.269531 C 24.253906 1.886719 23.367188 1.628906 22.460938 1.390625 C 22.351562 1.359375 22.238281 1.332031 22.121094 1.300781 C 19.941406 0.742188 17.371094 0.675781 15.234375 1.46875 Z M 15.234375 1.46875 "/>
<path style=" stroke:none;fill-rule:nonzero;fill:rgb(99.215686%,99.215686%,99.215686%);fill-opacity:1;" d="M 51.378906 29.875 C 51.710938 29.875 52.042969 29.871094 52.375 29.871094 C 53.921875 29.867188 55.34375 30.007812 56.859375 30.371094 C 57.023438 30.410156 57.023438 30.410156 57.191406 30.449219 C 57.507812 30.523438 57.820312 30.601562 58.132812 30.675781 C 58.214844 30.695312 58.292969 30.714844 58.378906 30.734375 C 60.488281 31.253906 60.488281 31.253906 60.761719 31.558594 C 60.804688 31.984375 60.746094 32.222656 60.53125 32.570312 C 60.292969 32.894531 60.007812 33.164062 59.730469 33.441406 C 58.039062 35.183594 57.445312 37.300781 57.335938 39.828125 C 57.320312 40.378906 57.324219 40.929688 57.324219 41.480469 C 57.324219 41.65625 57.324219 41.828125 57.324219 42 C 57.328125 42.363281 57.328125 42.722656 57.328125 43.082031 C 57.328125 43.542969 57.328125 44.003906 57.328125 44.464844 C 57.328125 44.820312 57.332031 45.179688 57.332031 45.535156 C 57.332031 45.707031 57.332031 45.875 57.332031 46.046875 C 57.332031 46.28125 57.332031 46.519531 57.332031 46.753906 C 57.332031 46.824219 57.332031 46.894531 57.332031 46.964844 C 57.335938 47.390625 57.375 47.800781 57.433594 48.21875 C 57.457031 48.765625 57.453125 49.316406 57.457031 49.863281 C 57.457031 49.941406 57.457031 50.019531 57.457031 50.097656 C 57.453125 55.375 57.453125 55.375 56.527344 56.613281 C 55.980469 57.125 55.039062 57.179688 54.363281 57.324219 C 54.128906 57.375 53.890625 57.425781 53.65625 57.476562 C 53.597656 57.492188 53.539062 57.503906 53.476562 57.515625 C 53.039062 57.613281 52.601562 57.714844 52.164062 57.820312 C 51.292969 58.027344 50.421875 58.214844 49.546875 58.382812 C 49.445312 58.402344 49.34375 58.421875 49.238281 58.441406 C 48.9375 58.5 48.632812 58.554688 48.328125 58.609375 C 48.226562 58.628906 48.125 58.648438 48.019531 58.667969 C 47.1875 58.808594 46.371094 58.835938 45.527344 58.832031 C 45.308594 58.828125 45.085938 58.832031 44.867188 58.832031 C 43.175781 58.835938 41.628906 58.484375 40.023438 57.921875 C 39.957031 57.898438 39.890625 57.878906 39.820312 57.851562 C 37.539062 57.035156 35.320312 55.792969 33.214844 54.519531 C 33.070312 54.433594 32.921875 54.347656 32.773438 54.261719 C 32.179688 53.914062 31.65625 53.503906 31.128906 53.042969 C 30.96875 52.902344 30.808594 52.761719 30.648438 52.621094 C 30.570312 52.554688 30.496094 52.488281 30.417969 52.421875 C 30.152344 52.195312 29.886719 51.972656 29.621094 51.753906 C 28.605469 50.902344 27.675781 49.890625 26.855469 48.808594 C 26.6875 48.589844 26.515625 48.382812 26.34375 48.171875 C 24.265625 45.585938 21.949219 42.054688 22.113281 38.382812 C 22.195312 37.8125 22.375 37.425781 22.78125 37.066406 C 23.308594 36.640625 23.910156 36.375 24.503906 36.09375 C 24.628906 36.03125 24.753906 35.972656 24.878906 35.910156 C 26 35.371094 27.132812 34.875 28.277344 34.402344 C 28.34375 34.375 28.410156 34.347656 28.476562 34.320312 C 33.457031 32.253906 38.878906 31.074219 44.152344 30.425781 C 44.457031 30.386719 44.757812 30.335938 45.0625 30.285156 C 45.585938 30.199219 46.113281 30.136719 46.644531 30.082031 C 46.71875 30.074219 46.789062 30.066406 46.867188 30.058594 C 47.121094 30.035156 47.375 30.011719 47.628906 29.992188 C 47.789062 29.976562 47.789062 29.976562 47.953125 29.964844 C 49.09375 29.878906 50.234375 29.875 51.378906 29.875 Z M 51.378906 29.875 "/>
<path style=" stroke:none;fill-rule:nonzero;fill:rgb(98.431373%,98.431373%,98.431373%);fill-opacity:1;" d="M 51.378906 29.875 C 51.710938 29.875 52.042969 29.871094 52.375 29.871094 C 53.921875 29.867188 55.34375 30.007812 56.859375 30.371094 C 57.023438 30.410156 57.023438 30.410156 57.191406 30.449219 C 57.507812 30.523438 57.820312 30.601562 58.132812 30.675781 C 58.214844 30.695312 58.292969 30.714844 58.378906 30.734375 C 60.488281 31.253906 60.488281 31.253906 60.761719 31.558594 C 60.804688 31.984375 60.746094 32.222656 60.53125 32.570312 C 60.292969 32.894531 60.007812 33.164062 59.730469 33.441406 C 58.039062 35.183594 57.445312 37.300781 57.335938 39.828125 C 57.320312 40.378906 57.324219 40.929688 57.324219 41.480469 C 57.324219 41.65625 57.324219 41.828125 57.324219 42 C 57.328125 42.363281 57.328125 42.722656 57.328125 43.082031 C 57.328125 43.542969 57.328125 44.003906 57.328125 44.464844 C 57.328125 44.820312 57.332031 45.179688 57.332031 45.535156 C 57.332031 45.707031 57.332031 45.875 57.332031 46.046875 C 57.332031 46.28125 57.332031 46.519531 57.332031 46.753906 C 57.332031 46.824219 57.332031 46.894531 57.332031 46.964844 C 57.335938 47.390625 57.375 47.800781 57.433594 48.21875 C 57.457031 48.765625 57.453125 49.316406 57.457031 49.863281 C 57.457031 49.941406 57.457031 50.019531 57.457031 50.097656 C 57.453125 55.375 57.453125 55.375 56.527344 56.613281 C 55.980469 57.125 55.039062 57.179688 54.363281 57.324219 C 54.128906 57.375 53.890625 57.425781 53.65625 57.476562 C 53.597656 57.492188 53.539062 57.503906 53.476562 57.515625 C 53.039062 57.613281 52.601562 57.714844 52.164062 57.820312 C 51.292969 58.027344 50.421875 58.214844 49.546875 58.382812 C 49.445312 58.402344 49.34375 58.421875 49.238281 58.441406 C 48.9375 58.5 48.632812 58.554688 48.328125 58.609375 C 48.226562 58.628906 48.125 58.648438 48.019531 58.667969 C 47.1875 58.808594 46.371094 58.835938 45.527344 58.832031 C 45.308594 58.828125 45.085938 58.832031 44.867188 58.832031 C 43.175781 58.835938 41.628906 58.484375 40.023438 57.921875 C 39.957031 57.898438 39.890625 57.878906 39.820312 57.851562 C 37.539062 57.035156 35.320312 55.792969 33.214844 54.519531 C 33.070312 54.433594 32.921875 54.347656 32.773438 54.261719 C 32.179688 53.914062 31.65625 53.503906 31.128906 53.042969 C 30.96875 52.902344 30.808594 52.761719 30.648438 52.621094 C 30.570312 52.554688 30.496094 52.488281 30.417969 52.421875 C 30.152344 52.195312 29.886719 51.972656 29.621094 51.753906 C 28.605469 50.902344 27.675781 49.890625 26.855469 48.808594 C 26.6875 48.589844 26.515625 48.382812 26.34375 48.171875 C 24.265625 45.585938 21.949219 42.054688 22.113281 38.382812 C 22.195312 37.8125 22.375 37.425781 22.78125 37.066406 C 23.308594 36.640625 23.910156 36.375 24.503906 36.09375 C 24.628906 36.03125 24.753906 35.972656 24.878906 35.910156 C 26 35.371094 27.132812 34.875 28.277344 34.402344 C 28.34375 34.375 28.410156 34.347656 28.476562 34.320312 C 33.457031 32.253906 38.878906 31.074219 44.152344 30.425781 C 44.457031 30.386719 44.757812 30.335938 45.0625 30.285156 C 45.585938 30.199219 46.113281 30.136719 46.644531 30.082031 C 46.71875 30.074219 46.789062 30.066406 46.867188 30.058594 C 47.121094 30.035156 47.375 30.011719 47.628906 29.992188 C 47.789062 29.976562 47.789062 29.976562 47.953125 29.964844 C 49.09375 29.878906 50.234375 29.875 51.378906 29.875 Z M 42.246094 34.113281 C 41.890625 34.195312 41.535156 34.265625 41.175781 34.332031 C 39.195312 34.714844 37.234375 35.234375 35.289062 35.796875 C 35.046875 35.863281 34.800781 35.929688 34.558594 35.996094 C 29.441406 37.324219 29.441406 37.324219 25.570312 41.003906 C 25.285156 41.609375 25.351562 42.164062 25.445312 42.816406 C 25.613281 43.242188 25.871094 43.417969 26.253906 43.589844 C 26.4375 43.660156 26.617188 43.726562 26.800781 43.792969 C 28.601562 44.46875 29.472656 45.707031 30.460938 47.433594 C 32.570312 51.03125 39.234375 54.191406 42.871094 55.039062 C 43.902344 55.25 44.910156 55.316406 45.957031 55.3125 C 46.03125 55.3125 46.101562 55.3125 46.171875 55.3125 C 48.726562 55.300781 52.097656 54.765625 54.042969 52.71875 C 54.308594 52.390625 54.519531 52.03125 54.71875 51.652344 C 54.773438 51.558594 54.828125 51.464844 54.882812 51.367188 C 55.183594 50.4375 54.898438 49.367188 54.734375 48.429688 C 54.664062 48.015625 54.59375 47.597656 54.523438 47.179688 C 54.507812 47.101562 54.496094 47.019531 54.480469 46.9375 C 54.339844 46.097656 54.222656 45.257812 54.132812 44.414062 C 54.105469 44.207031 54.082031 44 54.050781 43.792969 C 53.929688 42.828125 53.914062 41.863281 53.910156 40.886719 C 53.910156 40.695312 53.910156 40.695312 53.90625 40.503906 C 53.914062 38.582031 54.246094 36.929688 55.421875 35.480469 C 55.671875 35.214844 55.9375 34.964844 56.207031 34.71875 C 56.402344 34.515625 56.402344 34.515625 56.414062 34.25 C 56.214844 33.84375 55.890625 33.75 55.507812 33.617188 C 55.128906 33.523438 54.75 33.460938 54.363281 33.402344 C 54.265625 33.386719 54.164062 33.371094 54.0625 33.355469 C 53.785156 33.308594 53.507812 33.265625 53.230469 33.226562 C 53.121094 33.207031 53.011719 33.191406 52.898438 33.171875 C 52.503906 33.117188 52.113281 33.109375 51.71875 33.105469 C 51.640625 33.105469 51.5625 33.105469 51.484375 33.105469 C 51.234375 33.101562 50.984375 33.101562 50.734375 33.101562 C 50.648438 33.101562 50.566406 33.101562 50.476562 33.101562 C 47.695312 33.105469 44.96875 33.480469 42.246094 34.113281 Z M 42.246094 34.113281 "/>
<path style=" stroke:none;fill-rule:nonzero;fill:rgb(98.823529%,98.823529%,98.823529%);fill-opacity:1;" d="M 32.480469 9.410156 C 32.585938 9.441406 32.585938 9.441406 32.691406 9.472656 C 34.628906 10.070312 36.484375 11.117188 38.292969 12.085938 C 38.425781 12.15625 38.425781 12.15625 38.558594 12.226562 C 40.070312 13.042969 41.273438 13.8125 41.875 15.671875 C 41.90625 15.773438 41.90625 15.773438 41.9375 15.878906 C 41.964844 15.972656 41.996094 16.070312 42.023438 16.171875 C 42.046875 16.488281 42.042969 16.808594 42.046875 17.128906 C 42.050781 17.257812 42.050781 17.257812 42.050781 17.390625 C 42.058594 18.367188 41.742188 18.910156 41.148438 19.601562 C 41.109375 19.648438 41.066406 19.699219 41.023438 19.746094 C 40.402344 20.472656 39.757812 21.140625 39.046875 21.757812 C 38.96875 21.832031 38.886719 21.902344 38.804688 21.976562 C 35.875 24.539062 32.21875 25.050781 28.597656 24.621094 C 26.777344 24.367188 24.914062 23.992188 23.199219 23.226562 C 23.136719 23.199219 23.074219 23.171875 23.007812 23.140625 C 21.238281 22.339844 19.542969 21.207031 18.140625 19.75 C 17.710938 19.324219 17.21875 19.035156 16.71875 18.730469 C 16.523438 18.613281 16.328125 18.492188 16.132812 18.371094 C 16.039062 18.3125 15.945312 18.257812 15.847656 18.195312 C 15.5 17.984375 15.160156 17.761719 14.816406 17.539062 C 14.722656 17.472656 14.625 17.410156 14.523438 17.34375 C 14.253906 17.136719 14.039062 16.949219 13.832031 16.660156 C 13.824219 16.40625 13.824219 16.40625 13.921875 16.171875 C 14.652344 15.394531 15.796875 15.074219 16.75 14.78125 C 17.523438 14.539062 18.046875 14.226562 18.648438 13.625 C 18.894531 13.398438 19.144531 13.175781 19.398438 12.957031 C 19.464844 12.898438 19.53125 12.835938 19.601562 12.777344 C 20.226562 12.238281 20.878906 11.75 21.550781 11.285156 C 21.695312 11.1875 21.835938 11.082031 21.980469 10.980469 C 23.15625 10.167969 24.492188 9.605469 25.828125 9.210938 C 25.929688 9.179688 26.035156 9.148438 26.140625 9.117188 C 28.191406 8.609375 30.472656 8.800781 32.480469 9.410156 Z M 32.480469 9.410156 "/>
<path style=" stroke:none;fill-rule:nonzero;fill:rgb(98.823529%,98.823529%,98.823529%);fill-opacity:1;" d="M 50.902344 8.011719 C 51.210938 8.011719 51.519531 8.007812 51.828125 8.007812 C 53.910156 7.996094 55.558594 8.207031 57.351562 9.457031 C 57.4375 9.519531 57.523438 9.578125 57.613281 9.640625 C 58.914062 10.546875 60.152344 11.488281 61.285156 12.644531 C 61.347656 12.703125 61.410156 12.765625 61.476562 12.828125 C 61.988281 13.351562 62.542969 14.199219 62.617188 14.992188 C 62.683594 16.597656 62.464844 17.785156 61.460938 19.015625 C 61.402344 19.089844 61.34375 19.164062 61.28125 19.238281 C 60.421875 20.261719 59.347656 20.890625 58.15625 21.273438 C 58.085938 21.296875 58.011719 21.320312 57.9375 21.347656 C 57.710938 21.421875 57.484375 21.492188 57.257812 21.5625 C 57.179688 21.585938 57.097656 21.613281 57.015625 21.640625 C 56.3125 21.851562 55.617188 21.949219 54.894531 22.019531 C 54.804688 22.03125 54.804688 22.03125 54.710938 22.039062 C 50.953125 22.402344 46.640625 21.777344 43.617188 18.980469 C 42.832031 18.203125 42.832031 18.203125 42.792969 17.832031 C 42.792969 17.757812 42.792969 17.679688 42.792969 17.601562 C 42.789062 17.519531 42.789062 17.433594 42.789062 17.347656 C 42.789062 17.253906 42.785156 17.164062 42.785156 17.070312 C 42.75 15.851562 42.523438 14.933594 41.867188 13.941406 C 41.570312 13.484375 41.390625 13.179688 41.445312 12.609375 C 41.734375 11.226562 42.269531 10.15625 43.34375 9.375 C 45.582031 7.902344 48.394531 8.019531 50.902344 8.011719 Z M 50.902344 8.011719 "/>
<path style=" stroke:none;fill-rule:nonzero;fill:rgb(4.313726%,4.313726%,4.313726%);fill-opacity:1;" d="M 56.734375 6.46875 C 58.527344 7.378906 59.59375 8.785156 60.671875 10.585938 C 60.957031 11.054688 61.246094 11.425781 61.625 11.796875 C 62.398438 12.558594 63.296875 13.6875 63.402344 14.890625 C 63.46875 16.859375 63.085938 18.367188 61.863281 19.84375 C 61.460938 20.285156 61.027344 20.679688 60.585938 21.070312 C 60.636719 21.363281 60.683594 21.480469 60.855469 21.726562 C 61.042969 22.089844 61.066406 22.304688 61.078125 22.714844 C 60.964844 23.164062 60.640625 23.386719 60.296875 23.621094 C 60.1875 23.683594 60.078125 23.742188 59.96875 23.804688 C 59.90625 23.835938 59.847656 23.871094 59.789062 23.902344 C 59.03125 24.308594 58.230469 24.601562 57.433594 24.894531 C 57.484375 25.1875 57.484375 25.1875 57.644531 25.417969 C 58.199219 25.816406 58.777344 26.15625 59.367188 26.484375 C 60.023438 26.855469 60.542969 27.253906 60.890625 28 C 60.9375 28.089844 60.980469 28.183594 61.027344 28.277344 C 61.109375 28.519531 61.109375 28.519531 61.023438 28.816406 C 60.808594 28.925781 60.808594 28.925781 60.585938 29.011719 C 60.527344 29.042969 60.46875 29.074219 60.410156 29.109375 C 60.390625 29.050781 60.371094 28.992188 60.347656 28.933594 C 59.980469 27.929688 59.335938 27.429688 58.488281 26.949219 C 58.425781 26.914062 58.363281 26.878906 58.300781 26.839844 C 58.175781 26.769531 58.050781 26.703125 57.929688 26.636719 C 57.617188 26.460938 57.386719 26.316406 57.152344 26.019531 C 56.726562 25.5 56.402344 25.269531 55.757812 25.214844 C 55.101562 25.195312 54.441406 25.222656 53.785156 25.253906 C 50.996094 25.367188 50.996094 25.367188 49.730469 24.796875 C 49.644531 24.761719 49.558594 24.726562 49.46875 24.691406 C 49.257812 24.605469 49.054688 24.515625 48.847656 24.421875 C 48.78125 24.390625 48.710938 24.363281 48.640625 24.332031 C 48.476562 24.257812 48.316406 24.183594 48.152344 24.109375 C 48.152344 24.078125 48.152344 24.046875 48.152344 24.011719 C 48.519531 23.992188 48.824219 24.046875 49.179688 24.152344 C 50.027344 24.390625 50.878906 24.445312 51.753906 24.46875 C 51.8125 24.46875 51.875 24.472656 51.9375 24.472656 C 52.40625 24.484375 52.871094 24.492188 53.335938 24.496094 C 53.4375 24.496094 53.4375 24.496094 53.542969 24.5 C 55.683594 24.519531 57.46875 24.359375 59.359375 23.128906 C 59.527344 23.03125 59.699219 22.9375 59.867188 22.84375 C 59.9375 22.804688 60.011719 22.765625 60.082031 22.722656 C 60.132812 22.695312 60.183594 22.667969 60.234375 22.640625 C 60.160156 22.253906 60.070312 22.027344 59.796875 21.757812 C 59.238281 21.738281 58.769531 21.941406 58.246094 22.148438 C 57.78125 22.324219 57.316406 22.453125 56.835938 22.558594 C 56.738281 22.582031 56.738281 22.582031 56.640625 22.605469 C 55.292969 22.898438 53.929688 22.988281 52.5625 22.996094 C 52.441406 22.996094 52.441406 22.996094 52.316406 22.996094 C 50.71875 23 49.320312 22.695312 47.804688 22.148438 C 47.625 22.089844 47.449219 22.03125 47.273438 21.972656 C 45.703125 21.433594 44.207031 20.695312 42.980469 19.441406 C 42.757812 19.191406 42.757812 19.191406 42.554688 19.203125 C 42.273438 19.367188 42.191406 19.648438 42.070312 19.957031 C 42.007812 20.101562 41.945312 20.242188 41.886719 20.386719 C 41.851562 20.464844 41.820312 20.542969 41.785156 20.621094 C 41.234375 21.890625 40.675781 23.171875 39.921875 24.304688 C 39.871094 24.386719 39.816406 24.46875 39.761719 24.550781 C 38.332031 26.640625 36.488281 27.914062 34.144531 28.324219 C 33.859375 28.347656 33.578125 28.351562 33.292969 28.347656 C 33.214844 28.347656 33.136719 28.347656 33.054688 28.347656 C 32.890625 28.347656 32.730469 28.347656 32.566406 28.34375 C 32.320312 28.34375 32.070312 28.34375 31.824219 28.34375 C 30.652344 28.339844 29.519531 28.269531 28.367188 28.03125 C 28.304688 28.019531 28.238281 28.003906 28.175781 27.992188 C 25.152344 27.394531 21.773438 26.664062 19.261719 24.601562 C 19.179688 24.535156 19.101562 24.46875 19.019531 24.402344 C 18.4375 23.902344 17.929688 23.324219 17.421875 22.738281 C 17.738281 22.738281 17.769531 22.792969 17.996094 23.019531 C 21.902344 26.515625 28.996094 28.039062 33.898438 27.511719 C 35.316406 27.304688 36.527344 26.796875 37.648438 25.777344 C 37.714844 25.71875 37.78125 25.660156 37.847656 25.601562 C 38.828125 24.691406 39.78125 23.3125 40.1875 21.953125 C 39.773438 22.253906 39.375 22.5625 38.980469 22.890625 C 37.941406 23.746094 36.863281 24.363281 35.644531 24.832031 C 35.5625 24.863281 35.484375 24.894531 35.402344 24.929688 C 33.9375 25.460938 32.453125 25.53125 30.925781 25.519531 C 30.792969 25.519531 30.792969 25.519531 30.660156 25.519531 C 29.382812 25.511719 28.132812 25.464844 26.878906 25.1875 C 26.800781 25.171875 26.722656 25.15625 26.640625 25.140625 C 24.714844 24.75 22.808594 24.105469 21.101562 23.03125 C 21 22.972656 20.898438 22.914062 20.796875 22.851562 C 19.808594 22.246094 18.894531 21.515625 18.003906 20.742188 C 17.109375 19.972656 16.179688 19.332031 15.183594 18.742188 C 13.371094 17.660156 13.371094 17.660156 13.132812 16.859375 C 13.113281 16.652344 13.113281 16.652344 13.109375 16.429688 C 13.105469 16.320312 13.105469 16.320312 13.105469 16.207031 C 13.152344 15.820312 13.300781 15.570312 13.570312 15.328125 C 14.398438 14.792969 15.246094 14.367188 16.175781 14.105469 C 16.980469 13.878906 17.585938 13.5625 18.195312 12.929688 C 18.539062 12.585938 18.910156 12.289062 19.28125 11.984375 C 19.386719 11.898438 19.492188 11.8125 19.597656 11.722656 C 21.960938 9.75 24.796875 8.144531 27.800781 8.113281 C 27.871094 8.109375 27.941406 8.109375 28.011719 8.109375 C 29.503906 8.09375 30.941406 8.089844 32.394531 8.527344 C 32.480469 8.550781 32.480469 8.550781 32.566406 8.574219 C 33.621094 8.878906 34.628906 9.375 35.640625 9.828125 C 36.390625 10.160156 37.148438 10.472656 37.910156 10.78125 C 37.851562 9.882812 37.621094 9.121094 37.011719 8.488281 C 36.121094 7.730469 34.992188 7.335938 33.882812 7.253906 C 34.132812 6.675781 34.132812 6.675781 34.234375 6.566406 C 35.339844 6.457031 36.625 7.058594 37.460938 7.835938 C 37.792969 8.195312 38.089844 8.589844 38.347656 9.015625 C 38.347656 9.082031 38.347656 9.144531 38.347656 9.210938 C 38.464844 9.246094 38.578125 9.277344 38.699219 9.3125 C 38.699219 9.375 38.699219 9.441406 38.699219 9.507812 C 38.753906 9.507812 38.8125 9.507812 38.871094 9.507812 C 38.902344 9.605469 38.929688 9.699219 38.960938 9.800781 C 38.902344 9.867188 38.84375 9.929688 38.785156 9.996094 C 38.75 10.492188 38.796875 10.90625 38.960938 11.367188 C 39.402344 11.910156 40.164062 12.230469 40.800781 12.347656 C 40.808594 12.234375 40.816406 12.121094 40.824219 12.003906 C 40.941406 10.957031 41.53125 9.929688 42.214844 9.230469 C 44.5625 7.203125 47.605469 7.203125 50.433594 7.222656 C 50.699219 7.222656 50.964844 7.222656 51.230469 7.222656 C 54.804688 7.214844 54.804688 7.214844 55.984375 7.839844 C 56.058594 7.878906 56.136719 7.917969 56.214844 7.957031 C 56.816406 8.265625 57.398438 8.617188 57.972656 8.988281 C 58.3125 9.210938 58.628906 9.382812 59.007812 9.507812 C 58.277344 8.371094 57.386719 7.785156 56.296875 7.15625 C 56.324219 7.058594 56.351562 6.960938 56.382812 6.859375 C 56.5625 6.792969 56.5625 6.792969 56.734375 6.761719 C 56.734375 6.664062 56.734375 6.570312 56.734375 6.46875 Z M 46.324219 8.261719 C 46.257812 8.277344 46.1875 8.289062 46.117188 8.300781 C 44.605469 8.601562 43.148438 9.214844 42.148438 10.578125 C 41.714844 11.289062 41.417969 12.222656 41.449219 13.089844 C 41.53125 13.484375 41.730469 13.765625 41.953125 14.082031 C 42.636719 15.054688 42.773438 16.09375 42.753906 17.300781 C 42.757812 17.863281 42.832031 18.167969 43.191406 18.570312 C 45.140625 20.53125 47.574219 21.296875 50.078125 21.953125 C 50.152344 21.972656 50.226562 21.996094 50.304688 22.015625 C 53.269531 22.765625 57.632812 22.058594 60.195312 20.261719 C 60.589844 19.949219 60.941406 19.589844 61.285156 19.210938 C 61.371094 19.121094 61.371094 19.121094 61.457031 19.027344 C 62.355469 17.980469 62.660156 16.714844 62.632812 15.300781 C 62.566406 13.835938 61.507812 12.84375 60.59375 11.921875 C 60.148438 11.488281 59.65625 11.132812 59.164062 10.773438 C 59.058594 10.699219 58.953125 10.621094 58.847656 10.542969 C 56.375 8.726562 54.519531 8 51.554688 8.015625 C 51.242188 8.019531 50.929688 8.019531 50.617188 8.019531 C 48.464844 8.007812 48.464844 8.007812 46.324219 8.261719 Z M 25.828125 9.210938 C 25.75 9.238281 25.667969 9.265625 25.585938 9.292969 C 24.445312 9.671875 23.363281 10.125 22.324219 10.78125 C 22.269531 10.816406 22.214844 10.851562 22.160156 10.886719 C 21.09375 11.5625 20.109375 12.351562 19.144531 13.199219 C 19.09375 13.246094 19.042969 13.292969 18.988281 13.339844 C 18.773438 13.527344 18.5625 13.71875 18.359375 13.925781 C 17.824219 14.445312 17.230469 14.625 16.5625 14.835938 C 15.140625 15.28125 15.140625 15.28125 13.921875 16.171875 C 13.847656 16.425781 13.847656 16.425781 13.832031 16.660156 C 14.496094 17.421875 15.335938 17.867188 16.160156 18.367188 C 16.992188 18.875 17.789062 19.367188 18.496094 20.078125 C 20.386719 21.96875 22.753906 23.265625 25.214844 23.914062 C 25.292969 23.933594 25.371094 23.957031 25.453125 23.976562 C 29.558594 25.035156 34.117188 25.316406 37.839844 22.753906 C 38.261719 22.449219 38.65625 22.113281 39.046875 21.757812 C 39.09375 21.714844 39.140625 21.671875 39.1875 21.628906 C 39.835938 21.039062 40.441406 20.410156 41.035156 19.753906 C 41.09375 19.6875 41.152344 19.621094 41.214844 19.554688 C 41.960938 18.714844 42.050781 18.078125 42.050781 16.925781 C 42.035156 15.738281 41.652344 14.832031 40.941406 13.953125 C 40.867188 13.878906 40.789062 13.800781 40.710938 13.722656 C 40.667969 13.671875 40.621094 13.621094 40.574219 13.570312 C 40.066406 13.035156 39.503906 12.710938 38.878906 12.375 C 38.769531 12.3125 38.660156 12.253906 38.554688 12.195312 C 37.160156 11.433594 35.746094 10.714844 34.285156 10.125 C 34.035156 10.023438 33.792969 9.914062 33.550781 9.800781 C 33.101562 9.597656 32.652344 9.464844 32.179688 9.347656 C 32.105469 9.328125 32.027344 9.308594 31.953125 9.289062 C 31.71875 9.226562 31.488281 9.171875 31.253906 9.113281 C 31.144531 9.085938 31.144531 9.085938 31.035156 9.058594 C 30.304688 8.886719 29.578125 8.882812 28.835938 8.886719 C 28.738281 8.886719 28.738281 8.886719 28.636719 8.890625 C 27.679688 8.894531 26.753906 8.910156 25.828125 9.210938 Z M 25.828125 9.210938 "/>
<path style=" stroke:none;fill-rule:nonzero;fill:rgb(0.784314%,1.568628%,1.568628%);fill-opacity:1;" d="M 36.507812 11.566406 C 36.585938 11.59375 36.660156 11.621094 36.742188 11.648438 C 37.300781 11.871094 37.726562 12.203125 38.171875 12.644531 C 38.253906 12.722656 38.253906 12.722656 38.335938 12.800781 C 39.234375 13.734375 39.773438 15.019531 39.855469 16.382812 C 39.875 18.179688 39.445312 19.625 38.316406 20.929688 C 37.535156 21.734375 36.445312 22.378906 35.371094 22.445312 C 35.292969 22.449219 35.21875 22.453125 35.140625 22.460938 C 33.738281 22.511719 32.527344 21.996094 31.484375 20.949219 C 30.550781 19.964844 30 18.691406 29.921875 17.253906 C 29.886719 15.640625 30.230469 14.144531 31.242188 12.933594 C 32.722656 11.421875 34.582031 10.859375 36.507812 11.566406 Z M 36.507812 11.566406 "/>
<path style=" stroke:none;fill-rule:nonzero;fill:rgb(1.176471%,1.960784%,1.960784%);fill-opacity:1;" d="M 58.746094 11.367188 C 59.585938 12.132812 60.171875 13.121094 60.410156 14.308594 C 60.4375 14.609375 60.441406 14.90625 60.4375 15.210938 C 60.4375 15.332031 60.4375 15.332031 60.4375 15.457031 C 60.410156 17.023438 59.921875 18.21875 58.921875 19.308594 C 57.832031 20.421875 56.714844 20.671875 55.289062 20.601562 C 54.195312 20.5 53.214844 19.773438 52.511719 18.859375 C 52.359375 18.621094 52.222656 18.382812 52.09375 18.132812 C 52.058594 18.070312 52.023438 18.003906 51.988281 17.941406 C 51.4375 16.84375 51.34375 15.507812 51.585938 14.296875 C 51.847656 13.253906 52.285156 12.527344 52.96875 11.761719 C 53.019531 11.703125 53.066406 11.648438 53.117188 11.589844 C 54.671875 9.957031 57.058594 10.03125 58.746094 11.367188 Z M 58.746094 11.367188 "/>
<path style=" stroke:none;fill-rule:nonzero;fill:rgb(4.313726%,4.313726%,4.313726%);fill-opacity:1;" d="M 50.109375 32.398438 C 50.355469 32.398438 50.601562 32.398438 50.847656 32.394531 C 55.699219 32.351562 55.699219 32.351562 57.082031 33.714844 C 57.230469 34.042969 57.25 34.34375 57.171875 34.695312 C 56.957031 35.015625 56.691406 35.265625 56.425781 35.527344 C 55.304688 36.707031 54.652344 38.066406 54.597656 39.824219 C 54.597656 40.039062 54.597656 40.257812 54.597656 40.476562 C 54.601562 40.597656 54.601562 40.714844 54.601562 40.835938 C 54.640625 43.441406 55.023438 46.050781 55.464844 48.605469 C 55.484375 48.730469 55.507812 48.855469 55.527344 48.980469 C 55.566406 49.214844 55.609375 49.445312 55.652344 49.679688 C 55.835938 50.734375 55.667969 51.527344 55.15625 52.433594 C 53.8125 54.433594 51.59375 55.21875 49.492188 55.742188 C 49.410156 55.761719 49.328125 55.785156 49.246094 55.804688 C 48.164062 56.0625 47.085938 56.082031 45.988281 56.085938 C 45.761719 56.085938 45.539062 56.089844 45.316406 56.09375 C 44.414062 56.097656 43.601562 56.007812 42.726562 55.765625 C 42.601562 55.738281 42.476562 55.707031 42.351562 55.675781 C 39.457031 54.894531 36.839844 53.335938 34.304688 51.621094 C 34.050781 51.449219 33.796875 51.28125 33.539062 51.109375 C 30.535156 49.097656 30.535156 49.097656 29.941406 48.023438 C 29.816406 47.800781 29.6875 47.574219 29.558594 47.351562 C 29.527344 47.292969 29.492188 47.234375 29.457031 47.171875 C 28.582031 45.640625 27.609375 44.835938 26.0625 44.300781 C 25.503906 44.097656 25.152344 43.855469 24.832031 43.289062 C 24.550781 42.585938 24.566406 41.679688 24.78125 40.957031 C 26.078125 38.113281 29.175781 36.984375 31.695312 36.066406 C 32.332031 35.847656 32.976562 35.648438 33.625 35.457031 C 33.871094 35.382812 34.121094 35.308594 34.367188 35.234375 C 35.683594 34.832031 37.015625 34.507812 38.347656 34.191406 C 38.679688 34.113281 39.011719 34.03125 39.339844 33.949219 C 42.992188 33.0625 42.992188 33.0625 44.835938 32.808594 C 45.171875 32.761719 45.507812 32.710938 45.84375 32.660156 C 47.265625 32.445312 48.675781 32.390625 50.109375 32.398438 Z M 42.246094 34.113281 C 41.890625 34.195312 41.535156 34.265625 41.175781 34.332031 C 39.195312 34.714844 37.234375 35.234375 35.289062 35.796875 C 35.046875 35.863281 34.800781 35.929688 34.558594 35.996094 C 29.441406 37.324219 29.441406 37.324219 25.570312 41.003906 C 25.285156 41.609375 25.351562 42.164062 25.445312 42.816406 C 25.613281 43.242188 25.871094 43.417969 26.253906 43.589844 C 26.4375 43.660156 26.617188 43.726562 26.800781 43.792969 C 28.601562 44.46875 29.472656 45.707031 30.460938 47.433594 C 32.570312 51.03125 39.234375 54.191406 42.871094 55.039062 C 43.902344 55.25 44.910156 55.316406 45.957031 55.3125 C 46.03125 55.3125 46.101562 55.3125 46.171875 55.3125 C 48.726562 55.300781 52.097656 54.765625 54.042969 52.71875 C 54.308594 52.390625 54.519531 52.03125 54.71875 51.652344 C 54.773438 51.558594 54.828125 51.464844 54.882812 51.367188 C 55.183594 50.4375 54.898438 49.367188 54.734375 48.429688 C 54.664062 48.015625 54.59375 47.597656 54.523438 47.179688 C 54.507812 47.101562 54.496094 47.019531 54.480469 46.9375 C 54.339844 46.097656 54.222656 45.257812 54.132812 44.414062 C 54.105469 44.207031 54.082031 44 54.050781 43.792969 C 53.929688 42.828125 53.914062 41.863281 53.910156 40.886719 C 53.910156 40.695312 53.910156 40.695312 53.90625 40.503906 C 53.914062 38.582031 54.246094 36.929688 55.421875 35.480469 C 55.671875 35.214844 55.9375 34.964844 56.207031 34.71875 C 56.402344 34.515625 56.402344 34.515625 56.414062 34.25 C 56.214844 33.84375 55.890625 33.75 55.507812 33.617188 C 55.128906 33.523438 54.75 33.460938 54.363281 33.402344 C 54.265625 33.386719 54.164062 33.371094 54.0625 33.355469 C 53.785156 33.308594 53.507812 33.265625 53.230469 33.226562 C 53.121094 33.207031 53.011719 33.191406 52.898438 33.171875 C 52.503906 33.117188 52.113281 33.109375 51.71875 33.105469 C 51.640625 33.105469 51.5625 33.105469 51.484375 33.105469 C 51.234375 33.101562 50.984375 33.101562 50.734375 33.101562 C 50.648438 33.101562 50.566406 33.101562 50.476562 33.101562 C 47.695312 33.105469 44.96875 33.480469 42.246094 34.113281 Z M 42.246094 34.113281 "/>
<path style=" stroke:none;fill-rule:nonzero;fill:rgb(98.431373%,98.431373%,98.431373%);fill-opacity:1;" d="M 39.476562 1.820312 C 39.574219 1.816406 39.671875 1.816406 39.773438 1.8125 C 40.917969 1.816406 41.960938 2.242188 42.910156 2.945312 C 43.074219 3.136719 43.074219 3.136719 43.074219 3.527344 C 43.007812 3.554688 42.945312 3.578125 42.875 3.605469 C 42.574219 3.71875 42.277344 3.835938 41.976562 3.949219 C 41.820312 4.011719 41.820312 4.011719 41.660156 4.070312 C 41.160156 4.265625 40.667969 4.460938 40.1875 4.703125 C 41.328125 4.75 42.402344 4.488281 43.511719 4.214844 C 43.804688 4.144531 44.097656 4.078125 44.386719 4.019531 C 44.46875 4 44.546875 3.984375 44.628906 3.96875 C 45.347656 3.828125 46.046875 3.792969 46.769531 3.796875 C 46.957031 3.796875 47.140625 3.796875 47.328125 3.796875 C 48.074219 3.792969 48.738281 3.824219 49.417969 4.214844 C 49.476562 4.246094 49.53125 4.277344 49.59375 4.3125 C 49.730469 4.410156 49.730469 4.410156 49.816406 4.605469 C 49.367188 4.769531 48.925781 4.855469 48.457031 4.929688 C 45.832031 5.347656 43.445312 6.585938 41.0625 7.839844 C 40.902344 7.925781 40.742188 8.007812 40.582031 8.089844 C 40.433594 8.167969 40.285156 8.246094 40.136719 8.324219 C 40.039062 8.375 40.039062 8.375 39.9375 8.429688 C 39.640625 8.585938 39.355469 8.75 39.074219 8.945312 C 38.648438 9.195312 38.648438 9.195312 38.347656 9.113281 C 38.164062 8.902344 38.164062 8.902344 37.980469 8.617188 C 37.136719 7.414062 35.964844 6.871094 34.636719 6.640625 C 34.046875 6.515625 33.78125 6.230469 33.386719 5.738281 C 32.820312 5.046875 32.078125 4.660156 31.328125 4.269531 C 31.082031 4.117188 31.082031 4.117188 30.992188 3.824219 C 33.738281 2.566406 36.503906 1.859375 39.476562 1.820312 Z M 39.476562 1.820312 "/>
<path style=" stroke:none;fill-rule:nonzero;fill:rgb(97.647059%,97.254902%,97.254902%);fill-opacity:1;" d="M 56.910156 7.449219 C 56.996094 7.5 57.085938 7.550781 57.179688 7.601562 C 57.898438 8.011719 58.554688 8.554688 59.007812 9.3125 C 59.007812 9.375 59.007812 9.441406 59.007812 9.507812 C 58.457031 9.46875 58.046875 9.15625 57.582031 8.859375 C 56.992188 8.492188 56.40625 8.128906 55.785156 7.828125 C 55.683594 7.777344 55.578125 7.726562 55.472656 7.675781 C 54.074219 7.167969 52.484375 7.316406 51.03125 7.320312 C 50.765625 7.320312 50.5 7.320312 50.234375 7.316406 C 47.414062 7.300781 44.25 7.332031 42.007812 9.550781 C 41.371094 10.300781 40.996094 11.351562 40.800781 12.347656 C 40.0625 12.316406 39.433594 11.988281 38.90625 11.410156 C 38.773438 11.152344 38.722656 10.976562 38.699219 10.683594 C 38.683594 10.570312 38.667969 10.457031 38.652344 10.339844 C 38.699219 9.996094 38.699219 9.996094 38.949219 9.761719 C 39.355469 9.457031 39.796875 9.230469 40.242188 9 C 40.421875 8.902344 40.601562 8.808594 40.785156 8.710938 C 40.875 8.664062 40.964844 8.617188 41.058594 8.570312 C 41.304688 8.441406 41.546875 8.308594 41.789062 8.175781 C 42.953125 7.539062 44.140625 6.984375 45.351562 6.46875 C 45.414062 6.441406 45.476562 6.414062 45.542969 6.386719 C 45.914062 6.230469 46.285156 6.097656 46.664062 5.980469 C 46.734375 5.957031 46.800781 5.933594 46.871094 5.910156 C 50.25 4.839844 53.863281 5.582031 56.910156 7.449219 Z M 56.910156 7.449219 "/>
<path style=" stroke:none;fill-rule:nonzero;fill:rgb(29.411766%,86.274511%,81.568629%);fill-opacity:1;" d="M 53.667969 13.425781 C 54.046875 13.5625 54.421875 13.703125 54.785156 13.875 C 54.84375 13.902344 54.902344 13.929688 54.960938 13.957031 C 55.074219 14.011719 55.191406 14.066406 55.304688 14.125 C 55.734375 14.324219 55.976562 14.308594 56.40625 14.128906 C 56.503906 14.078125 56.503906 14.078125 56.601562 14.03125 C 56.675781 13.996094 56.746094 13.960938 56.820312 13.925781 C 56.972656 13.851562 57.121094 13.777344 57.269531 13.703125 C 57.34375 13.667969 57.414062 13.632812 57.488281 13.59375 C 57.554688 13.5625 57.617188 13.53125 57.6875 13.496094 C 57.871094 13.425781 57.871094 13.425781 58.222656 13.425781 C 58.445312 13.75 58.484375 13.890625 58.484375 14.308594 C 58.152344 14.507812 57.820312 14.703125 57.488281 14.898438 C 57.394531 14.953125 57.300781 15.007812 57.203125 15.066406 C 57.113281 15.121094 57.019531 15.171875 56.929688 15.226562 C 56.84375 15.277344 56.761719 15.328125 56.675781 15.378906 C 56.46875 15.484375 56.46875 15.484375 56.296875 15.484375 C 56.503906 15.746094 56.730469 15.898438 57.003906 16.066406 C 57.089844 16.117188 57.175781 16.167969 57.265625 16.222656 C 57.355469 16.277344 57.445312 16.332031 57.539062 16.386719 C 57.628906 16.441406 57.71875 16.496094 57.8125 16.550781 C 58.035156 16.6875 58.261719 16.820312 58.484375 16.957031 C 58.417969 17.296875 58.300781 17.542969 58.132812 17.835938 C 57.554688 17.660156 57.011719 17.433594 56.46875 17.152344 C 55.808594 16.90625 55.339844 17.140625 54.742188 17.445312 C 54.59375 17.519531 54.445312 17.59375 54.300781 17.667969 C 54.234375 17.699219 54.171875 17.730469 54.105469 17.765625 C 53.929688 17.835938 53.929688 17.835938 53.667969 17.835938 C 53.40625 17.285156 53.40625 17.285156 53.40625 16.957031 C 53.46875 16.917969 53.53125 16.878906 53.597656 16.839844 C 53.882812 16.671875 54.167969 16.5 54.453125 16.332031 C 54.550781 16.273438 54.652344 16.210938 54.753906 16.152344 C 54.847656 16.09375 54.941406 16.039062 55.039062 15.980469 C 55.125 15.925781 55.214844 15.875 55.304688 15.820312 C 55.519531 15.703125 55.519531 15.703125 55.59375 15.484375 C 55.53125 15.472656 55.46875 15.464844 55.402344 15.453125 C 55.144531 15.382812 54.960938 15.285156 54.730469 15.140625 C 54.652344 15.09375 54.578125 15.046875 54.496094 14.996094 C 54.417969 14.945312 54.335938 14.894531 54.253906 14.84375 C 54.132812 14.765625 54.132812 14.765625 54.007812 14.6875 C 53.808594 14.5625 53.605469 14.4375 53.40625 14.308594 C 53.460938 13.980469 53.523438 13.71875 53.667969 13.425781 Z M 53.667969 13.425781 "/>
<path style=" stroke:none;fill-rule:nonzero;fill:rgb(30.588236%,87.058824%,82.745099%);fill-opacity:1;" d="M 32.394531 14.800781 C 32.96875 14.859375 33.429688 15.082031 33.949219 15.351562 C 34.488281 15.617188 34.78125 15.585938 35.335938 15.351562 C 35.503906 15.273438 35.671875 15.191406 35.839844 15.109375 C 36.214844 14.933594 36.542969 14.847656 36.945312 14.800781 C 37.210938 15.226562 37.210938 15.226562 37.199219 15.484375 C 37.089844 15.765625 36.941406 15.832031 36.699219 15.976562 C 36.613281 16.027344 36.527344 16.082031 36.4375 16.132812 C 36.347656 16.1875 36.257812 16.238281 36.164062 16.292969 C 36.074219 16.347656 35.984375 16.402344 35.890625 16.457031 C 35.222656 16.859375 35.222656 16.859375 35.019531 16.859375 C 35.019531 16.921875 35.019531 16.988281 35.019531 17.054688 C 35.082031 17.082031 35.148438 17.109375 35.210938 17.136719 C 35.449219 17.246094 35.675781 17.371094 35.902344 17.503906 C 35.984375 17.550781 36.066406 17.601562 36.148438 17.648438 C 36.234375 17.699219 36.316406 17.75 36.40625 17.800781 C 36.492188 17.851562 36.578125 17.902344 36.664062 17.953125 C 36.875 18.078125 37.085938 18.203125 37.296875 18.328125 C 37.230469 18.667969 37.113281 18.914062 36.945312 19.210938 C 36.570312 19.078125 36.199219 18.9375 35.835938 18.761719 C 35.777344 18.734375 35.722656 18.707031 35.664062 18.679688 C 35.550781 18.625 35.4375 18.570312 35.328125 18.511719 C 34.859375 18.289062 34.523438 18.304688 34.050781 18.5 C 33.789062 18.621094 33.53125 18.75 33.273438 18.882812 C 33.179688 18.925781 33.179688 18.925781 33.082031 18.976562 C 33.027344 19.003906 32.96875 19.03125 32.910156 19.0625 C 32.703125 19.125 32.59375 19.101562 32.394531 19.015625 C 32.234375 18.78125 32.234375 18.78125 32.132812 18.523438 C 32.242188 18.144531 32.351562 18.125 32.660156 17.945312 C 32.75 17.890625 32.839844 17.839844 32.933594 17.785156 C 33.027344 17.730469 33.121094 17.679688 33.21875 17.625 C 33.3125 17.570312 33.410156 17.515625 33.503906 17.457031 C 34.207031 17.054688 34.207031 17.054688 34.40625 17.054688 C 34.40625 16.988281 34.40625 16.925781 34.40625 16.859375 C 34.339844 16.835938 34.269531 16.8125 34.199219 16.789062 C 33.789062 16.625 33.410156 16.40625 33.023438 16.175781 C 32.945312 16.132812 32.871094 16.089844 32.792969 16.046875 C 32.683594 15.984375 32.683594 15.984375 32.574219 15.917969 C 32.507812 15.878906 32.441406 15.839844 32.375 15.800781 C 32.21875 15.679688 32.21875 15.679688 32.132812 15.386719 C 32.257812 15.074219 32.257812 15.074219 32.394531 14.800781 Z M 32.394531 14.800781 "/>
<path style=" stroke:none;fill-rule:nonzero;fill:rgb(30.980393%,85.09804%,81.568629%);fill-opacity:1;" d="M 56.5 15.851562 C 56.765625 15.882812 56.925781 15.964844 57.160156 16.113281 C 57.238281 16.160156 57.3125 16.210938 57.394531 16.261719 C 57.472656 16.3125 57.554688 16.363281 57.636719 16.417969 C 57.71875 16.46875 57.800781 16.519531 57.882812 16.574219 C 58.085938 16.699219 58.285156 16.828125 58.484375 16.957031 C 58.417969 17.296875 58.300781 17.542969 58.132812 17.835938 C 57.554688 17.660156 57.011719 17.433594 56.46875 17.152344 C 55.808594 16.90625 55.339844 17.140625 54.742188 17.445312 C 54.59375 17.519531 54.445312 17.59375 54.300781 17.667969 C 54.234375 17.699219 54.171875 17.730469 54.105469 17.765625 C 53.929688 17.835938 53.929688 17.835938 53.667969 17.835938 C 53.640625 17.707031 53.609375 17.578125 53.582031 17.445312 C 54.058594 17.398438 54.058594 17.398438 54.542969 17.347656 C 54.542969 17.28125 54.542969 17.21875 54.542969 17.152344 C 54.863281 17.054688 55.179688 16.957031 55.507812 16.859375 C 55.480469 16.726562 55.449219 16.597656 55.421875 16.464844 C 55.46875 16.441406 55.515625 16.414062 55.566406 16.386719 C 55.628906 16.351562 55.695312 16.316406 55.757812 16.28125 C 55.820312 16.246094 55.886719 16.214844 55.949219 16.179688 C 56.476562 15.851562 56.476562 15.851562 56.5 15.851562 Z M 56.5 15.851562 "/>
<path style=" stroke:none;fill-rule:nonzero;fill:rgb(30.980393%,83.137256%,79.607844%);fill-opacity:1;" d="M 32.394531 14.800781 C 32.96875 14.859375 33.429688 15.082031 33.949219 15.351562 C 34.347656 15.546875 34.589844 15.621094 35.019531 15.484375 C 35.089844 15.46875 35.15625 15.449219 35.226562 15.433594 C 35.3125 15.40625 35.3125 15.40625 35.402344 15.382812 C 35.507812 15.351562 35.613281 15.320312 35.722656 15.289062 C 35.566406 15.632812 35.25 15.757812 34.933594 15.878906 C 34.621094 15.886719 34.339844 15.839844 34.058594 15.679688 C 33.882812 15.675781 33.707031 15.675781 33.53125 15.679688 C 33.589844 15.746094 33.648438 15.8125 33.707031 15.878906 C 33.621094 16.023438 33.621094 16.023438 33.53125 16.171875 C 33.589844 16.203125 33.648438 16.234375 33.707031 16.269531 C 33.707031 16.335938 33.707031 16.398438 33.707031 16.464844 C 33.308594 16.332031 32.980469 16.152344 32.625 15.914062 C 32.53125 15.851562 32.4375 15.789062 32.34375 15.726562 C 32.238281 15.65625 32.238281 15.65625 32.132812 15.582031 C 32.296875 15.019531 32.296875 15.019531 32.394531 14.800781 Z M 32.394531 14.800781 "/>
<path style=" stroke:none;fill-rule:nonzero;fill:rgb(30.19608%,87.058824%,83.529413%);fill-opacity:1;" d="M 36.160156 17.9375 C 36.28125 17.964844 36.40625 17.992188 36.53125 18.019531 C 36.601562 18.039062 36.667969 18.054688 36.738281 18.070312 C 36.945312 18.132812 37.113281 18.214844 37.296875 18.328125 C 37.242188 18.667969 37.113281 18.917969 36.945312 19.210938 C 36.597656 19.078125 36.246094 18.949219 35.894531 18.816406 C 36.058594 18.15625 36.058594 18.15625 36.160156 17.9375 Z M 36.160156 17.9375 "/>
<path style=" stroke:none;fill-rule:nonzero;fill:rgb(6.666667%,6.666667%,6.666667%);fill-opacity:1;" d="M 17.421875 22.640625 C 17.6875 22.777344 17.910156 22.941406 18.144531 23.136719 C 18.605469 23.503906 19.085938 23.808594 19.582031 24.109375 C 20.03125 24.386719 20.03125 24.386719 20.222656 24.601562 C 19.96875 24.722656 19.804688 24.796875 19.523438 24.796875 C 18.730469 24.246094 18.050781 23.507812 17.421875 22.738281 C 17.421875 22.707031 17.421875 22.671875 17.421875 22.640625 Z M 17.421875 22.640625 "/>
<path style=" stroke:none;fill-rule:nonzero;fill:rgb(7.450981%,7.450981%,7.450981%);fill-opacity:1;" d="M 13.65625 6.957031 C 13.707031 7.160156 13.746094 7.335938 13.746094 7.546875 C 13.652344 7.601562 13.5625 7.65625 13.46875 7.714844 C 12.789062 8.132812 12.144531 8.546875 11.558594 9.113281 C 11.5 9.082031 11.441406 9.050781 11.382812 9.015625 C 12.09375 8.246094 12.839844 7.582031 13.65625 6.957031 Z M 13.65625 6.957031 "/>
<path style=" stroke:none;fill-rule:nonzero;fill:rgb(37.64706%,75.686276%,72.941178%);fill-opacity:1;" d="M 32.570312 18.035156 C 32.570312 18.289062 32.542969 18.476562 32.480469 18.71875 C 32.640625 18.796875 32.640625 18.796875 32.832031 18.816406 C 32.867188 18.773438 32.902344 18.734375 32.941406 18.6875 C 33.289062 18.3125 33.9375 18.296875 34.40625 18.230469 C 34.105469 18.515625 33.765625 18.679688 33.402344 18.84375 C 33.34375 18.871094 33.285156 18.898438 33.226562 18.925781 C 32.988281 19.03125 32.796875 19.117188 32.539062 19.09375 C 32.308594 18.964844 32.234375 18.78125 32.132812 18.523438 C 32.21875 18.230469 32.21875 18.230469 32.398438 18.113281 C 32.457031 18.085938 32.511719 18.0625 32.570312 18.035156 Z M 32.570312 18.035156 "/>
<path style=" stroke:none;fill-rule:nonzero;fill:rgb(33.333334%,78.431374%,74.117649%);fill-opacity:1;" d="M 55.894531 16.746094 C 56.207031 16.757812 56.207031 16.757812 56.382812 16.859375 C 56.382812 16.921875 56.382812 16.988281 56.382812 17.054688 C 56.269531 17.046875 56.160156 17.039062 56.042969 17.027344 C 55.546875 17.027344 55.171875 17.214844 54.730469 17.445312 C 54.585938 17.519531 54.4375 17.59375 54.292969 17.667969 C 54.230469 17.699219 54.167969 17.730469 54.101562 17.765625 C 53.929688 17.835938 53.929688 17.835938 53.667969 17.835938 C 53.640625 17.707031 53.609375 17.578125 53.582031 17.445312 C 54.058594 17.398438 54.058594 17.398438 54.542969 17.347656 C 54.542969 17.28125 54.542969 17.21875 54.542969 17.152344 C 54.613281 17.132812 54.679688 17.113281 54.753906 17.089844 C 54.839844 17.0625 54.929688 17.039062 55.019531 17.011719 C 55.109375 16.984375 55.195312 16.957031 55.289062 16.929688 C 55.828125 16.75 55.828125 16.75 55.894531 16.746094 Z M 55.894531 16.746094 "/>
<path style=" stroke:none;fill-rule:nonzero;fill:rgb(38.039216%,78.823531%,76.078433%);fill-opacity:1;" d="M 32.394531 14.800781 C 32.855469 14.851562 33.203125 14.972656 33.621094 15.191406 C 33.269531 15.347656 33.003906 15.21875 32.65625 15.09375 C 32.609375 15.296875 32.570312 15.46875 32.570312 15.679688 C 32.683594 15.714844 32.800781 15.746094 32.917969 15.78125 C 32.917969 15.84375 32.917969 15.910156 32.917969 15.976562 C 32.621094 15.871094 32.394531 15.777344 32.132812 15.582031 C 32.296875 15.019531 32.296875 15.019531 32.394531 14.800781 Z M 32.394531 14.800781 "/>
<path style=" stroke:none;fill-rule:nonzero;fill:rgb(31.37255%,87.843138%,83.529413%);fill-opacity:1;" d="M 32.65625 14.996094 C 32.835938 15.035156 33.011719 15.085938 33.1875 15.136719 C 33.332031 15.179688 33.332031 15.179688 33.480469 15.222656 C 33.554688 15.242188 33.628906 15.265625 33.707031 15.289062 C 33.707031 15.320312 33.707031 15.355469 33.707031 15.386719 C 33.503906 15.417969 33.304688 15.453125 33.09375 15.484375 C 33.09375 15.550781 33.09375 15.613281 33.09375 15.679688 C 32.9375 15.75 32.9375 15.75 32.746094 15.78125 C 32.585938 15.664062 32.585938 15.664062 32.480469 15.484375 C 32.503906 15.277344 32.523438 15.144531 32.65625 14.996094 Z M 32.65625 14.996094 "/>
<path style=" stroke:none;fill-rule:nonzero;fill:rgb(36.078432%,78.823531%,76.47059%);fill-opacity:1;" d="M 33.707031 15.289062 C 33.785156 15.324219 33.785156 15.324219 33.859375 15.355469 C 34.289062 15.53125 34.570312 15.625 35.019531 15.484375 C 35.148438 15.449219 35.277344 15.414062 35.402344 15.382812 C 35.507812 15.351562 35.613281 15.320312 35.722656 15.289062 C 35.566406 15.632812 35.25 15.757812 34.933594 15.878906 C 34.484375 15.902344 34.042969 15.730469 33.621094 15.582031 C 33.648438 15.488281 33.675781 15.390625 33.707031 15.289062 Z M 33.707031 15.289062 "/>
<path style=" stroke:none;fill-rule:nonzero;fill:rgb(36.862746%,74.901962%,71.372551%);fill-opacity:1;" d="M 36.683594 18.035156 C 36.988281 18.179688 36.988281 18.179688 37.296875 18.328125 C 37.242188 18.667969 37.113281 18.917969 36.945312 19.210938 C 36.820312 19.164062 36.695312 19.121094 36.570312 19.074219 C 36.464844 19.039062 36.464844 19.039062 36.355469 19 C 36.160156 18.914062 36.160156 18.914062 35.894531 18.71875 C 36.242188 18.753906 36.589844 18.785156 36.945312 18.816406 C 36.976562 18.65625 37.003906 18.496094 37.035156 18.328125 C 36.917969 18.296875 36.804688 18.261719 36.683594 18.230469 C 36.683594 18.164062 36.683594 18.101562 36.683594 18.035156 Z M 36.683594 18.035156 "/>
<path style=" stroke:none;fill-rule:nonzero;fill:rgb(1.568628%,12.941177%,12.54902%);fill-opacity:1;" d="M 58.484375 16.757812 C 58.601562 16.976562 58.664062 17.097656 58.636719 17.355469 C 58.570312 17.542969 58.570312 17.542969 58.398438 17.835938 C 58 17.972656 57.757812 17.949219 57.394531 17.746094 C 57.289062 17.679688 57.1875 17.613281 57.082031 17.542969 C 57.332031 17.40625 57.449219 17.492188 57.707031 17.585938 C 57.785156 17.613281 57.867188 17.644531 57.949219 17.671875 C 58.011719 17.695312 58.070312 17.714844 58.132812 17.738281 C 58.25 17.480469 58.363281 17.222656 58.484375 16.957031 C 58.425781 16.921875 58.367188 16.890625 58.308594 16.859375 C 58.367188 16.824219 58.425781 16.792969 58.484375 16.757812 Z M 58.484375 16.757812 "/>
<path style=" stroke:none;fill-rule:nonzero;fill:rgb(33.725491%,80.000001%,75.686276%);fill-opacity:1;" d="M 54.195312 16.5625 C 54.066406 17.023438 54.066406 17.023438 53.832031 17.183594 C 53.777344 17.203125 53.726562 17.226562 53.667969 17.25 C 53.640625 17.183594 53.609375 17.121094 53.582031 17.054688 C 53.550781 17.183594 53.523438 17.3125 53.492188 17.445312 C 53.464844 17.285156 53.4375 17.121094 53.40625 16.957031 C 53.996094 16.5625 53.996094 16.5625 54.195312 16.5625 Z M 54.195312 16.5625 "/>
<path style=" stroke:none;fill-rule:nonzero;fill:rgb(32.549021%,79.607844%,75.294119%);fill-opacity:1;" d="M 55.15625 15.878906 C 55.242188 15.910156 55.332031 15.941406 55.421875 15.976562 C 55.390625 16.074219 55.363281 16.167969 55.332031 16.269531 C 55.1875 16.269531 55.042969 16.269531 54.894531 16.269531 C 54.867188 16.367188 54.835938 16.464844 54.808594 16.5625 C 54.605469 16.5625 54.402344 16.5625 54.195312 16.5625 C 54.5 16.292969 54.8125 16.074219 55.15625 15.878906 Z M 55.15625 15.878906 "/>
<path style=" stroke:none;fill-rule:nonzero;fill:rgb(18.039216%,18.039216%,18.039216%);fill-opacity:1;" d="M 12.433594 7.9375 C 12.488281 7.972656 12.546875 8.003906 12.605469 8.035156 C 12.492188 8.421875 12.328125 8.511719 12.03125 8.742188 C 11.945312 8.8125 11.855469 8.882812 11.765625 8.953125 C 11.695312 9.007812 11.628906 9.058594 11.558594 9.113281 C 11.5 9.082031 11.441406 9.050781 11.382812 9.015625 C 11.726562 8.660156 12.074219 8.304688 12.433594 7.9375 Z M 12.433594 7.9375 "/>
<path style=" stroke:none;fill-rule:nonzero;fill:rgb(14.509805%,14.901961%,14.509805%);fill-opacity:1;" d="M 17.421875 22.640625 C 17.714844 22.792969 17.96875 22.980469 18.234375 23.191406 C 18.3125 23.253906 18.390625 23.316406 18.46875 23.378906 C 18.558594 23.449219 18.558594 23.449219 18.648438 23.523438 C 18.5625 23.570312 18.5625 23.570312 18.472656 23.621094 C 18.445312 23.683594 18.414062 23.75 18.386719 23.816406 C 18.226562 23.640625 18.066406 23.460938 17.902344 23.285156 C 17.859375 23.234375 17.8125 23.183594 17.765625 23.128906 C 17.648438 23 17.535156 22.871094 17.421875 22.738281 C 17.421875 22.707031 17.421875 22.671875 17.421875 22.640625 Z M 17.421875 22.640625 "/>
<path style=" stroke:none;fill-rule:nonzero;fill:rgb(36.470589%,81.960785%,77.64706%);fill-opacity:1;" d="M 34.40625 18.328125 C 34.242188 18.414062 34.074219 18.496094 33.902344 18.578125 C 33.8125 18.625 33.71875 18.671875 33.621094 18.71875 C 33.359375 18.816406 33.257812 18.832031 33.007812 18.71875 C 33.09375 18.523438 33.09375 18.523438 33.246094 18.464844 C 33.339844 18.441406 33.339844 18.441406 33.433594 18.417969 C 34.152344 18.238281 34.152344 18.238281 34.40625 18.328125 Z M 34.40625 18.328125 "/>
<path style=" stroke:none;fill-rule:nonzero;fill:rgb(30.19608%,80.000001%,76.862746%);fill-opacity:1;" d="M 55.507812 14.601562 C 55.566406 14.636719 55.625 14.667969 55.683594 14.703125 C 55.625 14.960938 55.566406 15.21875 55.507812 15.484375 C 55.332031 15.425781 55.15625 15.359375 54.980469 15.289062 C 54.953125 15.226562 54.925781 15.160156 54.894531 15.09375 C 55.011719 15.09375 55.125 15.09375 55.246094 15.09375 C 55.273438 14.996094 55.300781 14.898438 55.332031 14.800781 C 55.390625 14.800781 55.449219 14.800781 55.507812 14.800781 C 55.507812 14.734375 55.507812 14.671875 55.507812 14.601562 Z M 55.507812 14.601562 "/>
<path style=" stroke:none;fill-rule:nonzero;fill:rgb(33.333334%,80.000001%,76.862746%);fill-opacity:1;" d="M 57.347656 13.917969 C 57.113281 14.257812 56.832031 14.316406 56.46875 14.40625 C 56.214844 14.417969 56.214844 14.417969 56.03125 14.40625 C 56.398438 13.996094 56.839844 13.875 57.347656 13.917969 Z M 57.347656 13.917969 "/>
<path style=" stroke:none;fill-rule:nonzero;fill:rgb(1.960784%,14.901961%,13.725491%);fill-opacity:1;" d="M 56.996094 15.191406 C 56.96875 15.25 56.941406 15.308594 56.914062 15.367188 C 56.8125 15.59375 56.8125 15.59375 56.734375 15.878906 C 56.515625 15.78125 56.515625 15.78125 56.296875 15.679688 C 56.296875 15.617188 56.296875 15.550781 56.296875 15.484375 C 56.800781 15.191406 56.800781 15.191406 56.996094 15.191406 Z M 56.996094 15.191406 "/>
<path style=" stroke:none;fill-rule:nonzero;fill:rgb(37.254903%,79.607844%,75.686276%);fill-opacity:1;" d="M 54.542969 17.347656 C 54.542969 17.414062 54.542969 17.476562 54.542969 17.542969 C 53.964844 17.835938 53.964844 17.835938 53.667969 17.835938 C 53.640625 17.707031 53.609375 17.578125 53.582031 17.445312 C 53.710938 17.429688 53.835938 17.414062 53.964844 17.398438 C 54.035156 17.386719 54.105469 17.378906 54.179688 17.367188 C 54.371094 17.347656 54.371094 17.347656 54.542969 17.347656 Z M 54.542969 17.347656 "/>
<path style=" stroke:none;fill-rule:nonzero;fill:rgb(0.784314%,15.686275%,14.509805%);fill-opacity:1;" d="M 34.058594 16.757812 C 34.171875 16.792969 34.289062 16.824219 34.40625 16.859375 C 34.40625 16.921875 34.40625 16.988281 34.40625 17.054688 C 33.84375 17.34375 33.84375 17.34375 33.269531 17.640625 C 33.269531 17.578125 33.269531 17.511719 33.269531 17.445312 C 33.53125 17.285156 33.789062 17.121094 34.058594 16.957031 C 34.058594 16.890625 34.058594 16.828125 34.058594 16.757812 Z M 34.058594 16.757812 "/>
<path style=" stroke:none;fill-rule:nonzero;fill:rgb(35.686275%,78.431374%,74.901962%);fill-opacity:1;" d="M 33.882812 17.347656 C 33.882812 17.414062 33.882812 17.476562 33.882812 17.542969 C 33.824219 17.542969 33.765625 17.542969 33.707031 17.542969 C 33.707031 17.609375 33.707031 17.671875 33.707031 17.738281 C 33.097656 18.066406 33.097656 18.066406 32.746094 17.9375 C 32.902344 17.835938 33.058594 17.738281 33.214844 17.640625 C 33.300781 17.585938 33.390625 17.53125 33.480469 17.476562 C 33.707031 17.347656 33.707031 17.347656 33.882812 17.347656 Z M 33.882812 17.347656 "/>
<path style=" stroke:none;fill-rule:nonzero;fill:rgb(21.960784%,21.960784%,21.960784%);fill-opacity:1;" d="M 48.152344 24.011719 C 48.542969 23.992188 48.839844 24.050781 49.203125 24.207031 C 49.203125 24.304688 49.203125 24.402344 49.203125 24.503906 C 49.0625 24.457031 48.917969 24.414062 48.777344 24.367188 C 48.65625 24.328125 48.65625 24.328125 48.535156 24.292969 C 48.328125 24.207031 48.328125 24.207031 48.152344 24.011719 Z M 48.152344 24.011719 "/>
<path style=" stroke:none;fill-rule:nonzero;fill:rgb(34.117648%,74.117649%,71.372551%);fill-opacity:1;" d="M 53.667969 13.425781 C 53.796875 13.472656 53.921875 13.515625 54.046875 13.5625 C 54.117188 13.585938 54.1875 13.613281 54.257812 13.636719 C 54.457031 13.722656 54.457031 13.722656 54.71875 13.917969 C 54.394531 13.867188 54.074219 13.8125 53.757812 13.722656 C 53.699219 13.722656 53.640625 13.722656 53.582031 13.722656 C 53.609375 13.625 53.640625 13.527344 53.667969 13.425781 Z M 53.667969 13.425781 "/>
<path style=" stroke:none;fill-rule:nonzero;fill:rgb(30.588236%,88.627452%,86.666667%);fill-opacity:1;" d="M 57.785156 17.054688 C 57.957031 17.054688 58.128906 17.054688 58.308594 17.054688 C 58.308594 17.117188 58.308594 17.183594 58.308594 17.25 C 58.25 17.25 58.195312 17.25 58.132812 17.25 C 58.105469 17.347656 58.078125 17.445312 58.046875 17.542969 C 57.929688 17.480469 57.816406 17.414062 57.695312 17.347656 C 57.726562 17.25 57.753906 17.152344 57.785156 17.054688 Z M 57.785156 17.054688 "/>
<path style=" stroke:none;fill-rule:nonzero;fill:rgb(33.333334%,74.509805%,71.372551%);fill-opacity:1;" d="M 35.109375 18.328125 C 35.21875 18.339844 35.328125 18.351562 35.441406 18.363281 C 35.535156 18.375 35.535156 18.375 35.628906 18.386719 C 35.808594 18.425781 35.808594 18.425781 36.070312 18.621094 C 35.882812 18.714844 35.757812 18.734375 35.5625 18.660156 C 35.410156 18.585938 35.257812 18.507812 35.109375 18.425781 C 35.109375 18.394531 35.109375 18.359375 35.109375 18.328125 Z M 35.109375 18.328125 "/>
<path style=" stroke:none;fill-rule:nonzero;fill:rgb(37.64706%,82.352942%,78.431374%);fill-opacity:1;" d="M 33.707031 15.289062 C 33.96875 15.386719 34.226562 15.484375 34.496094 15.582031 C 34.496094 15.617188 34.496094 15.648438 34.496094 15.679688 C 34.207031 15.648438 33.917969 15.617188 33.621094 15.582031 C 33.648438 15.488281 33.675781 15.390625 33.707031 15.289062 Z M 33.707031 15.289062 "/>
<path style=" stroke:none;fill-rule:nonzero;fill:rgb(34.509805%,74.509805%,70.980394%);fill-opacity:1;" d="M 36.945312 14.800781 C 36.976562 14.894531 37.003906 14.992188 37.035156 15.09375 C 36.746094 15.09375 36.457031 15.09375 36.160156 15.09375 C 36.550781 14.761719 36.550781 14.761719 36.945312 14.800781 Z M 36.945312 14.800781 "/>
<path style=" stroke:none;fill-rule:nonzero;fill:rgb(81.176472%,80.392158%,81.568629%);fill-opacity:1;" d="M 53.929688 58.019531 C 54.164062 58.019531 54.394531 58.019531 54.632812 58.019531 C 54.480469 58.402344 54.480469 58.402344 54.28125 58.511719 C 54.28125 58.382812 54.28125 58.253906 54.28125 58.121094 C 54.167969 58.085938 54.050781 58.054688 53.929688 58.019531 Z M 53.929688 58.019531 "/>
<path style=" stroke:none;fill-rule:nonzero;fill:rgb(35.294119%,79.215688%,75.294119%);fill-opacity:1;" d="M 36.160156 16.269531 C 35.566406 16.660156 35.566406 16.660156 35.371094 16.660156 C 35.371094 16.566406 35.371094 16.46875 35.371094 16.367188 C 35.671875 16.207031 35.84375 16.136719 36.160156 16.269531 Z M 36.160156 16.269531 "/>
<path style=" stroke:none;fill-rule:nonzero;fill:rgb(3.529412%,18.431373%,17.647059%);fill-opacity:1;" d="M 34.84375 15.484375 C 34.84375 15.550781 34.84375 15.613281 34.84375 15.679688 C 34.519531 15.632812 34.335938 15.597656 34.058594 15.386719 C 34.386719 15.265625 34.527344 15.351562 34.84375 15.484375 Z M 34.84375 15.484375 "/>
<path style=" stroke:none;fill-rule:nonzero;fill:rgb(35.686275%,80.392158%,76.47059%);fill-opacity:1;" d="M 57.257812 14.996094 C 56.910156 15.191406 56.910156 15.191406 56.558594 15.386719 C 56.585938 15.257812 56.617188 15.128906 56.644531 14.996094 C 56.910156 14.902344 56.984375 14.894531 57.257812 14.996094 Z M 57.257812 14.996094 "/>
</g>
</svg>
