<?xml version="1.0" encoding="UTF-8"?>
<svg version="1.1" xmlns="http://www.w3.org/2000/svg" width="731" height="653">
<path d="M0 0 C241.23 0 482.46 0 731 0 C731 215.49 731 430.98 731 653 C489.77 653 248.54 653 0 653 C0 437.51 0 222.02 0 0 Z " fill="#0D0C0C" transform="translate(0,0)"/>
<path d="M0 0 C15.5637456 -0.26240245 30.2324444 2.47901667 45.26953125 6.125 C46.49027344 6.41117188 47.71101562 6.69734375 48.96875 6.9921875 C56.83346994 8.94755241 64.40183508 11.49676459 72.01953125 14.25 C72.98536133 14.59901367 73.95119141 14.94802734 74.94628906 15.30761719 C78.69798321 16.69164665 81.92644223 17.89627399 85.26953125 20.125 C85.26953125 20.785 85.26953125 21.445 85.26953125 22.125 C82.08784114 23.18556337 79.52504308 23.37464867 76.1796875 23.5546875 C74.93469482 23.62598877 73.68970215 23.69729004 72.40698242 23.77075195 C71.74362885 23.80770172 71.08027527 23.84465149 70.39682007 23.88272095 C31.17780057 26.11034317 -9.18787826 30.13473858 -44.73046875 48.125 C-45.35598633 48.44049805 -45.98150391 48.75599609 -46.62597656 49.08105469 C-59.73817827 55.82946783 -70.93730095 65.15987946 -81.73046875 75.125 C-81.25480469 74.79628906 -80.77914062 74.46757813 -80.2890625 74.12890625 C-47.20543756 51.64666389 -10.98852866 40.27911577 28.39453125 34.375 C29.06154053 34.27376831 29.7285498 34.17253662 30.41577148 34.0682373 C52.58644511 30.75098757 74.7782513 29.72635948 97.17260742 29.69946289 C99.96204812 29.69511413 102.75058467 29.67391622 105.53979492 29.63793945 C124.70602783 29.39547455 141.07642835 29.50005665 157.26953125 41.125 C159.26953125 43.125 159.26953125 43.125 159.26953125 46.125 C157.73474121 46.14687378 157.73474121 46.14687378 156.16894531 46.16918945 C94.05352955 47.11755122 25.73531346 49.97770441 -20.46484375 97.5546875 C-24.23357872 101.83025234 -27.52625788 106.41713711 -30.73046875 111.125 C-24.74562397 107.39086608 -19.17406596 103.19161605 -13.60546875 98.875 C4.14821638 85.22307497 23.3309276 72.46468396 45.015625 66.08984375 C47.46468141 65.36365295 49.73643108 64.56594545 52.1015625 63.62890625 C56.49164723 61.9566178 60.91269318 61.00085438 65.51953125 60.125 C66.38070557 59.95766357 67.24187988 59.79032715 68.12915039 59.61791992 C74.30357429 58.44218593 80.49468232 57.3917705 86.70703125 56.4375 C87.85703613 56.25864258 87.85703613 56.25864258 89.03027344 56.07617188 C102.75569954 54.05789842 116.44745635 53.90949745 130.29418945 53.88476562 C133.53688961 53.87513408 136.77893409 53.84406007 140.02148438 53.8125 C163.82141273 53.69183786 193.53009653 53.64891885 212.1328125 70.84765625 C216.99960392 76.14919827 220.4965847 81.80504907 220.51953125 89.125 C220.44249917 90.45871222 220.36022313 91.79214697 220.26953125 93.125 C211.91066383 91.63755962 204.33205227 88.52571429 196.51953125 85.3125 C193.94229196 84.26214244 191.36374682 83.21500413 188.78515625 82.16796875 C188.15266968 81.91109787 187.52018311 81.65422699 186.86853027 81.38957214 C172.81107674 75.68380949 172.81107674 75.68380949 158.26953125 71.4375 C157.48320312 71.23833984 156.696875 71.03917969 155.88671875 70.83398438 C143.44361776 67.78322408 131.37844126 66.77603986 118.61499023 66.80932617 C116.10290549 66.81247384 113.59201737 66.78898047 111.08007812 66.76367188 C96.92163756 66.70744014 82.68618273 67.96651592 69.26953125 72.8125 C68.53790771 73.06813721 67.80628418 73.32377441 67.05249023 73.5871582 C45.58860838 81.27492629 26.30409384 92.24218166 8.26953125 106.125 C6.75975387 107.27297667 5.24930924 108.4200762 3.73828125 109.56640625 C0.80390768 111.7973214 -2.12716947 114.03234011 -5.05078125 116.27734375 C-5.69112305 116.7676709 -6.33146484 117.25799805 -6.99121094 117.76318359 C-8.46553046 118.91755674 -9.8963775 120.12711794 -11.31640625 121.34765625 C-14.17973329 123.4557692 -16.86648748 124.4830981 -20.23046875 125.625 C-22.09058594 126.26501953 -22.09058594 126.26501953 -23.98828125 126.91796875 C-27.34466593 128.00056047 -30.71271701 128.97720742 -34.10546875 129.9375 C-40.952602 131.97814809 -47.08733444 135.12106076 -53.39453125 138.41796875 C-56.73046875 140.125 -56.73046875 140.125 -59.73046875 141.125 C-62.30638078 145.46337816 -62.28512912 150.23146415 -61.73046875 155.125 C-58.29539086 163.81372643 -48.19194461 168.3649235 -40.48046875 172.5625 C-29.32401742 178.68746566 -18.71507985 185.21676789 -8.54296875 192.875 C31.67397749 222.7383995 76.61329019 242.08581715 127.640625 242.328125 C129.08333519 242.33667511 129.08333519 242.33667511 130.55519104 242.34539795 C132.58129805 242.35478419 134.60741988 242.36135631 136.63354492 242.36523438 C139.66809175 242.37487627 142.70194138 242.40593547 145.73632812 242.4375 C162.49743631 242.53067806 178.48260811 241.07182369 194.39453125 235.5 C195.40241699 235.15372559 196.41030273 234.80745117 197.44873047 234.45068359 C212.25160573 229.19000205 224.76268617 221.49737522 237.26953125 212.125 C243.95122334 207.125 243.95122334 207.125 246.26953125 207.125 C244.20103362 217.85533146 236.27615515 227.17153504 229.26953125 235.125 C228.18671875 236.424375 228.18671875 236.424375 227.08203125 237.75 C216.98692049 249.57570117 203.41776881 258.29231339 188.26953125 262.125 C186.6453125 262.54265625 186.6453125 262.54265625 184.98828125 262.96875 C162.28219053 267.87326559 138.02975156 265.66036185 115.26953125 262.125 C113.75721924 261.89151855 113.75721924 261.89151855 112.21435547 261.65332031 C97.99562101 259.36682185 84.10337564 255.91579605 70.20703125 252.1875 C69.05405045 251.88004349 69.05405045 251.88004349 67.8777771 251.56637573 C40.89401595 244.32684768 10.5857165 234.94806417 -10.73046875 216.125 C-10.73046875 218.83503303 -6.66104454 221.56690692 -4.8293457 223.41113281 C10.53671598 238.33666739 29.03756474 246.92623231 49.26953125 253.125 C49.95354004 253.33866211 50.63754883 253.55232422 51.34228516 253.77246094 C70.99633942 259.89554662 91.00551025 264.55112249 111.26953125 268.125 C113.02716797 268.44791016 113.02716797 268.44791016 114.8203125 268.77734375 C127.60331014 271.04877135 140.34639401 271.33788022 153.29516602 271.36523438 C156.06622294 271.37494461 158.83653774 271.4060657 161.60742188 271.4375 C186.90827425 271.58959205 209.92411774 264.93983173 228.4609375 246.93359375 C229.38777344 246.00675781 230.31460937 245.07992187 231.26953125 244.125 C232.45869141 242.93583984 232.45869141 242.93583984 233.671875 241.72265625 C248.41226206 226.15328433 257.42115329 206.14330533 266.75927734 187.08447266 C267.19965332 186.18647949 267.6400293 185.28848633 268.09375 184.36328125 C268.46975342 183.58637939 268.84575684 182.80947754 269.2331543 182.0090332 C270.26953125 180.125 270.26953125 180.125 272.26953125 178.125 C276.5324708 178.27827423 279.3666115 181.5112078 282.45703125 184.125 C303.60501296 201.26702562 330.33640759 207.77748983 356.26953125 214.125 C356.95747269 214.30354523 357.64541412 214.48209045 358.35420227 214.66604614 C363.94036738 216.03685847 369.18224695 216.41836517 374.921875 216.390625 C376.27038292 216.39349518 376.27038292 216.39349518 377.64613342 216.39642334 C379.54119142 216.39777655 381.43625896 216.3941409 383.33129883 216.38574219 C386.16835508 216.37514447 389.0047615 216.38560805 391.84179688 216.3984375 C407.46357024 216.41181705 422.69454155 215.28874799 437.95703125 211.8125 C438.92181396 211.59956299 439.88659668 211.38662598 440.88061523 211.16723633 C447.84539798 209.58008122 454.52714561 207.55422004 461.2109375 205.04296875 C464.47989296 204.06186462 466.88049819 203.71549184 470.26953125 204.125 C472.203125 205.515625 472.203125 205.515625 473.70703125 207.375 C474.22136719 207.97828125 474.73570312 208.5815625 475.265625 209.203125 C476.26953125 211.125 476.26953125 211.125 476.36328125 213.1328125 C474.02121636 217.3987164 468.06781031 218.87195278 463.76367188 220.72583008 C461.01420535 221.91179197 458.28571563 223.11730399 455.58140564 224.40325928 C436.55810374 233.44572849 420.18013147 234.51093839 399.54766846 233.98651123 C396.49462119 233.92082879 393.44215637 233.90445595 390.38850403 233.88916206 C376.2463857 233.81340494 362.20206518 233.6724634 348.3046875 230.75268555 C345.29645565 230.02374018 345.29645565 230.02374018 342.26953125 230.125 C346.32992046 231.61000626 350.39318707 233.08697751 354.45703125 234.5625 C355.60751953 234.98337891 356.75800781 235.40425781 357.94335938 235.83789062 C359.61108398 236.44213867 359.61108398 236.44213867 361.3125 237.05859375 C362.3336792 237.43040771 363.3548584 237.80222168 364.40698242 238.18530273 C369.04458839 239.70770319 373.09251148 240.24053193 377.97094727 240.07983398 C379.09304092 240.04748154 380.21513458 240.01512909 381.37123108 239.98179626 C382.5764592 239.94526443 383.78168732 239.9087326 385.0234375 239.87109375 C388.26397067 239.80603725 391.50455163 239.7465496 394.74522495 239.68900967 C398.11760242 239.62583941 401.48775305 239.54489055 404.85864258 239.42553711 C430.23542309 238.59338402 430.23542309 238.59338402 437.33984375 244.73828125 C438.17169189 245.64779541 439.00354004 246.55730957 439.8605957 247.49438477 C443.93226719 251.94074742 449.25466386 254.1960565 454.58203125 256.875 C473.42139131 266.45353784 473.42139131 266.45353784 477.26953125 277.125 C479.23177255 283.47691043 480.72392847 289.46050749 480.26953125 296.125 C475.94496371 296.32614268 473.2314268 295.73952969 469.26953125 294.125 C459.3531657 291.28806837 449.2183003 289.18945581 439.14453125 287 C437.99009521 286.74637695 436.83565918 286.49275391 435.64624023 286.23144531 C422.56938233 283.426946 409.87891284 281.81213073 396.49609375 281.75390625 C395.10011615 281.74296079 393.70414041 281.73177465 392.3081665 281.72036743 C387.83692235 281.68981756 383.36586334 281.68677956 378.89453125 281.6875 C378.13039162 281.68673588 377.36625198 281.68597176 376.5789566 281.68518448 C349.71520223 281.66297256 323.37382868 283.12411416 296.73449707 286.78973389 C294.39180673 287.10836901 292.04781429 287.41167382 289.70214844 287.70751953 C279.5263606 288.99157668 269.39471148 290.49059301 259.26953125 292.125 C257.85284149 292.35316406 257.85284149 292.35316406 256.40753174 292.5859375 C214.40299994 299.37822418 172.93066043 307.45365683 132.26953125 320.125 C131.56948975 320.34267029 130.86944824 320.56034058 130.14819336 320.78460693 C111.30795849 326.672316 93.03866078 333.66927123 74.89453125 341.4375 C74.00434296 341.81777344 73.11415466 342.19804687 72.19699097 342.58984375 C50.1892295 350.56391085 50.1892295 350.56391085 35.15234375 366.796875 C31.49471256 380.58582091 34.94237459 394.93378072 39.26953125 408.125 C39.49415039 408.82222168 39.71876953 409.51944336 39.95019531 410.23779297 C49.50687748 439.29038496 68.84675686 463.22916766 89.55078125 485.22265625 C91.94351729 487.77697073 94.26995541 490.37303324 96.58203125 493 C108.43095786 506.09952888 120.77654805 517.01347446 135.26953125 527.125 C136.69448674 528.13735071 138.118985 529.15034539 139.54296875 530.1640625 C154.01564884 540.38537116 169.28125222 548.1898034 185.28466797 555.70605469 C188.12983844 557.05859279 190.95385812 558.44658438 193.7734375 559.8515625 C224.11474942 574.88415575 257.44385926 589.00561955 291.7734375 589.36328125 C292.56177475 589.37302979 293.350112 589.38277832 294.16233826 589.39282227 C322.33570032 589.66840859 348.95644355 586.95018563 376.5 580.73632812 C381.15823862 579.70809915 385.8388124 578.7943964 390.51953125 577.875 C392.12908961 577.55822189 393.73848046 577.24059081 395.34765625 576.921875 C396.0118457 576.79135742 396.67603516 576.66083984 397.36035156 576.52636719 C398.70759792 576.24313534 400.04765875 575.92461957 401.38085938 575.58129883 C403.48991525 575.07175573 405.35350063 575.02639949 407.51953125 575.0625 C408.75703125 575.083125 409.99453125 575.10375 411.26953125 575.125 C407.51465287 585.19078842 389.39692369 592.33301128 380.26953125 597.125 C379.60469727 597.47449707 378.93986328 597.82399414 378.25488281 598.18408203 C366.41731316 604.30428394 354.0777018 608.50942853 341.26953125 612.125 C340.35308838 612.38643799 339.43664551 612.64787598 338.49243164 612.91723633 C330.88199496 614.96281798 323.23548103 616.06243866 315.41870117 616.95043945 C313.36472595 617.18378565 311.31224526 617.42770795 309.25976562 617.67382812 C305.69721579 618.09648381 302.13217362 618.49117471 298.56521606 618.87472534 C297.00904959 619.044378 295.45344903 619.21928897 293.89840698 619.3989563 C278.8222456 621.13388222 263.87461028 621.48602919 248.70703125 621.4375 C247.48455688 621.43534485 246.26208252 621.4331897 245.00256348 621.43096924 C221.64273162 621.36549419 198.5263711 620.24416622 175.26953125 618.125 C173.56996277 617.97227631 173.56996277 617.97227631 171.83605957 617.81646729 C145.08759007 615.4070735 118.36016053 612.80473855 91.76953125 609 C90.95272888 608.88393402 90.13592651 608.76786804 89.29437256 608.64828491 C79.52403921 607.24353849 69.8464601 605.52284285 60.18017578 603.52194214 C55.07869241 602.46638327 49.9789514 601.5575113 44.83203125 600.75 C26.49875219 597.79649056 8.33250857 593.73380201 -9.703125 589.3359375 C-14.07335671 588.27269993 -18.45689046 587.27996766 -22.84716797 586.30322266 C-27.48078407 585.26888208 -32.10637007 584.20099371 -36.73046875 583.125 C-37.74093262 582.89167969 -38.75139648 582.65835938 -39.79248047 582.41796875 C-42.88136207 581.6951521 -45.96244678 580.94507469 -49.04296875 580.1875 C-49.97931152 579.97101807 -50.9156543 579.75453613 -51.88037109 579.53149414 C-58.45203644 577.87527364 -63.34478665 575.20935212 -68.73046875 571.125 C-69.61476563 570.45855469 -70.4990625 569.79210937 -71.41015625 569.10546875 C-72.49683594 568.21794922 -72.49683594 568.21794922 -73.60546875 567.3125 C-74.86230469 566.28962891 -74.86230469 566.28962891 -76.14453125 565.24609375 C-77.42457031 564.19615234 -77.42457031 564.19615234 -78.73046875 563.125 C-79.58382812 562.43535156 -80.4371875 561.74570312 -81.31640625 561.03515625 C-84.13575906 558.74908279 -86.93509258 556.44032478 -89.73046875 554.125 C-90.50318115 553.49198975 -90.50318115 553.49198975 -91.29150391 552.84619141 C-105.70329639 541.00559867 -119.39148814 527.96996679 -130.73046875 513.125 C-131.52324219 512.14917969 -132.31601563 511.17335938 -133.1328125 510.16796875 C-139.46420412 502.31689595 -144.65069298 493.99286801 -149.57080078 485.19775391 C-150.64128098 483.2844114 -151.72970488 481.38237567 -152.8203125 479.48046875 C-158.37103381 469.61342606 -162.55318525 459.22476079 -166.69067383 448.70117188 C-167.4982828 446.70025856 -168.34811783 444.71636587 -169.21459961 442.74023438 C-183.63055588 408.35925831 -189.132233 369.90200477 -194.41807556 333.27549744 C-194.69815487 331.34744697 -195.00081385 329.4227083 -195.30639648 327.49853516 C-196.09331936 320.98431124 -195.89511386 314.38414038 -195.8984375 307.83203125 C-195.90166293 306.32110057 -195.90502789 304.81017019 -195.90852356 303.29924011 C-195.91449944 300.12616254 -195.91636576 296.95311209 -195.91577148 293.7800293 C-195.91569124 290.58921514 -195.9224696 287.39854764 -195.9362793 284.20776367 C-196.13812555 236.85649909 -190.92388709 190.86759427 -180.16796875 144.75 C-179.98441833 143.95043884 -179.80086792 143.15087769 -179.61175537 142.3270874 C-176.61894724 129.37230762 -173.17804875 117.81929933 -164.96875 107.10546875 C-162.41034076 103.69872137 -160.0686278 100.1845054 -157.73046875 96.625 C-151.02939454 86.50594529 -144.12574482 76.92649911 -135.73046875 68.125 C-135.1900293 67.5573291 -134.64958984 66.9896582 -134.09277344 66.40478516 C-107.05243183 38.18263643 -71.02459982 15.4319335 -33.16796875 5.0703125 C-31.0750398 4.49475704 -28.98896691 3.89225081 -26.91796875 3.2421875 C-18.05059852 0.52391627 -9.21547975 0.30879094 0 0 Z " fill="#FDFDFD" transform="translate(212.73046875,16.875)"/>
<path d="M0 0 C241.23 0 482.46 0 731 0 C731 215.49 731 430.98 731 653 C489.77 653 248.54 653 0 653 C0 437.51 0 222.02 0 0 Z M174 15 C172.57204102 15.46672119 172.57204102 15.46672119 171.11523438 15.94287109 C110.00660482 36.40175438 64.73599797 76.73177336 33 132 C32.65356445 132.58056152 32.30712891 133.16112305 31.95019531 133.75927734 C25.8057201 144.85695196 24.06034973 158.78516804 21.5625 171.125 C21.33947205 172.22016937 21.33947205 172.22016937 21.11193848 173.33746338 C16.21344932 197.44201973 12.18946969 221.48278957 10 246 C9.89558594 247.06943848 9.79117187 248.13887695 9.68359375 249.24072266 C6.0138784 287.48821473 5.76760611 327.04597094 12 365 C12.33049658 367.21950816 12.65740617 369.43955384 12.98046875 371.66015625 C19.40951333 414.92864676 30.58681292 456.69524046 50 496 C50.5269043 497.08039551 50.5269043 497.08039551 51.06445312 498.18261719 C66.20493358 528.96023401 91.10631008 557.82941663 118.16796875 578.796875 C120.50875547 580.61784563 122.78322525 582.48077531 125.05078125 584.390625 C125.78401611 585.00566895 126.51725098 585.62071289 127.27270508 586.25439453 C128.70167222 587.45452017 130.12757577 588.65830858 131.54956055 589.86669922 C141.42615615 598.09778535 150.40725259 603.01432245 163 605.875 C164.37102646 606.20106453 165.74178718 606.52824812 167.11230469 606.85644531 C191.1505345 612.54181034 215.41662868 617.30082772 239.63818359 622.12939453 C243.00350494 622.80034557 246.36758759 623.47706099 249.73046875 624.16015625 C265.46919919 627.35320338 281.20353745 630.09082551 297.109375 632.3125 C304.03437187 633.27976741 310.94716864 634.3313253 317.84617615 635.46958923 C326.73402538 636.90547949 335.64029917 637.84111278 344.59765625 638.69140625 C346.1646152 638.84279588 347.73154479 638.99448974 349.29844666 639.14646912 C353.38853266 639.54226949 357.47903789 639.93356134 361.56964111 640.32397461 C364.88834113 640.64151935 368.20671506 640.96239574 371.52507877 641.28343296 C375.52832231 641.67062566 379.53172298 642.05618084 383.53515625 642.44140625 C384.28073351 642.51322176 385.02631077 642.58503727 385.79448128 642.65902901 C398.36368438 643.86757964 410.9095494 645.05714002 423.53125 645.546875 C424.60113159 645.58850769 425.67101318 645.63014038 426.77331543 645.67303467 C439.34693575 646.12816463 451.91898188 646.24267481 464.5 646.25 C466.32636993 646.25151062 466.32636993 646.25151062 468.18963623 646.25305176 C495.17619681 646.2380369 521.55365655 644.76746427 548 639 C549.07773682 638.77425293 549.07773682 638.77425293 550.17724609 638.54394531 C561.25227712 636.19351708 571.57087669 632.3428776 582 628 C583.10988281 627.54367187 584.21976563 627.08734375 585.36328125 626.6171875 C607.15398918 616.92722715 627.63344077 604.21800622 646 589 C646.70253906 588.42378906 647.40507813 587.84757813 648.12890625 587.25390625 C662.91421308 573.93754999 662.87170953 550.49284757 664 532 C664.25856758 525.06588201 664.24934547 518.13148748 664.20581055 511.19360352 C664.18740133 508.17130123 664.18530316 505.14930613 664.18554688 502.12695312 C664.16872658 493.00942461 663.99430145 483.96164983 663.36656189 474.86524963 C662.69370286 464.25762039 662.77590022 453.61779175 662.75976562 442.99316406 C662.75010627 439.16709254 662.71900547 435.34157026 662.6875 431.515625 C662.63328151 418.99241298 662.98507591 406.64024958 664.34375 394.18359375 C664.46256531 393.08810211 664.58138062 391.99261047 664.70379639 390.86392212 C667.21006829 370.21886443 676.89054801 357.41413963 691.88085938 343.5 C698.31024511 337.31696939 702.15245845 331.78195721 703.4609375 322.85546875 C702.95582779 307.17410819 700.838867 288.453389 688.90625 276.98828125 C681.95323782 271.56449168 674.0263382 267.7121745 666.17358398 263.76782227 C665.29130127 263.32237061 664.40901855 262.87691895 663.5 262.41796875 C662.7059375 262.02375732 661.911875 261.6295459 661.09375 261.22338867 C658.98878297 259.99344584 657.51451076 258.90921799 656 257 C656 256.01 656 255.02 656 254 C656.58265625 253.79955078 657.1653125 253.59910156 657.765625 253.39257812 C667.75574584 249.92902208 677.69844398 246.4451526 687.1875 241.75 C688.16493164 241.27530273 688.16493164 241.27530273 689.16210938 240.79101562 C692.62499014 239.01680067 695.12173129 237.45787278 697 234 C697.85361926 230.15159983 697.84416089 226.4552538 695.83984375 223 C694.4764587 221.18771344 694.4764587 221.18771344 692.99609375 219.60546875 C692 218 692 218 692.02734375 216.0703125 C693.43405041 213.0761176 695.51253445 211.69133938 698.125 209.6875 C711.03199577 199.41186595 721.06809053 186.73867489 724 170 C725.88619425 152.59856018 722.14678995 141.44383449 711.2734375 127.83984375 C708.40067561 124.43581768 705.43280642 121.46252207 702 118.625 C697.37953115 114.68609456 694.33547912 110.03067118 691 105 C670.31470123 74.48597231 641.46748792 58.01344701 605.47705078 50.44921875 C601.96983425 49.81317712 598.48988941 49.54147811 594.9375 49.25 C587.96178208 48.46646789 584.13945003 45.67498648 578.82421875 41.25390625 C567.30544063 32.06118844 552.29914973 30.50231103 538.06152344 30.71875 C536.00176617 30.74997323 533.94278377 30.75975335 531.8828125 30.765625 C525.49061102 30.80608469 519.20682288 31.05102871 512.84765625 31.734375 C508.99395683 32.05873447 507.34807703 32.15042945 503.74609375 30.59375 C502.60333984 29.55734375 502.60333984 29.55734375 501.4375 28.5 C497.66831318 25.35809391 494.00095035 22.65357927 489.75 20.1875 C488.35007812 19.37345703 488.35007812 19.37345703 486.921875 18.54296875 C473.42915386 11.41780184 459.46776897 10.43883065 444.5 10.5625 C443.32278885 10.56706207 443.32278885 10.56706207 442.12179565 10.57171631 C422.04772768 10.68623767 403.67442535 14.34889671 384.5234375 20.23535156 C382.07545773 20.97713491 379.61959782 21.67836987 377.15625 22.3671875 C368.57014673 24.80276463 360.31987157 27.62222419 352.04833984 30.98901367 C339.14039624 36.21497258 329.51844379 39.95969215 315.875 35 C314.22062608 34.28954502 312.56675296 33.57762373 310.92285156 32.84326172 C304.50597642 30.02915725 297.94362492 27.5297416 291.42675781 24.95800781 C289.92453203 24.36497623 288.42360512 23.76862831 286.92480469 23.16699219 C277.04297852 19.2372311 266.90180485 16.61807488 256.5625 14.1875 C255.28197754 13.88513428 254.00145508 13.58276855 252.68212891 13.27124023 C227.75540653 7.58537059 198.42471563 6.89940919 174 15 Z " fill="#FDFDFD" transform="translate(0,0)"/>
<path d="M0 0 C3.79308119 -0.00219733 7.58587576 -0.02045411 11.37890625 -0.03930664 C29.06088442 -0.08216414 45.28987364 1.34248359 62.60546875 5.06030273 C64.48770142 5.45838135 64.48770142 5.45838135 66.40795898 5.86450195 C69.99684127 6.62827131 73.58296766 7.40353986 77.16796875 8.18530273 C78.08481445 8.38446289 79.00166016 8.58362305 79.94628906 8.78881836 C104.06216267 14.07949665 104.06216267 14.07949665 107.16796875 17.18530273 C107.67295993 21.52822685 107.02333035 23.95600151 104.5300293 27.51904297 C101.83460883 30.81645194 98.5885646 33.54444968 95.41796875 36.37280273 C76.07081495 54.15731852 69.28559549 75.76287226 68.05542374 101.5439415 C67.89023564 107.16749645 67.91190974 112.79043657 67.9375 118.41577148 C67.93869679 120.18931545 67.93914391 121.96286007 67.93888855 123.73640442 C67.94043532 127.41285294 67.94859073 131.08920157 67.9621582 134.765625 C67.97928421 139.4636888 67.98296753 144.16164506 67.98221302 148.85973644 C67.98248528 152.50493891 67.98797331 156.15011816 67.99521446 159.79531288 C67.99837941 161.52837258 68.00036341 163.26143487 68.00110817 164.9944973 C68.00328717 167.40995121 68.01206083 169.82529305 68.02270508 172.24072266 C68.02225189 172.94468674 68.02179871 173.64865082 68.02133179 174.37394714 C68.04925544 178.72884949 68.50169782 182.88586352 69.16796875 187.18530273 C69.41291371 192.76559427 69.41244795 198.35019081 69.41796875 203.93530273 C69.41930817 204.73098663 69.42064758 205.52667053 69.42202759 206.34646606 C69.40246237 260.17309011 69.40246237 260.17309011 58.81225586 272.80200195 C52.56760897 278.05547921 41.80833837 278.58618455 34.10546875 280.06030273 C31.40709092 280.58529325 28.70944778 281.11402122 26.01171875 281.64233398 C25.34051498 281.77314865 24.66931122 281.90396332 23.97776794 282.03874207 C18.96180104 283.01924807 13.96211416 284.06471958 8.96484375 285.13574219 C-0.9536115 287.25882683 -10.90011246 289.14148104 -20.89453125 290.87280273 C-22.05927979 291.07526611 -23.22402832 291.27772949 -24.42407227 291.48632812 C-27.89005236 292.07591093 -31.35939157 292.63637814 -34.83203125 293.18530273 C-35.99395996 293.37656738 -37.15588867 293.56783203 -38.35302734 293.76489258 C-47.87025892 295.20457061 -57.19108916 295.49444509 -66.80224609 295.44604492 C-69.32934547 295.43531414 -71.85573432 295.44601429 -74.3828125 295.45874023 C-93.67571616 295.47614708 -111.3541964 291.91196639 -129.70703125 286.18530273 C-130.46725586 285.9484375 -131.22748047 285.71157227 -132.01074219 285.4675293 C-158.07392128 277.13409633 -183.40955324 264.43792693 -207.45776367 251.45849609 C-209.12471063 250.56460115 -210.8002007 249.68654337 -212.48168945 248.8203125 C-219.2730997 245.25959869 -225.24716469 241.10526516 -231.26953125 236.37280273 C-233.10773261 234.94788445 -234.94627202 233.52340215 -236.78515625 232.09936523 C-237.65591797 231.42164063 -238.52667969 230.74391602 -239.42382812 230.0456543 C-242.42124112 227.73013452 -245.46498388 225.48727658 -248.51953125 223.24780273 C-260.12382747 214.55279891 -270.70604253 204.20827772 -280.11328125 193.18139648 C-282.01572687 190.97196533 -283.98478951 188.83261666 -285.95703125 186.68530273 C-309.68871634 160.28531915 -336.14630037 124.26176202 -334.2421875 86.81420898 C-333.33520343 81.00087299 -331.25547651 77.03403383 -326.60546875 73.38452148 C-320.60321304 69.02399537 -313.74474382 66.32245575 -306.95703125 63.43530273 C-305.53260013 62.82106674 -304.10828519 62.20656126 -302.68408203 61.59179688 C-289.87284867 56.09170749 -276.91173655 51.01253827 -263.83203125 46.18530273 C-263.08775879 45.9086377 -262.34348633 45.63197266 -261.57666016 45.34692383 C-204.69259077 24.26285528 -142.75679877 12.24462964 -82.546875 5.61499023 C-79.06380111 5.21211103 -75.61009408 4.71595429 -72.14453125 4.18530273 C-66.13763253 3.30944035 -60.12510446 2.68080238 -54.08203125 2.12280273 C-53.23809814 2.04352539 -52.39416504 1.96424805 -51.5246582 1.88256836 C-48.62855772 1.62511317 -45.73167243 1.39941312 -42.83203125 1.18530273 C-40.99729248 1.04958862 -40.99729248 1.04958862 -39.12548828 0.91113281 C-26.09297481 0.03165476 -13.05767003 -0.0008457 0 0 Z " fill="#FDFDFD" transform="translate(586.83203125,304.814697265625)"/>
<path d="M0 0 C3.79308119 -0.00219733 7.58587576 -0.02045411 11.37890625 -0.03930664 C29.06088442 -0.08216414 45.28987364 1.34248359 62.60546875 5.06030273 C64.48770142 5.45838135 64.48770142 5.45838135 66.40795898 5.86450195 C69.99684127 6.62827131 73.58296766 7.40353986 77.16796875 8.18530273 C78.08481445 8.38446289 79.00166016 8.58362305 79.94628906 8.78881836 C104.06216267 14.07949665 104.06216267 14.07949665 107.16796875 17.18530273 C107.67295993 21.52822685 107.02333035 23.95600151 104.5300293 27.51904297 C101.83460883 30.81645194 98.5885646 33.54444968 95.41796875 36.37280273 C76.07081495 54.15731852 69.28559549 75.76287226 68.05542374 101.5439415 C67.89023564 107.16749645 67.91190974 112.79043657 67.9375 118.41577148 C67.93869679 120.18931545 67.93914391 121.96286007 67.93888855 123.73640442 C67.94043532 127.41285294 67.94859073 131.08920157 67.9621582 134.765625 C67.97928421 139.4636888 67.98296753 144.16164506 67.98221302 148.85973644 C67.98248528 152.50493891 67.98797331 156.15011816 67.99521446 159.79531288 C67.99837941 161.52837258 68.00036341 163.26143487 68.00110817 164.9944973 C68.00328717 167.40995121 68.01206083 169.82529305 68.02270508 172.24072266 C68.02225189 172.94468674 68.02179871 173.64865082 68.02133179 174.37394714 C68.04925544 178.72884949 68.50169782 182.88586352 69.16796875 187.18530273 C69.41291371 192.76559427 69.41244795 198.35019081 69.41796875 203.93530273 C69.41930817 204.73098663 69.42064758 205.52667053 69.42202759 206.34646606 C69.40246237 260.17309011 69.40246237 260.17309011 58.81225586 272.80200195 C52.56760897 278.05547921 41.80833837 278.58618455 34.10546875 280.06030273 C31.40709092 280.58529325 28.70944778 281.11402122 26.01171875 281.64233398 C25.34051498 281.77314865 24.66931122 281.90396332 23.97776794 282.03874207 C18.96180104 283.01924807 13.96211416 284.06471958 8.96484375 285.13574219 C-0.9536115 287.25882683 -10.90011246 289.14148104 -20.89453125 290.87280273 C-22.05927979 291.07526611 -23.22402832 291.27772949 -24.42407227 291.48632812 C-27.89005236 292.07591093 -31.35939157 292.63637814 -34.83203125 293.18530273 C-35.99395996 293.37656738 -37.15588867 293.56783203 -38.35302734 293.76489258 C-47.87025892 295.20457061 -57.19108916 295.49444509 -66.80224609 295.44604492 C-69.32934547 295.43531414 -71.85573432 295.44601429 -74.3828125 295.45874023 C-93.67571616 295.47614708 -111.3541964 291.91196639 -129.70703125 286.18530273 C-130.46725586 285.9484375 -131.22748047 285.71157227 -132.01074219 285.4675293 C-158.07392128 277.13409633 -183.40955324 264.43792693 -207.45776367 251.45849609 C-209.12471063 250.56460115 -210.8002007 249.68654337 -212.48168945 248.8203125 C-219.2730997 245.25959869 -225.24716469 241.10526516 -231.26953125 236.37280273 C-233.10773261 234.94788445 -234.94627202 233.52340215 -236.78515625 232.09936523 C-237.65591797 231.42164063 -238.52667969 230.74391602 -239.42382812 230.0456543 C-242.42124112 227.73013452 -245.46498388 225.48727658 -248.51953125 223.24780273 C-260.12382747 214.55279891 -270.70604253 204.20827772 -280.11328125 193.18139648 C-282.01572687 190.97196533 -283.98478951 188.83261666 -285.95703125 186.68530273 C-309.68871634 160.28531915 -336.14630037 124.26176202 -334.2421875 86.81420898 C-333.33520343 81.00087299 -331.25547651 77.03403383 -326.60546875 73.38452148 C-320.60321304 69.02399537 -313.74474382 66.32245575 -306.95703125 63.43530273 C-305.53260013 62.82106674 -304.10828519 62.20656126 -302.68408203 61.59179688 C-289.87284867 56.09170749 -276.91173655 51.01253827 -263.83203125 46.18530273 C-263.08775879 45.9086377 -262.34348633 45.63197266 -261.57666016 45.34692383 C-204.69259077 24.26285528 -142.75679877 12.24462964 -82.546875 5.61499023 C-79.06380111 5.21211103 -75.61009408 4.71595429 -72.14453125 4.18530273 C-66.13763253 3.30944035 -60.12510446 2.68080238 -54.08203125 2.12280273 C-53.23809814 2.04352539 -52.39416504 1.96424805 -51.5246582 1.88256836 C-48.62855772 1.62511317 -45.73167243 1.39941312 -42.83203125 1.18530273 C-40.99729248 1.04958862 -40.99729248 1.04958862 -39.12548828 0.91113281 C-26.09297481 0.03165476 -13.05767003 -0.0008457 0 0 Z M-104.29296875 43.26342773 C-108.35441662 44.10255582 -112.42864613 44.81459992 -116.51953125 45.49780273 C-139.15708776 49.37527532 -161.55227781 54.68405973 -183.78271484 60.40942383 C-186.55086454 61.11376168 -189.32320708 61.79210211 -192.1015625 62.45483398 C-250.54930008 75.99653198 -250.54930008 75.99653198 -294.76953125 113.56030273 C-298.00767712 119.73834419 -297.2852217 125.37552196 -296.20703125 132.06030273 C-294.29544626 136.40481408 -291.32188783 138.1741804 -286.94189453 139.95288086 C-284.87331012 140.66859789 -282.7939136 141.33744764 -280.70703125 141.99780273 C-260.15978449 148.92304341 -250.213049 161.5370742 -238.92578125 179.16186523 C-214.83034681 215.87330545 -138.69767588 248.12645447 -97.17749023 256.75952148 C-85.37464522 258.90214267 -73.85732648 259.59639425 -61.89453125 259.56030273 C-61.08466766 259.55842957 -60.27480408 259.5565564 -59.44039917 259.55462646 C-30.2836023 259.40928459 8.20610636 253.96160287 30.45703125 233.07202148 C33.49438167 229.72261452 35.86649068 226.0641178 38.16796875 222.18530273 C38.78671875 221.23655273 39.40546875 220.28780273 40.04296875 219.31030273 C43.46305744 209.81005638 40.23290214 198.89903641 38.34725952 189.31433105 C37.51468162 185.07513269 36.71745944 180.82928149 35.91796875 176.58374023 C35.76168503 175.75729004 35.60540131 174.93083984 35.44438171 174.0793457 C33.83867086 165.53761503 32.51174759 156.97577699 31.44433594 148.3503418 C31.17439573 146.23565118 30.86618488 144.1295692 30.55078125 142.02124023 C29.16321969 132.1611611 28.9585023 122.31752545 28.91796875 112.37280273 C28.90407104 110.42398193 28.90407104 110.42398193 28.88989258 108.43579102 C28.95354275 88.84401991 32.75661491 71.98546756 46.16796875 57.18530273 C49.06441078 54.46758337 52.07580671 51.92170892 55.17578125 49.43920898 C57.37884738 47.36159274 57.37884738 47.36159274 57.53515625 44.65014648 C55.2406784 40.5135307 51.55470997 39.52862209 47.16796875 38.18530273 C42.83933412 37.23440415 38.49576601 36.59203486 34.10546875 35.99780273 C32.97302734 35.83344727 31.84058594 35.6690918 30.67382812 35.49975586 C27.50715042 35.04421166 24.33957371 34.60512094 21.16796875 34.18530273 C19.91250244 34.00733154 18.65703613 33.82936035 17.36352539 33.64599609 C12.86912683 33.09135628 8.41121976 33.00641782 3.88671875 32.98217773 C3.00809174 32.97520874 2.12946472 32.96823975 1.22421265 32.96105957 C-1.62791742 32.94364772 -4.47985008 32.93732915 -7.33203125 32.93530273 C-8.31089294 32.93429565 -9.28975464 32.93328857 -10.29827881 32.93225098 C-42.05572053 32.95426115 -73.20516226 36.80501219 -104.29296875 43.26342773 Z " fill="#FBFBFB" transform="translate(586.83203125,304.814697265625)"/>
<path d="M0 0 C1.19375244 0.32025146 1.19375244 0.32025146 2.41162109 0.64697266 C24.53562308 6.75130127 45.7408144 17.43166928 66.375 27.3125 C67.87873169 28.03095093 67.87873169 28.03095093 69.4128418 28.76391602 C86.66411532 37.0963402 100.43589434 44.92157361 107.30859375 63.90625 C107.65083984 64.94265625 107.65083984 64.94265625 108 66 C108.33 66.99 108.66 67.98 109 69 C109.25319543 72.24550512 109.23129677 75.49563798 109.25 78.75 C109.2809375 80.07257813 109.2809375 80.07257813 109.3125 81.421875 C109.3719024 91.40147774 105.79194944 96.93964019 99 104 C98.53239258 104.48807129 98.06478516 104.97614258 97.58300781 105.47900391 C90.4636043 112.87084506 83.12873225 119.71129597 75 126 C74.07960938 126.73734375 73.15921875 127.4746875 72.2109375 128.234375 C38.74579926 154.39310839 -3.00064477 159.58671595 -44.34082031 155.23022461 C-65.15718341 152.63264242 -86.44953406 148.78525842 -106 141 C-106.73186523 140.70899414 -107.46373047 140.41798828 -108.21777344 140.11816406 C-128.41859375 131.92160966 -147.7718527 120.36451444 -163.8046875 105.50390625 C-168.70824245 101.14996591 -174.31365462 98.21889403 -180.0625 95.125 C-182.28858509 93.9012385 -184.51384832 92.6759808 -186.73828125 91.44921875 C-187.81029785 90.86060059 -188.88231445 90.27198242 -189.98681641 89.66552734 C-193.9422132 87.47919475 -197.86144347 85.24037786 -201.75 82.9375 C-202.85859375 82.28652344 -203.9671875 81.63554687 -205.109375 80.96484375 C-208.20319947 78.86187928 -210.66235078 76.93098385 -213 74 C-213.09375 71.40234375 -213.09375 71.40234375 -212 69 C-203.62340304 61.05253198 -190.59182845 57.80099942 -179.703125 54.796875 C-170.86580088 52.32903545 -164.89186809 49.14966691 -158 43 C-155.17815477 40.68758395 -152.31278068 38.43298036 -149.4375 36.1875 C-148.66599609 35.58486328 -147.89449219 34.98222656 -147.09960938 34.36132812 C-139.95792252 28.85000155 -132.53924154 23.88265741 -124.86328125 19.15039062 C-123.21199737 18.13088726 -121.57372032 17.09038286 -119.9375 16.046875 C-106.50647557 7.76440993 -91.23417077 1.99838866 -76 -2 C-74.81921875 -2.3196875 -73.6384375 -2.639375 -72.421875 -2.96875 C-49.01141132 -8.17107526 -22.94034877 -6.19951449 0 0 Z " fill="#FCFCFC" transform="translate(371,96)"/>
<path d="M0 0 C3.52310483 -0.00974243 7.04563351 -0.04090896 10.56860352 -0.07226562 C34.3383939 -0.18807662 53.18872329 1.97000467 73.65649414 14.74023438 C74.64383545 15.35044434 75.63117676 15.9606543 76.6484375 16.58935547 C91.49803933 25.83859738 105.65234385 35.43688891 118.59399414 47.24023438 C119.30942383 47.8615625 120.02485352 48.48289063 120.76196289 49.12304688 C126.63034605 54.48620499 132.94038519 63.12077277 133.80273438 71.19458008 C134.54020446 87.60103552 132.04404111 99.70866347 120.59399414 112.24023438 C119.9146582 112.99949219 119.23532227 113.75875 118.53540039 114.54101562 C108.71476418 124.9568419 96.46883773 131.39033734 82.84399414 135.30273438 C82.02672852 135.54572266 81.20946289 135.78871094 80.36743164 136.0390625 C77.78273631 136.79796448 75.19070693 137.52358142 72.59399414 138.24023438 C71.67424805 138.50151123 70.75450195 138.76278809 69.80688477 139.03198242 C61.80650278 141.18948664 53.83579664 142.20747542 45.59399414 142.92773438 C44.55520111 143.01954987 44.55520111 143.01954987 43.49542236 143.11322021 C0.57584423 146.82730851 -48.69241031 140.42697925 -83.23022461 111.90820312 C-92.20163637 103.98622898 -92.20163637 103.98622898 -92.64550781 100.1940918 C-92.64510498 99.41912354 -92.64470215 98.64415527 -92.64428711 97.84570312 C-92.6565332 96.97945313 -92.6687793 96.11320312 -92.68139648 95.22070312 C-92.69364258 94.29902344 -92.70588867 93.37734375 -92.71850586 92.42773438 C-93.13442577 79.96711341 -95.70775259 70.6006364 -103.21850586 60.49023438 C-106.58275664 55.83420115 -108.64202827 52.71300761 -108.02709961 46.90429688 C-104.73542945 32.78530913 -98.61760501 21.87971519 -86.35131836 13.90429688 C-60.77936124 -1.11126514 -28.65182445 0.04772984 0 0 Z " fill="#FCFCFC" transform="translate(581.406005859375,81.759765625)"/>
<path d="M0 0 C20.48461028 9.30031211 32.66902563 23.64704106 45 42 C48.22557117 46.77834614 51.5244208 50.56576753 55.875 54.375 C64.69172463 62.11942028 74.97261547 73.67413527 76.19287109 85.93847656 C76.9275328 106.01922991 72.57109534 121.40420502 58.58984375 136.4609375 C53.99637337 140.96433983 49.03121711 144.99886287 44 149 C44.60291611 151.97650165 45.13569545 153.17681528 47.0625 155.6875 C49.22270507 159.38075383 49.502698 161.58903393 49.62890625 165.75390625 C48.34154205 170.35163553 44.63198278 172.61675242 40.71484375 174.9921875 C39.46271655 175.63361872 38.20311077 176.26060119 36.9375 176.875 C36.26009766 177.21015625 35.58269531 177.5453125 34.88476562 177.890625 C26.22584865 182.03692908 17.11477287 185.02925921 8 188 C8.57890499 190.99797934 8.57890499 190.99797934 10.3984375 193.3515625 C16.72535539 197.42779814 23.3471218 200.87507977 30.08349609 204.22119141 C37.57334163 208.02800741 43.51574175 212.08985861 47.5 219.6875 C48.0053125 220.61949219 48.510625 221.55148437 49.03125 222.51171875 C50 225 50 225 49 228 C46.5625 229.125 46.5625 229.125 44 230 C43.34 230.33 42.68 230.66 42 231 C41.76925781 230.40832031 41.53851562 229.81664062 41.30078125 229.20703125 C37.07618184 218.97114415 29.723887 213.87578025 20.05859375 208.96875 C19.3409082 208.60233398 18.62322266 208.23591797 17.88378906 207.85839844 C16.47779783 207.14883861 15.06484734 206.45280458 13.64355469 205.77441406 C10.09686134 203.99186172 7.44774666 202.50993507 4.79223633 199.4855957 C-0.08711224 194.18264864 -3.7888181 191.81048394 -11.11987305 191.27392578 C-18.6503315 191.07242494 -26.16414473 191.3678239 -33.6875 191.6875 C-65.51209204 192.83041053 -65.51209204 192.83041053 -80 187 C-80.98202393 186.64687744 -81.96404785 186.29375488 -82.97583008 185.92993164 C-85.36232135 185.06569246 -87.71249863 184.14569138 -90.0625 183.1875 C-90.84431641 182.87619141 -91.62613281 182.56488281 -92.43164062 182.24414062 C-94.2904828 181.50288454 -96.14570603 180.75256141 -98 180 C-98 179.67 -98 179.34 -98 179 C-93.82265386 178.79113269 -90.32332077 179.35740118 -86.29402161 180.42784119 C-76.59114437 182.84786492 -66.85665127 183.43311331 -56.89453125 183.65234375 C-56.18973633 183.6689996 -55.48494141 183.68565544 -54.75878906 183.70281601 C-49.4436362 183.82267414 -44.12876086 183.89124786 -38.8125 183.9375 C-37.64838404 183.9489184 -37.64838404 183.9489184 -36.46075058 183.96056747 C-11.99172912 184.17066505 8.42013186 182.54102269 30 170 C31.92601772 169.00986192 33.8591439 168.03336527 35.80078125 167.07421875 C36.61329346 166.67162842 37.42580566 166.26903809 38.26293945 165.85424805 C38.83616943 165.57234619 39.40939941 165.29044434 40 165 C39.12126229 161.05412971 38.12076508 158.73066945 35 156 C28.60239529 155.79024247 23.26260938 157.88173243 17.27734375 159.9831543 C11.98458169 161.78862316 6.667109 163.08174451 1.1875 164.1875 C0.07121216 164.4191687 0.07121216 164.4191687 -1.06762695 164.65551758 C-16.43193594 167.62649874 -32.00692425 168.53783342 -47.625 168.625 C-49.01782196 168.63335373 -49.01782196 168.63335373 -50.43878174 168.64187622 C-68.70666792 168.66041616 -84.66394373 165.56754598 -102 160 C-104.01102684 159.39483135 -106.02270241 158.79181242 -108.03515625 158.19140625 C-125.99878946 152.67375582 -143.05343219 145.16975115 -157.0625 132.375 C-159.62551677 129.81402213 -159.62551677 129.81402213 -161.96484375 129.9375 C-165.14418358 131.59734728 -166.07923309 134.4905089 -167.5 137.625 C-168.19569977 139.08178993 -168.89376472 140.53745189 -169.59375 141.9921875 C-169.97402344 142.78979492 -170.35429687 143.58740234 -170.74609375 144.40917969 C-177.01037973 157.35244349 -183.39925426 170.42908147 -192 182 C-192.6084375 182.82886719 -193.216875 183.65773437 -193.84375 184.51171875 C-210.17977475 205.83558713 -231.22288726 218.82381792 -258 223 C-261.25277843 223.24235023 -264.4816001 223.25871548 -267.7421875 223.23046875 C-268.63181183 223.23001053 -269.52143616 223.22955231 -270.4380188 223.2290802 C-272.30520983 223.22608236 -274.17239892 223.21827117 -276.03955078 223.20581055 C-278.86109527 223.18758979 -281.68230906 223.18530122 -284.50390625 223.18554688 C-297.89237779 223.15948476 -310.81209608 222.42286024 -324 220 C-324.72268066 219.87254395 -325.44536133 219.74508789 -326.18994141 219.61376953 C-360.71160351 213.51839543 -399.32786635 206.04539683 -428 185 C-428.91652344 184.32839844 -429.83304687 183.65679687 -430.77734375 182.96484375 C-437.4029048 177.86745318 -443.2013934 171.997038 -449 166 C-445.39821758 166 -445.06080852 166.57496789 -442.4375 168.875 C-397.82850797 204.54778038 -316.81974878 220.07929161 -260.83154297 214.6953125 C-244.60517602 212.57471379 -230.795376 207.42733596 -218 197 C-217.24332031 196.40703125 -216.48664063 195.8140625 -215.70703125 195.203125 C-204.53176529 185.94644453 -193.61944739 171.85834218 -189 158 C-193.6925198 161.05386209 -198.2821531 164.19860645 -202.77441406 167.54199219 C-214.63002469 176.27099582 -226.94189077 182.58806927 -240.875 187.375 C-241.79394043 187.69678223 -242.71288086 188.01856445 -243.65966797 188.35009766 C-260.36295739 193.79500721 -277.32379733 194.51623113 -294.75 194.375 C-296.2683696 194.36851944 -296.2683696 194.36851944 -297.81741333 194.36190796 C-312.40657578 194.28888077 -326.65119818 193.83707902 -341 191 C-341.89412598 190.83902832 -342.78825195 190.67805664 -343.70947266 190.51220703 C-365.69251485 186.53577837 -387.46244003 179.95420497 -407 169 C-408.14726562 168.38769531 -409.29453125 167.77539062 -410.4765625 167.14453125 C-421.75733622 160.96938988 -432.19731935 153.5114713 -442.35546875 145.64453125 C-452.58899624 137.78195532 -463.18824619 131.26348458 -474.57373047 125.23706055 C-495.26521703 114.20434892 -495.26521703 114.20434892 -498 106 C-498.203125 103.9140625 -498.203125 103.9140625 -498.25 101.625 C-498.28867187 100.49964844 -498.28867187 100.49964844 -498.328125 99.3515625 C-497.78132541 95.43283212 -496.08175289 92.86497726 -493.01171875 90.41015625 C-483.54574678 84.92148343 -473.86681797 80.60509604 -463.25 77.9375 C-454.043572 75.60965707 -447.13118431 72.3779835 -440.16015625 65.93359375 C-436.24787075 62.43163837 -431.99754563 59.37644273 -427.75732422 56.28613281 C-426.55136395 55.40352671 -425.35008626 54.51449743 -424.15283203 53.62011719 C-397.16589508 33.480612 -364.7742131 17.11193738 -330.4609375 16.76171875 C-329.66572189 16.75197021 -328.87050629 16.74222168 -328.05119324 16.73217773 C-311.02028853 16.56626031 -294.57100041 16.55366618 -278 21 C-277.01507568 21.2489502 -277.01507568 21.2489502 -276.01025391 21.50292969 C-263.96323785 24.61003653 -252.46573252 29.66916355 -240.93359375 34.26171875 C-232.34851689 37.67232597 -223.6887238 40.86478316 -215 44 C-215.65592009 34.82598258 -218.28433386 27.04595765 -225.25 20.625 C-235.44746268 12.87670958 -248.33527152 8.85862566 -261 8 C-258.125 2.125 -258.125 2.125 -257 1 C-244.37027986 -0.09823653 -229.69271938 6.01017898 -220.11328125 13.9609375 C-216.32519222 17.61598828 -212.93378264 21.6273049 -210 26 C-210 26.66 -210 27.32 -210 28 C-208.68 28.33 -207.36 28.66 -206 29 C-206 29.66 -206 30.32 -206 31 C-205.34 31 -204.68 31 -204 31 C-203.67 31.99 -203.34 32.98 -203 34 C-203.66 34.66 -204.32 35.32 -205 36 C-205.3959605 41.04849636 -204.86697261 45.28811674 -203 50 C-197.96949479 55.51732829 -189.2662765 58.80211746 -182 60 C-181.90589844 58.84242187 -181.81179688 57.68484375 -181.71484375 56.4921875 C-180.35866361 45.80727432 -173.64577858 35.2952802 -165.8203125 28.17578125 C-139.01090849 7.4931801 -104.2464148 7.48326203 -71.95806885 7.6774292 C-68.92298381 7.69089091 -65.88804405 7.68557345 -62.85294247 7.68060112 C-22.01855381 7.62883012 -22.01855381 7.62883012 -8.5625 14 C-7.69488037 14.38937744 -6.82726074 14.77875488 -5.93334961 15.17993164 C0.95037328 18.33588466 7.60333521 21.90511423 14.14038086 25.72460938 C18.01885371 27.9849598 21.64867348 29.75384546 26 31 C17.64183853 19.39663059 7.45328412 13.4218346 -5 7 C-4.67 6.01 -4.34 5.02 -4 4 C-1.9375 3.3125 -1.9375 3.3125 0 3 C0 2.01 0 1.02 0 0 Z M-118.875 18.3125 C-119.65834717 18.44366211 -120.44169434 18.57482422 -121.2487793 18.70996094 C-138.52335898 21.75059882 -155.1819413 28.0243926 -166.58203125 41.9296875 C-171.55738873 49.17477 -174.93507483 58.71900131 -174.59375 67.55078125 C-173.62064043 71.56485823 -171.35229893 74.46930639 -168.82421875 77.67578125 C-161.03032844 87.60589845 -159.43347277 98.22578572 -159.67919922 110.52539062 C-159.64599567 116.27067551 -158.76665337 119.37586591 -154.68066406 123.49145508 C-132.41277339 143.47886015 -104.62128306 151.30024373 -76 158 C-75.15066895 158.20681396 -74.30133789 158.41362793 -73.42626953 158.62670898 C-39.54115873 166.27040148 10.28592784 159.05134534 39.55859375 140.7265625 C44.07145268 137.53506867 48.06059292 133.86620864 52 130 C52.9590625 129.07767578 52.9590625 129.07767578 53.9375 128.13671875 C64.19569954 117.44346164 67.67650606 104.53140713 67.3984375 90.10546875 C66.62626828 75.15222022 54.52206816 65.03421857 44.10620117 55.62207031 C39.0182305 51.22195812 33.37953001 47.59460239 27.75 43.9375 C26.55058734 43.14926314 25.35145237 42.36060357 24.15258789 41.5715332 C-4.08419821 23.04922122 -25.30626452 15.61608926 -59.15917969 15.79418945 C-62.72858914 15.81239082 -66.29773649 15.81469875 -69.8671875 15.81445312 C-94.46112873 15.69354762 -94.46112873 15.69354762 -118.875 18.3125 Z M-353 28 C-353.90862793 28.26345215 -354.81725586 28.5269043 -355.75341797 28.79833984 C-368.78309646 32.68010261 -381.16393214 37.29194875 -393 44 C-393.62664551 44.35175293 -394.25329102 44.70350586 -394.89892578 45.06591797 C-407.08018164 51.96769905 -418.31726836 60.0442609 -429.3125 68.6875 C-429.90442139 69.15091797 -430.49634277 69.61433594 -431.10620117 70.09179688 C-433.57015812 72.03214996 -435.97895161 73.98115229 -438.31640625 76.07421875 C-444.40394536 81.39937156 -451.20496946 83.21947298 -458.81787109 85.36865234 C-475.08263982 89.91665698 -475.08263982 89.91665698 -489 99 C-489.84219053 101.61382909 -489.84219053 101.61382909 -490 104 C-482.43236644 111.74188828 -472.82973865 116.29623998 -463.42578125 121.39599609 C-453.9271489 126.57691071 -444.82553818 131.61578536 -436.73828125 138.8527832 C-415.14200557 158.16137648 -388.08625261 171.40085893 -360 178 C-359.09652832 178.21253418 -358.19305664 178.42506836 -357.26220703 178.64404297 C-310.37230232 189.45135208 -258.31854391 192.32015628 -215.81933594 166.16015625 C-210.97093546 163.06842261 -206.45701267 159.62644076 -202 156 C-201.46729492 155.56880859 -200.93458984 155.13761719 -200.38574219 154.69335938 C-193.00698193 148.67848658 -186.07181152 142.26433438 -179.3125 135.5625 C-178.62897461 134.88823975 -177.94544922 134.21397949 -177.24121094 133.51928711 C-168.70915644 124.9324849 -167.70202247 118.44546518 -167.68310547 106.71166992 C-167.86049742 94.58441131 -172.27015402 85.33298766 -180.375 76.375 C-181.24125 75.59125 -182.1075 74.8075 -183 74 C-183.51199951 73.49645996 -184.02399902 72.99291992 -184.55151367 72.47412109 C-190.3491426 67.00839053 -196.80389205 63.69800869 -203.9375 60.25 C-205.17629021 59.64230089 -206.414894 59.03422162 -207.65332031 58.42578125 C-223.56965681 50.65134303 -239.72595929 43.31388837 -256.40234375 37.31640625 C-259.23942194 36.27830055 -262.00307565 35.16616512 -264.7890625 34.00390625 C-269.91111483 31.94316568 -275.05986351 30.58866109 -280.4375 29.375 C-281.30181641 29.17132813 -282.16613281 28.96765625 -283.05664062 28.7578125 C-285.6991788 28.14482223 -288.34757636 27.56855101 -291 27 C-292.25006836 26.71201538 -292.25006836 26.71201538 -293.52539062 26.41821289 C-301.85597191 24.66230312 -310.15400668 24.64220428 -318.625 24.6875 C-319.76216461 24.69172974 -319.76216461 24.69172974 -320.92230225 24.69604492 C-331.86381924 24.75729176 -342.42248055 24.91341417 -353 28 Z " fill="#0B0B0B" transform="translate(648,66)"/>
<path d="M0 0 C0.87398438 0.2784375 1.74796875 0.556875 2.6484375 0.84375 C9.04835925 3.12802976 13.92152756 6.52904575 19 11 C19.92619141 11.80244141 19.92619141 11.80244141 20.87109375 12.62109375 C31.11651828 22.13633212 37.30750275 35.23965807 38.203125 49.15625 C38.46019122 67.49364007 33.51719518 82.22065568 20.66015625 95.5625 C11.70792893 103.76542195 -0.70679092 110.32946132 -13 111 C-13.86753906 111.05027344 -14.73507812 111.10054688 -15.62890625 111.15234375 C-31.64913623 111.67451552 -45.4550148 106.42413754 -57.375 95.75 C-68.0419218 85.70394996 -74.3569538 72.71040889 -75.23828125 58.03125 C-75.64153095 41.58338488 -71.69982096 26.32390178 -60.16015625 13.97265625 C-43.26189424 -1.45884884 -22.0167585 -7.19420841 0 0 Z " fill="#020404" transform="translate(417,118)"/>
<path d="M0 0 C9.58525866 7.77831741 16.26240046 17.89286963 19 30 C19.28902824 33.06838823 19.33389537 36.10687702 19.3125 39.1875 C19.30512817 40.44324829 19.30512817 40.44324829 19.29760742 41.72436523 C18.9976604 57.6861613 13.4020532 69.89701705 2 81 C-10.43213452 92.37031521 -23.2107391 94.93104641 -39.49560547 94.20898438 C-51.98543704 93.16674458 -63.19210399 85.7555001 -71.2265625 76.41015625 C-72.9702123 74.00243557 -74.51793109 71.57546846 -76 69 C-76.39574219 68.35675781 -76.79148437 67.71351563 -77.19921875 67.05078125 C-83.50704769 55.86552323 -84.57240505 42.22360374 -81.8125 29.875 C-78.80033894 19.21444842 -73.80387667 11.81744863 -66 4 C-65.43410156 3.4225 -64.86820313 2.845 -64.28515625 2.25 C-46.55395581 -14.39738623 -19.29440678 -13.63864174 0 0 Z " fill="#030505" transform="translate(671,116)"/>
<path d="M0 0 C2.80433949 0.00920818 5.60784729 0.00218987 8.41210938 -0.02050781 C63.8514648 -0.46629737 63.8514648 -0.46629737 79.64086914 13.44604492 C81.32134204 16.80699071 81.54131252 19.86303064 80.64086914 23.44604492 C78.1973651 26.70201406 75.18499147 29.26014192 72.14086914 31.94604492 C59.33776995 43.97210263 51.88730749 57.85877135 51.24243164 75.75854492 C51.22962621 77.9876885 51.23830132 80.21703503 51.26586914 82.44604492 C51.27529541 83.65808594 51.28472168 84.87012695 51.29443359 86.11889648 C51.724847 112.67077398 56.12433848 139.32719194 61.14477539 165.37963867 C61.38470215 166.64356445 61.62462891 167.90749023 61.87182617 169.2097168 C62.3287116 171.58539475 62.80130129 173.95812969 63.29272461 176.3269043 C65.36982921 187.08698716 63.46720868 195.17233578 57.64086914 204.44604492 C42.26766523 224.83023281 16.94199773 232.84356164 -7.04663086 238.19604492 C-7.98466553 238.40704834 -8.9227002 238.61805176 -9.88916016 238.83544922 C-22.21947366 241.46096027 -34.54800997 241.6575246 -47.10302734 241.6862793 C-49.65682521 241.69598863 -52.20981726 241.72711889 -54.76342773 241.75854492 C-65.0521709 241.82451636 -74.35558341 240.89946513 -84.35913086 238.44604492 C-85.7793377 238.13706579 -87.19983397 237.82940776 -88.62084961 237.52416992 C-121.67110729 229.53482599 -151.5936618 213.61953207 -180.52368164 196.1550293 C-183.43023048 194.4031917 -186.34540152 192.66634898 -189.26147461 190.93041992 C-223.60516187 170.39093826 -223.60516187 170.39093826 -230.35913086 159.44604492 C-231.81640867 157.1536978 -233.27456028 154.86193078 -234.73413086 152.57104492 C-235.11375977 151.97243652 -235.49338867 151.37382812 -235.88452148 150.75708008 C-245.88022181 135.14196954 -256.99312722 126.91587897 -274.67163086 121.44604492 C-281.06012287 119.36338 -285.05025681 116.91341628 -288.73413086 111.13354492 C-291.93353149 103.97556385 -291.76298436 94.68939078 -289.32397461 87.31713867 C-274.50919138 58.30657431 -239.1016477 46.80067875 -210.35913086 37.44604492 C-203.05777671 35.19330613 -195.69866665 33.17115045 -188.31030273 31.2253418 C-185.47308011 30.47613476 -182.6423838 29.70593541 -179.81225586 28.93041992 C-164.77370654 24.85497573 -149.57354471 21.5509629 -134.34106445 18.29858398 C-130.55971488 17.49064545 -126.78147974 16.66878926 -123.00366211 15.84448242 C-81.30011191 6.76973927 -81.30011191 6.76973927 -60.25 4.18383789 C-56.40944901 3.70895808 -52.5753247 3.20206304 -48.7421875 2.67089844 C-32.47731404 0.50698654 -16.37740929 -0.05636683 0 0 Z M-89.82006836 17.52416992 C-93.88151623 18.36329801 -97.95574574 19.07534211 -102.04663086 19.75854492 C-124.68418737 23.63601751 -147.07937742 28.94480192 -169.30981445 34.67016602 C-172.07796415 35.37450386 -174.85030669 36.0528443 -177.62866211 36.71557617 C-236.07639969 50.25727417 -236.07639969 50.25727417 -280.29663086 87.82104492 C-283.53477673 93.99908638 -282.81232131 99.63626415 -281.73413086 106.32104492 C-279.82254587 110.66555626 -276.84898744 112.43492259 -272.46899414 114.21362305 C-270.40040972 114.92934008 -268.32101321 115.59818983 -266.23413086 116.25854492 C-245.6868841 123.1837856 -235.74014861 135.79781639 -224.45288086 153.42260742 C-200.35744641 190.13404764 -124.22477549 222.38719666 -82.70458984 231.02026367 C-70.90174483 233.16288485 -59.38442609 233.85713644 -47.42163086 233.82104492 C-46.61176727 233.81917175 -45.80190369 233.81729858 -44.96749878 233.81536865 C-15.81070191 233.67002678 22.67900675 228.22234506 44.92993164 207.33276367 C47.96728206 203.9833567 50.33939107 200.32485999 52.64086914 196.44604492 C53.25961914 195.49729492 53.87836914 194.54854492 54.51586914 193.57104492 C57.93595783 184.07079857 54.70580253 173.1597786 52.82015991 163.57507324 C51.98758201 159.33587488 51.19035983 155.09002368 50.39086914 150.84448242 C50.23458542 150.01803223 50.0783017 149.19158203 49.9172821 148.34008789 C48.31157125 139.79835722 46.98464798 131.23651918 45.91723633 122.61108398 C45.64729612 120.49639337 45.33908527 118.39031139 45.02368164 116.28198242 C43.63612008 106.42190329 43.43140269 96.57826764 43.39086914 86.63354492 C43.37697144 84.68472412 43.37697144 84.68472412 43.36279297 82.6965332 C43.42644314 63.1047621 47.2295153 46.24620975 60.64086914 31.44604492 C63.53731117 28.72832556 66.5487071 26.18245111 69.64868164 23.69995117 C71.85174777 21.62233492 71.85174777 21.62233492 72.00805664 18.91088867 C69.71357879 14.77427288 66.02761036 13.78936428 61.64086914 12.44604492 C57.31223451 11.49514634 52.9686664 10.85277705 48.57836914 10.25854492 C47.44592773 10.09418945 46.31348633 9.92983398 45.14672852 9.76049805 C41.98005081 9.30495385 38.8124741 8.86586313 35.64086914 8.44604492 C34.38540283 8.26807373 33.12993652 8.09010254 31.83642578 7.90673828 C27.34202722 7.35209846 22.88412015 7.26716001 18.35961914 7.24291992 C17.48099213 7.23595093 16.60236511 7.22898193 15.69711304 7.22180176 C12.84498297 7.20438991 9.99305031 7.19807134 7.14086914 7.19604492 C6.16200745 7.19503784 5.18314575 7.19403076 4.17462158 7.19299316 C-27.58282014 7.21500334 -58.73226187 11.06575437 -89.82006836 17.52416992 Z " fill="#0B0B0B" transform="translate(572.359130859375,330.553955078125)"/>
<path d="M0 0 C1.12180664 -0.02239746 2.24361328 -0.04479492 3.39941406 -0.06787109 C16.48249866 -0.03086922 28.38865568 4.33151275 39.25 11.5 C41.125 13.4375 41.125 13.4375 41.125 17.4375 C40.37404053 17.69442627 39.62308105 17.95135254 38.84936523 18.21606445 C35.41945788 19.3912845 31.9909739 20.57060498 28.5625 21.75 C26.79036133 22.35618164 26.79036133 22.35618164 24.98242188 22.97460938 C19.26678978 24.94386077 13.63171514 26.93885833 8.125 29.4375 C21.17890388 29.9083823 33.43870228 27.23817432 46.125 24.4375 C49.45112173 23.72616128 52.78209695 23.06490345 56.125 22.4375 C57.03330566 22.26581299 57.94161133 22.09412598 58.87744141 21.91723633 C67.05871686 20.50896243 75.06325842 20.12640163 83.33813477 20.17675781 C85.45292217 20.18757891 87.56687707 20.17673889 89.68164062 20.1640625 C98.23319981 20.15453451 105.81977823 20.44929724 113.5625 24.4375 C114.22121094 24.7675 114.87992188 25.0975 115.55859375 25.4375 C117.125 26.4375 117.125 26.4375 118.125 28.4375 C112.98434492 30.09296519 107.93109464 30.97264825 102.58789062 31.72900391 C72.59078738 36.00974554 45.36363299 48.62652847 18.125 61.4375 C16.29832149 62.28937221 14.47150266 63.14094364 12.64453125 63.9921875 C10.95017203 64.78571399 9.25614312 65.57994627 7.5625 66.375 C6.42965576 66.90492554 6.42965576 66.90492554 5.27392578 67.44555664 C1.87434794 69.05513222 -1.38313028 70.72315955 -4.58984375 72.69140625 C-9.44682078 75.27293863 -9.44682078 75.27293863 -12.875 74.4375 C-14.98046875 72.27734375 -14.98046875 72.27734375 -17.0625 69.375 C-26.68347116 57.07277459 -40.10256754 51.56356784 -55.25 49.1875 C-61.98357448 47.90491438 -65.04312622 45.01608935 -69.53125 39.99609375 C-76.01260257 32.9206172 -84.49027121 28.96673996 -93.06640625 25.015625 C-95.875 23.4375 -95.875 23.4375 -96.875 20.4375 C-65.52739098 7.61535942 -33.94508421 0.41329979 0 0 Z " fill="#FBFBFB" transform="translate(450.875,18.5625)"/>
<path d="M0 0 C1.02351562 0.51304688 2.04703125 1.02609375 3.1015625 1.5546875 C11.29778038 5.73182333 18.78409456 11.28953108 24 19 C24 19.66 24 20.32 24 21 C17.70551829 20.60333283 13.02208375 17.44057736 7.6875 14.375 C0.96241096 10.63198408 -5.7437038 6.9325585 -12.8125 3.875 C-13.99457031 3.35679688 -15.17664063 2.83859375 -16.39453125 2.3046875 C-32.37599023 -2.86726351 -50.52020705 -1.34300561 -67.12670898 -1.31567383 C-70.15843567 -1.31104871 -73.18976062 -1.31795055 -76.22143555 -1.33618164 C-108.44778596 -1.52822567 -144.60361395 -1.2039898 -170.1875 21.4375 C-177.47160799 29.11209626 -181.74832261 39.81059121 -184 50 C-192.40575115 49.68280184 -199.58909801 46.32969003 -205.625 40.4375 C-207.1124502 37.80065647 -207.71340002 36.00929976 -208 33 C-208.165 31.845 -208.33 30.69 -208.5 29.5 C-208 26 -208 26 -205.1328125 23.60546875 C-200.47150721 20.48891203 -195.45123094 18.16691076 -190.375 15.8125 C-188.30716188 14.84142216 -186.23945623 13.87006218 -184.171875 12.8984375 C-183.13482422 12.41342773 -182.09777344 11.92841797 -181.02929688 11.42871094 C-178.24165076 10.11397004 -175.46979723 8.77226609 -172.703125 7.4140625 C-159.40474432 0.90759146 -145.83817249 -4.74248644 -132 -10 C-131.27619141 -10.27714844 -130.55238281 -10.55429688 -129.80664062 -10.83984375 C-125.59186548 -12.42951429 -121.33448082 -13.78345082 -117 -15 C-116.2270459 -15.22558594 -115.4540918 -15.45117188 -114.65771484 -15.68359375 C-76.04233999 -26.61735208 -34.78858768 -19.02625276 0 0 Z " fill="#F9F8F8" transform="translate(650,76)"/>
<path d="M0 0 C4.33131356 1.36778323 8.57861101 2.79871751 12.76171875 4.5703125 C13.41906006 4.84601074 14.07640137 5.12170898 14.75366211 5.40576172 C16.06777654 5.96149214 17.37740117 6.52798161 18.68188477 7.10595703 C23.58306725 9.16805947 26.35677011 8.99684411 31.24829102 7.15209961 C32.36482056 6.65722046 32.36482056 6.65722046 33.50390625 6.15234375 C34.32697266 5.79462891 35.15003906 5.43691406 35.99804688 5.06835938 C37.7123957 4.31237463 39.42593487 3.55455125 41.13867188 2.79492188 C41.96044922 2.43849609 42.78222656 2.08207031 43.62890625 1.71484375 C44.37213135 1.38605225 45.11535645 1.05726074 45.88110352 0.71850586 C48 0 48 0 52 0 C54.56771603 3.30134918 55 4.72874492 55 9 C51.21179916 11.00661684 47.41888948 13.0041624 43.625 15 C42.54476562 15.57234375 41.46453125 16.1446875 40.3515625 16.734375 C39.3203125 17.27578125 38.2890625 17.8171875 37.2265625 18.375 C36.27346191 18.87773437 35.32036133 19.38046875 34.33837891 19.8984375 C32 21 32 21 30 21 C32.40114654 23.67913745 34.94693268 25.22002739 38.10546875 26.91796875 C39.08837891 27.44970703 40.07128906 27.98144531 41.08398438 28.52929688 C42.10814453 29.07650391 43.13230469 29.62371094 44.1875 30.1875 C45.22326172 30.74630859 46.25902344 31.30511719 47.32617188 31.88085938 C49.8815998 33.25867075 52.43957558 34.63150276 55 36 C54.23596585 39.47153381 52.91813089 41.99770818 51 45 C44.36462419 43.1943557 38.19806228 40.88254872 31.95703125 37.98828125 C24.4535673 35.48051853 19.06408065 37.88258443 12.25 41 C10.56980503 41.75468545 8.8875911 42.50489651 7.203125 43.25 C6.46739258 43.58515625 5.73166016 43.9203125 4.97363281 44.265625 C3 45 3 45 0 45 C-3 39.375 -3 39.375 -3 36 C-2.27820557 35.61666504 -1.55641113 35.23333008 -0.81274414 34.83837891 C2.44049024 33.10643363 5.68902095 31.36584688 8.9375 29.625 C10.07380859 29.02171875 11.21011719 28.4184375 12.38085938 27.796875 C13.46044922 27.21679688 14.54003906 26.63671875 15.65234375 26.0390625 C16.65257568 25.50490723 17.65280762 24.97075195 18.68334961 24.42041016 C21.11516809 23.21029079 21.11516809 23.21029079 22 21 C21.27530518 20.88664307 20.55061035 20.77328613 19.80395508 20.65649414 C16.87516673 19.9707726 14.75320276 18.96470091 12.13671875 17.49609375 C11.25048828 17.00302734 10.36425781 16.50996094 9.45117188 16.00195312 C8.53916016 15.48568359 7.62714844 14.96941406 6.6875 14.4375 C5.29047852 13.65729492 5.29047852 13.65729492 3.86523438 12.86132812 C1.57336205 11.58023026 -0.71481613 10.29297895 -3 9 C-2.38550003 5.66177043 -1.65439171 2.97790508 0 0 Z " fill="#4BDCD0" transform="translate(613,137)"/>
<path d="M0 0 C6.58713324 0.60750899 11.81212258 2.88742461 17.77148438 5.6484375 C23.92205812 8.35003965 27.26477774 8.0386173 33.62109375 5.625 C35.53531781 4.82067104 37.44100383 3.9984794 39.34570312 3.171875 C43.6432346 1.36982686 47.41068188 0.47373606 52 0 C55.03423663 4.36930075 55.03423663 4.36930075 54.89233398 6.98339844 C53.616332 9.86705818 51.91970086 10.54445831 49.16015625 12.015625 C48.17982422 12.54414063 47.19949219 13.07265625 46.18945312 13.6171875 C45.15755859 14.15601563 44.12566406 14.69484375 43.0625 15.25 C42.03447266 15.80429688 41.00644531 16.35859375 39.94726562 16.9296875 C32.31292334 21 32.31292334 21 30 21 C30 21.66 30 22.32 30 23 C30.72018311 23.27634277 31.44036621 23.55268555 32.18237305 23.83740234 C34.90911489 24.96249936 37.47406993 26.22558291 40.08203125 27.6015625 C41.01337891 28.09140625 41.94472656 28.58125 42.90429688 29.0859375 C43.86400391 29.59382813 44.82371094 30.10171875 45.8125 30.625 C46.79154297 31.140625 47.77058594 31.65625 48.77929688 32.1875 C51.18736525 33.4561409 53.594213 34.72703966 56 36 C55.23596585 39.47153381 53.91813089 41.99770818 52 45 C47.68668677 43.63790108 43.46187863 42.22380441 39.30859375 40.4296875 C38.66027588 40.15398926 38.01195801 39.87829102 37.34399414 39.59423828 C36.05458888 39.04138479 34.77084422 38.47509148 33.49389648 37.89404297 C28.15770424 35.6251553 24.32795858 35.77391 18.921875 37.765625 C15.93504848 38.99455183 12.99459443 40.31608256 10.05273438 41.6484375 C8.96895508 42.12023437 8.96895508 42.12023437 7.86328125 42.6015625 C7.21657471 42.89369629 6.56986816 43.18583008 5.90356445 43.48681641 C3.53975706 44.12407729 2.26625481 43.890895 0 43 C-1.8125 40.625 -1.8125 40.625 -3 38 C-1.71310101 34.13930304 -0.49621319 33.9128916 3.05859375 32.08203125 C4.08404297 31.55029297 5.10949219 31.01855469 6.16601562 30.47070312 C7.24560547 29.92349609 8.32519531 29.37628906 9.4375 28.8125 C10.51322266 28.25369141 11.58894531 27.69488281 12.69726562 27.11914062 C20.70922047 23 20.70922047 23 23 23 C23 22.34 23 21.68 23 21 C22.21238281 20.77183594 21.42476563 20.54367188 20.61328125 20.30859375 C15.91792808 18.6081145 11.60426474 16.37954615 7.1875 14.0625 C6.31673828 13.61970703 5.44597656 13.17691406 4.54882812 12.72070312 C3.30842773 12.07198242 3.30842773 12.07198242 2.04296875 11.41015625 C1.29039795 11.01965088 0.53782715 10.62914551 -0.23754883 10.22680664 C-2 9 -2 9 -3 6 C-1.5625 2.8125 -1.5625 2.8125 0 0 Z " fill="#4EDED3" transform="translate(370,151)"/>
<path d="M0 0 C3.06771857 0.31535465 4.86800698 1.16336848 7.54223633 2.68164062 C8.4284668 3.17792969 9.31469727 3.67421875 10.2277832 4.18554688 C11.13979492 4.71019531 12.05180664 5.23484375 12.99145508 5.77539062 C13.92280273 6.30003906 14.85415039 6.8246875 15.8137207 7.36523438 C18.10766251 8.65925283 20.39559638 9.96281639 22.67895508 11.27539062 C21.91492093 14.74692444 20.59708596 17.2730988 18.67895508 20.27539062 C12.04357927 18.46974632 5.87701736 16.15793934 -0.36401367 13.26367188 C-7.86747763 10.75590915 -13.25696427 13.15797506 -20.07104492 16.27539062 C-21.75123989 17.03007607 -23.43345382 17.78028714 -25.11791992 18.52539062 C-25.85365234 18.86054688 -26.58938477 19.19570312 -27.34741211 19.54101562 C-29.32104492 20.27539062 -29.32104492 20.27539062 -32.32104492 20.27539062 C-32.65104492 18.95539063 -32.98104492 17.63539063 -33.32104492 16.27539062 C-27.87604492 15.78039062 -27.87604492 15.78039062 -22.32104492 15.27539062 C-22.32104492 14.61539063 -22.32104492 13.95539063 -22.32104492 13.27539062 C-18.69104492 12.28539062 -15.06104492 11.29539063 -11.32104492 10.27539062 C-11.65104492 8.95539063 -11.98104492 7.63539063 -12.32104492 6.27539062 C-11.76674805 6.00984375 -11.21245117 5.74429688 -10.64135742 5.47070312 C-9.9169043 5.1175 -9.19245117 4.76429688 -8.44604492 4.40039062 C-7.72674805 4.05234375 -7.00745117 3.70429688 -6.26635742 3.34570312 C-0.2364765 0.0280578 -0.2364765 0.0280578 0 0 Z " fill="#4FD9D0" transform="translate(645.321044921875,161.724609375)"/>
<path d="M0 0 C6.58713324 0.60750899 11.81212258 2.88742461 17.77148438 5.6484375 C22.30027349 7.6376806 25.06429267 8.39716324 30 7 C30.77085937 6.82339844 31.54171875 6.64679688 32.3359375 6.46484375 C33.34527344 6.20380859 33.34527344 6.20380859 34.375 5.9375 C35.57125 5.628125 36.7675 5.31875 38 5 C36.24340095 8.51319809 32.61183285 9.79398352 29 11 C25.44433059 11.11169642 22.21578531 10.60789266 19 9 C17.00039988 8.960008 14.99952758 8.95653201 13 9 C13.66 9.66 14.32 10.32 15 11 C14.01 12.485 14.01 12.485 13 14 C13.66 14.33 14.32 14.66 15 15 C15 15.66 15 16.32 15 17 C10.46152802 15.65072455 6.68067754 13.80840652 2.625 11.375 C1.56539063 10.74335938 0.50578125 10.11171875 -0.5859375 9.4609375 C-1.78089844 8.73777344 -1.78089844 8.73777344 -3 8 C-1.125 2.25 -1.125 2.25 0 0 Z " fill="#4FD4CB" transform="translate(370,151)"/>
<path d="M0 0 C1.41805831 0.28482368 2.83440379 0.57818144 4.25 0.875 C5.03890625 1.03742188 5.8278125 1.19984375 6.640625 1.3671875 C8.96831144 1.99150075 10.89031952 2.84838542 13 4 C12.35455571 7.48539917 10.89865603 10.02819057 9 13 C5 11.66666667 1 10.33333333 -3 9 C-1.125 2.25 -1.125 2.25 0 0 Z " fill="#4DDED5" transform="translate(413,183)"/>
<path d="M0 0 C3.01998449 1.40796574 5.5740608 3.08361489 8.25 5.0625 C13.49111798 8.79718886 18.99796102 11.90538187 24.64160156 14.97875977 C29.80801718 17.80801718 29.80801718 17.80801718 32 20 C29.09399739 21.25664978 27.20395416 22 24 22 C14.92279462 16.37468963 7.17980652 8.8417745 0 1 C0 0.67 0 0.34 0 0 Z " fill="#111111" transform="translate(199,231)"/>
<path d="M0 0 C0.5534764 2.07553648 1 3.84365964 1 6 C-0.05058594 6.56847656 -1.10117188 7.13695313 -2.18359375 7.72265625 C-9.92717633 11.96411142 -17.28523193 16.19918648 -24 22 C-24.66 21.67 -25.32 21.34 -26 21 C-17.85146518 13.14994631 -9.34638511 6.37379221 0 0 Z " fill="#131313" transform="translate(156,71)"/>
<path d="M0 0 C0 2.62113708 -0.31292445 4.50935112 -1 7 C0.83700789 7.77242269 0.83700789 7.77242269 3 8 C3.4125 7.566875 3.825 7.13375 4.25 6.6875 C8.24440117 2.83575601 15.63712139 2.67035983 21 2 C17.53228781 4.93693991 13.67614162 6.57954335 9.5 8.25 C8.83613281 8.53101563 8.17226563 8.81203125 7.48828125 9.1015625 C4.78391003 10.1919477 2.58370331 11.04452795 -0.35546875 10.8203125 C-2.9874121 9.50746665 -3.81682209 7.61544591 -5 5 C-4 2 -4 2 -1.9375 0.8125 C-1.298125 0.544375 -0.65875 0.27625 0 0 Z " fill="#60C1BA" transform="translate(372,184)"/>
<path d="M0 0 C3.5625 0.125 3.5625 0.125 5.5625 1.125 C5.5625 1.785 5.5625 2.445 5.5625 3.125 C4.28117188 3.0425 2.99984375 2.96 1.6796875 2.875 C-3.96718516 2.875 -8.26287106 4.76744453 -13.3125 7.125 C-14.974512 7.87953305 -16.63849716 8.62973914 -18.3046875 9.375 C-19.02769043 9.71015625 -19.75069336 10.0453125 -20.49560547 10.390625 C-22.4375 11.125 -22.4375 11.125 -25.4375 11.125 C-25.7675 9.805 -26.0975 8.485 -26.4375 7.125 C-20.9925 6.63 -20.9925 6.63 -15.4375 6.125 C-15.4375 5.465 -15.4375 4.805 -15.4375 4.125 C-14.65503906 3.92003906 -13.87257813 3.71507812 -13.06640625 3.50390625 C-12.05449219 3.23449219 -11.04257812 2.96507812 -10 2.6875 C-8.99066406 2.42066406 -7.98132813 2.15382812 -6.94140625 1.87890625 C-0.79740571 0.02899657 -0.79740571 0.02899657 0 0 Z " fill="#55C8BD" transform="translate(638.4375,170.875)"/>
<path d="M0 0 C5.27749285 0.53851968 9.25645564 1.77343836 14 4 C9.99799622 5.60080151 6.95443764 4.29279692 3 3 C2.4465236 5.07553648 2 6.84365964 2 9 C3.32 9.33 4.64 9.66 6 10 C6 10.66 6 11.32 6 12 C2.59687262 10.94124926 -0.01353231 9.99097846 -3 8 C-1.125 2.25 -1.125 2.25 0 0 Z " fill="#61C9C2" transform="translate(370,151)"/>
<path d="M0 0 C2.03448779 0.41740567 4.05401678 0.90895178 6.0625 1.4375 C7.71958984 1.86869141 7.71958984 1.86869141 9.41015625 2.30859375 C10.26480469 2.53675781 11.11945313 2.76492187 12 3 C12 3.33 12 3.66 12 4 C9.69 4.33 7.38 4.66 5 5 C5 5.66 5 6.32 5 7 C3.1875 7.6875 3.1875 7.6875 1 8 C-0.8125 6.8125 -0.8125 6.8125 -2 5 C-1.74853421 2.86254078 -1.54074221 1.54074221 0 0 Z " fill="#50E0D5" transform="translate(373,153)"/>
<path d="M0 0 C0.87011719 0.34224609 0.87011719 0.34224609 1.7578125 0.69140625 C6.62516897 2.48252917 9.86331131 3.42078623 15 2 C16.45792345 1.64414983 17.9162742 1.29004669 19.375 0.9375 C20.57125 0.628125 21.7675 0.31875 23 0 C21.23988409 3.52023182 17.61192204 4.77721389 14 6 C8.87078202 6.26228956 3.8465335 4.51454172 -1 3 C-0.67 2.01 -0.34 1.02 0 0 Z " fill="#5CC9C3" transform="translate(385,156)"/>
<path d="M0 0 C3.465 1.485 3.465 1.485 7 3 C6.35455571 6.48539917 4.89865603 9.02819057 3 12 C1.56068883 11.54738642 0.12361001 11.08767021 -1.3125 10.625 C-2.51326172 10.24214844 -2.51326172 10.24214844 -3.73828125 9.8515625 C-6 9 -6 9 -9 7 C-5.04 7.33 -1.08 7.66 3 8 C3.33 6.35 3.66 4.7 4 3 C2.68 2.67 1.36 2.34 0 2 C0 1.34 0 0.68 0 0 Z " fill="#5EBFB6" transform="translate(419,184)"/>
<path d="M0 0 C1.34110539 2.20887947 2.06609767 3.45469419 1.75 6.0625 C1 8 1 8 -1 11 C-5.54536652 12.36360996 -8.28602573 12.14192406 -12.4375 10.0625 C-13.63483071 9.39226744 -14.82608476 8.7104474 -16 8 C-13.18185434 6.59092717 -11.82722796 7.49127309 -8.875 8.4375 C-7.96492187 8.72496094 -7.05484375 9.01242188 -6.1171875 9.30859375 C-5.41851563 9.53675781 -4.71984375 9.76492187 -4 10 C-2.68 7.36 -1.36 4.72 0 2 C-0.66 1.67 -1.32 1.34 -2 1 C-1.34 0.67 -0.68 0.34 0 0 Z " fill="#042120" transform="translate(668,171)"/>
<path d="M0 0 C-1.47692308 4.67692308 -1.47692308 4.67692308 -4.125 6.3125 C-4.74375 6.539375 -5.3625 6.76625 -6 7 C-6.33 6.34 -6.66 5.68 -7 5 C-7.33 6.32 -7.66 7.64 -8 9 C-8.33 7.35 -8.66 5.7 -9 4 C-2.25 0 -2.25 0 0 0 Z " fill="#56CCC1" transform="translate(619,169)"/>
<path d="M0 0 C0.99 0.33 1.98 0.66 3 1 C2.67 1.99 2.34 2.98 2 4 C0.35 4 -1.3 4 -3 4 C-3.33 4.99 -3.66 5.98 -4 7 C-6.31 7 -8.62 7 -11 7 C-7.52671426 4.22137141 -3.9587532 2.01536527 0 0 Z " fill="#53CBC0" transform="translate(630,162)"/>
<path d="M0 0 C0.66 0.33 1.32 0.66 2 1 C0.68774191 4.93677426 -1.1961394 5.8271782 -4.5625 8.1875 C-5.57441406 8.90292969 -6.58632812 9.61835937 -7.62890625 10.35546875 C-8.41136719 10.89816406 -9.19382813 11.44085938 -10 12 C-10.66 11.67 -11.32 11.34 -12 11 C-8.04 7.37 -4.08 3.74 0 0 Z " fill="#2E2E2E" transform="translate(142,81)"/>
<path d="M0 0 C3.34708051 1.54841575 6.24667512 3.49105864 9.25 5.625 C10.14203125 6.25664062 11.0340625 6.88828125 11.953125 7.5390625 C12.96632812 8.26222656 12.96632812 8.26222656 14 9 C13.01 9.495 13.01 9.495 12 10 C11.67 10.66 11.34 11.32 11 12 C9.16364422 10.19047409 7.33083792 8.37759362 5.5 6.5625 C4.97535156 6.04623047 4.45070312 5.52996094 3.91015625 4.99804688 C2.58775448 3.68423213 1.29164432 2.34406495 0 1 C0 0.67 0 0.34 0 0 Z " fill="#252625" transform="translate(199,231)"/>
<path d="M0 0 C-1.91040052 0.8680908 -3.82860737 1.71901783 -5.75 2.5625 C-6.81734375 3.03816406 -7.8846875 3.51382813 -8.984375 4.00390625 C-11.98369837 4.9946154 -13.13421241 5.16161779 -16 4 C-15 2 -15 2 -13.2578125 1.40234375 C-12.20207031 1.17224609 -12.20207031 1.17224609 -11.125 0.9375 C-2.89757959 -0.89924884 -2.89757959 -0.89924884 0 0 Z " fill="#5DD1C6" transform="translate(393,187)"/>
<path d="M0 0 C0.66 0.33 1.32 0.66 2 1 C1.34 3.64 0.68 6.28 0 9 C-2.02045442 8.39816251 -4.02111039 7.72693904 -6 7 C-6.33 6.34 -6.66 5.68 -7 5 C-5.68 5 -4.36 5 -3 5 C-2.67 4.01 -2.34 3.02 -2 2 C-1.34 2 -0.68 2 0 2 C0 1.34 0 0.68 0 0 Z " fill="#4DCCC4" transform="translate(634,149)"/>
<path d="M0 0 C-2.67360368 3.4599577 -5.84953067 4.06972239 -10 5 C-12.9375 5.125 -12.9375 5.125 -15 5 C-10.80265327 0.80265327 -5.80003952 -0.42439314 0 0 Z " fill="#55CCC4" transform="translate(655,142)"/>
<path d="M0 0 C-0.309375 0.598125 -0.61875 1.19625 -0.9375 1.8125 C-2.10209704 4.08956772 -2.10209704 4.08956772 -3 7 C-5.475 6.01 -5.475 6.01 -8 5 C-8 4.34 -8 3.68 -8 3 C-2.25 0 -2.25 0 0 0 Z " fill="#052623" transform="translate(651,155)"/>
<path d="M0 0 C0 0.66 0 1.32 0 2 C-6.625 5 -6.625 5 -10 5 C-10.33 3.68 -10.66 2.36 -11 1 C-9.54182203 0.83197949 -8.0834516 0.66562857 -6.625 0.5 C-5.81289063 0.4071875 -5.00078125 0.314375 -4.1640625 0.21875 C-2 0 -2 0 0 0 Z " fill="#5FCBC1" transform="translate(623,177)"/>
<path d="M0 0 C1.32 0.33 2.64 0.66 4 1 C4 1.66 4 2.32 4 3 C-2.435 5.97 -2.435 5.97 -9 9 C-9 8.34 -9 7.68 -9 7 C-6.03 5.35 -3.06 3.7 0 2 C0 1.34 0 0.68 0 0 Z " fill="#022825" transform="translate(389,171)"/>
<path d="M0 0 C0 0.66 0 1.32 0 2 C-0.66 2 -1.32 2 -2 2 C-2 2.66 -2 3.32 -2 4 C-8.96428571 7.34821429 -8.96428571 7.34821429 -13 6 C-11.21118264 4.99491199 -9.41885304 3.99607264 -7.625 3 C-6.62726563 2.443125 -5.62953125 1.88625 -4.6015625 1.3125 C-2 0 -2 0 0 0 Z " fill="#5BC8BF" transform="translate(387,177)"/>
<path d="M0 0 C4.46839215 -0.21278058 7.82262526 0.40861915 12 2 C12 2.99 12 3.98 12 5 C10.37276701 4.54965877 8.74826336 4.08944646 7.125 3.625 C5.76761719 3.24214844 5.76761719 3.24214844 4.3828125 2.8515625 C2 2 2 2 0 0 Z " fill="#383838" transform="translate(550,245)"/>
<path d="M0 0 C1.43931117 0.45261358 2.87638999 0.91232979 4.3125 1.375 C5.11300781 1.63023437 5.91351562 1.88546875 6.73828125 2.1484375 C9 3 9 3 12 5 C8.26988106 4.4978686 4.64243404 3.94433475 1 3 C0.34 3 -0.32 3 -1 3 C-0.67 2.01 -0.34 1.02 0 0 Z " fill="#57BDB6" transform="translate(613,137)"/>
<path d="M0 0 C1.98 0 3.96 0 6 0 C6 0.66 6 1.32 6 2 C5.34 2 4.68 2 4 2 C3.67 2.99 3.34 3.98 3 5 C1.68 4.34 0.36 3.68 -1 3 C-0.67 2.01 -0.34 1.02 0 0 Z " fill="#4EE2DD" transform="translate(660,174)"/>
<path d="M0 0 C1.258125 0.12375 2.51625 0.2475 3.8125 0.375 C4.87404297 0.47941406 4.87404297 0.47941406 5.95703125 0.5859375 C8 1 8 1 11 3 C8.83032311 3.95465783 7.43671207 4.14401212 5.17578125 3.3984375 C3.4315257 2.64129615 1.71372869 1.82390802 0 1 C0 0.67 0 0.34 0 0 Z " fill="#55BEB6" transform="translate(401,187)"/>
<path d="M0 0 C2.97 0.99 5.94 1.98 9 3 C9 3.33 9 3.66 9 4 C5.7 3.67 2.4 3.34 -1 3 C-0.67 2.01 -0.34 1.02 0 0 Z " fill="#60D2C8" transform="translate(385,156)"/>
<path d="M0 0 C0.33 0.99 0.66 1.98 1 3 C-2.3 3 -5.6 3 -9 3 C-4.5 -0.375 -4.5 -0.375 0 0 Z " fill="#58BEB5" transform="translate(422,151)"/>
<path d="M0 0 C2.64 0 5.28 0 8 0 C6.25 3.875 6.25 3.875 4 5 C4 3.68 4 2.36 4 1 C2.68 0.67 1.36 0.34 0 0 Z " fill="#CFCDD0" transform="translate(616,592)"/>
<path d="M0 0 C-6.75 4 -6.75 4 -9 4 C-9 3.01 -9 2.02 -9 1 C-5.57367167 -0.61798838 -3.61944899 -1.34053666 0 0 Z " fill="#5ACAC0" transform="translate(413,166)"/>
<path d="M0 0 C0 0.66 0 1.32 0 2 C-3.73487777 1.5020163 -5.81237635 1.12508244 -9 -1 C-5.23375329 -2.25541557 -3.62811066 -1.37061958 0 0 Z " fill="#092F2D" transform="translate(398,158)"/>
<path d="M0 0 C-3.96 1.98 -3.96 1.98 -8 4 C-7.67 2.68 -7.34 1.36 -7 0 C-3.98968256 -0.93423645 -3.13349732 -1.04449911 0 0 Z " fill="#5BCDC3" transform="translate(654,153)"/>
</svg>
