<?xml version="1.0" standalone="no"?>
<!DOCTYPE svg PUBLIC "-//W3C//DTD SVG 20010904//EN"
 "http://www.w3.org/TR/2001/REC-SVG-20010904/DTD/svg10.dtd">
<svg version="1.0" xmlns="http://www.w3.org/2000/svg"
 width="102.000000pt" height="102.000000pt" viewBox="0 0 102.000000 102.000000"
 preserveAspectRatio="xMidYMid meet">

<g transform="translate(0.000000,102.000000) scale(0.100000,-0.100000)"
fill="currentColor" stroke="none">
<path d="M247 846 c-109 -39 -161 -103 -183 -227 -34 -189 13 -363 124 -454
39 -32 144 -58 307 -76 124 -13 200 -7 259 20 82 37 80 35 86 179 5 118 7 133
28 154 30 33 29 73 -3 94 -31 20 -31 26 -2 39 12 6 21 16 19 23 -1 7 7 21 18
32 11 11 20 28 20 38 0 27 -71 114 -87 108 -8 -3 -12 -2 -9 3 7 10 -101 51
-135 51 -13 0 -41 7 -64 15 -37 14 -46 14 -114 -3 -72 -19 -75 -19 -133 -1
-70 22 -81 23 -131 5z m142 -22 c2 -2 -11 -4 -30 -4 -48 0 -103 -17 -131 -40
-22 -19 -21 -19 25 1 33 14 77 22 140 24 l92 4 -65 -12 c-73 -15 -116 -34
-145 -67 -15 -17 -7 -14 34 11 51 32 60 34 141 34 60 0 92 -4 104 -14 25 -21
14 -23 -27 -6 -56 23 -126 19 -178 -10 -24 -14 -63 -34 -86 -46 -24 -11 -43
-26 -43 -33 0 -16 123 -93 171 -106 57 -17 131 -12 166 10 37 22 44 13 12 -16
-30 -27 -144 -25 -218 4 -30 12 -57 19 -59 17 -10 -9 91 -47 153 -57 55 -9 68
-8 101 8 25 12 47 34 62 60 l22 41 41 -20 c51 -25 114 -32 164 -18 36 9 38 9
21 -4 -12 -9 -43 -15 -80 -15 -43 0 -57 -3 -46 -10 8 -5 34 -10 56 -10 26 0
51 -7 68 -21 35 -28 33 -40 -6 -28 -98 28 -347 -11 -470 -73 -54 -27 -53 -66
6 -145 50 -68 116 -113 211 -144 54 -18 72 -20 122 -11 65 11 80 8 37 -9 -57
-22 -130 -27 -239 -18 -144 12 -172 21 -242 73 -74 55 -86 69 -118 139 -34 74
-42 170 -25 332 13 126 13 126 47 152 46 36 116 52 167 41 22 -5 42 -11 45
-14z m241 7 c0 -5 -8 -12 -17 -14 -10 -3 11 -3 47 -1 l65 4 -40 -13 c-22 -8
-55 -21 -73 -31 -31 -16 -35 -16 -51 -2 -10 9 -24 16 -33 16 -8 0 -23 9 -32
19 -17 19 -17 20 6 24 44 8 128 7 128 -2z m160 -40 c17 -5 -1 -9 -58 -12 -78
-4 -86 -6 -109 -33 -16 -19 -28 -25 -34 -19 -13 13 8 30 68 53 50 20 91 23
133 11z m43 -38 c28 -15 29 -18 12 -21 -27 -5 -52 -29 -58 -54 -4 -14 3 -30
24 -51 l30 -30 -75 5 c-90 6 -118 22 -135 78 -13 46 -6 65 34 80 36 15 134 11
168 -7z m-332 -4 c46 -16 46 -16 16 -40 -43 -33 -35 -93 17 -114 l30 -13 -42
-11 c-61 -17 -141 0 -219 46 -34 21 -63 41 -63 44 0 8 131 85 155 92 36 9 71
7 106 -4z"/>
</g>
</svg>
