<?xml version="1.0" encoding="UTF-8"?>
<svg xmlns="http://www.w3.org/2000/svg" xmlns:xlink="http://www.w3.org/1999/xlink" width="64px" height="64px" viewBox="0 0 64 64" version="1.1">
<g id="surface1">
<path style=" stroke:none;fill-rule:nonzero;fill:rgb(71.764708%,18.431373%,37.254903%);fill-opacity:1;" d="M 26.351562 11.292969 C 28.292969 11.125 30.078125 10.847656 31.957031 10.335938 C 37.097656 9.160156 42.125 10.417969 47.058594 11.921875 C 47.625 12.089844 48.191406 12.257812 48.777344 12.429688 C 52.75 13.785156 55.589844 15.761719 57.726562 19.449219 C 58.078125 21.882812 58.078125 21.882812 57.726562 23.84375 C 57.3125 24.257812 56.898438 24.671875 56.46875 25.097656 C 56.160156 25.894531 56.160156 25.894531 55.84375 26.707031 C 55.214844 28.234375 55.214844 28.234375 53.960938 28.863281 C 54.582031 29.542969 54.582031 29.542969 55.214844 30.234375 C 56.46875 32 56.46875 32 56.785156 33.570312 C 56.46875 35.136719 56.46875 35.136719 55.21875 36.351562 C 53.308594 39.269531 53.585938 42.113281 53.570312 45.53125 C 53.550781 46.824219 53.53125 48.121094 53.503906 49.414062 C 53.5 49.984375 53.496094 50.558594 53.492188 51.144531 C 53.324219 52.804688 52.964844 53.8125 52.078125 55.214844 C 50.785156 56.125 50.785156 56.125 49.292969 56.902344 C 48.804688 57.164062 48.3125 57.425781 47.804688 57.695312 C 38.796875 62.011719 23.945312 59.078125 14.746094 56.414062 C 10.277344 54.785156 8.03125 51.726562 5.871094 47.597656 C 3.535156 42.375 3.023438 37.8125 3.019531 32.15625 C 3.011719 31.558594 3.003906 30.964844 2.996094 30.347656 C 2.984375 24.3125 3.585938 19.78125 7.523438 15.070312 C 12.933594 9.636719 19.253906 8.875 26.351562 11.292969 Z M 26.351562 11.292969 "/>
<path style=" stroke:none;fill-rule:nonzero;fill:rgb(12.941177%,81.568629%,73.333335%);fill-opacity:1;" d="M 19.488281 11.175781 C 20.15625 11.167969 20.824219 11.160156 21.511719 11.148438 C 23.214844 11.292969 23.214844 11.292969 24.46875 12.550781 C 23.933594 12.632812 23.398438 12.714844 22.84375 12.800781 C 22.152344 12.914062 21.460938 13.023438 20.746094 13.136719 C 20.054688 13.246094 19.363281 13.355469 18.648438 13.46875 C 17 13.628906 17 13.628906 16.3125 14.429688 C 17.089844 14.222656 17.867188 14.015625 18.667969 13.804688 C 22.273438 12.988281 25.8125 13.0625 29.488281 13.175781 C 29.488281 13.382812 29.488281 13.589844 29.488281 13.804688 C 28.910156 13.933594 28.328125 14.0625 27.726562 14.195312 C 26.976562 14.363281 26.226562 14.53125 25.449219 14.707031 C 24.703125 14.875 23.953125 15.039062 23.179688 15.214844 C 21.414062 15.5 21.414062 15.5 20.707031 16.3125 C 21.125 16.113281 21.546875 15.910156 21.976562 15.699219 C 24.253906 14.917969 26.183594 14.847656 28.589844 14.824219 C 29.8125 14.796875 29.8125 14.796875 31.0625 14.769531 C 33.546875 15.097656 34.253906 15.625 35.765625 17.570312 C 35.066406 17.363281 34.367188 17.15625 33.648438 16.941406 C 28.902344 15.785156 24.851562 15.683594 20.546875 18.148438 C 20.003906 18.484375 20.003906 18.484375 19.449219 18.824219 C 18.882812 19.132812 18.3125 19.445312 17.726562 19.765625 C 16.21875 20.769531 15.035156 21.890625 13.804688 23.214844 C 14.257812 23.382812 14.710938 23.550781 15.175781 23.722656 C 17.5 24.707031 19.523438 26.039062 21.648438 27.394531 C 25.027344 29.207031 28.875 29.210938 32.628906 28.863281 C 34.226562 28.375 35.527344 27.757812 37.019531 26.980469 C 36.421875 28.480469 36.03125 29.324219 34.640625 30.1875 C 30.085938 32.015625 25.109375 30.4375 20.707031 28.863281 C 25.304688 30.9375 29.546875 32.359375 34.589844 30.746094 C 37 29.066406 38.15625 27.027344 39.53125 24.46875 C 39.960938 24.652344 40.394531 24.832031 40.839844 25.019531 C 45.640625 26.914062 49.5625 27.734375 54.589844 26.351562 C 54.589844 26.765625 54.589844 27.179688 54.589844 27.609375 C 51.894531 28.023438 49.203125 28.4375 46.429688 28.863281 C 47.730469 28.941406 47.730469 28.941406 49.058594 29.019531 C 51.773438 29.316406 53.300781 29.960938 55.214844 32 C 55.214844 32.414062 55.214844 32.828125 55.214844 33.253906 C 54.449219 33.101562 54.449219 33.101562 53.664062 32.949219 C 51.140625 32.582031 48.703125 32.511719 46.15625 32.511719 C 45.472656 32.5 45.472656 32.5 44.777344 32.488281 C 41.765625 32.476562 39.285156 32.957031 36.390625 33.882812 C 35.425781 34.066406 34.460938 34.234375 33.488281 34.390625 C 29.460938 35.15625 25.742188 36.722656 21.960938 38.273438 C 21.597656 41.191406 21.789062 42.769531 23.53125 45.175781 C 27.46875 49.949219 32.105469 53.886719 38.273438 55.214844 C 39.132812 55.265625 39.992188 55.285156 40.851562 55.277344 C 41.5625 55.273438 41.5625 55.273438 42.285156 55.269531 C 42.773438 55.265625 43.261719 55.261719 43.765625 55.253906 C 44.511719 55.25 44.511719 55.25 45.273438 55.246094 C 46.496094 55.238281 47.71875 55.226562 48.941406 55.214844 C 48.3125 56.46875 48.3125 56.46875 46.980469 57.136719 C 41.105469 59.054688 35.015625 58.476562 28.980469 57.804688 C 28.523438 57.753906 28.066406 57.707031 27.59375 57.65625 C 21.398438 56.910156 16.136719 53.625 11.960938 48.980469 C 7.078125 41.730469 7.261719 34.140625 7.53125 25.726562 C 7.542969 25.25 7.558594 24.773438 7.574219 24.285156 C 7.898438 16.808594 7.898438 16.808594 9.917969 14.246094 C 12.953125 11.902344 15.679688 11.199219 19.488281 11.175781 Z M 19.488281 11.175781 "/>
<path style=" stroke:none;fill-rule:nonzero;fill:rgb(16.862746%,34.901962%,32.156864%);fill-opacity:1;" d="M 26.351562 11.292969 C 28.292969 11.125 30.078125 10.847656 31.957031 10.335938 C 39.253906 8.667969 46.726562 11.550781 53.332031 14.429688 C 53.332031 15.050781 53.332031 15.671875 53.332031 16.3125 C 54.183594 17.386719 54.183594 17.386719 55.253906 18.429688 C 57.09375 20.484375 57.09375 20.484375 57.136719 22.429688 C 56.441406 23.90625 55.878906 24.734375 54.589844 25.726562 C 50.695312 27.023438 46.050781 26.972656 42.273438 25.410156 C 41.78125 25.101562 41.289062 24.789062 40.785156 24.46875 C 40.164062 24.46875 39.542969 24.46875 38.902344 24.46875 C 38.121094 25.414062 37.34375 26.359375 36.582031 27.3125 C 35.03125 29.0625 33.503906 29.40625 31.234375 29.625 C 24.222656 29.894531 19.480469 27.085938 13.804688 23.214844 C 14.960938 20.550781 16.1875 20.039062 18.824219 18.824219 C 19.484375 18.382812 20.144531 17.945312 20.824219 17.488281 C 24.042969 15.34375 26.996094 15.441406 30.746094 15.6875 C 32.28125 15.996094 33.652344 16.425781 35.136719 16.941406 C 31.847656 14.75 27.671875 15.339844 23.84375 15.6875 C 21.957031 16.339844 20.539062 17.152344 18.824219 18.195312 C 18.410156 17.988281 17.996094 17.78125 17.570312 17.570312 C 18.320312 17.050781 19.082031 16.542969 19.84375 16.039062 C 20.476562 15.613281 20.476562 15.613281 21.121094 15.179688 C 22.855469 14.292969 24.429688 14.042969 26.351562 13.804688 C 19.972656 14.152344 19.972656 14.152344 13.804688 15.6875 C 16.355469 12.730469 19.472656 12.363281 23.214844 11.921875 C 18.582031 11.644531 14.457031 11.429688 10.667969 14.429688 C 9.203125 16.289062 9.203125 16.289062 8.15625 18.195312 C 7.136719 19.292969 7.136719 19.292969 6.273438 20.078125 C 5.859375 20.492188 5.445312 20.90625 5.019531 21.332031 C 5.253906 18.03125 6.371094 16 8.785156 13.804688 C 14.480469 9.675781 19.660156 9.011719 26.351562 11.292969 Z M 26.351562 11.292969 "/>
<path style=" stroke:none;fill-rule:nonzero;fill:rgb(9.803922%,50.588238%,45.09804%);fill-opacity:1;" d="M 53.332031 15.6875 C 55.730469 16.484375 56.382812 17.324219 57.726562 19.449219 C 57.960938 21.765625 57.960938 21.765625 57.726562 23.84375 C 57.3125 24.257812 56.898438 24.671875 56.46875 25.097656 C 56.261719 25.628906 56.054688 26.160156 55.84375 26.707031 C 55.214844 28.234375 55.214844 28.234375 53.960938 28.863281 C 54.582031 29.542969 54.582031 29.542969 55.214844 30.234375 C 56.46875 32 56.46875 32 56.785156 33.570312 C 56.46875 35.136719 56.46875 35.136719 55.21875 36.351562 C 53.308594 39.269531 53.585938 42.113281 53.570312 45.53125 C 53.550781 46.824219 53.53125 48.121094 53.503906 49.414062 C 53.5 49.984375 53.496094 50.558594 53.492188 51.144531 C 53.324219 52.804688 52.964844 53.8125 52.078125 55.214844 C 50.785156 56.125 50.785156 56.125 49.292969 56.902344 C 48.804688 57.164062 48.3125 57.425781 47.804688 57.695312 C 38.796875 62.011719 23.945312 59.078125 14.746094 56.414062 C 10.277344 54.785156 8.03125 51.726562 5.871094 47.597656 C 3.535156 42.375 3.023438 37.8125 3.019531 32.15625 C 3.011719 31.558594 3.003906 30.964844 2.996094 30.347656 C 2.988281 26.519531 3.425781 23.15625 4.390625 19.449219 C 4.804688 19.65625 5.21875 19.863281 5.648438 20.078125 C 6.046875 19.664062 6.449219 19.25 6.863281 18.824219 C 8.15625 17.570312 8.15625 17.570312 8.785156 17.570312 C 8.863281 22.230469 8.863281 22.230469 8.476562 23.984375 C 7.421875 29.746094 7.375 37.140625 9.410156 42.667969 C 9.597656 43.179688 9.78125 43.691406 9.972656 44.21875 C 11.90625 48.742188 14.863281 51.171875 18.824219 53.960938 C 19.464844 54.472656 19.464844 54.472656 20.113281 54.996094 C 25.488281 58.726562 36.113281 58.429688 42.363281 57.488281 C 44.742188 57 46.261719 56.582031 48.3125 55.214844 C 49.148438 54.796875 49.988281 54.378906 50.824219 53.960938 C 51.882812 52.902344 51.558594 51.558594 51.582031 50.109375 C 51.601562 49.449219 51.617188 48.789062 51.636719 48.109375 C 51.667969 46.714844 51.699219 45.320312 51.71875 43.925781 C 51.828125 40.300781 51.949219 37.582031 53.960938 34.511719 C 53.546875 34.304688 53.132812 34.09375 52.707031 33.882812 C 53.535156 33.675781 54.363281 33.46875 55.214844 33.253906 C 53.859375 31.550781 52.824219 30.273438 50.636719 29.8125 C 49.632812 29.730469 48.625 29.671875 47.617188 29.640625 C 47.226562 29.589844 46.835938 29.542969 46.429688 29.488281 C 46.121094 28.867188 46.121094 28.867188 45.804688 28.234375 C 48.703125 28.027344 51.601562 27.820312 54.589844 27.609375 C 54.589844 27.195312 54.589844 26.78125 54.589844 26.351562 C 54.226562 26.554688 53.867188 26.757812 53.496094 26.96875 C 49.707031 28.675781 45.679688 27.5625 41.945312 26.199219 C 40.785156 25.726562 40.785156 25.726562 39.53125 25.097656 C 39.347656 25.4375 39.164062 25.777344 38.976562 26.128906 C 37.273438 29.101562 36.027344 30.914062 32.628906 32 C 28.347656 32.609375 24.023438 31.082031 20.078125 29.488281 C 18.890625 28.464844 18.890625 28.464844 18.195312 27.609375 C 18.621094 27.738281 19.042969 27.863281 19.480469 27.996094 C 20.039062 28.167969 20.601562 28.335938 21.175781 28.511719 C 21.730469 28.675781 22.28125 28.84375 22.851562 29.015625 C 26.964844 30.21875 31.085938 31.003906 35.175781 29.332031 C 36.578125 28.066406 36.589844 27.5 37.019531 25.726562 C 38.628906 24.3125 38.628906 24.3125 40.15625 23.214844 C 40.53125 23.511719 40.90625 23.8125 41.292969 24.117188 C 43.664062 25.8125 45.707031 25.84375 48.550781 25.882812 C 49.253906 25.898438 49.957031 25.914062 50.679688 25.929688 C 52.914062 25.703125 54.066406 25.191406 55.84375 23.84375 C 56.679688 22.378906 56.679688 22.378906 56.46875 20.707031 C 55.058594 18.980469 55.058594 18.980469 53.332031 17.570312 C 52.710938 16.949219 52.710938 16.949219 52.078125 16.3125 C 52.492188 16.105469 52.90625 15.898438 53.332031 15.6875 Z M 53.332031 15.6875 "/>
<path style=" stroke:none;fill-rule:nonzero;fill:rgb(56.862748%,15.686275%,15.294118%);fill-opacity:1;" d="M 46.078125 31.921875 C 46.808594 31.917969 46.808594 31.917969 47.554688 31.914062 C 49.636719 31.917969 51.34375 31.964844 53.332031 32.628906 C 53.726562 34.390625 53.726562 34.390625 53.960938 36.390625 C 53.546875 37.011719 53.132812 37.632812 52.707031 38.273438 C 52.496094 39.894531 52.496094 39.894531 52.488281 41.707031 C 52.460938 42.710938 52.460938 42.710938 52.433594 43.730469 C 52.40625 45.140625 52.378906 46.550781 52.351562 47.960938 C 52.324219 48.960938 52.324219 48.960938 52.292969 49.984375 C 52.28125 50.59375 52.269531 51.207031 52.257812 51.839844 C 52.078125 53.332031 52.078125 53.332031 50.824219 54.589844 C 46.582031 56.738281 40.9375 56.519531 36.398438 55.367188 C 30.429688 53.0625 25.875 49.210938 21.960938 44.195312 C 21.085938 42.066406 20.996094 40.546875 21.332031 38.273438 C 26.207031 34.800781 32.039062 33.617188 37.863281 32.875 C 44.332031 31.914062 44.332031 31.914062 46.078125 31.921875 Z M 25.726562 40.15625 C 25.066406 41.773438 25.066406 41.773438 25.097656 43.292969 C 25.5625 43.539062 26.03125 43.785156 26.511719 44.039062 C 28.234375 45.175781 28.234375 45.175781 29.339844 46.667969 C 32.199219 50.015625 37.050781 52.238281 41.367188 53.050781 C 44.53125 53.144531 46.863281 52.558594 49.570312 50.824219 C 50.320312 50.210938 50.320312 50.210938 50.246094 49.070312 C 50.230469 48.351562 50.230469 48.351562 50.214844 47.613281 C 50.207031 47.089844 50.199219 46.566406 50.191406 46.027344 C 50.167969 44.917969 50.144531 43.808594 50.117188 42.703125 C 50.109375 42.175781 50.101562 41.648438 50.09375 41.105469 C 50.085938 40.625 50.074219 40.140625 50.0625 39.644531 C 50.210938 38.101562 50.683594 37.097656 51.449219 35.765625 C 42.371094 35.386719 34.023438 36.058594 25.726562 40.15625 Z M 25.726562 40.15625 "/>
<path style=" stroke:none;fill-rule:nonzero;fill:rgb(29.019609%,26.274511%,25.490198%);fill-opacity:1;" d="M 53.332031 15.6875 C 55.730469 16.484375 56.382812 17.324219 57.726562 19.449219 C 57.960938 21.765625 57.960938 21.765625 57.726562 23.84375 C 57.3125 24.257812 56.898438 24.671875 56.46875 25.097656 C 56.261719 25.628906 56.054688 26.160156 55.84375 26.707031 C 55.214844 28.234375 55.214844 28.234375 53.960938 28.863281 C 54.582031 29.542969 54.582031 29.542969 55.214844 30.234375 C 56.46875 32 56.46875 32 56.785156 33.570312 C 56.46875 35.136719 56.46875 35.136719 55.21875 36.351562 C 53.308594 39.269531 53.585938 42.113281 53.570312 45.53125 C 53.550781 46.824219 53.53125 48.121094 53.503906 49.414062 C 53.5 49.984375 53.496094 50.558594 53.492188 51.144531 C 53.324219 52.804688 52.964844 53.8125 52.078125 55.214844 C 50.785156 56.125 50.785156 56.125 49.292969 56.902344 C 48.804688 57.164062 48.3125 57.425781 47.804688 57.695312 C 38.8125 62.007812 23.949219 59.085938 14.753906 56.4375 C 10.644531 54.890625 8.367188 51.914062 6.09375 48.277344 C 5.546875 46.785156 5.75 46.023438 6.273438 44.550781 C 6.449219 44.914062 6.625 45.277344 6.804688 45.652344 C 9.089844 50.101562 11.097656 53.023438 15.945312 54.703125 C 25.289062 57.355469 37.015625 59.589844 46.429688 56.46875 C 47.050781 56.054688 47.671875 55.640625 48.3125 55.214844 C 49.148438 54.796875 49.988281 54.378906 50.824219 53.960938 C 51.882812 52.902344 51.558594 51.558594 51.582031 50.109375 C 51.601562 49.449219 51.617188 48.789062 51.636719 48.109375 C 51.667969 46.714844 51.699219 45.320312 51.71875 43.925781 C 51.828125 40.300781 51.949219 37.582031 53.960938 34.511719 C 53.546875 34.304688 53.132812 34.09375 52.707031 33.882812 C 53.535156 33.675781 54.363281 33.46875 55.214844 33.253906 C 53.859375 31.550781 52.824219 30.273438 50.636719 29.8125 C 49.632812 29.730469 48.625 29.671875 47.617188 29.640625 C 47.226562 29.589844 46.835938 29.542969 46.429688 29.488281 C 46.121094 28.867188 46.121094 28.867188 45.804688 28.234375 C 48.703125 28.027344 51.601562 27.820312 54.589844 27.609375 C 54.589844 27.195312 54.589844 26.78125 54.589844 26.351562 C 54.226562 26.554688 53.867188 26.757812 53.496094 26.96875 C 49.707031 28.675781 45.679688 27.5625 41.945312 26.199219 C 40.785156 25.726562 40.785156 25.726562 39.53125 25.097656 C 39.347656 25.4375 39.164062 25.777344 38.976562 26.128906 C 37.273438 29.101562 36.027344 30.914062 32.628906 32 C 28.347656 32.609375 24.023438 31.082031 20.078125 29.488281 C 18.890625 28.464844 18.890625 28.464844 18.195312 27.609375 C 18.621094 27.738281 19.042969 27.863281 19.480469 27.996094 C 20.039062 28.167969 20.601562 28.335938 21.175781 28.511719 C 21.730469 28.675781 22.28125 28.84375 22.851562 29.015625 C 26.964844 30.21875 31.085938 31.003906 35.175781 29.332031 C 36.578125 28.066406 36.589844 27.5 37.019531 25.726562 C 38.628906 24.3125 38.628906 24.3125 40.15625 23.214844 C 40.53125 23.511719 40.90625 23.8125 41.292969 24.117188 C 43.664062 25.8125 45.707031 25.84375 48.550781 25.882812 C 49.253906 25.898438 49.957031 25.914062 50.679688 25.929688 C 52.914062 25.703125 54.066406 25.191406 55.84375 23.84375 C 56.679688 22.378906 56.679688 22.378906 56.46875 20.707031 C 55.058594 18.980469 55.058594 18.980469 53.332031 17.570312 C 52.710938 16.949219 52.710938 16.949219 52.078125 16.3125 C 52.492188 16.105469 52.90625 15.898438 53.332031 15.6875 Z M 53.332031 15.6875 "/>
<path style=" stroke:none;fill-rule:nonzero;fill:rgb(96.470588%,95.686275%,95.686275%);fill-opacity:1;" d="M 50.824219 15.6875 C 53.667969 16.820312 55.402344 18.164062 57.097656 20.707031 C 56.964844 22.492188 56.71875 23.527344 55.609375 24.941406 C 52.582031 27.265625 48.144531 26.585938 44.550781 26.351562 C 41.648438 25.503906 41.054688 24.953125 39.570312 22.3125 C 38.902344 20.078125 38.902344 20.078125 38.902344 18.667969 C 41.265625 14.53125 46.773438 15.152344 50.824219 15.6875 Z M 50.824219 15.6875 "/>
<path style=" stroke:none;fill-rule:nonzero;fill:rgb(97.647059%,97.254902%,97.254902%);fill-opacity:1;" d="M 27.648438 16.785156 C 28.429688 16.78125 29.214844 16.777344 30.023438 16.773438 C 32 16.941406 32 16.941406 33.253906 18.195312 C 32.496094 18.46875 32.496094 18.46875 31.726562 18.746094 C 30.035156 19.285156 30.035156 19.285156 29.488281 20.707031 C 29.445312 21.566406 29.4375 22.429688 29.449219 23.292969 C 29.464844 24.097656 29.476562 24.898438 29.488281 25.726562 C 32.699219 26.445312 32.699219 26.445312 35.765625 25.765625 C 36.777344 23.675781 36.503906 21.75 36.390625 19.449219 C 37.21875 19.863281 38.046875 20.277344 38.902344 20.707031 C 39.136719 22.390625 39.136719 22.390625 38.902344 24.46875 C 36.992188 26.695312 34.847656 28.152344 31.921875 28.40625 C 26.136719 28.558594 21.695312 28.039062 17.117188 24.191406 C 16.234375 23.332031 16.234375 23.332031 15.058594 21.960938 C 15.488281 21.703125 15.921875 21.445312 16.363281 21.179688 C 16.929688 20.84375 17.496094 20.503906 18.078125 20.15625 C 18.640625 19.820312 19.199219 19.488281 19.777344 19.140625 C 22.753906 17.332031 24.105469 16.769531 27.648438 16.785156 Z M 27.648438 16.785156 "/>
<path style=" stroke:none;fill-rule:nonzero;fill:rgb(86.666667%,21.960784%,48.235294%);fill-opacity:1;" d="M 44.550781 35.765625 C 46.828125 35.765625 49.105469 35.765625 51.449219 35.765625 C 51.035156 36.59375 50.621094 37.421875 50.195312 38.273438 C 50.074219 39.636719 50.074219 39.636719 50.183594 41.0625 C 50.203125 41.582031 50.21875 42.105469 50.238281 42.640625 C 50.289062 43.734375 50.347656 44.824219 50.410156 45.914062 C 50.457031 47.398438 50.472656 48.738281 50.195312 50.195312 C 48.699219 51.46875 48.699219 51.46875 47.058594 52.078125 C 46.644531 52.285156 46.230469 52.492188 45.804688 52.707031 C 41.316406 53.214844 38.371094 52.484375 34.511719 50.195312 C 35.980469 49.214844 37.195312 48.574219 38.785156 47.882812 C 41.566406 46.488281 43.667969 44.800781 45.175781 42.039062 C 45.589844 39.828125 45.574219 37.816406 44.550781 35.765625 Z M 44.550781 35.765625 "/>
<path style=" stroke:none;fill-rule:nonzero;fill:rgb(5.882353%,23.921569%,21.176471%);fill-opacity:1;" d="M 26.351562 11.292969 C 28.292969 11.125 30.074219 10.851562 31.949219 10.332031 C 36.378906 9.335938 40.863281 10.128906 45.175781 11.292969 C 45.175781 11.707031 45.175781 12.121094 45.175781 12.550781 C 42.898438 12.757812 40.621094 12.964844 38.273438 13.175781 C 38.6875 12.96875 39.101562 12.761719 39.53125 12.550781 C 39.53125 12.136719 39.53125 11.722656 39.53125 11.292969 C 36.628906 11.5 33.730469 11.707031 30.746094 11.921875 C 32.273438 14.210938 33.167969 14.789062 35.765625 15.6875 C 37.714844 15.476562 39.539062 15.007812 41.410156 14.429688 C 39.765625 15.78125 38.496094 16.566406 36.390625 16.941406 C 36.703125 17.871094 36.703125 17.871094 37.019531 18.824219 C 36.191406 18.410156 35.363281 17.996094 34.511719 17.570312 C 34.511719 17.15625 34.511719 16.742188 34.511719 16.3125 C 31.480469 14.800781 27.171875 15.417969 23.84375 15.6875 C 21.953125 16.335938 20.542969 17.152344 18.824219 18.195312 C 18.410156 17.988281 17.996094 17.78125 17.570312 17.570312 C 18.320312 17.050781 19.082031 16.542969 19.84375 16.039062 C 20.476562 15.613281 20.476562 15.613281 21.121094 15.179688 C 22.855469 14.292969 24.429688 14.042969 26.351562 13.804688 C 19.972656 14.152344 19.972656 14.152344 13.804688 15.6875 C 16.355469 12.730469 19.472656 12.363281 23.214844 11.921875 C 18.582031 11.644531 14.457031 11.429688 10.667969 14.429688 C 9.203125 16.289062 9.203125 16.289062 8.15625 18.195312 C 7.136719 19.292969 7.136719 19.292969 6.273438 20.078125 C 5.859375 20.492188 5.445312 20.90625 5.019531 21.332031 C 5.253906 18.03125 6.371094 16 8.785156 13.804688 C 14.480469 9.675781 19.660156 9.011719 26.351562 11.292969 Z M 26.351562 11.292969 "/>
<path style=" stroke:none;fill-rule:nonzero;fill:rgb(19.607843%,5.098039%,6.27451%);fill-opacity:1;" d="M 39.53125 33.253906 C 38.910156 33.460938 38.285156 33.667969 37.648438 33.882812 C 37.648438 34.296875 37.648438 34.710938 37.648438 35.136719 C 38.429688 34.988281 38.429688 34.988281 39.226562 34.832031 C 41.585938 34.484375 43.851562 34.382812 46.234375 34.351562 C 47.460938 34.328125 47.460938 34.328125 48.714844 34.304688 C 50.824219 34.511719 50.824219 34.511719 52.050781 35.460938 C 52.265625 35.769531 52.484375 36.074219 52.707031 36.390625 C 52.394531 36.703125 52.085938 37.011719 51.765625 37.332031 C 50.242188 39.871094 50.585938 42.566406 51.082031 45.390625 C 51.328125 46.828125 51.519531 48.113281 51.449219 49.570312 C 49.886719 51.652344 48.898438 52.511719 46.429688 53.332031 C 40.039062 54.152344 35.324219 52.726562 30.117188 48.941406 C 29.257812 47.914062 28.417969 46.871094 27.609375 45.804688 C 26.378906 44.929688 25.128906 44.082031 23.84375 43.292969 C 24.035156 41.496094 24.429688 40.824219 25.726562 39.53125 C 28.132812 37.925781 30.585938 36.878906 33.253906 35.765625 C 31.183594 35.972656 29.113281 36.179688 26.980469 36.390625 C 27.609375 35.136719 27.609375 35.136719 29.214844 34.46875 C 32.621094 33.542969 35.992188 33.144531 39.53125 33.253906 Z M 25.726562 40.15625 C 25.066406 41.773438 25.066406 41.773438 25.097656 43.292969 C 25.5625 43.539062 26.03125 43.785156 26.511719 44.039062 C 28.234375 45.175781 28.234375 45.175781 29.339844 46.667969 C 32.199219 50.015625 37.050781 52.238281 41.367188 53.050781 C 44.53125 53.144531 46.863281 52.558594 49.570312 50.824219 C 50.320312 50.210938 50.320312 50.210938 50.246094 49.070312 C 50.230469 48.351562 50.230469 48.351562 50.214844 47.613281 C 50.207031 47.089844 50.199219 46.566406 50.191406 46.027344 C 50.167969 44.917969 50.144531 43.808594 50.117188 42.703125 C 50.109375 42.175781 50.101562 41.648438 50.09375 41.105469 C 50.085938 40.625 50.074219 40.140625 50.0625 39.644531 C 50.210938 38.101562 50.683594 37.097656 51.449219 35.765625 C 42.371094 35.386719 34.023438 36.058594 25.726562 40.15625 Z M 25.726562 40.15625 "/>
<path style=" stroke:none;fill-rule:nonzero;fill:rgb(57.254905%,13.725491%,29.411766%);fill-opacity:1;" d="M 37.019531 37.648438 C 37.300781 39.558594 37.335938 40.90625 36.292969 42.574219 C 34.472656 44.761719 32.691406 46.398438 30.117188 47.6875 C 29.753906 47.195312 29.394531 46.703125 29.019531 46.195312 C 27.714844 44.675781 26.921875 44.011719 25.097656 43.292969 C 25.167969 41.839844 25.167969 41.839844 25.726562 40.15625 C 27.460938 39.140625 27.460938 39.140625 29.648438 38.351562 C 30.363281 38.082031 31.078125 37.8125 31.8125 37.535156 C 33.886719 37.019531 35 37.03125 37.019531 37.648438 Z M 37.019531 37.648438 "/>
<path style=" stroke:none;fill-rule:nonzero;fill:rgb(52.156866%,19.607843%,18.431373%);fill-opacity:1;" d="M 46.078125 31.921875 C 46.566406 31.917969 47.054688 31.917969 47.554688 31.914062 C 49.636719 31.917969 51.34375 31.964844 53.332031 32.628906 C 53.726562 34.390625 53.726562 34.390625 53.960938 36.390625 C 53.339844 37.324219 53.339844 37.324219 52.707031 38.273438 C 52.476562 39.914062 52.476562 39.914062 52.445312 41.753906 C 52.421875 42.425781 52.398438 43.097656 52.371094 43.792969 C 52.34375 44.847656 52.34375 44.847656 52.3125 45.921875 C 52.289062 46.632812 52.265625 47.339844 52.238281 48.074219 C 52.179688 49.824219 52.128906 51.578125 52.078125 53.332031 C 50.527344 53.644531 50.527344 53.644531 48.941406 53.960938 C 48.734375 53.339844 48.527344 52.71875 48.3125 52.078125 C 48.734375 51.773438 49.152344 51.46875 49.585938 51.15625 C 51.089844 49.226562 50.960938 48.085938 50.730469 45.710938 C 50.667969 45.234375 50.609375 44.761719 50.550781 44.273438 C 49.863281 38.601562 49.863281 38.601562 52.078125 35.765625 C 50.539062 34.996094 49.535156 35.066406 47.820312 35.074219 C 46.933594 35.078125 46.933594 35.078125 46.03125 35.082031 C 45.101562 35.089844 45.101562 35.089844 44.15625 35.097656 C 43.222656 35.101562 43.222656 35.101562 42.269531 35.105469 C 40.730469 35.113281 39.1875 35.125 37.648438 35.136719 C 37.648438 34.722656 37.648438 34.308594 37.648438 33.882812 C 38.269531 33.882812 38.890625 33.882812 39.53125 33.882812 C 39.53125 33.46875 39.53125 33.054688 39.53125 32.628906 C 41.578125 31.601562 43.828125 31.910156 46.078125 31.921875 Z M 46.078125 31.921875 "/>
<path style=" stroke:none;fill-rule:nonzero;fill:rgb(4.705882%,5.490196%,5.098039%);fill-opacity:1;" d="M 33.292969 18.273438 C 35.136719 18.824219 35.136719 18.824219 37.019531 20.078125 C 37.339844 22.554688 37.402344 23.917969 35.960938 26 C 34.511719 26.980469 34.511719 26.980469 32.941406 27.292969 C 30.828125 26.871094 30.105469 26.222656 28.863281 24.46875 C 28.476562 22.152344 28.574219 21.140625 29.882812 19.175781 C 31.371094 18.195312 31.371094 18.195312 33.292969 18.273438 Z M 33.292969 18.273438 "/>
<path style=" stroke:none;fill-rule:nonzero;fill:rgb(27.843139%,28.627452%,28.235295%);fill-opacity:1;" d="M 5.648438 44.550781 C 6.738281 45.964844 7.726562 47.378906 8.667969 48.902344 C 12.546875 54.335938 17.585938 55.332031 23.84375 56.46875 C 36.472656 58.75 36.472656 58.75 48.3125 55.214844 C 49.78125 54.4375 51.121094 53.859375 52.707031 53.332031 C 51.941406 55.621094 51.40625 55.769531 49.332031 56.863281 C 48.835938 57.128906 48.339844 57.398438 47.828125 57.671875 C 38.875 62.039062 23.925781 59.078125 14.753906 56.4375 C 10.675781 54.902344 8.316406 51.949219 6.136719 48.277344 C 5.648438 47.058594 5.648438 47.058594 5.648438 44.550781 Z M 5.648438 44.550781 "/>
<path style=" stroke:none;fill-rule:nonzero;fill:rgb(4.313726%,6.27451%,6.27451%);fill-opacity:1;" d="M 53.960938 18.195312 C 55.3125 20.222656 55.507812 20.863281 55.214844 23.214844 C 54.550781 24.351562 54.550781 24.351562 53.332031 25.097656 C 51.097656 25.292969 51.097656 25.292969 48.941406 25.097656 C 47.6875 23.84375 47.6875 23.84375 47.488281 21.6875 C 47.6875 19.449219 47.6875 19.449219 48.351562 18.195312 C 50.339844 17.171875 51.859375 17.660156 53.960938 18.195312 Z M 53.960938 18.195312 "/>
<path style=" stroke:none;fill-rule:nonzero;fill:rgb(30.588236%,7.058824%,11.372549%);fill-opacity:1;" d="M 39.53125 33.253906 C 38.910156 33.460938 38.285156 33.667969 37.648438 33.882812 C 37.648438 34.296875 37.648438 34.710938 37.648438 35.136719 C 38.035156 35.085938 38.421875 35.03125 38.820312 34.976562 C 42.554688 34.527344 45.84375 34.597656 49.570312 35.136719 C 49.570312 35.34375 49.570312 35.550781 49.570312 35.765625 C 49.042969 35.796875 49.042969 35.796875 48.507812 35.832031 C 41.53125 36.292969 35.242188 37.039062 28.699219 39.574219 C 28.132812 39.769531 27.566406 39.960938 26.980469 40.15625 C 26.566406 39.949219 26.152344 39.742188 25.726562 39.53125 C 28.234375 38.273438 30.746094 37.019531 33.253906 35.765625 C 31.183594 35.972656 29.113281 36.179688 26.980469 36.390625 C 27.609375 35.136719 27.609375 35.136719 29.214844 34.46875 C 32.621094 33.542969 35.992188 33.144531 39.53125 33.253906 Z M 39.53125 33.253906 "/>
<path style=" stroke:none;fill-rule:nonzero;fill:rgb(12.54902%,84.313726%,75.294119%);fill-opacity:1;" d="M 36.550781 11.253906 C 37.109375 11.261719 37.667969 11.265625 38.246094 11.273438 C 38.667969 11.28125 39.09375 11.285156 39.53125 11.292969 C 39.738281 11.707031 39.945312 12.121094 40.15625 12.550781 C 42.433594 12.34375 44.710938 12.136719 47.058594 11.921875 C 45.308594 13.671875 43.460938 13.941406 41.113281 14.589844 C 39.429688 15.042969 39.429688 15.042969 37.570312 16 C 35.019531 16.445312 33.800781 15.421875 31.710938 14.03125 C 31.390625 13.746094 31.074219 13.464844 30.746094 13.175781 C 30.746094 12.761719 30.746094 12.347656 30.746094 11.921875 C 32.726562 11.335938 34.488281 11.226562 36.550781 11.253906 Z M 36.550781 11.253906 "/>
<path style=" stroke:none;fill-rule:nonzero;fill:rgb(5.882353%,30.588236%,26.666668%);fill-opacity:1;" d="M 39.53125 23.214844 C 40.328125 23.605469 41.125 24 41.921875 24.390625 C 42.367188 24.609375 42.808594 24.828125 43.265625 25.054688 C 44.550781 25.726562 44.550781 25.726562 46.429688 26.980469 C 43.847656 26.683594 41.8125 26.339844 39.53125 25.097656 C 39.347656 25.4375 39.164062 25.777344 38.976562 26.128906 C 37.273438 29.101562 36.027344 30.914062 32.628906 32 C 28.347656 32.609375 24.023438 31.082031 20.078125 29.488281 C 18.890625 28.464844 18.890625 28.464844 18.195312 27.609375 C 18.621094 27.738281 19.042969 27.863281 19.480469 27.996094 C 20.039062 28.167969 20.601562 28.335938 21.175781 28.511719 C 21.730469 28.675781 22.28125 28.84375 22.851562 29.015625 C 26.964844 30.21875 31.085938 31.003906 35.175781 29.332031 C 36.570312 28.074219 36.640625 27.507812 37.019531 25.726562 C 38.3125 24.3125 38.3125 24.3125 39.53125 23.214844 Z M 39.53125 23.214844 "/>
<path style=" stroke:none;fill-rule:nonzero;fill:rgb(24.705882%,32.941177%,31.764707%);fill-opacity:1;" d="M 26.351562 11.292969 C 26.351562 11.5 26.351562 11.707031 26.351562 11.921875 C 25.640625 11.890625 24.929688 11.863281 24.195312 11.832031 C 17.015625 11.492188 17.015625 11.492188 10.667969 14.429688 C 9.203125 16.289062 9.203125 16.289062 8.15625 18.195312 C 7.136719 19.292969 7.136719 19.292969 6.273438 20.078125 C 5.859375 20.492188 5.445312 20.90625 5.019531 21.332031 C 5.253906 18.03125 6.371094 16 8.785156 13.804688 C 14.175781 9.894531 19.992188 8.542969 26.351562 11.292969 Z M 26.351562 11.292969 "/>
<path style=" stroke:none;fill-rule:nonzero;fill:rgb(44.705883%,13.333334%,12.54902%);fill-opacity:1;" d="M 50.824219 54.589844 C 46.542969 56.644531 41.105469 56.535156 36.542969 55.417969 C 35.175781 54.902344 35.175781 54.902344 33.253906 53.960938 C 35.398438 53.339844 36.722656 53.503906 38.902344 53.960938 C 39.316406 53.753906 39.730469 53.546875 40.15625 53.332031 C 41.171875 53.175781 42.191406 53.046875 43.214844 52.941406 C 43.757812 52.882812 44.300781 52.820312 44.859375 52.761719 C 47.425781 52.671875 48.675781 53.15625 50.824219 54.589844 Z M 50.824219 54.589844 "/>
<path style=" stroke:none;fill-rule:nonzero;fill:rgb(20%,29.019609%,27.450982%);fill-opacity:1;" d="M 3.765625 21.960938 C 4.179688 21.960938 4.59375 21.960938 5.019531 21.960938 C 5.257812 23.421875 5.464844 24.886719 5.648438 26.351562 C 5.441406 26.558594 5.234375 26.765625 5.019531 26.980469 C 4.964844 28.097656 4.953125 29.21875 4.957031 30.335938 C 4.960938 31.011719 4.960938 31.691406 4.964844 32.386719 C 4.96875 33.101562 4.976562 33.8125 4.980469 34.550781 C 4.984375 35.265625 4.984375 35.980469 4.988281 36.71875 C 4.996094 38.492188 5.007812 40.265625 5.019531 42.039062 C 4.605469 42.039062 4.191406 42.039062 3.765625 42.039062 C 3.277344 39.886719 3.058594 37.894531 3.054688 35.6875 C 3.054688 35.085938 3.050781 34.488281 3.050781 33.871094 C 3.054688 33.253906 3.054688 32.636719 3.058594 32 C 3.054688 31.382812 3.054688 30.765625 3.050781 30.128906 C 3.050781 29.527344 3.054688 28.929688 3.054688 28.3125 C 3.054688 27.773438 3.054688 27.230469 3.054688 26.671875 C 3.140625 25.046875 3.40625 23.542969 3.765625 21.960938 Z M 3.765625 21.960938 "/>
<path style=" stroke:none;fill-rule:nonzero;fill:rgb(21.960784%,28.235295%,26.666668%);fill-opacity:1;" d="M 53.332031 15.6875 C 55.730469 16.484375 56.382812 17.324219 57.726562 19.449219 C 57.960938 21.765625 57.960938 21.765625 57.726562 23.84375 C 57.3125 24.257812 56.898438 24.671875 56.46875 25.097656 C 56.027344 26.132812 55.605469 27.179688 55.214844 28.234375 C 54.386719 28.027344 53.558594 27.820312 52.707031 27.609375 C 53.328125 27.609375 53.949219 27.609375 54.589844 27.609375 C 54.589844 27.195312 54.589844 26.78125 54.589844 26.351562 C 54.234375 26.558594 53.882812 26.765625 53.519531 26.976562 C 51.910156 27.683594 50.84375 27.738281 49.097656 27.6875 C 48.597656 27.675781 48.09375 27.664062 47.578125 27.652344 C 47.199219 27.636719 46.820312 27.621094 46.429688 27.609375 C 46.429688 27.195312 46.429688 26.78125 46.429688 26.351562 C 47.28125 26.261719 47.28125 26.261719 48.148438 26.167969 C 49.257812 26.027344 49.257812 26.027344 50.390625 25.882812 C 51.128906 25.796875 51.863281 25.707031 52.621094 25.617188 C 54.628906 25.265625 54.628906 25.265625 55.792969 23.871094 C 56.574219 22.644531 56.574219 22.644531 56.429688 21.332031 C 55.675781 19.71875 54.648438 18.761719 53.332031 17.570312 C 52.917969 17.15625 52.503906 16.742188 52.078125 16.3125 C 52.492188 16.105469 52.90625 15.898438 53.332031 15.6875 Z M 53.332031 15.6875 "/>
<path style=" stroke:none;fill-rule:nonzero;fill:rgb(20.784314%,27.843139%,26.274511%);fill-opacity:1;" d="M 51.449219 53.332031 C 51.863281 53.332031 52.277344 53.332031 52.707031 53.332031 C 51.941406 55.621094 51.40625 55.769531 49.332031 56.863281 C 48.835938 57.128906 48.339844 57.398438 47.828125 57.671875 C 45.765625 58.679688 44.136719 59.058594 41.867188 59.0625 C 41.351562 59.066406 40.832031 59.066406 40.300781 59.066406 C 39.761719 59.0625 39.222656 59.0625 38.667969 59.058594 C 38.132812 59.0625 37.597656 59.0625 37.050781 59.066406 C 34.449219 59.0625 32.023438 59.011719 29.488281 58.351562 C 29.488281 58.144531 29.488281 57.9375 29.488281 57.726562 C 30.613281 57.746094 30.613281 57.746094 31.761719 57.769531 C 40.410156 58.164062 40.410156 58.164062 48.3125 55.214844 C 49.148438 54.796875 49.988281 54.378906 50.824219 53.960938 C 51.03125 53.753906 51.238281 53.546875 51.449219 53.332031 Z M 51.449219 53.332031 "/>
<path style=" stroke:none;fill-rule:nonzero;fill:rgb(81.960785%,19.607843%,19.607843%);fill-opacity:1;" d="M 28.863281 48.3125 C 31.378906 49.289062 33.824219 50.390625 36.273438 51.53125 C 37.003906 51.867188 37.730469 52.207031 38.484375 52.554688 C 39.035156 52.8125 39.585938 53.066406 40.15625 53.332031 C 39.742188 53.746094 39.328125 54.160156 38.902344 54.589844 C 37.570312 54.429688 37.570312 54.429688 35.765625 53.960938 C 35.351562 53.890625 34.9375 53.820312 34.511719 53.746094 C 31.046875 53.082031 31.046875 53.082031 29.488281 51.136719 C 28.863281 49.570312 28.863281 49.570312 28.863281 48.3125 Z M 28.863281 48.3125 "/>
<path style=" stroke:none;fill-rule:nonzero;fill:rgb(12.941177%,86.666667%,77.64706%);fill-opacity:1;" d="M 19.488281 11.175781 C 20.15625 11.167969 20.824219 11.160156 21.511719 11.148438 C 23.214844 11.292969 23.214844 11.292969 24.46875 12.550781 C 23.976562 12.617188 23.484375 12.6875 22.976562 12.757812 C 19.210938 13.324219 15.960938 13.980469 12.550781 15.6875 C 12.136719 15.066406 11.722656 14.445312 11.292969 13.804688 C 14.035156 11.628906 16.011719 11.199219 19.488281 11.175781 Z M 19.488281 11.175781 "/>
<path style=" stroke:none;fill-rule:nonzero;fill:rgb(12.54902%,86.666667%,77.254903%);fill-opacity:1;" d="M 46.429688 29.488281 C 51.4375 29.097656 51.4375 29.097656 54 30.667969 C 55.214844 32 55.214844 32 55.214844 33.253906 C 54.703125 33.160156 54.191406 33.0625 53.660156 32.964844 C 51.171875 32.585938 48.710938 32.414062 46.195312 32.273438 C 45.503906 32.234375 45.503906 32.234375 44.796875 32.191406 C 43.667969 32.125 42.539062 32.0625 41.410156 32 C 41.410156 31.792969 41.410156 31.585938 41.410156 31.371094 C 43.066406 31.164062 44.726562 30.957031 46.429688 30.746094 C 46.429688 30.332031 46.429688 29.917969 46.429688 29.488281 Z M 46.429688 29.488281 "/>
<path style=" stroke:none;fill-rule:nonzero;fill:rgb(13.333334%,87.058824%,79.215688%);fill-opacity:1;" d="M 18.195312 26.351562 C 18.992188 26.625 18.992188 26.625 19.804688 26.902344 C 20.871094 27.25 20.871094 27.25 21.960938 27.609375 C 22.632812 27.839844 23.308594 28.074219 24 28.3125 C 28.789062 29.429688 32.648438 29.261719 37.019531 26.980469 C 36.421875 28.480469 36.03125 29.324219 34.640625 30.1875 C 30.617188 31.800781 26.027344 30.753906 22.050781 29.449219 C 20.375 28.71875 19.296875 27.804688 18.195312 26.351562 Z M 18.195312 26.351562 "/>
<path style=" stroke:none;fill-rule:nonzero;fill:rgb(28.627452%,36.862746%,35.294119%);fill-opacity:1;" d="M 45.175781 11.292969 C 45.175781 11.707031 45.175781 12.121094 45.175781 12.550781 C 42.898438 12.757812 40.621094 12.964844 38.273438 13.175781 C 38.6875 12.96875 39.101562 12.761719 39.53125 12.550781 C 39.53125 12.136719 39.53125 11.722656 39.53125 11.292969 C 38.078125 11.367188 36.628906 11.445312 35.175781 11.53125 C 34.367188 11.574219 33.558594 11.617188 32.726562 11.660156 C 32.074219 11.746094 31.417969 11.832031 30.746094 11.921875 C 30.539062 12.335938 30.332031 12.75 30.117188 13.175781 C 30.117188 12.761719 30.117188 12.347656 30.117188 11.921875 C 29.703125 11.714844 29.289062 11.507812 28.863281 11.292969 C 34.421875 9.359375 39.550781 9.773438 45.175781 11.292969 Z M 45.175781 11.292969 "/>
<path style=" stroke:none;fill-rule:nonzero;fill:rgb(11.372549%,39.607844%,38.82353%);fill-opacity:1;" d="M 49.570312 17.570312 C 51.039062 17.730469 52.503906 17.941406 53.960938 18.195312 C 54.167969 18.609375 54.375 19.023438 54.589844 19.449219 C 53.96875 20.277344 53.347656 21.109375 52.707031 21.960938 C 52.914062 22.375 53.121094 22.789062 53.332031 23.214844 C 51.882812 23.214844 50.433594 23.214844 48.941406 23.214844 C 49.148438 22.59375 49.355469 21.972656 49.570312 21.332031 C 49.367188 20.496094 49.15625 19.660156 48.941406 18.824219 C 49.148438 18.410156 49.355469 17.996094 49.570312 17.570312 Z M 49.570312 17.570312 "/>
<path style=" stroke:none;fill-rule:nonzero;fill:rgb(84.705883%,20.784314%,20.392157%);fill-opacity:1;" d="M 42.457031 33.195312 C 43.019531 33.195312 43.578125 33.199219 44.15625 33.199219 C 45.03125 33.207031 45.03125 33.207031 45.921875 33.214844 C 46.511719 33.21875 47.101562 33.222656 47.710938 33.222656 C 49.164062 33.230469 50.621094 33.242188 52.078125 33.253906 C 50.523438 34.8125 49.96875 34.691406 47.820312 34.769531 C 47.226562 34.792969 46.636719 34.816406 46.03125 34.84375 C 45.410156 34.863281 44.792969 34.882812 44.15625 34.902344 C 43.222656 34.9375 43.222656 34.9375 42.269531 34.976562 C 40.730469 35.035156 39.1875 35.089844 37.648438 35.136719 C 37.648438 34.722656 37.648438 34.308594 37.648438 33.882812 C 39.457031 33.28125 40.582031 33.183594 42.457031 33.195312 Z M 42.457031 33.195312 "/>
<path style=" stroke:none;fill-rule:nonzero;fill:rgb(12.941177%,85.882354%,78.823531%);fill-opacity:1;" d="M 28.511719 14.863281 C 29.75 14.828125 29.75 14.828125 31.015625 14.792969 C 33.253906 15.058594 33.253906 15.058594 34.804688 16.324219 C 35.121094 16.734375 35.4375 17.144531 35.765625 17.570312 C 35.066406 17.363281 34.367188 17.15625 33.648438 16.941406 C 29.445312 15.917969 25.566406 15.554688 21.648438 17.609375 C 21.253906 17.847656 20.859375 18.089844 20.449219 18.335938 C 20.121094 18.496094 19.789062 18.65625 19.449219 18.824219 C 19.035156 18.617188 18.621094 18.410156 18.195312 18.195312 C 21.777344 15.726562 24.207031 14.925781 28.511719 14.863281 Z M 28.511719 14.863281 "/>
<path style=" stroke:none;fill-rule:nonzero;fill:rgb(84.705883%,21.176471%,21.176471%);fill-opacity:1;" d="M 51.449219 44.550781 C 51.65625 44.550781 51.863281 44.550781 52.078125 44.550781 C 52.078125 47.449219 52.078125 50.347656 52.078125 53.332031 C 51.042969 53.539062 50.007812 53.746094 48.941406 53.960938 C 48.734375 53.339844 48.527344 52.71875 48.3125 52.078125 C 48.726562 51.753906 49.140625 51.429688 49.570312 51.097656 C 51.238281 49.066406 50.96875 47.738281 50.824219 45.175781 C 51.03125 44.96875 51.238281 44.761719 51.449219 44.550781 Z M 51.449219 44.550781 "/>
<path style=" stroke:none;fill-rule:nonzero;fill:rgb(81.568629%,19.607843%,19.215687%);fill-opacity:1;" d="M 33.882812 35.765625 C 32.089844 37.558594 30.042969 38.269531 27.609375 38.902344 C 25.726562 38.707031 25.726562 38.707031 24.46875 38.273438 C 27.378906 35.8125 30.136719 34.664062 33.882812 35.765625 Z M 33.882812 35.765625 "/>
<path style=" stroke:none;fill-rule:nonzero;fill:rgb(5.490196%,14.117648%,12.156863%);fill-opacity:1;" d="M 39.53125 23.214844 C 40.328125 23.605469 41.125 24 41.921875 24.390625 C 42.367188 24.609375 42.808594 24.828125 43.265625 25.054688 C 44.550781 25.726562 44.550781 25.726562 46.429688 26.980469 C 43.746094 26.671875 41.980469 26.324219 39.53125 25.097656 C 38.492188 26.753906 37.457031 28.410156 36.390625 30.117188 C 35.976562 29.910156 35.5625 29.703125 35.136719 29.488281 C 36.183594 27.015625 37.789062 25.230469 39.53125 23.214844 Z M 39.53125 23.214844 "/>
<path style=" stroke:none;fill-rule:nonzero;fill:rgb(90.196079%,90.196079%,90.196079%);fill-opacity:1;" d="M 53.960938 18.195312 C 55.84375 18.824219 55.84375 18.824219 57.097656 20.707031 C 56.964844 22.46875 56.710938 23.523438 55.648438 24.941406 C 54.417969 25.851562 53.601562 26.210938 52.078125 26.351562 C 51.457031 25.9375 50.835938 25.523438 50.195312 25.097656 C 50.804688 24.902344 51.414062 24.710938 52.039062 24.511719 C 53.859375 24.035156 53.859375 24.035156 54.589844 23.214844 C 54.523438 22.015625 54.523438 22.015625 54.3125 20.667969 C 54.195312 19.851562 54.082031 19.035156 53.960938 18.195312 Z M 53.960938 18.195312 "/>
<path style=" stroke:none;fill-rule:nonzero;fill:rgb(48.235294%,16.078432%,15.294118%);fill-opacity:1;" d="M 37.019531 34.511719 C 37.019531 34.925781 37.019531 35.339844 37.019531 35.765625 C 35.308594 36.207031 34.101562 36.4375 32.351562 36.078125 C 30.414062 35.699219 28.902344 35.988281 26.980469 36.390625 C 27.609375 35.136719 27.609375 35.136719 29.253906 34.429688 C 31.871094 33.753906 34.527344 33.261719 37.019531 34.511719 Z M 37.019531 34.511719 "/>
<path style=" stroke:none;fill-rule:nonzero;fill:rgb(14.117648%,89.411765%,80.392158%);fill-opacity:1;" d="M 25.882812 13.097656 C 26.558594 13.109375 27.234375 13.121094 27.929688 13.132812 C 28.703125 13.152344 28.703125 13.152344 29.488281 13.175781 C 29.488281 13.382812 29.488281 13.589844 29.488281 13.804688 C 28.671875 13.984375 28.671875 13.984375 27.839844 14.171875 C 27.113281 14.335938 26.390625 14.5 25.648438 14.667969 C 24.933594 14.828125 24.21875 14.988281 23.484375 15.152344 C 21.46875 15.652344 19.527344 16.257812 17.570312 16.941406 C 19.851562 13.515625 21.832031 13.011719 25.882812 13.097656 Z M 25.882812 13.097656 "/>
<path style=" stroke:none;fill-rule:nonzero;fill:rgb(16.078432%,82.352942%,74.117649%);fill-opacity:1;" d="M 47.058594 12.550781 C 41.410156 14.429688 41.410156 14.429688 35.765625 16.3125 C 35.765625 15.898438 35.765625 15.484375 35.765625 15.058594 C 36.386719 15.058594 37.007812 15.058594 37.648438 15.058594 C 37.648438 14.644531 37.648438 14.230469 37.648438 13.804688 C 40.464844 12.042969 43.910156 11.5 47.058594 12.550781 Z M 47.058594 12.550781 "/>
<path style=" stroke:none;fill-rule:nonzero;fill:rgb(70.980394%,17.254902%,17.254902%);fill-opacity:1;" d="M 37.765625 52.351562 C 38.214844 52.535156 38.664062 52.714844 39.125 52.898438 C 39.464844 53.042969 39.804688 53.1875 40.15625 53.332031 C 39.742188 53.746094 39.328125 54.160156 38.902344 54.589844 C 37.570312 54.429688 37.570312 54.429688 35.765625 53.960938 C 34.863281 53.738281 33.960938 53.515625 33.058594 53.292969 C 32.296875 53.101562 31.53125 52.90625 30.746094 52.707031 C 31.121094 52.617188 31.496094 52.523438 31.882812 52.429688 C 35.613281 51.472656 35.613281 51.472656 37.765625 52.351562 Z M 37.765625 52.351562 "/>
<path style=" stroke:none;fill-rule:nonzero;fill:rgb(89.019608%,88.235295%,88.235295%);fill-opacity:1;" d="M 36.390625 19.449219 C 37.21875 19.863281 38.046875 20.277344 38.902344 20.707031 C 39.097656 22.429688 39.097656 22.429688 38.902344 24.46875 C 37.332031 25.960938 37.332031 25.960938 35.765625 26.980469 C 35.921875 26.515625 35.921875 26.515625 36.078125 26.039062 C 36.523438 23.820312 36.429688 21.710938 36.390625 19.449219 Z M 36.390625 19.449219 "/>
<path style=" stroke:none;fill-rule:nonzero;fill:rgb(19.215687%,75.686276%,74.117649%);fill-opacity:1;" d="M 30.746094 20.707031 C 32.195312 20.707031 33.644531 20.707031 35.136719 20.707031 C 35.136719 21.121094 35.136719 21.535156 35.136719 21.960938 C 34.722656 21.960938 34.308594 21.960938 33.882812 21.960938 C 33.882812 22.375 33.882812 22.789062 33.882812 23.214844 C 34.296875 23.214844 34.710938 23.214844 35.136719 23.214844 C 35.136719 23.628906 35.136719 24.042969 35.136719 24.46875 C 33.6875 24.46875 32.238281 24.46875 30.746094 24.46875 C 30.746094 24.054688 30.746094 23.640625 30.746094 23.214844 C 31.160156 23.214844 31.574219 23.214844 32 23.214844 C 32 22.800781 32 22.386719 32 21.960938 C 31.585938 21.960938 31.171875 21.960938 30.746094 21.960938 C 30.746094 21.546875 30.746094 21.132812 30.746094 20.707031 Z M 30.746094 20.707031 "/>
<path style=" stroke:none;fill-rule:nonzero;fill:rgb(32.156864%,44.313726%,42.745098%);fill-opacity:1;" d="M 47.058594 12.550781 C 52.527344 13.714844 52.527344 13.714844 53.960938 15.6875 C 52.925781 15.894531 51.890625 16.101562 50.824219 16.3125 C 50.824219 15.691406 50.824219 15.070312 50.824219 14.429688 C 50.320312 14.355469 49.8125 14.277344 49.292969 14.195312 C 48.761719 14.066406 48.234375 13.9375 47.6875 13.804688 C 47.480469 13.390625 47.273438 12.976562 47.058594 12.550781 Z M 47.058594 12.550781 "/>
<path style=" stroke:none;fill-rule:nonzero;fill:rgb(83.92157%,19.215687%,20%);fill-opacity:1;" d="M 47.6875 53.960938 C 45.675781 55.300781 45.164062 55.359375 42.863281 55.292969 C 42.101562 55.277344 42.101562 55.277344 41.324219 55.261719 C 40.746094 55.238281 40.746094 55.238281 40.15625 55.214844 C 42.511719 52.859375 44.558594 53.320312 47.6875 53.960938 Z M 47.6875 53.960938 "/>
<path style=" stroke:none;fill-rule:nonzero;fill:rgb(55.29412%,14.901961%,14.117648%);fill-opacity:1;" d="M 26.980469 37.019531 C 26.566406 37.433594 26.152344 37.847656 25.726562 38.273438 C 25.726562 38.894531 25.726562 39.515625 25.726562 40.15625 C 25.105469 40.15625 24.484375 40.15625 23.84375 40.15625 C 23.636719 39.121094 23.429688 38.085938 23.214844 37.019531 C 24.777344 36.238281 25.355469 36.53125 26.980469 37.019531 Z M 26.980469 37.019531 "/>
<path style=" stroke:none;fill-rule:nonzero;fill:rgb(9.803922%,54.901963%,49.019608%);fill-opacity:1;" d="M 8.785156 17.570312 C 8.785156 19.226562 8.785156 20.882812 8.785156 22.589844 C 8.578125 21.761719 8.371094 20.933594 8.15625 20.078125 C 6.695312 20.679688 6.695312 20.679688 5.648438 22.589844 C 5.84375 20.785156 5.84375 20.785156 6.273438 18.824219 C 8.15625 17.570312 8.15625 17.570312 8.785156 17.570312 Z M 8.785156 17.570312 "/>
<path style=" stroke:none;fill-rule:nonzero;fill:rgb(23.921569%,31.37255%,30.19608%);fill-opacity:1;" d="M 52.707031 53.332031 C 52.078125 55.214844 52.078125 55.214844 50.195312 56.46875 C 49.574219 56.261719 48.953125 56.054688 48.3125 55.84375 C 48.3125 55.429688 48.3125 55.015625 48.3125 54.589844 C 51.292969 53.332031 51.292969 53.332031 52.707031 53.332031 Z M 52.707031 53.332031 "/>
<path style=" stroke:none;fill-rule:nonzero;fill:rgb(78.039217%,18.82353%,18.82353%);fill-opacity:1;" d="M 52.078125 33.253906 C 52.492188 33.460938 52.90625 33.667969 53.332031 33.882812 C 53.726562 35.175781 53.726562 35.175781 53.960938 36.390625 C 53.339844 36.390625 52.71875 36.390625 52.078125 36.390625 C 51.664062 35.5625 51.25 34.734375 50.824219 33.882812 C 51.238281 33.675781 51.652344 33.46875 52.078125 33.253906 Z M 52.078125 33.253906 "/>
<path style=" stroke:none;fill-rule:nonzero;fill:rgb(85.09804%,84.313726%,84.313726%);fill-opacity:1;" d="M 54.589844 23.214844 C 55.210938 23.421875 55.832031 23.628906 56.46875 23.84375 C 55.128906 25.386719 54.148438 26.160156 52.078125 26.351562 C 51.457031 25.9375 50.835938 25.523438 50.195312 25.097656 C 51.109375 24.808594 51.109375 24.808594 52.039062 24.511719 C 53.859375 24.035156 53.859375 24.035156 54.589844 23.214844 Z M 54.589844 23.214844 "/>
</g>
</svg>
